<?xml version="1.0" encoding="UTF-8" standalone="no"?><svg xmlns="http://www.w3.org/2000/svg" xmlns:xlink="http://www.w3.org/1999/xlink" contentScriptType="application/ecmascript" contentStyleType="text/css" height="572px" preserveAspectRatio="none" style="width:643px;height:572px;background:#FFFFFF;" version="1.1" viewBox="0 0 643 572" width="643px" zoomAndPan="magnify"><defs><filter height="300%" id="fojopyq3aqb17" width="300%" x="-1" y="-1"><feGaussianBlur result="blurOut" stdDeviation="2.0"/><feColorMatrix in="blurOut" result="blurOut2" type="matrix" values="0 0 0 0 0 0 0 0 0 0 0 0 0 0 0 0 0 0 .4 0"/><feOffset dx="4.0" dy="4.0" in="blurOut2" result="blurOut3"/><feBlend in="SourceGraphic" in2="blurOut3" mode="normal"/></filter></defs><g><!--MD5=[7d79250ee43b6a3e3892ad2ecbc2e2c5]
cluster AggregateUser--><polygon fill="#FFFFFF" filter="url(#fojopyq3aqb17)" points="17,6,129,6,136,29.6094,626,29.6094,626,492,17,492,17,6" style="stroke:#000000;stroke-width:1.5;"/><line style="stroke:#000000;stroke-width:1.5;" x1="17" x2="136" y1="29.6094" y2="29.6094"/><text fill="#000000" font-family="sans-serif" font-size="14" font-weight="bold" lengthAdjust="spacing" textLength="106" x="21" y="22.5332">AggregateUser</text><!--MD5=[3fd616f346a44cd59a91eb10b19e157c]
class User--><rect codeLine="6" fill="#FEFECE" filter="url(#fojopyq3aqb17)" height="70.0234" id="User" style="stroke:#A80036;stroke-width:1.5;" width="101" x="38" y="406"/><ellipse cx="53" cy="426.0938" fill="#ADD1B2" rx="11" ry="11" style="stroke:#A80036;stroke-width:1.0;"/><path d="M55,422.5938 Q55.2031,422.0938 55.4375,421.8438 Q55.6719,421.5938 55.9375,421.5938 Q56.4063,421.5938 56.7031,421.875 Q57,422.1563 57,422.8125 L57,424.375 Q57,425.0313 56.7188,425.3125 Q56.4375,425.5938 56,425.5938 Q55.6094,425.5938 55.3594,425.4219 Q55.1094,425.25 55,424.7969 Q54.9531,424.4844 54.7813,424.3125 Q54.4688,423.9844 53.9063,423.7969 Q53.3438,423.5938 52.7813,423.5938 Q52.0781,423.5938 51.4844,423.875 Q50.9063,424.1563 50.4531,424.7813 Q50,425.4063 50,426.2656 L50,427.1875 Q50,428.2188 50.8438,428.9063 Q51.6875,429.5938 53.1875,429.5938 Q54.0781,429.5938 54.7031,429.3906 Q55.0625,429.2813 55.4688,428.9219 Q55.7344,428.7188 55.875,428.6563 Q56.0156,428.5938 56.1875,428.5938 Q56.5156,428.5938 56.75,428.8594 Q57,429.1094 57,429.4688 Q57,429.8125 56.6563,430.2188 Q56.1563,430.8125 55.3594,431.1406 Q54.3125,431.5938 53.0313,431.5938 Q51.5313,431.5938 50.3281,431 Q49.3594,430.5313 48.6719,429.5156 Q48,428.5 48,427.2969 L48,426.2031 Q48,424.9531 48.5938,423.8594 Q49.2031,422.7656 50.25,422.1875 Q51.3125,421.5938 52.5,421.5938 Q53.2188,421.5938 53.8438,421.8438 Q54.4688,422.0938 55,422.5938 Z " fill="#000000"/><text fill="#000000" font-family="sans-serif" font-size="12" font-style="italic" lengthAdjust="spacing" textLength="73" x="65" y="423.457">«Entity Root»</text><text fill="#000000" font-family="sans-serif" font-size="12" lengthAdjust="spacing" textLength="27" x="88" y="438.5508">User</text><line style="stroke:#A80036;stroke-width:1.5;" x1="39" x2="138" y1="446.1875" y2="446.1875"/><ellipse cx="49" cy="457.1875" fill="none" rx="3" ry="3" style="stroke:#038048;stroke-width:1.0;"/><text fill="#000000" font-family="sans-serif" font-size="11" lengthAdjust="spacing" textLength="66" x="58" y="461.6064">Boolean state</text><line style="stroke:#A80036;stroke-width:1.5;" x1="39" x2="138" y1="468.0234" y2="468.0234"/><!--MD5=[8bec2efb6b36f73673290f7dc52c44e7]
class UserRoles--><rect codeLine="10" fill="#FEFECE" filter="url(#fojopyq3aqb17)" height="70.0234" id="UserRoles" style="stroke:#A80036;stroke-width:1.5;" width="111" x="204" y="405"/><ellipse cx="219" cy="425.0938" fill="#EB937F" rx="11" ry="11" style="stroke:#A80036;stroke-width:1.0;"/><path d="M217.5,426.0938 L217.5,428.0938 L221.5,428.0938 L221.5,427.0938 L221.5,426.6094 L222.125,426.0938 L222.5,426.0938 L222.875,426.0938 L223.5,426.6094 L223.5,427.0938 L223.5,430.0938 L215.5,430.0938 L215.0156,430.0938 L214.5,429.4688 L214.5,429.0938 L214.5,428.7188 L215.0156,428.0938 L215.5,428.0938 L215.5,428.0938 L215.5,422.0938 L215.5,422.0938 L215.0156,422.0938 L214.5,421.4688 L214.5,421.0938 L214.5,420.7188 L215.0156,420.0938 L215.5,420.0938 L223.5,420.0938 L223.5,423.0938 L223.5,423.5781 L222.875,424.0938 L222.5,424.0938 L222.125,424.0938 L221.5,423.5781 L221.5,423.0938 L221.5,422.0938 L217.5,422.0938 L217.5,424.0938 L218.5,424.0938 L218.5,423.6094 L218.5,423.6094 L219.125,423.0938 L219.5,423.0938 L219.875,423.0938 L220.5,423.6094 L220.5,424.0938 L220.5,426.0938 L220.5,426.5781 L219.875,427.0938 L219.875,427.0938 L219.5,427.0938 L219.125,427.0938 L218.5,426.5781 L218.5,426.5781 L218.5,426.0938 L217.5,426.0938 Z " fill="#000000"/><text fill="#000000" font-family="sans-serif" font-size="12" font-style="italic" lengthAdjust="spacing" textLength="83" x="231" y="422.457">«Value object»</text><text fill="#000000" font-family="sans-serif" font-size="12" lengthAdjust="spacing" textLength="60" x="242.5" y="437.5508">UserRoles</text><line style="stroke:#A80036;stroke-width:1.5;" x1="205" x2="314" y1="445.1875" y2="445.1875"/><ellipse cx="215" cy="456.1875" fill="none" rx="3" ry="3" style="stroke:#038048;stroke-width:1.0;"/><text fill="#000000" font-family="sans-serif" font-size="11" lengthAdjust="spacing" textLength="82" x="224" y="460.6064">enum description</text><line style="stroke:#A80036;stroke-width:1.5;" x1="205" x2="314" y1="467.0234" y2="467.0234"/><path d="M375,418.5 L375,436 L315.01,440 L375,444 L375,461.2031 A0,0 0 0 0 375,461.2031 L610,461.2031 A0,0 0 0 0 610,461.2031 L610,428.5 L600,418.5 L375,418.5 A0,0 0 0 0 375,418.5 " fill="#FBFB77" filter="url(#fojopyq3aqb17)" style="stroke:#A80036;stroke-width:1.0;"/><path d="M600,418.5 L600,428.5 L610,428.5 L600,418.5 " fill="#FBFB77" style="stroke:#A80036;stroke-width:1.0;"/><text fill="#000000" font-family="sans-serif" font-size="13" lengthAdjust="spacing" textLength="210" x="381" y="436.9951">Sales Clerck,Admin,Sales Manager,</text><text fill="#000000" font-family="sans-serif" font-size="13" lengthAdjust="spacing" textLength="186" x="385" y="453.3467">Costumer,Warehouse employee</text><!--MD5=[2f01b1126ff33a0669651ec2488a5ef9]
class Password--><rect fill="#FEFECE" filter="url(#fojopyq3aqb17)" height="56.1875" id="Password" style="stroke:#A80036;stroke-width:1.5;" width="111" x="33" y="42"/><ellipse cx="48" cy="62.0938" fill="#ADD1B2" rx="11" ry="11" style="stroke:#A80036;stroke-width:1.0;"/><path d="M50,58.5938 Q50.2031,58.0938 50.4375,57.8438 Q50.6719,57.5938 50.9375,57.5938 Q51.4063,57.5938 51.7031,57.875 Q52,58.1563 52,58.8125 L52,60.375 Q52,61.0313 51.7188,61.3125 Q51.4375,61.5938 51,61.5938 Q50.6094,61.5938 50.3594,61.4219 Q50.1094,61.25 50,60.7969 Q49.9531,60.4844 49.7813,60.3125 Q49.4688,59.9844 48.9063,59.7969 Q48.3438,59.5938 47.7813,59.5938 Q47.0781,59.5938 46.4844,59.875 Q45.9063,60.1563 45.4531,60.7813 Q45,61.4063 45,62.2656 L45,63.1875 Q45,64.2188 45.8438,64.9063 Q46.6875,65.5938 48.1875,65.5938 Q49.0781,65.5938 49.7031,65.3906 Q50.0625,65.2813 50.4688,64.9219 Q50.7344,64.7188 50.875,64.6563 Q51.0156,64.5938 51.1875,64.5938 Q51.5156,64.5938 51.75,64.8594 Q52,65.1094 52,65.4688 Q52,65.8125 51.6563,66.2188 Q51.1563,66.8125 50.3594,67.1406 Q49.3125,67.5938 48.0313,67.5938 Q46.5313,67.5938 45.3281,67 Q44.3594,66.5313 43.6719,65.5156 Q43,64.5 43,63.2969 L43,62.2031 Q43,60.9531 43.5938,59.8594 Q44.2031,58.7656 45.25,58.1875 Q46.3125,57.5938 47.5,57.5938 Q48.2188,57.5938 48.8438,57.8438 Q49.4688,58.0938 50,58.5938 Z " fill="#000000"/><text fill="#000000" font-family="sans-serif" font-size="12" font-style="italic" lengthAdjust="spacing" textLength="83" x="60" y="59.457">«Value object»</text><text fill="#000000" font-family="sans-serif" font-size="12" lengthAdjust="spacing" textLength="56" x="73.5" y="74.5508">Password</text><line style="stroke:#A80036;stroke-width:1.5;" x1="34" x2="143" y1="82.1875" y2="82.1875"/><line style="stroke:#A80036;stroke-width:1.5;" x1="34" x2="143" y1="90.1875" y2="90.1875"/><!--MD5=[78bec0fde86ad92ec1dc3fb343b83709]
class Email--><rect fill="#FEFECE" filter="url(#fojopyq3aqb17)" height="56.1875" id="Email" style="stroke:#A80036;stroke-width:1.5;" width="111" x="33" y="133"/><ellipse cx="48" cy="153.0938" fill="#ADD1B2" rx="11" ry="11" style="stroke:#A80036;stroke-width:1.0;"/><path d="M50,149.5938 Q50.2031,149.0938 50.4375,148.8438 Q50.6719,148.5938 50.9375,148.5938 Q51.4063,148.5938 51.7031,148.875 Q52,149.1563 52,149.8125 L52,151.375 Q52,152.0313 51.7188,152.3125 Q51.4375,152.5938 51,152.5938 Q50.6094,152.5938 50.3594,152.4219 Q50.1094,152.25 50,151.7969 Q49.9531,151.4844 49.7813,151.3125 Q49.4688,150.9844 48.9063,150.7969 Q48.3438,150.5938 47.7813,150.5938 Q47.0781,150.5938 46.4844,150.875 Q45.9063,151.1563 45.4531,151.7813 Q45,152.4063 45,153.2656 L45,154.1875 Q45,155.2188 45.8438,155.9063 Q46.6875,156.5938 48.1875,156.5938 Q49.0781,156.5938 49.7031,156.3906 Q50.0625,156.2813 50.4688,155.9219 Q50.7344,155.7188 50.875,155.6563 Q51.0156,155.5938 51.1875,155.5938 Q51.5156,155.5938 51.75,155.8594 Q52,156.1094 52,156.4688 Q52,156.8125 51.6563,157.2188 Q51.1563,157.8125 50.3594,158.1406 Q49.3125,158.5938 48.0313,158.5938 Q46.5313,158.5938 45.3281,158 Q44.3594,157.5313 43.6719,156.5156 Q43,155.5 43,154.2969 L43,153.2031 Q43,151.9531 43.5938,150.8594 Q44.2031,149.7656 45.25,149.1875 Q46.3125,148.5938 47.5,148.5938 Q48.2188,148.5938 48.8438,148.8438 Q49.4688,149.0938 50,149.5938 Z " fill="#000000"/><text fill="#000000" font-family="sans-serif" font-size="12" font-style="italic" lengthAdjust="spacing" textLength="83" x="60" y="150.457">«Value object»</text><text fill="#000000" font-family="sans-serif" font-size="12" lengthAdjust="spacing" textLength="32" x="85.5" y="165.5508">Email</text><line style="stroke:#A80036;stroke-width:1.5;" x1="34" x2="143" y1="173.1875" y2="173.1875"/><line style="stroke:#A80036;stroke-width:1.5;" x1="34" x2="143" y1="181.1875" y2="181.1875"/><!--MD5=[a4ea2dcb44ebd57046df9af95d8b8c12]
class Gender--><rect fill="#FEFECE" filter="url(#fojopyq3aqb17)" height="56.1875" id="Gender" style="stroke:#A80036;stroke-width:1.5;" width="111" x="33" y="224"/><ellipse cx="48" cy="244.0938" fill="#ADD1B2" rx="11" ry="11" style="stroke:#A80036;stroke-width:1.0;"/><path d="M50,240.5938 Q50.2031,240.0938 50.4375,239.8438 Q50.6719,239.5938 50.9375,239.5938 Q51.4063,239.5938 51.7031,239.875 Q52,240.1563 52,240.8125 L52,242.375 Q52,243.0313 51.7188,243.3125 Q51.4375,243.5938 51,243.5938 Q50.6094,243.5938 50.3594,243.4219 Q50.1094,243.25 50,242.7969 Q49.9531,242.4844 49.7813,242.3125 Q49.4688,241.9844 48.9063,241.7969 Q48.3438,241.5938 47.7813,241.5938 Q47.0781,241.5938 46.4844,241.875 Q45.9063,242.1563 45.4531,242.7813 Q45,243.4063 45,244.2656 L45,245.1875 Q45,246.2188 45.8438,246.9063 Q46.6875,247.5938 48.1875,247.5938 Q49.0781,247.5938 49.7031,247.3906 Q50.0625,247.2813 50.4688,246.9219 Q50.7344,246.7188 50.875,246.6563 Q51.0156,246.5938 51.1875,246.5938 Q51.5156,246.5938 51.75,246.8594 Q52,247.1094 52,247.4688 Q52,247.8125 51.6563,248.2188 Q51.1563,248.8125 50.3594,249.1406 Q49.3125,249.5938 48.0313,249.5938 Q46.5313,249.5938 45.3281,249 Q44.3594,248.5313 43.6719,247.5156 Q43,246.5 43,245.2969 L43,244.2031 Q43,242.9531 43.5938,241.8594 Q44.2031,240.7656 45.25,240.1875 Q46.3125,239.5938 47.5,239.5938 Q48.2188,239.5938 48.8438,239.8438 Q49.4688,240.0938 50,240.5938 Z " fill="#000000"/><text fill="#000000" font-family="sans-serif" font-size="12" font-style="italic" lengthAdjust="spacing" textLength="83" x="60" y="241.457">«Value object»</text><text fill="#000000" font-family="sans-serif" font-size="12" lengthAdjust="spacing" textLength="41" x="81" y="256.5508">Gender</text><line style="stroke:#A80036;stroke-width:1.5;" x1="34" x2="143" y1="264.1875" y2="264.1875"/><line style="stroke:#A80036;stroke-width:1.5;" x1="34" x2="143" y1="272.1875" y2="272.1875"/><!--MD5=[53f6a92bd21ca2f2960392a061f3a1c6]
class Name--><rect fill="#FEFECE" filter="url(#fojopyq3aqb17)" height="56.1875" id="Name" style="stroke:#A80036;stroke-width:1.5;" width="111" x="33" y="315"/><ellipse cx="48" cy="335.0938" fill="#ADD1B2" rx="11" ry="11" style="stroke:#A80036;stroke-width:1.0;"/><path d="M50,331.5938 Q50.2031,331.0938 50.4375,330.8438 Q50.6719,330.5938 50.9375,330.5938 Q51.4063,330.5938 51.7031,330.875 Q52,331.1563 52,331.8125 L52,333.375 Q52,334.0313 51.7188,334.3125 Q51.4375,334.5938 51,334.5938 Q50.6094,334.5938 50.3594,334.4219 Q50.1094,334.25 50,333.7969 Q49.9531,333.4844 49.7813,333.3125 Q49.4688,332.9844 48.9063,332.7969 Q48.3438,332.5938 47.7813,332.5938 Q47.0781,332.5938 46.4844,332.875 Q45.9063,333.1563 45.4531,333.7813 Q45,334.4063 45,335.2656 L45,336.1875 Q45,337.2188 45.8438,337.9063 Q46.6875,338.5938 48.1875,338.5938 Q49.0781,338.5938 49.7031,338.3906 Q50.0625,338.2813 50.4688,337.9219 Q50.7344,337.7188 50.875,337.6563 Q51.0156,337.5938 51.1875,337.5938 Q51.5156,337.5938 51.75,337.8594 Q52,338.1094 52,338.4688 Q52,338.8125 51.6563,339.2188 Q51.1563,339.8125 50.3594,340.1406 Q49.3125,340.5938 48.0313,340.5938 Q46.5313,340.5938 45.3281,340 Q44.3594,339.5313 43.6719,338.5156 Q43,337.5 43,336.2969 L43,335.2031 Q43,333.9531 43.5938,332.8594 Q44.2031,331.7656 45.25,331.1875 Q46.3125,330.5938 47.5,330.5938 Q48.2188,330.5938 48.8438,330.8438 Q49.4688,331.0938 50,331.5938 Z " fill="#000000"/><text fill="#000000" font-family="sans-serif" font-size="12" font-style="italic" lengthAdjust="spacing" textLength="83" x="60" y="332.457">«Value object»</text><text fill="#000000" font-family="sans-serif" font-size="12" lengthAdjust="spacing" textLength="34" x="84.5" y="347.5508">Name</text><line style="stroke:#A80036;stroke-width:1.5;" x1="34" x2="143" y1="355.1875" y2="355.1875"/><line style="stroke:#A80036;stroke-width:1.5;" x1="34" x2="143" y1="363.1875" y2="363.1875"/><!--MD5=[4ef588c4d1404d1058d28903bdac637c]
class Costumer--><rect codeLine="28" fill="#FEFECE" filter="url(#fojopyq3aqb17)" height="48" id="Costumer" style="stroke:#A80036;stroke-width:1.5;" width="87" x="216" y="510"/><ellipse cx="231" cy="526" fill="#ADD1B2" rx="11" ry="11" style="stroke:#A80036;stroke-width:1.0;"/><path d="M233,522.5 Q233.2031,522 233.4375,521.75 Q233.6719,521.5 233.9375,521.5 Q234.4063,521.5 234.7031,521.7813 Q235,522.0625 235,522.7188 L235,524.2813 Q235,524.9375 234.7188,525.2188 Q234.4375,525.5 234,525.5 Q233.6094,525.5 233.3594,525.3281 Q233.1094,525.1563 233,524.7031 Q232.9531,524.3906 232.7813,524.2188 Q232.4688,523.8906 231.9063,523.7031 Q231.3438,523.5 230.7813,523.5 Q230.0781,523.5 229.4844,523.7813 Q228.9063,524.0625 228.4531,524.6875 Q228,525.3125 228,526.1719 L228,527.0938 Q228,528.125 228.8438,528.8125 Q229.6875,529.5 231.1875,529.5 Q232.0781,529.5 232.7031,529.2969 Q233.0625,529.1875 233.4688,528.8281 Q233.7344,528.625 233.875,528.5625 Q234.0156,528.5 234.1875,528.5 Q234.5156,528.5 234.75,528.7656 Q235,529.0156 235,529.375 Q235,529.7188 234.6563,530.125 Q234.1563,530.7188 233.3594,531.0469 Q232.3125,531.5 231.0313,531.5 Q229.5313,531.5 228.3281,530.9063 Q227.3594,530.4375 226.6719,529.4219 Q226,528.4063 226,527.2031 L226,526.1094 Q226,524.8594 226.5938,523.7656 Q227.2031,522.6719 228.25,522.0938 Q229.3125,521.5 230.5,521.5 Q231.2188,521.5 231.8438,521.75 Q232.4688,522 233,522.5 Z " fill="#000000"/><text fill="#000000" font-family="sans-serif" font-size="12" lengthAdjust="spacing" textLength="55" x="245" y="530.9102">Costumer</text><line style="stroke:#A80036;stroke-width:1.5;" x1="217" x2="302" y1="542" y2="542"/><line style="stroke:#A80036;stroke-width:1.5;" x1="217" x2="302" y1="550" y2="550"/><!--MD5=[625ad5033cd9c1d33877f5c57e806297]
link User to UserRoles--><path codeLine="21" d="M139.34,440.5 C139.34,440.5 198.78,440.5 198.78,440.5 " fill="none" id="User-to-UserRoles" style="stroke:#A80036;stroke-width:1.0;"/><polygon fill="#A80036" points="203.78,440.5,194.78,436.5,198.78,440.5,194.78,444.5,203.78,440.5" style="stroke:#A80036;stroke-width:1.0;"/><text fill="#000000" font-family="sans-serif" font-size="13" lengthAdjust="spacing" textLength="20" x="176.1811" y="454.9969">1..*</text><!--MD5=[5ab1f46e477a8163e64d30b24bef4255]
link User to Password--><path codeLine="22" d="M25.66,458.5 C25.66,458.5 6,458.5 6,458.5 C6,458.5 6,70 6,70 C6,70 19.56,70 19.56,70 " fill="none" id="User-Password" style="stroke:#A80036;stroke-width:1.0;"/><polygon fill="#A80036" points="32.56,70,23.56,66,27.56,70,23.56,74,32.56,70" style="stroke:#A80036;stroke-width:1.0;"/><line style="stroke:#A80036;stroke-width:1.0;" x1="27.56" x2="19.56" y1="70" y2="70"/><polygon fill="#A80036" points="37.66,458.5,31.66,454.5,25.66,458.5,31.66,462.5,37.66,458.5" style="stroke:#A80036;stroke-width:1.0;"/><text fill="#000000" font-family="sans-serif" font-size="13" lengthAdjust="spacing" textLength="7" x="17.9443" y="84.5306">1</text><!--MD5=[dbc364445409b51c9b407d19a07b4adf]
link User to Email--><path codeLine="23" d="M25.85,441 C25.85,441 15,441 15,441 C15,441 15,161 15,161 C15,161 19.79,161 19.79,161 " fill="none" id="User-Email" style="stroke:#A80036;stroke-width:1.0;"/><polygon fill="#A80036" points="32.79,161,23.79,157,27.79,161,23.79,165,32.79,161" style="stroke:#A80036;stroke-width:1.0;"/><line style="stroke:#A80036;stroke-width:1.0;" x1="27.79" x2="19.79" y1="161" y2="161"/><polygon fill="#A80036" points="37.85,441,31.85,437,25.85,441,31.85,445,37.85,441" style="stroke:#A80036;stroke-width:1.0;"/><text fill="#000000" font-family="sans-serif" font-size="13" lengthAdjust="spacing" textLength="7" x="17.8337" y="175.5811">1</text><!--MD5=[9f4cabdea25f9471991fc9697a223bc1]
link User to Gender--><path codeLine="24" d="M26,423.5 C26,423.5 24,423.5 24,423.5 C24,423.5 24,252 24,252 C24,252 24.9,252 24.9,252 " fill="none" id="User-Gender" style="stroke:#A80036;stroke-width:1.0;"/><polygon fill="#A80036" points="32.97,252,23.97,248,27.97,252,23.97,256,32.97,252" style="stroke:#A80036;stroke-width:1.0;"/><line style="stroke:#A80036;stroke-width:1.0;" x1="27.97" x2="19.97" y1="252" y2="252"/><polygon fill="#A80036" points="38,423.5,32,419.5,26,423.5,32,427.5,38,423.5" style="stroke:#A80036;stroke-width:1.0;"/><text fill="#000000" font-family="sans-serif" font-size="13" lengthAdjust="spacing" textLength="7" x="18.0378" y="266.5811">1</text><!--MD5=[0a0c22abab0b6a2b3d71e15ac743b391]
link User to Name--><path codeLine="25" d="M89,393.9 C89,393.9 89,384.11 89,384.11 " fill="none" id="User-Name" style="stroke:#A80036;stroke-width:1.0;"/><polygon fill="#A80036" points="89,371.11,85,380.11,89,376.11,93,380.11,89,371.11" style="stroke:#A80036;stroke-width:1.0;"/><line style="stroke:#A80036;stroke-width:1.0;" x1="89" x2="89" y1="376.11" y2="384.11"/><polygon fill="#A80036" points="89,405.9,93,399.9,89,393.9,85,399.9,89,405.9" style="stroke:#A80036;stroke-width:1.0;"/><text fill="#000000" font-family="sans-serif" font-size="13" lengthAdjust="spacing" textLength="7" x="81.4281" y="395.2105">1</text><!--MD5=[e8d4aaa3f174b640a22118d245cb6c5a]
reverse link User to Costumer--><path codeLine="26" d="M89,496.16 C89,496.16 89,534 89,534 C89,534 165.07,534 215.59,534 " fill="none" id="User-backto-Costumer" style="stroke:#A80036;stroke-width:1.0;"/><polygon fill="none" points="82,496.16,89,476.16,96,496.16,82,496.16" style="stroke:#A80036;stroke-width:1.0;"/><!--MD5=[1df4de726773537c95b1785e7ad1c8ee]
@startuml
left to right direction
skinparam linetype ortho

package AggregateUser{

class User <<Entity Root>> {
  +Boolean state
}

Enum UserRoles <<Value object>> {
  +enum description
}
note right : Sales Clerck,Admin,Sales Manager, \n Costumer,Warehouse employee

Password <<Value object>>
Email <<Value object>>
Gender <<Value object>>
Name <<Value object>>

}
User - ->"1..*" UserRoles
User *->"1" Password
User *->"1" Email
User *->"1" Gender
User *->"1" Name
User <|-down- Costumer

class Costumer {
}
@enduml

PlantUML version 1.2022.1(Tue Feb 01 18:19:58 GMT 2022)
(GPL source distribution)
Java Runtime: OpenJDK Runtime Environment
JVM: OpenJDK 64-Bit Server VM
Default Encoding: Cp1252
Language: pt
Country: PT
--></g></svg>