<?xml version="1.0" encoding="UTF-8" standalone="no"?><svg xmlns="http://www.w3.org/2000/svg" xmlns:xlink="http://www.w3.org/1999/xlink" contentStyleType="text/css" height="397px" preserveAspectRatio="none" style="width:729px;height:397px;background:#FFFFFF;" version="1.1" viewBox="0 0 729 397" width="729px" zoomAndPan="magnify"><defs/><g><rect fill="#FFFFFF" height="87.7031" style="stroke:#181818;stroke-width:1.0;" width="10" x="320" y="143.2734"/><rect fill="#FFFFFF" height="125.0547" style="stroke:#181818;stroke-width:1.0;" width="10" x="502.5" y="200.625"/><rect height="136.4063" style="stroke:#000000;stroke-width:1.5;fill:none;" width="600" x="10" y="102.5703"/><line style="stroke:#181818;stroke-width:0.5;fill:none;stroke-dasharray:5.0,5.0;" x1="73" x2="73" y1="55.2188" y2="343.6797"/><line style="stroke:#181818;stroke-width:0.5;fill:none;stroke-dasharray:5.0,5.0;" x1="185" x2="185" y1="55.2188" y2="343.6797"/><line style="stroke:#181818;stroke-width:0.5;fill:none;stroke-dasharray:5.0,5.0;" x1="325" x2="325" y1="55.2188" y2="343.6797"/><line style="stroke:#181818;stroke-width:0.5;fill:none;stroke-dasharray:5.0,5.0;" x1="507" x2="507" y1="55.2188" y2="343.6797"/><line style="stroke:#181818;stroke-width:0.5;fill:none;stroke-dasharray:5.0,5.0;" x1="666" x2="666" y1="55.2188" y2="343.6797"/><rect fill="#E2E2F0" height="49.2188" rx="2.5" ry="2.5" style="stroke:#181818;stroke-width:0.5;" width="106" x="20" y="5"/><text fill="#000000" font-family="sans-serif" font-size="14" font-style="italic" lengthAdjust="spacing" textLength="49" x="48.5" y="26.5332">«client»</text><text fill="#000000" font-family="sans-serif" font-size="14" lengthAdjust="spacing" textLength="92" x="27" y="44.1426">AgvDigitalTwin</text><rect fill="#E2E2F0" height="49.2188" rx="2.5" ry="2.5" style="stroke:#181818;stroke-width:0.5;" width="106" x="20" y="342.6797"/><text fill="#000000" font-family="sans-serif" font-size="14" font-style="italic" lengthAdjust="spacing" textLength="49" x="48.5" y="364.2129">«client»</text><text fill="#000000" font-family="sans-serif" font-size="14" lengthAdjust="spacing" textLength="92" x="27" y="381.8223">AgvDigitalTwin</text><rect fill="#E2E2F0" height="31.6094" rx="2.5" ry="2.5" style="stroke:#181818;stroke-width:0.5;" width="99" x="136" y="22.6094"/><text fill="#000000" font-family="sans-serif" font-size="14" lengthAdjust="spacing" textLength="85" x="143" y="44.1426">AVGManager</text><rect fill="#E2E2F0" height="31.6094" rx="2.5" ry="2.5" style="stroke:#181818;stroke-width:0.5;" width="99" x="136" y="342.6797"/><text fill="#000000" font-family="sans-serif" font-size="14" lengthAdjust="spacing" textLength="85" x="143" y="364.2129">AVGManager</text><rect fill="#E2E2F0" height="31.6094" rx="2.5" ry="2.5" style="stroke:#181818;stroke-width:0.5;" width="160" x="245" y="22.6094"/><text fill="#000000" font-family="sans-serif" font-size="14" lengthAdjust="spacing" textLength="146" x="252" y="44.1426">TcpServerAgvManager</text><rect fill="#E2E2F0" height="31.6094" rx="2.5" ry="2.5" style="stroke:#181818;stroke-width:0.5;" width="160" x="245" y="342.6797"/><text fill="#000000" font-family="sans-serif" font-size="14" lengthAdjust="spacing" textLength="146" x="252" y="364.2129">TcpServerAgvManager</text><rect fill="#E2E2F0" height="49.2188" rx="2.5" ry="2.5" style="stroke:#181818;stroke-width:0.5;" width="185" x="415" y="5"/><text fill="#000000" font-family="sans-serif" font-size="14" font-style="italic" lengthAdjust="spacing" textLength="57" x="479" y="26.5332">«thread»</text><text fill="#000000" font-family="sans-serif" font-size="14" lengthAdjust="spacing" textLength="171" x="422" y="44.1426">TcpSrvAgvManagerThread</text><rect fill="#E2E2F0" height="49.2188" rx="2.5" ry="2.5" style="stroke:#181818;stroke-width:0.5;" width="185" x="415" y="342.6797"/><text fill="#000000" font-family="sans-serif" font-size="14" font-style="italic" lengthAdjust="spacing" textLength="57" x="479" y="364.2129">«thread»</text><text fill="#000000" font-family="sans-serif" font-size="14" lengthAdjust="spacing" textLength="171" x="422" y="381.8223">TcpSrvAgvManagerThread</text><rect fill="#E2E2F0" height="31.6094" rx="2.5" ry="2.5" style="stroke:#181818;stroke-width:0.5;" width="113" x="610" y="22.6094"/><text fill="#000000" font-family="sans-serif" font-size="14" lengthAdjust="spacing" textLength="99" x="617" y="44.1426">MessageParser</text><rect fill="#E2E2F0" height="31.6094" rx="2.5" ry="2.5" style="stroke:#181818;stroke-width:0.5;" width="113" x="610" y="342.6797"/><text fill="#000000" font-family="sans-serif" font-size="14" lengthAdjust="spacing" textLength="99" x="617" y="364.2129">MessageParser</text><rect fill="#FFFFFF" height="87.7031" style="stroke:#181818;stroke-width:1.0;" width="10" x="320" y="143.2734"/><rect fill="#FFFFFF" height="125.0547" style="stroke:#181818;stroke-width:1.0;" width="10" x="502.5" y="200.625"/><polygon fill="#181818" points="313,83.5703,323,87.5703,313,91.5703,317,87.5703" style="stroke:#181818;stroke-width:1.0;"/><line style="stroke:#181818;stroke-width:1.0;" x1="185.5" x2="319" y1="87.5703" y2="87.5703"/><text fill="#000000" font-family="sans-serif" font-size="13" lengthAdjust="spacing" textLength="23" x="192.5" y="82.7139">new</text><path d="M10,102.5703 L83,102.5703 L83,110.9219 L73,120.9219 L10,120.9219 L10,102.5703 " fill="#EEEEEE" style="stroke:#000000;stroke-width:1.5;"/><rect fill="none" height="136.4063" style="stroke:#000000;stroke-width:1.5;" width="600" x="10" y="102.5703"/><text fill="#000000" font-family="sans-serif" font-size="13" font-weight="bold" lengthAdjust="spacing" textLength="28" x="25" y="117.0654">loop</text><text fill="#000000" font-family="sans-serif" font-size="11" font-weight="bold" lengthAdjust="spacing" textLength="31" x="98" y="115.9893">[true]</text><polygon fill="#181818" points="308,139.2734,318,143.2734,308,147.2734,312,143.2734" style="stroke:#181818;stroke-width:1.0;"/><line style="stroke:#181818;stroke-width:1.0;" x1="185.5" x2="314" y1="143.2734" y2="143.2734"/><text fill="#000000" font-family="sans-serif" font-size="13" lengthAdjust="spacing" textLength="26" x="192.5" y="138.417">start</text><line style="stroke:#181818;stroke-width:1.0;" x1="330" x2="372" y1="173.625" y2="173.625"/><line style="stroke:#181818;stroke-width:1.0;" x1="372" x2="372" y1="173.625" y2="186.625"/><line style="stroke:#181818;stroke-width:1.0;" x1="331" x2="372" y1="186.625" y2="186.625"/><polygon fill="#181818" points="341,182.625,331,186.625,341,190.625,337,186.625" style="stroke:#181818;stroke-width:1.0;"/><text fill="#000000" font-family="sans-serif" font-size="13" lengthAdjust="spacing" textLength="39" x="337" y="168.7686">accept</text><polygon fill="#181818" points="308,196.625,318,200.625,308,204.625,312,200.625" style="stroke:#181818;stroke-width:1.0;"/><line style="stroke:#181818;stroke-width:1.0;stroke-dasharray:2.0,2.0;" x1="73" x2="314" y1="200.625" y2="200.625"/><polygon fill="#181818" points="490.5,226.9766,500.5,230.9766,490.5,230.9766" style="stroke:#181818;stroke-width:1.0;"/><line style="stroke:#181818;stroke-width:1.0;" x1="325" x2="501.5" y1="230.9766" y2="230.9766"/><text fill="#000000" font-family="sans-serif" font-size="13" lengthAdjust="spacing" textLength="26" x="332" y="226.1201">start</text><polygon fill="#181818" points="654.5,264.3281,664.5,268.3281,654.5,272.3281,658.5,268.3281" style="stroke:#181818;stroke-width:1.0;"/><line style="stroke:#181818;stroke-width:1.0;" x1="512.5" x2="660.5" y1="268.3281" y2="268.3281"/><text fill="#000000" font-family="sans-serif" font-size="13" lengthAdjust="spacing" textLength="32" x="519.5" y="263.4717">parse</text><line style="stroke:#181818;stroke-width:1.0;" x1="512.5" x2="554.5" y1="298.6797" y2="298.6797"/><line style="stroke:#181818;stroke-width:1.0;" x1="554.5" x2="554.5" y1="298.6797" y2="311.6797"/><line style="stroke:#181818;stroke-width:1.0;" x1="513.5" x2="554.5" y1="311.6797" y2="311.6797"/><polygon fill="#181818" points="523.5,307.6797,513.5,311.6797,523.5,315.6797,519.5,311.6797" style="stroke:#181818;stroke-width:1.0;"/><text fill="#000000" font-family="sans-serif" font-size="13" lengthAdjust="spacing" textLength="46" x="519.5" y="293.8232">execute</text><polygon fill="#181818" points="84,321.6797,74,325.6797,84,329.6797,80,325.6797" style="stroke:#181818;stroke-width:1.0;"/><line style="stroke:#181818;stroke-width:1.0;stroke-dasharray:2.0,2.0;" x1="78" x2="506.5" y1="325.6797" y2="325.6797"/><!--MD5=[a89d894c9d79a95dd6cdcb9e89bb2c57]
@startuml

participant AgvDigitalTwin <<client>>

AVGManager -> TcpServerAgvManager : new
loop true
AVGManager -> TcpServerAgvManager: start
Activate TcpServerAgvManager
TcpServerAgvManager -> TcpServerAgvManager: accept

AgvDigitalTwin - -> TcpServerAgvManager

participant TcpSrvAgvManagerThread <<thread>>
activate TcpSrvAgvManagerThread
TcpServerAgvManager -\ TcpSrvAgvManagerThread: start
deactivate TcpServerAgvManager
end

TcpSrvAgvManagerThread -> MessageParser:parse
TcpSrvAgvManagerThread -> TcpSrvAgvManagerThread: execute

TcpSrvAgvManagerThread - -> AgvDigitalTwin
deactivate TcpSrvAgvManagerThread

@enduml

PlantUML version 1.2022.4(Sat Apr 09 14:29:17 BST 2022)
(GPL source distribution)
Java Runtime: OpenJDK Runtime Environment
JVM: OpenJDK 64-Bit Server VM
Default Encoding: Cp1252
Language: pt
Country: PT
--></g></svg>