<?xml version="1.0" encoding="UTF-8" standalone="no"?><svg xmlns="http://www.w3.org/2000/svg" xmlns:xlink="http://www.w3.org/1999/xlink" contentScriptType="application/ecmascript" contentStyleType="text/css" height="448px" preserveAspectRatio="none" style="width:824px;height:448px;background:#FFFFFF;" version="1.1" viewBox="0 0 824 448" width="824px" zoomAndPan="magnify"><defs><filter height="300%" id="fbu3xi31kyltm" width="300%" x="-1" y="-1"><feGaussianBlur result="blurOut" stdDeviation="2.0"/><feColorMatrix in="blurOut" result="blurOut2" type="matrix" values="0 0 0 0 0 0 0 0 0 0 0 0 0 0 0 0 0 0 .4 0"/><feOffset dx="4.0" dy="4.0" in="blurOut2" result="blurOut3"/><feBlend in="SourceGraphic" in2="blurOut3" mode="normal"/></filter></defs><g><rect fill="#FFFFFF" filter="url(#fbu3xi31kyltm)" height="61.7031" style="stroke:#000000;stroke-width:2.0;" width="352" x="458.5" y="228.0156"/><line style="stroke:#A80036;stroke-width:1.0;stroke-dasharray:5.0,5.0;" x1="90" x2="90" y1="89.6094" y2="362.4219"/><line style="stroke:#A80036;stroke-width:1.0;stroke-dasharray:5.0,5.0;" x1="500.5" x2="500.5" y1="89.6094" y2="362.4219"/><text fill="#000000" font-family="sans-serif" font-size="14" lengthAdjust="spacing" textLength="135" x="20" y="86.5332">WarehouseEmployee</text><ellipse cx="90.5" cy="15" fill="#FEFECE" filter="url(#fbu3xi31kyltm)" rx="8" ry="8" style="stroke:#A80036;stroke-width:2.0;"/><path d="M90.5,23 L90.5,50 M77.5,31 L103.5,31 M90.5,50 L77.5,65 M90.5,50 L103.5,65 " fill="none" filter="url(#fbu3xi31kyltm)" style="stroke:#A80036;stroke-width:2.0;"/><text fill="#000000" font-family="sans-serif" font-size="14" lengthAdjust="spacing" textLength="135" x="20" y="375.9551">WarehouseEmployee</text><ellipse cx="90.5" cy="389.0313" fill="#FEFECE" filter="url(#fbu3xi31kyltm)" rx="8" ry="8" style="stroke:#A80036;stroke-width:2.0;"/><path d="M90.5,397.0313 L90.5,424.0313 M77.5,405.0313 L103.5,405.0313 M90.5,424.0313 L77.5,439.0313 M90.5,424.0313 L103.5,439.0313 " fill="none" filter="url(#fbu3xi31kyltm)" style="stroke:#A80036;stroke-width:2.0;"/><rect fill="#FEFECE" filter="url(#fbu3xi31kyltm)" height="31.6094" style="stroke:#A80036;stroke-width:1.5;" width="60" x="468.5" y="53"/><text fill="#000000" font-family="sans-serif" font-size="14" lengthAdjust="spacing" textLength="46" x="475.5" y="74.5332">System</text><rect fill="#FEFECE" filter="url(#fbu3xi31kyltm)" height="31.6094" style="stroke:#A80036;stroke-width:1.5;" width="60" x="468.5" y="361.4219"/><text fill="#000000" font-family="sans-serif" font-size="14" lengthAdjust="spacing" textLength="46" x="475.5" y="382.9551">System</text><polygon fill="#A80036" points="488.5,117.9609,498.5,121.9609,488.5,125.9609,492.5,121.9609" style="stroke:#A80036;stroke-width:1.0;"/><line style="stroke:#A80036;stroke-width:1.0;" x1="90.5" x2="494.5" y1="121.9609" y2="121.9609"/><text fill="#000000" font-family="sans-serif" font-size="13" font-weight="bold" lengthAdjust="spacing" textLength="7" x="97.5" y="117.1045">1</text><text fill="#000000" font-family="sans-serif" font-size="13" lengthAdjust="spacing" textLength="209" x="108.5" y="117.1045">Wants to Force an Order to an AGV</text><polygon fill="#A80036" points="101.5,148.3125,91.5,152.3125,101.5,156.3125,97.5,152.3125" style="stroke:#A80036;stroke-width:1.0;"/><line style="stroke:#A80036;stroke-width:1.0;" x1="95.5" x2="499.5" y1="152.3125" y2="152.3125"/><text fill="#000000" font-family="sans-serif" font-size="13" font-weight="bold" lengthAdjust="spacing" textLength="7" x="107.5" y="147.4561">2</text><text fill="#000000" font-family="sans-serif" font-size="13" lengthAdjust="spacing" textLength="215" x="118.5" y="147.4561">Shows all the Orders that are paided.</text><polygon fill="#A80036" points="101.5,178.6641,91.5,182.6641,101.5,186.6641,97.5,182.6641" style="stroke:#A80036;stroke-width:1.0;"/><line style="stroke:#A80036;stroke-width:1.0;" x1="95.5" x2="499.5" y1="182.6641" y2="182.6641"/><text fill="#000000" font-family="sans-serif" font-size="13" font-weight="bold" lengthAdjust="spacing" textLength="7" x="107.5" y="177.8076">3</text><text fill="#000000" font-family="sans-serif" font-size="13" lengthAdjust="spacing" textLength="142" x="118.5" y="177.8076">Asks to choose an order</text><polygon fill="#A80036" points="488.5,209.0156,498.5,213.0156,488.5,217.0156,492.5,213.0156" style="stroke:#A80036;stroke-width:1.0;"/><line style="stroke:#A80036;stroke-width:1.0;" x1="90.5" x2="494.5" y1="213.0156" y2="213.0156"/><text fill="#000000" font-family="sans-serif" font-size="13" font-weight="bold" lengthAdjust="spacing" textLength="7" x="97.5" y="208.1592">4</text><text fill="#000000" font-family="sans-serif" font-size="13" lengthAdjust="spacing" textLength="102" x="108.5" y="208.1592">Selects one order</text><path d="M458.5,228.0156 L584.5,228.0156 L584.5,236.0156 L574.5,246.0156 L458.5,246.0156 L458.5,228.0156 " fill="#EEEEEE" style="stroke:#000000;stroke-width:1.0;"/><rect fill="none" height="61.7031" style="stroke:#000000;stroke-width:2.0;" width="352" x="458.5" y="228.0156"/><text fill="#000000" font-family="sans-serif" font-size="13" font-weight="bold" lengthAdjust="spacing" textLength="81" x="473.5" y="242.5107">success case</text><line style="stroke:#A80036;stroke-width:1.0;" x1="500.5" x2="542.5" y1="268.7188" y2="268.7188"/><line style="stroke:#A80036;stroke-width:1.0;" x1="542.5" x2="542.5" y1="268.7188" y2="281.7188"/><line style="stroke:#A80036;stroke-width:1.0;" x1="501.5" x2="542.5" y1="281.7188" y2="281.7188"/><polygon fill="#A80036" points="511.5,277.7188,501.5,281.7188,511.5,285.7188,507.5,281.7188" style="stroke:#A80036;stroke-width:1.0;"/><text fill="#000000" font-family="sans-serif" font-size="13" font-weight="bold" lengthAdjust="spacing" textLength="7" x="507.5" y="263.8623">5</text><text fill="#000000" font-family="sans-serif" font-size="13" lengthAdjust="spacing" textLength="280" x="518.5" y="263.8623">assigns the order to an available &amp; capable AGV</text><polygon fill="#A80036" points="101.5,340.4219,91.5,344.4219,101.5,348.4219,97.5,344.4219" style="stroke:#A80036;stroke-width:1.0;"/><line style="stroke:#A80036;stroke-width:1.0;" x1="95.5" x2="499.5" y1="344.4219" y2="344.4219"/><text fill="#000000" font-family="sans-serif" font-size="13" font-weight="bold" lengthAdjust="spacing" textLength="7" x="107.5" y="339.5654">6</text><text fill="#000000" font-family="sans-serif" font-size="13" lengthAdjust="spacing" textLength="375" x="118.5" y="339.5654">Shows that are no available AGV or capable to prepare that order</text><!--MD5=[6e1f469fa5d58e641b3d7d9e3451edfd]
@startuml

autonumber

actor WarehouseEmployee

WarehouseEmployee -> System : Wants to Force an Order to an AGV
System -> WarehouseEmployee : Shows all the Orders that are paided.
System -> WarehouseEmployee : Asks to choose an order
WarehouseEmployee -> System : Selects one order

group success case
    System -> System : assigns the order to an available & capable AGV

end

group unsuccessful case

     System -> WarehouseEmployee : Shows that are no available AGV or capable to prepare that order

@enduml

PlantUML version 1.2021.11(Sat Oct 02 14:26:11 BST 2021)
(GPL source distribution)
Java Runtime: OpenJDK Runtime Environment
JVM: OpenJDK 64-Bit Server VM
Default Encoding: Cp1252
Language: pt
Country: PT
--></g></svg>