<?xml version="1.0" encoding="UTF-8" standalone="no"?><svg xmlns="http://www.w3.org/2000/svg" xmlns:xlink="http://www.w3.org/1999/xlink" contentScriptType="application/ecmascript" contentStyleType="text/css" height="283.2px" preserveAspectRatio="none" style="width:813px;height:283px;background:#FFFFFF;" version="1.1" viewBox="0 0 813 283" width="813.6px" zoomAndPan="magnify"><defs><filter height="300%" id="f1x9ijqzettfel" width="300%" x="-1" y="-1"><feGaussianBlur result="blurOut" stdDeviation="1.6000000000000003"/><feColorMatrix in="blurOut" result="blurOut2" type="matrix" values="0 0 0 0 0 0 0 0 0 0 0 0 0 0 0 0 0 0 .4 0"/><feOffset dx="3.2000000000000006" dy="3.2000000000000006" in="blurOut2" result="blurOut3"/><feBlend in="SourceGraphic" in2="blurOut3" mode="normal"/></filter></defs><g><!--MD5=[b8b89cb2238020f68a33781aa3c26b69]
class BaseBackoffice--><rect codeLine="2" fill="#FEFECE" filter="url(#f1x9ijqzettfel)" height="49.4688" id="BaseBackoffice" style="stroke:#A80036;stroke-width:1.2000000000000002;" width="93.6" x="5.6" y="27.6"/><ellipse cx="17.6" cy="40.4" fill="#ADD1B2" rx="8.8" ry="8.8" style="stroke:#A80036;stroke-width:0.8000000000000002;"/><path d="M19.2,37.6 Q19.3625,37.2 19.55,37 Q19.7375,36.8 19.95,36.8 Q20.325,36.8 20.5625,37.025 Q20.8,37.25 20.8,37.775 L20.8,39.025 Q20.8,39.55 20.575,39.775 Q20.35,40 20,40 Q19.6875,40 19.4875,39.8625 Q19.2875,39.725 19.2,39.3625 Q19.1625,39.1125 19.025,38.975 Q18.775,38.7125 18.325,38.5625 Q17.875,38.4 17.425,38.4 Q16.8625,38.4 16.3875,38.625 Q15.925,38.85 15.5625,39.35 Q15.2,39.85 15.2,40.5375 L15.2,41.275 Q15.2,42.1 15.875,42.65 Q16.55,43.2 17.75,43.2 Q18.4625,43.2 18.9625,43.0375 Q19.25,42.95 19.575,42.6625 Q19.7875,42.5 19.9,42.45 Q20.0125,42.4 20.15,42.4 Q20.4125,42.4 20.6,42.6125 Q20.8,42.8125 20.8,43.1 Q20.8,43.375 20.525,43.7 Q20.125,44.175 19.4875,44.4375 Q18.65,44.8 17.625,44.8 Q16.425,44.8 15.4625,44.325 Q14.6875,43.95 14.1375,43.1375 Q13.6,42.325 13.6,41.3625 L13.6,40.4875 Q13.6,39.4875 14.075,38.6125 Q14.5625,37.7375 15.4,37.275 Q16.25,36.8 17.2,36.8 Q17.775,36.8 18.275,37 Q18.775,37.2 19.2,37.6 Z " fill="#000000"/><text fill="#000000" font-family="sans-serif" font-size="9.6" lengthAdjust="spacing" textLength="68" x="28.8" y="44.3281">BaseBackoffice</text><line style="stroke:#A80036;stroke-width:1.2000000000000002;" x1="6.4" x2="98.4" y1="53.2" y2="53.2"/><rect fill="none" height="4.8" style="stroke:#C82930;stroke-width:0.8000000000000002;" width="4.8" x="12" y="59.6"/><text fill="#000000" font-family="sans-serif" font-size="8.8" lengthAdjust="spacing" textLength="61.6" x="21.6" y="65.5352">MainMenu menu</text><line style="stroke:#A80036;stroke-width:1.2000000000000002;" x1="6.4" x2="98.4" y1="70.6688" y2="70.6688"/><!--MD5=[e924185af5be0a7575e25f91078617dd]
class ForceOrderOnAGVUI--><rect codeLine="6" fill="#FEFECE" filter="url(#f1x9ijqzettfel)" height="49.4688" id="ForceOrderOnAGVUI" style="stroke:#A80036;stroke-width:1.2000000000000002;" width="236.8" x="127.6" y="27.6"/><ellipse cx="197.4" cy="40.4" fill="#ADD1B2" rx="8.8" ry="8.8" style="stroke:#A80036;stroke-width:0.8000000000000002;"/><path d="M199,37.6 Q199.1625,37.2 199.35,37 Q199.5375,36.8 199.75,36.8 Q200.125,36.8 200.3625,37.025 Q200.6,37.25 200.6,37.775 L200.6,39.025 Q200.6,39.55 200.375,39.775 Q200.15,40 199.8,40 Q199.4875,40 199.2875,39.8625 Q199.0875,39.725 199,39.3625 Q198.9625,39.1125 198.825,38.975 Q198.575,38.7125 198.125,38.5625 Q197.675,38.4 197.225,38.4 Q196.6625,38.4 196.1875,38.625 Q195.725,38.85 195.3625,39.35 Q195,39.85 195,40.5375 L195,41.275 Q195,42.1 195.675,42.65 Q196.35,43.2 197.55,43.2 Q198.2625,43.2 198.7625,43.0375 Q199.05,42.95 199.375,42.6625 Q199.5875,42.5 199.7,42.45 Q199.8125,42.4 199.95,42.4 Q200.2125,42.4 200.4,42.6125 Q200.6,42.8125 200.6,43.1 Q200.6,43.375 200.325,43.7 Q199.925,44.175 199.2875,44.4375 Q198.45,44.8 197.425,44.8 Q196.225,44.8 195.2625,44.325 Q194.4875,43.95 193.9375,43.1375 Q193.4,42.325 193.4,41.3625 L193.4,40.4875 Q193.4,39.4875 193.875,38.6125 Q194.3625,37.7375 195.2,37.275 Q196.05,36.8 197,36.8 Q197.575,36.8 198.075,37 Q198.575,37.2 199,37.6 Z " fill="#000000"/><text fill="#000000" font-family="sans-serif" font-size="9.6" lengthAdjust="spacing" textLength="90.4" x="213.8" y="44.3281">ForceOrderOnAGVUI</text><line style="stroke:#A80036;stroke-width:1.2000000000000002;" x1="128.4" x2="363.6" y1="53.2" y2="53.2"/><text fill="#000000" font-family="sans-serif" font-size="8.8" lengthAdjust="spacing" textLength="227.2" x="132.4" y="65.5352">ForceOrderOnAGVController forceOrderOnAGVController;</text><line style="stroke:#A80036;stroke-width:1.2000000000000002;" x1="128.4" x2="363.6" y1="70.6688" y2="70.6688"/><!--MD5=[a793101ae5f992e060e729d8e46258f9]
class ForceOrderOnAGVController--><rect codeLine="10" fill="#FEFECE" filter="url(#f1x9ijqzettfel)" height="93.7438" id="ForceOrderOnAGVController" style="stroke:#A80036;stroke-width:1.2000000000000002;" width="264" x="392.4" y="5.6"/><ellipse cx="459" cy="18.4" fill="#ADD1B2" rx="8.8" ry="8.8" style="stroke:#A80036;stroke-width:0.8000000000000002;"/><path d="M460.6,15.6 Q460.7625,15.2 460.95,15 Q461.1375,14.8 461.35,14.8 Q461.725,14.8 461.9625,15.025 Q462.2,15.25 462.2,15.775 L462.2,17.025 Q462.2,17.55 461.975,17.775 Q461.75,18 461.4,18 Q461.0875,18 460.8875,17.8625 Q460.6875,17.725 460.6,17.3625 Q460.5625,17.1125 460.425,16.975 Q460.175,16.7125 459.725,16.5625 Q459.275,16.4 458.825,16.4 Q458.2625,16.4 457.7875,16.625 Q457.325,16.85 456.9625,17.35 Q456.6,17.85 456.6,18.5375 L456.6,19.275 Q456.6,20.1 457.275,20.65 Q457.95,21.2 459.15,21.2 Q459.8625,21.2 460.3625,21.0375 Q460.65,20.95 460.975,20.6625 Q461.1875,20.5 461.3,20.45 Q461.4125,20.4 461.55,20.4 Q461.8125,20.4 462,20.6125 Q462.2,20.8125 462.2,21.1 Q462.2,21.375 461.925,21.7 Q461.525,22.175 460.8875,22.4375 Q460.05,22.8 459.025,22.8 Q457.825,22.8 456.8625,22.325 Q456.0875,21.95 455.5375,21.1375 Q455,20.325 455,19.3625 L455,18.4875 Q455,17.4875 455.475,16.6125 Q455.9625,15.7375 456.8,15.275 Q457.65,14.8 458.6,14.8 Q459.175,14.8 459.675,15 Q460.175,15.2 460.6,15.6 Z " fill="#000000"/><text fill="#000000" font-family="sans-serif" font-size="9.6" lengthAdjust="spacing" textLength="124" x="475.4" y="22.3281">ForceOrderOnAGVController</text><line style="stroke:#A80036;stroke-width:1.2000000000000002;" x1="393.2" x2="655.6" y1="31.2" y2="31.2"/><rect fill="none" height="4.8" style="stroke:#C82930;stroke-width:0.8000000000000002;" width="4.8" x="398.8" y="37.6"/><text fill="#000000" font-family="sans-serif" font-size="8.8" lengthAdjust="spacing" textLength="107.2" x="408.4" y="43.5352">AuthorizationService authz;</text><rect fill="none" height="4.8" style="stroke:#C82930;stroke-width:0.8000000000000002;" width="4.8" x="398.8" y="48.6688"/><text fill="#000000" font-family="sans-serif" font-size="8.8" lengthAdjust="spacing" textLength="243.2" x="408.4" y="54.6039">ListOrderToBePreparedService listOrderToBePreparedService;</text><rect fill="none" height="4.8" style="stroke:#C82930;stroke-width:0.8000000000000002;" width="4.8" x="398.8" y="59.7375"/><text fill="#000000" font-family="sans-serif" font-size="8.8" lengthAdjust="spacing" textLength="172.8" x="408.4" y="65.6727">FindOrderByIdService findOrderByIdService;</text><rect fill="none" height="4.8" style="stroke:#C82930;stroke-width:0.8000000000000002;" width="4.8" x="398.8" y="70.8063"/><text fill="#000000" font-family="sans-serif" font-size="8.8" lengthAdjust="spacing" textLength="182.4" x="408.4" y="76.7414">FindAGVReadyService findAGVReadyService;</text><rect fill="none" height="4.8" style="stroke:#C82930;stroke-width:0.8000000000000002;" width="4.8" x="398.8" y="81.875"/><text fill="#000000" font-family="sans-serif" font-size="8.8" lengthAdjust="spacing" textLength="166.4" x="408.4" y="87.8102">FindAGVByIdService findAGVByIdService;</text><line style="stroke:#A80036;stroke-width:1.2000000000000002;" x1="393.2" x2="655.6" y1="92.9438" y2="92.9438"/><!--MD5=[92a134bd0bda4399858dcb6da32d4fa2]
class ListOrderToBePreparedService--><rect codeLine="19" fill="#FEFECE" filter="url(#f1x9ijqzettfel)" height="38.4" id="ListOrderToBePreparedService" style="stroke:#A80036;stroke-width:1.2000000000000002;" width="162.4" x="199.2" y="147.2"/><ellipse cx="211.2" cy="160" fill="#ADD1B2" rx="8.8" ry="8.8" style="stroke:#A80036;stroke-width:0.8000000000000002;"/><path d="M212.8,157.2 Q212.9625,156.8 213.15,156.6 Q213.3375,156.4 213.55,156.4 Q213.925,156.4 214.1625,156.625 Q214.4,156.85 214.4,157.375 L214.4,158.625 Q214.4,159.15 214.175,159.375 Q213.95,159.6 213.6,159.6 Q213.2875,159.6 213.0875,159.4625 Q212.8875,159.325 212.8,158.9625 Q212.7625,158.7125 212.625,158.575 Q212.375,158.3125 211.925,158.1625 Q211.475,158 211.025,158 Q210.4625,158 209.9875,158.225 Q209.525,158.45 209.1625,158.95 Q208.8,159.45 208.8,160.1375 L208.8,160.875 Q208.8,161.7 209.475,162.25 Q210.15,162.8 211.35,162.8 Q212.0625,162.8 212.5625,162.6375 Q212.85,162.55 213.175,162.2625 Q213.3875,162.1 213.5,162.05 Q213.6125,162 213.75,162 Q214.0125,162 214.2,162.2125 Q214.4,162.4125 214.4,162.7 Q214.4,162.975 214.125,163.3 Q213.725,163.775 213.0875,164.0375 Q212.25,164.4 211.225,164.4 Q210.025,164.4 209.0625,163.925 Q208.2875,163.55 207.7375,162.7375 Q207.2,161.925 207.2,160.9625 L207.2,160.0875 Q207.2,159.0875 207.675,158.2125 Q208.1625,157.3375 209,156.875 Q209.85,156.4 210.8,156.4 Q211.375,156.4 211.875,156.6 Q212.375,156.8 212.8,157.2 Z " fill="#000000"/><text fill="#000000" font-family="sans-serif" font-size="9.6" lengthAdjust="spacing" textLength="136.8" x="222.4" y="163.9281">ListOrderToBePreparedService</text><line style="stroke:#A80036;stroke-width:1.2000000000000002;" x1="200" x2="360.8" y1="172.8" y2="172.8"/><line style="stroke:#A80036;stroke-width:1.2000000000000002;" x1="200" x2="360.8" y1="179.2" y2="179.2"/><!--MD5=[44d79a3d93b8eceb14275b4055a1d0f8]
class FindOrderByIdService--><rect codeLine="22" fill="#FEFECE" filter="url(#f1x9ijqzettfel)" height="38.4" id="FindOrderByIdService" style="stroke:#A80036;stroke-width:1.2000000000000002;" width="120" x="390" y="147.2"/><ellipse cx="402" cy="160" fill="#ADD1B2" rx="8.8" ry="8.8" style="stroke:#A80036;stroke-width:0.8000000000000002;"/><path d="M403.6,157.2 Q403.7625,156.8 403.95,156.6 Q404.1375,156.4 404.35,156.4 Q404.725,156.4 404.9625,156.625 Q405.2,156.85 405.2,157.375 L405.2,158.625 Q405.2,159.15 404.975,159.375 Q404.75,159.6 404.4,159.6 Q404.0875,159.6 403.8875,159.4625 Q403.6875,159.325 403.6,158.9625 Q403.5625,158.7125 403.425,158.575 Q403.175,158.3125 402.725,158.1625 Q402.275,158 401.825,158 Q401.2625,158 400.7875,158.225 Q400.325,158.45 399.9625,158.95 Q399.6,159.45 399.6,160.1375 L399.6,160.875 Q399.6,161.7 400.275,162.25 Q400.95,162.8 402.15,162.8 Q402.8625,162.8 403.3625,162.6375 Q403.65,162.55 403.975,162.2625 Q404.1875,162.1 404.3,162.05 Q404.4125,162 404.55,162 Q404.8125,162 405,162.2125 Q405.2,162.4125 405.2,162.7 Q405.2,162.975 404.925,163.3 Q404.525,163.775 403.8875,164.0375 Q403.05,164.4 402.025,164.4 Q400.825,164.4 399.8625,163.925 Q399.0875,163.55 398.5375,162.7375 Q398,161.925 398,160.9625 L398,160.0875 Q398,159.0875 398.475,158.2125 Q398.9625,157.3375 399.8,156.875 Q400.65,156.4 401.6,156.4 Q402.175,156.4 402.675,156.6 Q403.175,156.8 403.6,157.2 Z " fill="#000000"/><text fill="#000000" font-family="sans-serif" font-size="9.6" lengthAdjust="spacing" textLength="94.4" x="413.2" y="163.9281">FindOrderByIdService</text><line style="stroke:#A80036;stroke-width:1.2000000000000002;" x1="390.8" x2="509.2" y1="172.8" y2="172.8"/><line style="stroke:#A80036;stroke-width:1.2000000000000002;" x1="390.8" x2="509.2" y1="179.2" y2="179.2"/><!--MD5=[a2934c79e3adc781b0cd87c74812aba5]
class AGVRepository--><rect codeLine="25" fill="#FEFECE" filter="url(#f1x9ijqzettfel)" height="38.4" id="AGVRepository" style="stroke:#A80036;stroke-width:1.2000000000000002;" width="92.8" x="626" y="233.6"/><ellipse cx="638" cy="246.4" fill="#B4A7E5" rx="8.8" ry="8.8" style="stroke:#A80036;stroke-width:0.8000000000000002;"/><path d="M638.8,244 L638.8,248.8 L640.4,248.8 L640.7875,248.8 L641.2,249.3 L641.2,249.6 L641.2,249.9 L640.7875,250.4 L640.4,250.4 L635.6,250.4 L635.2125,250.4 L634.8,249.9 L634.8,249.6 L634.8,249.3 L635.2125,248.8 L635.6,248.8 L637.2,248.8 L637.2,244 L635.6,244 L635.2125,244 L634.8,243.5 L634.8,243.2 L634.8,242.9 L635.2125,242.4 L635.6,242.4 L640.4,242.4 L640.7875,242.4 L641.2,242.9 L641.2,243.2 L641.2,243.5 L640.7875,244 L640.4,244 L638.8,244 Z " fill="#000000"/><text fill="#000000" font-family="sans-serif" font-size="9.6" font-style="italic" lengthAdjust="spacing" textLength="67.2" x="649.2" y="250.3281">AGVRepository</text><line style="stroke:#A80036;stroke-width:1.2000000000000002;" x1="626.8" x2="718" y1="259.2" y2="259.2"/><line style="stroke:#A80036;stroke-width:1.2000000000000002;" x1="626.8" x2="718" y1="265.6" y2="265.6"/><!--MD5=[708e328039b60d50c6285936843ac334]
class OrderRepository--><rect codeLine="28" fill="#FEFECE" filter="url(#f1x9ijqzettfel)" height="38.4" id="OrderRepository" style="stroke:#A80036;stroke-width:1.2000000000000002;" width="97.6" x="316.4" y="233.6"/><ellipse cx="328.4" cy="246.4" fill="#B4A7E5" rx="8.8" ry="8.8" style="stroke:#A80036;stroke-width:0.8000000000000002;"/><path d="M329.2,244 L329.2,248.8 L330.8,248.8 L331.1875,248.8 L331.6,249.3 L331.6,249.6 L331.6,249.9 L331.1875,250.4 L330.8,250.4 L326,250.4 L325.6125,250.4 L325.2,249.9 L325.2,249.6 L325.2,249.3 L325.6125,248.8 L326,248.8 L327.6,248.8 L327.6,244 L326,244 L325.6125,244 L325.2,243.5 L325.2,243.2 L325.2,242.9 L325.6125,242.4 L326,242.4 L330.8,242.4 L331.1875,242.4 L331.6,242.9 L331.6,243.2 L331.6,243.5 L331.1875,244 L330.8,244 L329.2,244 Z " fill="#000000"/><text fill="#000000" font-family="sans-serif" font-size="9.6" font-style="italic" lengthAdjust="spacing" textLength="72" x="339.6" y="250.3281">OrderRepository</text><line style="stroke:#A80036;stroke-width:1.2000000000000002;" x1="317.2" x2="413.2" y1="259.2" y2="259.2"/><line style="stroke:#A80036;stroke-width:1.2000000000000002;" x1="317.2" x2="413.2" y1="265.6" y2="265.6"/><!--MD5=[ca48ba2b2721fd6e9a002e16be14b362]
class TcpSrvAgvManager--><rect codeLine="31" fill="#FEFECE" filter="url(#f1x9ijqzettfel)" height="38.4" id="TcpSrvAgvManager" style="stroke:#A80036;stroke-width:1.2000000000000002;" width="108.8" x="684.4" y="33.2"/><ellipse cx="696.4" cy="46" fill="#ADD1B2" rx="8.8" ry="8.8" style="stroke:#A80036;stroke-width:0.8000000000000002;"/><path d="M698,43.2 Q698.1625,42.8 698.35,42.6 Q698.5375,42.4 698.75,42.4 Q699.125,42.4 699.3625,42.625 Q699.6,42.85 699.6,43.375 L699.6,44.625 Q699.6,45.15 699.375,45.375 Q699.15,45.6 698.8,45.6 Q698.4875,45.6 698.2875,45.4625 Q698.0875,45.325 698,44.9625 Q697.9625,44.7125 697.825,44.575 Q697.575,44.3125 697.125,44.1625 Q696.675,44 696.225,44 Q695.6625,44 695.1875,44.225 Q694.725,44.45 694.3625,44.95 Q694,45.45 694,46.1375 L694,46.875 Q694,47.7 694.675,48.25 Q695.35,48.8 696.55,48.8 Q697.2625,48.8 697.7625,48.6375 Q698.05,48.55 698.375,48.2625 Q698.5875,48.1 698.7,48.05 Q698.8125,48 698.95,48 Q699.2125,48 699.4,48.2125 Q699.6,48.4125 699.6,48.7 Q699.6,48.975 699.325,49.3 Q698.925,49.775 698.2875,50.0375 Q697.45,50.4 696.425,50.4 Q695.225,50.4 694.2625,49.925 Q693.4875,49.55 692.9375,48.7375 Q692.4,47.925 692.4,46.9625 L692.4,46.0875 Q692.4,45.0875 692.875,44.2125 Q693.3625,43.3375 694.2,42.875 Q695.05,42.4 696,42.4 Q696.575,42.4 697.075,42.6 Q697.575,42.8 698,43.2 Z " fill="#000000"/><text fill="#000000" font-family="sans-serif" font-size="9.6" lengthAdjust="spacing" textLength="83.2" x="707.6" y="49.9281">TcpSrvAgvManager</text><line style="stroke:#A80036;stroke-width:1.2000000000000002;" x1="685.2" x2="792.4" y1="58.8" y2="58.8"/><line style="stroke:#A80036;stroke-width:1.2000000000000002;" x1="685.2" x2="792.4" y1="65.2" y2="65.2"/><!--MD5=[4794923e33bb639dca4b001efc4d14d1]
class FindAGVReadyService--><rect fill="#FEFECE" filter="url(#f1x9ijqzettfel)" height="38.4" id="FindAGVReadyService" style="stroke:#A80036;stroke-width:1.2000000000000002;" width="123.2" x="538" y="147.2"/><ellipse cx="550" cy="160" fill="#ADD1B2" rx="8.8" ry="8.8" style="stroke:#A80036;stroke-width:0.8000000000000002;"/><path d="M551.6,157.2 Q551.7625,156.8 551.95,156.6 Q552.1375,156.4 552.35,156.4 Q552.725,156.4 552.9625,156.625 Q553.2,156.85 553.2,157.375 L553.2,158.625 Q553.2,159.15 552.975,159.375 Q552.75,159.6 552.4,159.6 Q552.0875,159.6 551.8875,159.4625 Q551.6875,159.325 551.6,158.9625 Q551.5625,158.7125 551.425,158.575 Q551.175,158.3125 550.725,158.1625 Q550.275,158 549.825,158 Q549.2625,158 548.7875,158.225 Q548.325,158.45 547.9625,158.95 Q547.6,159.45 547.6,160.1375 L547.6,160.875 Q547.6,161.7 548.275,162.25 Q548.95,162.8 550.15,162.8 Q550.8625,162.8 551.3625,162.6375 Q551.65,162.55 551.975,162.2625 Q552.1875,162.1 552.3,162.05 Q552.4125,162 552.55,162 Q552.8125,162 553,162.2125 Q553.2,162.4125 553.2,162.7 Q553.2,162.975 552.925,163.3 Q552.525,163.775 551.8875,164.0375 Q551.05,164.4 550.025,164.4 Q548.825,164.4 547.8625,163.925 Q547.0875,163.55 546.5375,162.7375 Q546,161.925 546,160.9625 L546,160.0875 Q546,159.0875 546.475,158.2125 Q546.9625,157.3375 547.8,156.875 Q548.65,156.4 549.6,156.4 Q550.175,156.4 550.675,156.6 Q551.175,156.8 551.6,157.2 Z " fill="#000000"/><text fill="#000000" font-family="sans-serif" font-size="9.6" lengthAdjust="spacing" textLength="97.6" x="561.2" y="163.9281">FindAGVReadyService</text><line style="stroke:#A80036;stroke-width:1.2000000000000002;" x1="538.8" x2="660.4" y1="172.8" y2="172.8"/><line style="stroke:#A80036;stroke-width:1.2000000000000002;" x1="538.8" x2="660.4" y1="179.2" y2="179.2"/><!--MD5=[49fa0737c422f931d6538b4a039d465e]
class FindAGVByIdService--><rect fill="#FEFECE" filter="url(#f1x9ijqzettfel)" height="38.4" id="FindAGVByIdService" style="stroke:#A80036;stroke-width:1.2000000000000002;" width="113.6" x="689.2" y="147.2"/><ellipse cx="701.2" cy="160" fill="#ADD1B2" rx="8.8" ry="8.8" style="stroke:#A80036;stroke-width:0.8000000000000002;"/><path d="M702.8,157.2 Q702.9625,156.8 703.15,156.6 Q703.3375,156.4 703.55,156.4 Q703.925,156.4 704.1625,156.625 Q704.4,156.85 704.4,157.375 L704.4,158.625 Q704.4,159.15 704.175,159.375 Q703.95,159.6 703.6,159.6 Q703.2875,159.6 703.0875,159.4625 Q702.8875,159.325 702.8,158.9625 Q702.7625,158.7125 702.625,158.575 Q702.375,158.3125 701.925,158.1625 Q701.475,158 701.025,158 Q700.4625,158 699.9875,158.225 Q699.525,158.45 699.1625,158.95 Q698.8,159.45 698.8,160.1375 L698.8,160.875 Q698.8,161.7 699.475,162.25 Q700.15,162.8 701.35,162.8 Q702.0625,162.8 702.5625,162.6375 Q702.85,162.55 703.175,162.2625 Q703.3875,162.1 703.5,162.05 Q703.6125,162 703.75,162 Q704.0125,162 704.2,162.2125 Q704.4,162.4125 704.4,162.7 Q704.4,162.975 704.125,163.3 Q703.725,163.775 703.0875,164.0375 Q702.25,164.4 701.225,164.4 Q700.025,164.4 699.0625,163.925 Q698.2875,163.55 697.7375,162.7375 Q697.2,161.925 697.2,160.9625 L697.2,160.0875 Q697.2,159.0875 697.675,158.2125 Q698.1625,157.3375 699,156.875 Q699.85,156.4 700.8,156.4 Q701.375,156.4 701.875,156.6 Q702.375,156.8 702.8,157.2 Z " fill="#000000"/><text fill="#000000" font-family="sans-serif" font-size="9.6" lengthAdjust="spacing" textLength="88" x="712.4" y="163.9281">FindAGVByIdService</text><line style="stroke:#A80036;stroke-width:1.2000000000000002;" x1="690" x2="802" y1="172.8" y2="172.8"/><line style="stroke:#A80036;stroke-width:1.2000000000000002;" x1="690" x2="802" y1="179.2" y2="179.2"/><!--MD5=[1586b45703dc8c162df1a51c65b5dfe9]
link BaseBackoffice to ForceOrderOnAGVUI--><path codeLine="35" d="M99.288,52.4 C107.256,52.4 115.232,52.4 123.2,52.4 " fill="none" id="BaseBackoffice-to-ForceOrderOnAGVUI" style="stroke:#A80036;stroke-width:0.8000000000000002;"/><polygon fill="#A80036" points="127.368,52.4,120.168,49.2,123.368,52.4,120.168,55.6,127.368,52.4" style="stroke:#A80036;stroke-width:0.8000000000000002;"/><!--MD5=[4154f8a058874d401434a65ce7c70b9e]
link ForceOrderOnAGVUI to ForceOrderOnAGVController--><path codeLine="37" d="M364.536,52.4 C372.424,52.4 380.312,52.4 388.2,52.4 " fill="none" id="ForceOrderOnAGVUI-to-ForceOrderOnAGVController" style="stroke:#A80036;stroke-width:0.8000000000000002;"/><polygon fill="#A80036" points="392.328,52.4,385.128,49.2,388.328,52.4,385.128,55.6,392.328,52.4" style="stroke:#A80036;stroke-width:0.8000000000000002;"/><!--MD5=[0313472047500e79a49a6b45bca31a77]
link ForceOrderOnAGVController to ListOrderToBePreparedService--><path codeLine="39" d="M424.448,99.24 C389.56,115.312 352.184,132.536 324.248,145.4 " fill="none" id="ForceOrderOnAGVController-to-ListOrderToBePreparedService" style="stroke:#A80036;stroke-width:0.8000000000000002;"/><polygon fill="#A80036" points="320.544,147.104,328.4225,147.008,324.1792,145.435,325.7521,141.1917,320.544,147.104" style="stroke:#A80036;stroke-width:0.8000000000000002;"/><!--MD5=[447a432de02820adb936cdfe583d27ab]
link ForceOrderOnAGVController to FindOrderByIdService--><path codeLine="40" d="M493.928,99.24 C483.8,114.536 472.992,130.872 464.624,143.504 " fill="none" id="ForceOrderOnAGVController-to-FindOrderByIdService" style="stroke:#A80036;stroke-width:0.8000000000000002;"/><polygon fill="#A80036" points="462.336,146.968,468.9756,142.7259,464.5416,143.631,463.6365,139.197,462.336,146.968" style="stroke:#A80036;stroke-width:0.8000000000000002;"/><!--MD5=[9ee77c34d5ac8b40956ea912aa9fa8c2]
link ForceOrderOnAGVController to FindAGVReadyService--><path codeLine="41" d="M555.2,99.24 C565.44,114.536 576.368,130.872 584.816,143.504 " fill="none" id="ForceOrderOnAGVController-to-FindAGVReadyService" style="stroke:#A80036;stroke-width:0.8000000000000002;"/><polygon fill="#A80036" points="587.136,146.968,585.7863,139.2054,584.9093,143.6451,580.4696,142.7681,587.136,146.968" style="stroke:#A80036;stroke-width:0.8000000000000002;"/><!--MD5=[b9b3752c3063a0c480ef812fa42634ee]
link ForceOrderOnAGVController to FindAGVByIdService--><path codeLine="42" d="M615.176,99.24 C646.728,115.248 680.528,132.392 705.864,145.24 " fill="none" id="ForceOrderOnAGVController-to-FindAGVByIdService" style="stroke:#A80036;stroke-width:0.8000000000000002;"/><polygon fill="#A80036" points="709.544,147.104,704.5664,140.9964,705.9755,145.2969,701.675,146.706,709.544,147.104" style="stroke:#A80036;stroke-width:0.8000000000000002;"/><!--MD5=[56b21ab9f5732fb247538090bb8f80f3]
link ListOrderToBePreparedService to OrderRepository--><path codeLine="44" d="M298.8,185.6 C311.936,198.736 329.648,216.448 343.472,230.272 " fill="none" id="ListOrderToBePreparedService-to-OrderRepository" style="stroke:#A80036;stroke-width:0.8000000000000002;"/><polygon fill="#A80036" points="346.544,233.344,343.7156,225.9901,343.7156,230.5156,339.1901,230.5156,346.544,233.344" style="stroke:#A80036;stroke-width:0.8000000000000002;"/><!--MD5=[87b0e0dee4f2681d6f557ea5aaf6f5ff]
link FindOrderByIdService to OrderRepository--><path codeLine="45" d="M431.6,185.6 C418.464,198.736 400.752,216.448 386.928,230.272 " fill="none" id="FindOrderByIdService-to-OrderRepository" style="stroke:#A80036;stroke-width:0.8000000000000002;"/><polygon fill="#A80036" points="383.856,233.344,391.2099,230.5156,386.6844,230.5156,386.6844,225.9901,383.856,233.344" style="stroke:#A80036;stroke-width:0.8000000000000002;"/><!--MD5=[a278ad23fed4abe561ab1b90e89cb90e]
link FindAGVReadyService to AGVRepository--><path codeLine="46" d="M615.4,185.6 C626.672,198.736 641.88,216.448 653.752,230.272 " fill="none" id="FindAGVReadyService-to-AGVRepository" style="stroke:#A80036;stroke-width:0.8000000000000002;"/><polygon fill="#A80036" points="656.384,233.344,654.1279,225.7948,653.7808,230.307,649.2687,229.9599,656.384,233.344" style="stroke:#A80036;stroke-width:0.8000000000000002;"/><!--MD5=[463ff024b2896ce53760513f8aa03ddd]
link FindAGVByIdService to AGVRepository--><path codeLine="47" d="M730.032,185.6 C718.632,198.736 703.256,216.448 691.256,230.272 " fill="none" id="FindAGVByIdService-to-AGVRepository" style="stroke:#A80036;stroke-width:0.8000000000000002;"/><polygon fill="#A80036" points="688.592,233.344,695.7272,230.0019,691.213,230.3224,690.8926,225.8083,688.592,233.344" style="stroke:#A80036;stroke-width:0.8000000000000002;"/><!--MD5=[8d77c5665fcc862854dcf774b486360f]
@startuml

class BaseBackoffice{
    -MainMenu menu
}

class ForceOrderOnAGVUI{
    ForceOrderOnAGVController forceOrderOnAGVController;
}

class ForceOrderOnAGVController{
    -AuthorizationService authz;
    -ListOrderToBePreparedService listOrderToBePreparedService;
    -FindOrderByIdService findOrderByIdService;
    -FindAGVReadyService findAGVReadyService;
    -FindAGVByIdService findAGVByIdService;
}


class ListOrderToBePreparedService{
}

class FindOrderByIdService{
}

interface AGVRepository{
}

interface OrderRepository{
}

class TcpSrvAgvManager{
}


BaseBackoffice -> ForceOrderOnAGVUI

ForceOrderOnAGVUI -> ForceOrderOnAGVController

ForceOrderOnAGVController -down-> ListOrderToBePreparedService
ForceOrderOnAGVController -down-> FindOrderByIdService
ForceOrderOnAGVController -down-> FindAGVReadyService
ForceOrderOnAGVController -down-> FindAGVByIdService

ListOrderToBePreparedService -down-> OrderRepository
FindOrderByIdService -down-> OrderRepository
FindAGVReadyService -down-> AGVRepository
FindAGVByIdService -down-> AGVRepository


@enduml

PlantUML version 1.2021.11(Sat Oct 02 14:26:11 BST 2021)
(GPL source distribution)
Java Runtime: OpenJDK Runtime Environment
JVM: OpenJDK 64-Bit Server VM
Default Encoding: Cp1252
Language: pt
Country: PT
--></g></svg>