<?xml version="1.0" encoding="UTF-8" standalone="no"?><svg xmlns="http://www.w3.org/2000/svg" xmlns:xlink="http://www.w3.org/1999/xlink" contentScriptType="application/ecmascript" contentStyleType="text/css" height="342px" preserveAspectRatio="none" style="width:1179px;height:342px;background:#FFFFFF;" version="1.1" viewBox="0 0 1179 342" width="1179px" zoomAndPan="magnify"><defs><filter height="300%" id="f1fsw5j5u2ung" width="300%" x="-1" y="-1"><feGaussianBlur result="blurOut" stdDeviation="2.0"/><feColorMatrix in="blurOut" result="blurOut2" type="matrix" values="0 0 0 0 0 0 0 0 0 0 0 0 0 0 0 0 0 0 .4 0"/><feOffset dx="4.0" dy="4.0" in="blurOut2" result="blurOut3"/><feBlend in="SourceGraphic" in2="blurOut3" mode="normal"/></filter></defs><g><!--MD5=[b8b89cb2238020f68a33781aa3c26b69]
class BaseBackoffice--><rect codeLine="2" fill="#FEFECE" filter="url(#f1fsw5j5u2ung)" height="61.8359" id="BaseBackoffice" style="stroke:#A80036;stroke-width:1.5;" width="117" x="77" y="27.5"/><ellipse cx="92" cy="43.5" fill="#ADD1B2" rx="11" ry="11" style="stroke:#A80036;stroke-width:1.0;"/><path d="M94,40 Q94.2031,39.5 94.4375,39.25 Q94.6719,39 94.9375,39 Q95.4063,39 95.7031,39.2813 Q96,39.5625 96,40.2188 L96,41.7813 Q96,42.4375 95.7188,42.7188 Q95.4375,43 95,43 Q94.6094,43 94.3594,42.8281 Q94.1094,42.6563 94,42.2031 Q93.9531,41.8906 93.7813,41.7188 Q93.4688,41.3906 92.9063,41.2031 Q92.3438,41 91.7813,41 Q91.0781,41 90.4844,41.2813 Q89.9063,41.5625 89.4531,42.1875 Q89,42.8125 89,43.6719 L89,44.5938 Q89,45.625 89.8438,46.3125 Q90.6875,47 92.1875,47 Q93.0781,47 93.7031,46.7969 Q94.0625,46.6875 94.4688,46.3281 Q94.7344,46.125 94.875,46.0625 Q95.0156,46 95.1875,46 Q95.5156,46 95.75,46.2656 Q96,46.5156 96,46.875 Q96,47.2188 95.6563,47.625 Q95.1563,48.2188 94.3594,48.5469 Q93.3125,49 92.0313,49 Q90.5313,49 89.3281,48.4063 Q88.3594,47.9375 87.6719,46.9219 Q87,45.9063 87,44.7031 L87,43.6094 Q87,42.3594 87.5938,41.2656 Q88.2031,40.1719 89.25,39.5938 Q90.3125,39 91.5,39 Q92.2188,39 92.8438,39.25 Q93.4688,39.5 94,40 Z " fill="#000000"/><text fill="#000000" font-family="sans-serif" font-size="12" lengthAdjust="spacing" textLength="85" x="106" y="48.4102">BaseBackoffice</text><line style="stroke:#A80036;stroke-width:1.5;" x1="78" x2="193" y1="59.5" y2="59.5"/><rect fill="none" height="6" style="stroke:#C82930;stroke-width:1.0;" width="6" x="85" y="67.5"/><text fill="#000000" font-family="sans-serif" font-size="11" lengthAdjust="spacing" textLength="77" x="97" y="74.9189">MainMenu menu</text><line style="stroke:#A80036;stroke-width:1.5;" x1="78" x2="193" y1="81.3359" y2="81.3359"/><!--MD5=[e924185af5be0a7575e25f91078617dd]
class ForceOrderOnAGVUI--><rect codeLine="6" fill="#FEFECE" filter="url(#f1fsw5j5u2ung)" height="61.8359" id="ForceOrderOnAGVUI" style="stroke:#A80036;stroke-width:1.5;" width="296" x="229.5" y="27.5"/><ellipse cx="316.75" cy="43.5" fill="#ADD1B2" rx="11" ry="11" style="stroke:#A80036;stroke-width:1.0;"/><path d="M318.75,40 Q318.9531,39.5 319.1875,39.25 Q319.4219,39 319.6875,39 Q320.1563,39 320.4531,39.2813 Q320.75,39.5625 320.75,40.2188 L320.75,41.7813 Q320.75,42.4375 320.4688,42.7188 Q320.1875,43 319.75,43 Q319.3594,43 319.1094,42.8281 Q318.8594,42.6563 318.75,42.2031 Q318.7031,41.8906 318.5313,41.7188 Q318.2188,41.3906 317.6563,41.2031 Q317.0938,41 316.5313,41 Q315.8281,41 315.2344,41.2813 Q314.6563,41.5625 314.2031,42.1875 Q313.75,42.8125 313.75,43.6719 L313.75,44.5938 Q313.75,45.625 314.5938,46.3125 Q315.4375,47 316.9375,47 Q317.8281,47 318.4531,46.7969 Q318.8125,46.6875 319.2188,46.3281 Q319.4844,46.125 319.625,46.0625 Q319.7656,46 319.9375,46 Q320.2656,46 320.5,46.2656 Q320.75,46.5156 320.75,46.875 Q320.75,47.2188 320.4063,47.625 Q319.9063,48.2188 319.1094,48.5469 Q318.0625,49 316.7813,49 Q315.2813,49 314.0781,48.4063 Q313.1094,47.9375 312.4219,46.9219 Q311.75,45.9063 311.75,44.7031 L311.75,43.6094 Q311.75,42.3594 312.3438,41.2656 Q312.9531,40.1719 314,39.5938 Q315.0625,39 316.25,39 Q316.9688,39 317.5938,39.25 Q318.2188,39.5 318.75,40 Z " fill="#000000"/><text fill="#000000" font-family="sans-serif" font-size="12" lengthAdjust="spacing" textLength="113" x="337.25" y="48.4102">ForceOrderOnAGVUI</text><line style="stroke:#A80036;stroke-width:1.5;" x1="230.5" x2="524.5" y1="59.5" y2="59.5"/><text fill="#000000" font-family="sans-serif" font-size="11" lengthAdjust="spacing" textLength="284" x="235.5" y="74.9189">ForceOrderOnAGVController forceOrderOnAGVController;</text><line style="stroke:#A80036;stroke-width:1.5;" x1="230.5" x2="524.5" y1="81.3359" y2="81.3359"/><!--MD5=[047d232cc0534551ac6cbe0cb4c2b5eb]
class AssignOrderController--><rect codeLine="10" fill="#FEFECE" filter="url(#f1fsw5j5u2ung)" height="103.3438" id="AssignOrderController" style="stroke:#A80036;stroke-width:1.5;" width="327" x="561" y="7"/><ellipse cx="658.75" cy="23" fill="#ADD1B2" rx="11" ry="11" style="stroke:#A80036;stroke-width:1.0;"/><path d="M660.75,19.5 Q660.9531,19 661.1875,18.75 Q661.4219,18.5 661.6875,18.5 Q662.1563,18.5 662.4531,18.7813 Q662.75,19.0625 662.75,19.7188 L662.75,21.2813 Q662.75,21.9375 662.4688,22.2188 Q662.1875,22.5 661.75,22.5 Q661.3594,22.5 661.1094,22.3281 Q660.8594,22.1563 660.75,21.7031 Q660.7031,21.3906 660.5313,21.2188 Q660.2188,20.8906 659.6563,20.7031 Q659.0938,20.5 658.5313,20.5 Q657.8281,20.5 657.2344,20.7813 Q656.6563,21.0625 656.2031,21.6875 Q655.75,22.3125 655.75,23.1719 L655.75,24.0938 Q655.75,25.125 656.5938,25.8125 Q657.4375,26.5 658.9375,26.5 Q659.8281,26.5 660.4531,26.2969 Q660.8125,26.1875 661.2188,25.8281 Q661.4844,25.625 661.625,25.5625 Q661.7656,25.5 661.9375,25.5 Q662.2656,25.5 662.5,25.7656 Q662.75,26.0156 662.75,26.375 Q662.75,26.7188 662.4063,27.125 Q661.9063,27.7188 661.1094,28.0469 Q660.0625,28.5 658.7813,28.5 Q657.2813,28.5 656.0781,27.9063 Q655.1094,27.4375 654.4219,26.4219 Q653.75,25.4063 653.75,24.2031 L653.75,23.1094 Q653.75,21.8594 654.3438,20.7656 Q654.9531,19.6719 656,19.0938 Q657.0625,18.5 658.25,18.5 Q658.9688,18.5 659.5938,18.75 Q660.2188,19 660.75,19.5 Z " fill="#000000"/><text fill="#000000" font-family="sans-serif" font-size="12" lengthAdjust="spacing" textLength="123" x="679.25" y="27.9102">AssignOrderController</text><line style="stroke:#A80036;stroke-width:1.5;" x1="562" x2="887" y1="39" y2="39"/><rect fill="none" height="6" style="stroke:#C82930;stroke-width:1.0;" width="6" x="569" y="47"/><text fill="#000000" font-family="sans-serif" font-size="11" lengthAdjust="spacing" textLength="134" x="581" y="54.4189">AuthorizationService authz;</text><rect fill="none" height="6" style="stroke:#C82930;stroke-width:1.0;" width="6" x="569" y="60.8359"/><text fill="#000000" font-family="sans-serif" font-size="11" lengthAdjust="spacing" textLength="123" x="581" y="68.2549">SystemUser currentUser;</text><rect fill="none" height="6" style="stroke:#C82930;stroke-width:1.0;" width="6" x="569" y="74.6719"/><text fill="#000000" font-family="sans-serif" font-size="11" lengthAdjust="spacing" textLength="199" x="581" y="82.0908">AssignOrderService assignOrderService</text><rect fill="none" height="6" style="stroke:#C82930;stroke-width:1.0;" width="6" x="569" y="88.5078"/><text fill="#000000" font-family="sans-serif" font-size="11" lengthAdjust="spacing" textLength="301" x="581" y="95.9268">ListOrderToBePreparedService listOrderToBePreparedService</text><line style="stroke:#A80036;stroke-width:1.5;" x1="562" x2="887" y1="102.3438" y2="102.3438"/><!--MD5=[92a134bd0bda4399858dcb6da32d4fa2]
class ListOrderToBePreparedService--><rect codeLine="17" fill="#FEFECE" filter="url(#f1fsw5j5u2ung)" height="48" id="ListOrderToBePreparedService" style="stroke:#A80036;stroke-width:1.5;" width="203" x="411" y="171"/><ellipse cx="426" cy="187" fill="#ADD1B2" rx="11" ry="11" style="stroke:#A80036;stroke-width:1.0;"/><path d="M428,183.5 Q428.2031,183 428.4375,182.75 Q428.6719,182.5 428.9375,182.5 Q429.4063,182.5 429.7031,182.7813 Q430,183.0625 430,183.7188 L430,185.2813 Q430,185.9375 429.7188,186.2188 Q429.4375,186.5 429,186.5 Q428.6094,186.5 428.3594,186.3281 Q428.1094,186.1563 428,185.7031 Q427.9531,185.3906 427.7813,185.2188 Q427.4688,184.8906 426.9063,184.7031 Q426.3438,184.5 425.7813,184.5 Q425.0781,184.5 424.4844,184.7813 Q423.9063,185.0625 423.4531,185.6875 Q423,186.3125 423,187.1719 L423,188.0938 Q423,189.125 423.8438,189.8125 Q424.6875,190.5 426.1875,190.5 Q427.0781,190.5 427.7031,190.2969 Q428.0625,190.1875 428.4688,189.8281 Q428.7344,189.625 428.875,189.5625 Q429.0156,189.5 429.1875,189.5 Q429.5156,189.5 429.75,189.7656 Q430,190.0156 430,190.375 Q430,190.7188 429.6563,191.125 Q429.1563,191.7188 428.3594,192.0469 Q427.3125,192.5 426.0313,192.5 Q424.5313,192.5 423.3281,191.9063 Q422.3594,191.4375 421.6719,190.4219 Q421,189.4063 421,188.2031 L421,187.1094 Q421,185.8594 421.5938,184.7656 Q422.2031,183.6719 423.25,183.0938 Q424.3125,182.5 425.5,182.5 Q426.2188,182.5 426.8438,182.75 Q427.4688,183 428,183.5 Z " fill="#000000"/><text fill="#000000" font-family="sans-serif" font-size="12" lengthAdjust="spacing" textLength="171" x="440" y="191.9102">ListOrderToBePreparedService</text><line style="stroke:#A80036;stroke-width:1.5;" x1="412" x2="613" y1="203" y2="203"/><line style="stroke:#A80036;stroke-width:1.5;" x1="412" x2="613" y1="211" y2="211"/><!--MD5=[44d79a3d93b8eceb14275b4055a1d0f8]
class FindOrderByIdService--><rect codeLine="20" fill="#FEFECE" filter="url(#f1fsw5j5u2ung)" height="48" id="FindOrderByIdService" style="stroke:#A80036;stroke-width:1.5;" width="150" x="649.5" y="171"/><ellipse cx="664.5" cy="187" fill="#ADD1B2" rx="11" ry="11" style="stroke:#A80036;stroke-width:1.0;"/><path d="M666.5,183.5 Q666.7031,183 666.9375,182.75 Q667.1719,182.5 667.4375,182.5 Q667.9063,182.5 668.2031,182.7813 Q668.5,183.0625 668.5,183.7188 L668.5,185.2813 Q668.5,185.9375 668.2188,186.2188 Q667.9375,186.5 667.5,186.5 Q667.1094,186.5 666.8594,186.3281 Q666.6094,186.1563 666.5,185.7031 Q666.4531,185.3906 666.2813,185.2188 Q665.9688,184.8906 665.4063,184.7031 Q664.8438,184.5 664.2813,184.5 Q663.5781,184.5 662.9844,184.7813 Q662.4063,185.0625 661.9531,185.6875 Q661.5,186.3125 661.5,187.1719 L661.5,188.0938 Q661.5,189.125 662.3438,189.8125 Q663.1875,190.5 664.6875,190.5 Q665.5781,190.5 666.2031,190.2969 Q666.5625,190.1875 666.9688,189.8281 Q667.2344,189.625 667.375,189.5625 Q667.5156,189.5 667.6875,189.5 Q668.0156,189.5 668.25,189.7656 Q668.5,190.0156 668.5,190.375 Q668.5,190.7188 668.1563,191.125 Q667.6563,191.7188 666.8594,192.0469 Q665.8125,192.5 664.5313,192.5 Q663.0313,192.5 661.8281,191.9063 Q660.8594,191.4375 660.1719,190.4219 Q659.5,189.4063 659.5,188.2031 L659.5,187.1094 Q659.5,185.8594 660.0938,184.7656 Q660.7031,183.6719 661.75,183.0938 Q662.8125,182.5 664,182.5 Q664.7188,182.5 665.3438,182.75 Q665.9688,183 666.5,183.5 Z " fill="#000000"/><text fill="#000000" font-family="sans-serif" font-size="12" lengthAdjust="spacing" textLength="118" x="678.5" y="191.9102">FindOrderByIdService</text><line style="stroke:#A80036;stroke-width:1.5;" x1="650.5" x2="798.5" y1="203" y2="203"/><line style="stroke:#A80036;stroke-width:1.5;" x1="650.5" x2="798.5" y1="211" y2="211"/><!--MD5=[67dc59c5061b4ce557a5d1bc5e2962e0]
class AssignOrderService--><rect codeLine="23" fill="#FEFECE" filter="url(#f1fsw5j5u2ung)" height="48" id="AssignOrderService" style="stroke:#A80036;stroke-width:1.5;" width="141" x="7" y="171"/><ellipse cx="22" cy="187" fill="#ADD1B2" rx="11" ry="11" style="stroke:#A80036;stroke-width:1.0;"/><path d="M24,183.5 Q24.2031,183 24.4375,182.75 Q24.6719,182.5 24.9375,182.5 Q25.4063,182.5 25.7031,182.7813 Q26,183.0625 26,183.7188 L26,185.2813 Q26,185.9375 25.7188,186.2188 Q25.4375,186.5 25,186.5 Q24.6094,186.5 24.3594,186.3281 Q24.1094,186.1563 24,185.7031 Q23.9531,185.3906 23.7813,185.2188 Q23.4688,184.8906 22.9063,184.7031 Q22.3438,184.5 21.7813,184.5 Q21.0781,184.5 20.4844,184.7813 Q19.9063,185.0625 19.4531,185.6875 Q19,186.3125 19,187.1719 L19,188.0938 Q19,189.125 19.8438,189.8125 Q20.6875,190.5 22.1875,190.5 Q23.0781,190.5 23.7031,190.2969 Q24.0625,190.1875 24.4688,189.8281 Q24.7344,189.625 24.875,189.5625 Q25.0156,189.5 25.1875,189.5 Q25.5156,189.5 25.75,189.7656 Q26,190.0156 26,190.375 Q26,190.7188 25.6563,191.125 Q25.1563,191.7188 24.3594,192.0469 Q23.3125,192.5 22.0313,192.5 Q20.5313,192.5 19.3281,191.9063 Q18.3594,191.4375 17.6719,190.4219 Q17,189.4063 17,188.2031 L17,187.1094 Q17,185.8594 17.5938,184.7656 Q18.2031,183.6719 19.25,183.0938 Q20.3125,182.5 21.5,182.5 Q22.2188,182.5 22.8438,182.75 Q23.4688,183 24,183.5 Z " fill="#000000"/><text fill="#000000" font-family="sans-serif" font-size="12" lengthAdjust="spacing" textLength="109" x="36" y="191.9102">AssignOrderService</text><line style="stroke:#A80036;stroke-width:1.5;" x1="8" x2="147" y1="203" y2="203"/><line style="stroke:#A80036;stroke-width:1.5;" x1="8" x2="147" y1="211" y2="211"/><!--MD5=[a2934c79e3adc781b0cd87c74812aba5]
class AGVRepository--><rect codeLine="26" fill="#FEFECE" filter="url(#f1fsw5j5u2ung)" height="48" id="AGVRepository" style="stroke:#A80036;stroke-width:1.5;" width="116" x="944.5" y="280"/><ellipse cx="959.5" cy="296" fill="#B4A7E5" rx="11" ry="11" style="stroke:#A80036;stroke-width:1.0;"/><path d="M960.5,293 L960.5,299 L962.5,299 L962.9844,299 L963.5,299.625 L963.5,300 L963.5,300.375 L962.9844,301 L962.5,301 L956.5,301 L956.0156,301 L955.5,300.375 L955.5,300 L955.5,299.625 L956.0156,299 L956.5,299 L958.5,299 L958.5,293 L956.5,293 L956.0156,293 L955.5,292.375 L955.5,292 L955.5,291.625 L956.0156,291 L956.5,291 L962.5,291 L962.9844,291 L963.5,291.625 L963.5,292 L963.5,292.375 L962.9844,293 L962.5,293 L960.5,293 Z " fill="#000000"/><text fill="#000000" font-family="sans-serif" font-size="12" font-style="italic" lengthAdjust="spacing" textLength="84" x="973.5" y="300.9102">AGVRepository</text><line style="stroke:#A80036;stroke-width:1.5;" x1="945.5" x2="1059.5" y1="312" y2="312"/><line style="stroke:#A80036;stroke-width:1.5;" x1="945.5" x2="1059.5" y1="320" y2="320"/><!--MD5=[708e328039b60d50c6285936843ac334]
class OrderRepository--><rect codeLine="29" fill="#FEFECE" filter="url(#f1fsw5j5u2ung)" height="48" id="OrderRepository" style="stroke:#A80036;stroke-width:1.5;" width="122" x="536.5" y="280"/><ellipse cx="551.5" cy="296" fill="#B4A7E5" rx="11" ry="11" style="stroke:#A80036;stroke-width:1.0;"/><path d="M552.5,293 L552.5,299 L554.5,299 L554.9844,299 L555.5,299.625 L555.5,300 L555.5,300.375 L554.9844,301 L554.5,301 L548.5,301 L548.0156,301 L547.5,300.375 L547.5,300 L547.5,299.625 L548.0156,299 L548.5,299 L550.5,299 L550.5,293 L548.5,293 L548.0156,293 L547.5,292.375 L547.5,292 L547.5,291.625 L548.0156,291 L548.5,291 L554.5,291 L554.9844,291 L555.5,291.625 L555.5,292 L555.5,292.375 L554.9844,293 L554.5,293 L552.5,293 Z " fill="#000000"/><text fill="#000000" font-family="sans-serif" font-size="12" font-style="italic" lengthAdjust="spacing" textLength="90" x="565.5" y="300.9102">OrderRepository</text><line style="stroke:#A80036;stroke-width:1.5;" x1="537.5" x2="657.5" y1="312" y2="312"/><line style="stroke:#A80036;stroke-width:1.5;" x1="537.5" x2="657.5" y1="320" y2="320"/><!--MD5=[ca48ba2b2721fd6e9a002e16be14b362]
class TcpSrvAgvManager--><rect codeLine="32" fill="#FEFECE" filter="url(#f1fsw5j5u2ung)" height="48" id="TcpSrvAgvManager" style="stroke:#A80036;stroke-width:1.5;" width="136" x="239.5" y="171"/><ellipse cx="254.5" cy="187" fill="#ADD1B2" rx="11" ry="11" style="stroke:#A80036;stroke-width:1.0;"/><path d="M256.5,183.5 Q256.7031,183 256.9375,182.75 Q257.1719,182.5 257.4375,182.5 Q257.9063,182.5 258.2031,182.7813 Q258.5,183.0625 258.5,183.7188 L258.5,185.2813 Q258.5,185.9375 258.2188,186.2188 Q257.9375,186.5 257.5,186.5 Q257.1094,186.5 256.8594,186.3281 Q256.6094,186.1563 256.5,185.7031 Q256.4531,185.3906 256.2813,185.2188 Q255.9688,184.8906 255.4063,184.7031 Q254.8438,184.5 254.2813,184.5 Q253.5781,184.5 252.9844,184.7813 Q252.4063,185.0625 251.9531,185.6875 Q251.5,186.3125 251.5,187.1719 L251.5,188.0938 Q251.5,189.125 252.3438,189.8125 Q253.1875,190.5 254.6875,190.5 Q255.5781,190.5 256.2031,190.2969 Q256.5625,190.1875 256.9688,189.8281 Q257.2344,189.625 257.375,189.5625 Q257.5156,189.5 257.6875,189.5 Q258.0156,189.5 258.25,189.7656 Q258.5,190.0156 258.5,190.375 Q258.5,190.7188 258.1563,191.125 Q257.6563,191.7188 256.8594,192.0469 Q255.8125,192.5 254.5313,192.5 Q253.0313,192.5 251.8281,191.9063 Q250.8594,191.4375 250.1719,190.4219 Q249.5,189.4063 249.5,188.2031 L249.5,187.1094 Q249.5,185.8594 250.0938,184.7656 Q250.7031,183.6719 251.75,183.0938 Q252.8125,182.5 254,182.5 Q254.7188,182.5 255.3438,182.75 Q255.9688,183 256.5,183.5 Z " fill="#000000"/><text fill="#000000" font-family="sans-serif" font-size="12" lengthAdjust="spacing" textLength="104" x="268.5" y="191.9102">TcpSrvAgvManager</text><line style="stroke:#A80036;stroke-width:1.5;" x1="240.5" x2="374.5" y1="203" y2="203"/><line style="stroke:#A80036;stroke-width:1.5;" x1="240.5" x2="374.5" y1="211" y2="211"/><!--MD5=[4794923e33bb639dca4b001efc4d14d1]
class FindAGVReadyService--><rect fill="#FEFECE" filter="url(#f1fsw5j5u2ung)" height="48" id="FindAGVReadyService" style="stroke:#A80036;stroke-width:1.5;" width="154" x="834.5" y="171"/><ellipse cx="849.5" cy="187" fill="#ADD1B2" rx="11" ry="11" style="stroke:#A80036;stroke-width:1.0;"/><path d="M851.5,183.5 Q851.7031,183 851.9375,182.75 Q852.1719,182.5 852.4375,182.5 Q852.9063,182.5 853.2031,182.7813 Q853.5,183.0625 853.5,183.7188 L853.5,185.2813 Q853.5,185.9375 853.2188,186.2188 Q852.9375,186.5 852.5,186.5 Q852.1094,186.5 851.8594,186.3281 Q851.6094,186.1563 851.5,185.7031 Q851.4531,185.3906 851.2813,185.2188 Q850.9688,184.8906 850.4063,184.7031 Q849.8438,184.5 849.2813,184.5 Q848.5781,184.5 847.9844,184.7813 Q847.4063,185.0625 846.9531,185.6875 Q846.5,186.3125 846.5,187.1719 L846.5,188.0938 Q846.5,189.125 847.3438,189.8125 Q848.1875,190.5 849.6875,190.5 Q850.5781,190.5 851.2031,190.2969 Q851.5625,190.1875 851.9688,189.8281 Q852.2344,189.625 852.375,189.5625 Q852.5156,189.5 852.6875,189.5 Q853.0156,189.5 853.25,189.7656 Q853.5,190.0156 853.5,190.375 Q853.5,190.7188 853.1563,191.125 Q852.6563,191.7188 851.8594,192.0469 Q850.8125,192.5 849.5313,192.5 Q848.0313,192.5 846.8281,191.9063 Q845.8594,191.4375 845.1719,190.4219 Q844.5,189.4063 844.5,188.2031 L844.5,187.1094 Q844.5,185.8594 845.0938,184.7656 Q845.7031,183.6719 846.75,183.0938 Q847.8125,182.5 849,182.5 Q849.7188,182.5 850.3438,182.75 Q850.9688,183 851.5,183.5 Z " fill="#000000"/><text fill="#000000" font-family="sans-serif" font-size="12" lengthAdjust="spacing" textLength="122" x="863.5" y="191.9102">FindAGVReadyService</text><line style="stroke:#A80036;stroke-width:1.5;" x1="835.5" x2="987.5" y1="203" y2="203"/><line style="stroke:#A80036;stroke-width:1.5;" x1="835.5" x2="987.5" y1="211" y2="211"/><!--MD5=[49fa0737c422f931d6538b4a039d465e]
class FindAGVByIdService--><rect fill="#FEFECE" filter="url(#f1fsw5j5u2ung)" height="48" id="FindAGVByIdService" style="stroke:#A80036;stroke-width:1.5;" width="142" x="1023.5" y="171"/><ellipse cx="1038.5" cy="187" fill="#ADD1B2" rx="11" ry="11" style="stroke:#A80036;stroke-width:1.0;"/><path d="M1040.5,183.5 Q1040.7031,183 1040.9375,182.75 Q1041.1719,182.5 1041.4375,182.5 Q1041.9063,182.5 1042.2031,182.7813 Q1042.5,183.0625 1042.5,183.7188 L1042.5,185.2813 Q1042.5,185.9375 1042.2188,186.2188 Q1041.9375,186.5 1041.5,186.5 Q1041.1094,186.5 1040.8594,186.3281 Q1040.6094,186.1563 1040.5,185.7031 Q1040.4531,185.3906 1040.2813,185.2188 Q1039.9688,184.8906 1039.4063,184.7031 Q1038.8438,184.5 1038.2813,184.5 Q1037.5781,184.5 1036.9844,184.7813 Q1036.4063,185.0625 1035.9531,185.6875 Q1035.5,186.3125 1035.5,187.1719 L1035.5,188.0938 Q1035.5,189.125 1036.3438,189.8125 Q1037.1875,190.5 1038.6875,190.5 Q1039.5781,190.5 1040.2031,190.2969 Q1040.5625,190.1875 1040.9688,189.8281 Q1041.2344,189.625 1041.375,189.5625 Q1041.5156,189.5 1041.6875,189.5 Q1042.0156,189.5 1042.25,189.7656 Q1042.5,190.0156 1042.5,190.375 Q1042.5,190.7188 1042.1563,191.125 Q1041.6563,191.7188 1040.8594,192.0469 Q1039.8125,192.5 1038.5313,192.5 Q1037.0313,192.5 1035.8281,191.9063 Q1034.8594,191.4375 1034.1719,190.4219 Q1033.5,189.4063 1033.5,188.2031 L1033.5,187.1094 Q1033.5,185.8594 1034.0938,184.7656 Q1034.7031,183.6719 1035.75,183.0938 Q1036.8125,182.5 1038,182.5 Q1038.7188,182.5 1039.3438,182.75 Q1039.9688,183 1040.5,183.5 Z " fill="#000000"/><text fill="#000000" font-family="sans-serif" font-size="12" lengthAdjust="spacing" textLength="110" x="1052.5" y="191.9102">FindAGVByIdService</text><line style="stroke:#A80036;stroke-width:1.5;" x1="1024.5" x2="1164.5" y1="203" y2="203"/><line style="stroke:#A80036;stroke-width:1.5;" x1="1024.5" x2="1164.5" y1="211" y2="211"/><!--MD5=[1586b45703dc8c162df1a51c65b5dfe9]
link BaseBackoffice to ForceOrderOnAGVUI--><path codeLine="35" d="M194.11,58.5 C204.07,58.5 214.04,58.5 224,58.5 " fill="none" id="BaseBackoffice-to-ForceOrderOnAGVUI" style="stroke:#A80036;stroke-width:1.0;"/><polygon fill="#A80036" points="229.21,58.5,220.21,54.5,224.21,58.5,220.21,62.5,229.21,58.5" style="stroke:#A80036;stroke-width:1.0;"/><!--MD5=[611ee8c4a0273c65a9b53c2103b9e329]
link ForceOrderOnAGVUI to AssignOrderController--><path codeLine="37" d="M525.58,58.5 C535.62,58.5 545.66,58.5 555.69,58.5 " fill="none" id="ForceOrderOnAGVUI-to-AssignOrderController" style="stroke:#A80036;stroke-width:1.0;"/><polygon fill="#A80036" points="560.94,58.5,551.94,54.5,555.94,58.5,551.94,62.5,560.94,58.5" style="stroke:#A80036;stroke-width:1.0;"/><!--MD5=[b106e3a06015f7879508134f964e435e]
link AssignOrderController to ListOrderToBePreparedService--><path codeLine="39" d="M644.65,110.16 C613.48,129.94 579.08,151.76 553.19,168.18 " fill="none" id="AssignOrderController-to-ListOrderToBePreparedService" style="stroke:#A80036;stroke-width:1.0;"/><polygon fill="#A80036" points="548.79,170.98,558.5317,169.5313,553.0107,168.2993,554.2426,162.7782,548.79,170.98" style="stroke:#A80036;stroke-width:1.0;"/><!--MD5=[26273ca45b61b15c90bb9189c87cf4a7]
link AssignOrderController to FindOrderByIdService--><path codeLine="40" d="M724.5,110.35 C724.5,129.06 724.5,149.58 724.5,165.61 " fill="none" id="AssignOrderController-to-FindOrderByIdService" style="stroke:#A80036;stroke-width:1.0;"/><polygon fill="#A80036" points="724.5,170.87,728.5,161.87,724.5,165.87,720.5,161.87,724.5,170.87" style="stroke:#A80036;stroke-width:1.0;"/><!--MD5=[981c20d316eaa911b72012fcab187395]
link AssignOrderController to FindAGVReadyService--><path codeLine="41" d="M794.93,110.16 C822.22,129.79 852.31,151.43 875.08,167.8 " fill="none" id="AssignOrderController-to-FindAGVReadyService" style="stroke:#A80036;stroke-width:1.0;"/><polygon fill="#A80036" points="879.24,170.8,874.2837,162.2891,875.1859,167.8736,869.6014,168.7758,879.24,170.8" style="stroke:#A80036;stroke-width:1.0;"/><!--MD5=[7e6989b6153878d8ab9686a1ec29175b]
link AssignOrderController to FindAGVByIdService--><path codeLine="42" d="M863.59,110.06 C919.16,130.26 980.62,152.6 1026.16,169.16 " fill="none" id="AssignOrderController-to-FindAGVByIdService" style="stroke:#A80036;stroke-width:1.0;"/><polygon fill="#A80036" points="1031.07,170.94,1023.9672,164.1173,1026.3681,169.2393,1021.2461,171.6403,1031.07,170.94" style="stroke:#A80036;stroke-width:1.0;"/><!--MD5=[c5056f13e96042f99d3a029fcafbdf30]
link AssignOrderController to AssignOrderService--><path codeLine="43" d="M560.98,105.64 C554.75,107.15 548.57,108.61 542.5,110 C469.71,126.64 265.3,162.09 153.28,181.18 " fill="none" id="AssignOrderController-to-AssignOrderService" style="stroke:#A80036;stroke-width:1.0;"/><polygon fill="#A80036" points="148.34,182.03,157.8786,184.4825,153.2708,181.2011,156.5523,176.5933,148.34,182.03" style="stroke:#A80036;stroke-width:1.0;"/><!--MD5=[9d5a0214ae3573f4a03083e181ca29d5]
link AssignOrderService to TcpSrvAgvManager--><path codeLine="45" d="M148.07,195 C175.42,195 206.73,195 234.32,195 " fill="none" id="AssignOrderService-to-TcpSrvAgvManager" style="stroke:#A80036;stroke-width:1.0;"/><polygon fill="#A80036" points="239.43,195,230.43,191,234.43,195,230.43,199,239.43,195" style="stroke:#A80036;stroke-width:1.0;"/><text fill="#000000" font-family="sans-serif" font-size="13" lengthAdjust="spacing" textLength="55" x="166.25" y="188.4951">Connects</text><!--MD5=[56b21ab9f5732fb247538090bb8f80f3]
link ListOrderToBePreparedService to OrderRepository--><path codeLine="47" d="M530.94,219.22 C544.09,235.76 561.81,258.07 575.66,275.51 " fill="none" id="ListOrderToBePreparedService-to-OrderRepository" style="stroke:#A80036;stroke-width:1.0;"/><polygon fill="#A80036" points="579.09,279.83,576.6167,270.2967,575.977,275.9173,570.3564,275.2776,579.09,279.83" style="stroke:#A80036;stroke-width:1.0;"/><!--MD5=[87b0e0dee4f2681d6f557ea5aaf6f5ff]
link FindOrderByIdService to OrderRepository--><path codeLine="48" d="M696.94,219.22 C676.97,236.04 649.93,258.83 629.09,276.39 " fill="none" id="FindOrderByIdService-to-OrderRepository" style="stroke:#A80036;stroke-width:1.0;"/><polygon fill="#A80036" points="625,279.83,634.4598,277.0892,628.8234,276.608,629.3046,270.9716,625,279.83" style="stroke:#A80036;stroke-width:1.0;"/><!--MD5=[a278ad23fed4abe561ab1b90e89cb90e]
link FindAGVReadyService to AGVRepository--><path codeLine="49" d="M931.25,219.22 C945.44,235.9 964.61,258.45 979.49,275.95 " fill="none" id="FindAGVReadyService-to-AGVRepository" style="stroke:#A80036;stroke-width:1.0;"/><polygon fill="#A80036" points="982.79,279.83,980.0285,270.3762,979.5596,276.0136,973.9223,275.5448,982.79,279.83" style="stroke:#A80036;stroke-width:1.0;"/><!--MD5=[463ff024b2896ce53760513f8aa03ddd]
link FindAGVByIdService to AGVRepository--><path codeLine="50" d="M1074.54,219.22 C1060.19,235.9 1040.81,258.45 1025.76,275.95 " fill="none" id="FindAGVByIdService-to-AGVRepository" style="stroke:#A80036;stroke-width:1.0;"/><polygon fill="#A80036" points="1022.42,279.83,1031.322,275.6164,1025.681,276.0398,1025.2577,270.3988,1022.42,279.83" style="stroke:#A80036;stroke-width:1.0;"/><!--MD5=[20e24fc668331941cb4f2e767f62ccca]
@startuml

class BaseBackoffice{
    -MainMenu menu
}

class ForceOrderOnAGVUI{
    ForceOrderOnAGVController forceOrderOnAGVController;
}

class AssignOrderController{
    -AuthorizationService authz;
    -SystemUser currentUser;
    -AssignOrderService assignOrderService
    -ListOrderToBePreparedService listOrderToBePreparedService
}

class ListOrderToBePreparedService{
}

class FindOrderByIdService{
}

class AssignOrderService{
}

interface AGVRepository{
}

interface OrderRepository{
}

class TcpSrvAgvManager{
}

BaseBackoffice -> ForceOrderOnAGVUI

ForceOrderOnAGVUI -> AssignOrderController

AssignOrderController -down-> ListOrderToBePreparedService
AssignOrderController -down-> FindOrderByIdService
AssignOrderController -down-> FindAGVReadyService
AssignOrderController -down-> FindAGVByIdService
AssignOrderController -down-> AssignOrderService

AssignOrderService -right-> TcpSrvAgvManager : Connects

ListOrderToBePreparedService -down-> OrderRepository
FindOrderByIdService -down-> OrderRepository
FindAGVReadyService -down-> AGVRepository
FindAGVByIdService -down-> AGVRepository

@enduml

PlantUML version 1.2021.11(Sat Oct 02 14:26:11 BST 2021)
(GPL source distribution)
Java Runtime: OpenJDK Runtime Environment
JVM: OpenJDK 64-Bit Server VM
Default Encoding: Cp1252
Language: pt
Country: PT
--></g></svg>