<?xml version="1.0" encoding="UTF-8" standalone="no"?><svg xmlns="http://www.w3.org/2000/svg" xmlns:xlink="http://www.w3.org/1999/xlink" contentScriptType="application/ecmascript" contentStyleType="text/css" height="227px" preserveAspectRatio="none" style="width:713px;height:227px;background:#FFFFFF;" version="1.1" viewBox="0 0 713 227" width="713px" zoomAndPan="magnify"><defs><filter height="300%" id="f1lnvxx88fyray" width="300%" x="-1" y="-1"><feGaussianBlur result="blurOut" stdDeviation="2.0"/><feColorMatrix in="blurOut" result="blurOut2" type="matrix" values="0 0 0 0 0 0 0 0 0 0 0 0 0 0 0 0 0 0 .4 0"/><feOffset dx="4.0" dy="4.0" in="blurOut2" result="blurOut3"/><feBlend in="SourceGraphic" in2="blurOut3" mode="normal"/></filter></defs><g><!--MD5=[a1db4bf20df23ac2cd9366d22a9e2860]
class ProductCategory--><rect codeLine="2" fill="#FEFECE" filter="url(#f1lnvxx88fyray)" height="75.6719" id="ProductCategory" style="stroke:#A80036;stroke-width:1.5;" width="123" x="7" y="95.8564"/><ellipse cx="22" cy="111.8564" fill="#ADD1B2" rx="11" ry="11" style="stroke:#A80036;stroke-width:1.0;"/><path d="M20.5,112.8564 L20.5,114.8564 L24.5,114.8564 L24.5,113.8564 L24.5,113.3721 L25.125,112.8564 L25.5,112.8564 L25.875,112.8564 L26.5,113.3721 L26.5,113.8564 L26.5,116.8564 L18.5,116.8564 L18.0156,116.8564 L17.5,116.2314 L17.5,115.8564 L17.5,115.4814 L18.0156,114.8564 L18.5,114.8564 L18.5,114.8564 L18.5,108.8564 L18.5,108.8564 L18.0156,108.8564 L17.5,108.2314 L17.5,107.8564 L17.5,107.4814 L18.0156,106.8564 L18.5,106.8564 L26.5,106.8564 L26.5,109.8564 L26.5,110.3408 L25.875,110.8564 L25.5,110.8564 L25.125,110.8564 L24.5,110.3408 L24.5,109.8564 L24.5,108.8564 L20.5,108.8564 L20.5,110.8564 L21.5,110.8564 L21.5,110.3721 L21.5,110.3721 L22.125,109.8564 L22.5,109.8564 L22.875,109.8564 L23.5,110.3721 L23.5,110.8564 L23.5,112.8564 L23.5,113.3408 L22.875,113.8564 L22.875,113.8564 L22.5,113.8564 L22.125,113.8564 L21.5,113.3408 L21.5,113.3408 L21.5,112.8564 L20.5,112.8564 Z " fill="#000000"/><text fill="#000000" font-family="sans-serif" font-size="12" lengthAdjust="spacing" textLength="91" x="36" y="116.7666">ProductCategory</text><line style="stroke:#A80036;stroke-width:1.5;" x1="8" x2="129" y1="127.8564" y2="127.8564"/><rect fill="none" height="6" style="stroke:#C82930;stroke-width:1.0;" width="6" x="15" y="135.8564"/><text fill="#000000" font-family="sans-serif" font-size="11" lengthAdjust="spacing" textLength="58" x="27" y="143.2754">code : Code</text><rect fill="none" height="6" style="stroke:#C82930;stroke-width:1.0;" width="6" x="15" y="149.6924"/><text fill="#000000" font-family="sans-serif" font-size="11" lengthAdjust="spacing" textLength="87" x="27" y="157.1113">description: String</text><line style="stroke:#A80036;stroke-width:1.5;" x1="8" x2="129" y1="163.5283" y2="163.5283"/><!--MD5=[3fd616f346a44cd59a91eb10b19e157c]
class User--><rect codeLine="9" fill="#FEFECE" filter="url(#f1lnvxx88fyray)" height="131.0156" id="User" style="stroke:#A80036;stroke-width:1.5;" width="135" x="319" y="68.3564"/><ellipse cx="368.75" cy="84.3564" fill="#ADD1B2" rx="11" ry="11" style="stroke:#A80036;stroke-width:1.0;"/><path d="M367.25,85.3564 L367.25,87.3564 L371.25,87.3564 L371.25,86.3564 L371.25,85.8721 L371.875,85.3564 L372.25,85.3564 L372.625,85.3564 L373.25,85.8721 L373.25,86.3564 L373.25,89.3564 L365.25,89.3564 L364.7656,89.3564 L364.25,88.7314 L364.25,88.3564 L364.25,87.9814 L364.7656,87.3564 L365.25,87.3564 L365.25,87.3564 L365.25,81.3564 L365.25,81.3564 L364.7656,81.3564 L364.25,80.7314 L364.25,80.3564 L364.25,79.9814 L364.7656,79.3564 L365.25,79.3564 L373.25,79.3564 L373.25,82.3564 L373.25,82.8408 L372.625,83.3564 L372.25,83.3564 L371.875,83.3564 L371.25,82.8408 L371.25,82.3564 L371.25,81.3564 L367.25,81.3564 L367.25,83.3564 L368.25,83.3564 L368.25,82.8721 L368.25,82.8721 L368.875,82.3564 L369.25,82.3564 L369.625,82.3564 L370.25,82.8721 L370.25,83.3564 L370.25,85.3564 L370.25,85.8408 L369.625,86.3564 L369.625,86.3564 L369.25,86.3564 L368.875,86.3564 L368.25,85.8408 L368.25,85.8408 L368.25,85.3564 L367.25,85.3564 Z " fill="#000000"/><text fill="#000000" font-family="sans-serif" font-size="12" lengthAdjust="spacing" textLength="27" x="389.25" y="89.2666">User</text><line style="stroke:#A80036;stroke-width:1.5;" x1="320" x2="453" y1="100.3564" y2="100.3564"/><ellipse cx="330" cy="111.3564" fill="none" rx="3" ry="3" style="stroke:#038048;stroke-width:1.0;"/><text fill="#000000" font-family="sans-serif" font-size="11" lengthAdjust="spacing" textLength="72" x="339" y="115.7754">state : Boolean</text><rect fill="none" height="6" style="stroke:#C82930;stroke-width:1.0;" width="6" x="327" y="122.1924"/><text fill="#000000" font-family="sans-serif" font-size="11" lengthAdjust="spacing" textLength="63" x="339" y="129.6113">name : String</text><rect fill="none" height="6" style="stroke:#C82930;stroke-width:1.0;" width="6" x="327" y="136.0283"/><text fill="#000000" font-family="sans-serif" font-size="11" lengthAdjust="spacing" textLength="71" x="339" y="143.4473">gender : String</text><rect fill="none" height="6" style="stroke:#C82930;stroke-width:1.0;" width="6" x="327" y="149.8643"/><text fill="#000000" font-family="sans-serif" font-size="11" lengthAdjust="spacing" textLength="57" x="339" y="157.2832">email : Email</text><rect fill="none" height="6" style="stroke:#C82930;stroke-width:1.0;" width="6" x="327" y="163.7002"/><text fill="#000000" font-family="sans-serif" font-size="11" lengthAdjust="spacing" textLength="109" x="339" y="171.1191">password : Password</text><rect fill="none" height="6" style="stroke:#C82930;stroke-width:1.0;" width="6" x="327" y="177.5361"/><text fill="#000000" font-family="sans-serif" font-size="11" lengthAdjust="spacing" textLength="71" x="339" y="184.9551">role : UserRole</text><line style="stroke:#A80036;stroke-width:1.5;" x1="320" x2="453" y1="191.3721" y2="191.3721"/><!--MD5=[72136138052d025cffdce3c22fbd185f]
class Product--><rect codeLine="18" fill="#FEFECE" filter="url(#f1lnvxx88fyray)" height="158.6875" id="Product" style="stroke:#A80036;stroke-width:1.5;" width="165" x="534" y="54.3564"/><ellipse cx="591.25" cy="70.3564" fill="#ADD1B2" rx="11" ry="11" style="stroke:#A80036;stroke-width:1.0;"/><path d="M589.75,71.3564 L589.75,73.3564 L593.75,73.3564 L593.75,72.3564 L593.75,71.8721 L594.375,71.3564 L594.75,71.3564 L595.125,71.3564 L595.75,71.8721 L595.75,72.3564 L595.75,75.3564 L587.75,75.3564 L587.2656,75.3564 L586.75,74.7314 L586.75,74.3564 L586.75,73.9814 L587.2656,73.3564 L587.75,73.3564 L587.75,73.3564 L587.75,67.3564 L587.75,67.3564 L587.2656,67.3564 L586.75,66.7314 L586.75,66.3564 L586.75,65.9814 L587.2656,65.3564 L587.75,65.3564 L595.75,65.3564 L595.75,68.3564 L595.75,68.8408 L595.125,69.3564 L594.75,69.3564 L594.375,69.3564 L593.75,68.8408 L593.75,68.3564 L593.75,67.3564 L589.75,67.3564 L589.75,69.3564 L590.75,69.3564 L590.75,68.8721 L590.75,68.8721 L591.375,68.3564 L591.75,68.3564 L592.125,68.3564 L592.75,68.8721 L592.75,69.3564 L592.75,71.3564 L592.75,71.8408 L592.125,72.3564 L592.125,72.3564 L591.75,72.3564 L591.375,72.3564 L590.75,71.8408 L590.75,71.8408 L590.75,71.3564 L589.75,71.3564 Z " fill="#000000"/><text fill="#000000" font-family="sans-serif" font-size="12" lengthAdjust="spacing" textLength="42" x="611.75" y="75.2666">Product</text><line style="stroke:#A80036;stroke-width:1.5;" x1="535" x2="698" y1="86.3564" y2="86.3564"/><rect fill="none" height="6" style="stroke:#C82930;stroke-width:1.0;" width="6" x="542" y="94.3564"/><text fill="#000000" font-family="sans-serif" font-size="11" lengthAdjust="spacing" textLength="133" x="554" y="101.7754">category : ProductCategory</text><rect fill="none" height="6" style="stroke:#C82930;stroke-width:1.0;" width="6" x="542" y="108.1924"/><text fill="#000000" font-family="sans-serif" font-size="11" lengthAdjust="spacing" textLength="58" x="554" y="115.6113">code : Code</text><rect fill="none" height="6" style="stroke:#C82930;stroke-width:1.0;" width="6" x="542" y="122.0283"/><text fill="#000000" font-family="sans-serif" font-size="11" lengthAdjust="spacing" textLength="116" x="554" y="129.4473">shortDescription : String</text><rect fill="none" height="6" style="stroke:#C82930;stroke-width:1.0;" width="6" x="542" y="135.8643"/><text fill="#000000" font-family="sans-serif" font-size="11" lengthAdjust="spacing" textLength="136" x="554" y="143.2832">extendedDescription : String</text><rect fill="none" height="6" style="stroke:#C82930;stroke-width:1.0;" width="6" x="542" y="149.7002"/><text fill="#000000" font-family="sans-serif" font-size="11" lengthAdjust="spacing" textLength="134" x="554" y="157.1191">technicalDescription : String</text><rect fill="none" height="6" style="stroke:#C82930;stroke-width:1.0;" width="6" x="542" y="163.5361"/><text fill="#000000" font-family="sans-serif" font-size="11" lengthAdjust="spacing" textLength="139" x="554" y="170.9551">listOfPhotos : TO DETERMINE</text><rect fill="none" height="6" style="stroke:#C82930;stroke-width:1.0;" width="6" x="542" y="177.3721"/><text fill="#000000" font-family="sans-serif" font-size="11" lengthAdjust="spacing" textLength="92" x="554" y="184.791">brandName : String</text><rect fill="none" height="6" style="stroke:#C82930;stroke-width:1.0;" width="6" x="542" y="191.208"/><text fill="#000000" font-family="sans-serif" font-size="11" lengthAdjust="spacing" textLength="82" x="554" y="198.627">reference: String</text><line style="stroke:#A80036;stroke-width:1.5;" x1="535" x2="698" y1="205.0439" y2="205.0439"/><!--MD5=[12ec3e7a2112f6fb39905cee85e684f9]
reverse link ProductCategory to User--><path codeLine="29" d="M135.34,133.8564 C189.27,133.8564 264.81,133.8564 318.93,133.8564 " fill="none" id="ProductCategory-backto-User" style="stroke:#A80036;stroke-width:1.0;"/><polygon fill="#A80036" points="130.19,133.8564,139.19,137.8564,135.19,133.8564,139.19,129.8564,130.19,133.8564" style="stroke:#A80036;stroke-width:1.0;"/><text fill="#000000" font-family="sans-serif" font-size="13" lengthAdjust="spacing" textLength="152" x="148.5" y="127.3516">choose a productCategory</text><!--MD5=[057ee07bb7b2e2aedbcccdbc42ce2201]
link User to Product--><path codeLine="30" d="M454.26,133.8564 C477.52,133.8564 503.9,133.8564 528.52,133.8564 " fill="none" id="User-to-Product" style="stroke:#A80036;stroke-width:1.0;"/><polygon fill="#A80036" points="533.75,133.8564,524.75,129.8564,528.75,133.8564,524.75,137.8564,533.75,133.8564" style="stroke:#A80036;stroke-width:1.0;"/><text fill="#000000" font-family="sans-serif" font-size="13" lengthAdjust="spacing" textLength="43" x="472.5" y="127.3516">creates</text><!--MD5=[5c0c66984b48f13f6f1fd84ba8e61151]
link Product to ProductCategory--><path codeLine="31" d="M533.76,76.7464 C475.33,43.1364 394.48,9.9764 320,25.3564 C254.13,38.9564 184.28,70.6464 134.95,96.2864 " fill="none" id="Product-to-ProductCategory" style="stroke:#A80036;stroke-width:1.0;"/><polygon fill="#A80036" points="130.24,98.7564,140.0691,98.1332,134.6714,96.4407,136.3639,91.043,130.24,98.7564" style="stroke:#A80036;stroke-width:1.0;"/><text fill="#000000" font-family="sans-serif" font-size="13" lengthAdjust="spacing" textLength="21" x="321" y="20.8516">has</text><text fill="#000000" font-family="sans-serif" font-size="13" lengthAdjust="spacing" textLength="7" x="519.0793" y="68.4723">1</text><text fill="#000000" font-family="sans-serif" font-size="13" lengthAdjust="spacing" textLength="7" x="138.1911" y="91.0402">1</text><!--MD5=[df971f5e81c8b9bac73c042a6defbe1f]
@startuml

Entity ProductCategory {

-code : Code
-description: String

}

Entity User {
+state : Boolean
-name : String
-gender : String
-email : Email
-password : Password
-role : UserRole
}

Entity Product {
-category : ProductCategory
-code : Code
-shortDescription : String
-extendedDescription : String
-technicalDescription : String
-listOfPhotos : TO DETERMINE
-brandName : String
-reference: String
}

User -up> ProductCategory : choose a productCategory
User -> Product : creates
Product "1" -> "1" ProductCategory : has

@enduml

PlantUML version 1.2022.1(Tue Feb 01 18:19:58 GMT 2022)
(GPL source distribution)
Java Runtime: OpenJDK Runtime Environment
JVM: OpenJDK 64-Bit Server VM
Default Encoding: Cp1252
Language: pt
Country: PT
--></g></svg>