<?xml version="1.0" encoding="UTF-8" standalone="no"?><svg xmlns="http://www.w3.org/2000/svg" xmlns:xlink="http://www.w3.org/1999/xlink" contentStyleType="text/css" height="605px" preserveAspectRatio="none" style="width:657px;height:605px;background:#FFFFFF;" version="1.1" viewBox="0 0 657 605" width="657px" zoomAndPan="magnify"><defs/><g><line style="stroke:#181818;stroke-width:0.5;stroke-dasharray:5.0,5.0;" x1="42" x2="42" y1="82.6094" y2="523.1797"/><line style="stroke:#181818;stroke-width:0.5;stroke-dasharray:5.0,5.0;" x1="509" x2="509" y1="82.6094" y2="523.1797"/><text fill="#000000" font-family="sans-serif" font-size="14" lengthAdjust="spacing" textLength="68" x="5" y="79.5332">SalesClerk</text><ellipse cx="42" cy="13.5" fill="#E2E2F0" rx="8" ry="8" style="stroke:#181818;stroke-width:0.5;"/><path d="M42,21.5 L42,48.5 M29,29.5 L55,29.5 M42,48.5 L29,63.5 M42,48.5 L55,63.5 " fill="none" style="stroke:#181818;stroke-width:0.5;"/><text fill="#000000" font-family="sans-serif" font-size="14" lengthAdjust="spacing" textLength="68" x="5" y="536.7129">SalesClerk</text><ellipse cx="42" cy="548.2891" fill="#E2E2F0" rx="8" ry="8" style="stroke:#181818;stroke-width:0.5;"/><path d="M42,556.2891 L42,583.2891 M29,564.2891 L55,564.2891 M42,583.2891 L29,598.2891 M42,583.2891 L55,598.2891 " fill="none" style="stroke:#181818;stroke-width:0.5;"/><rect fill="#E2E2F0" height="31.6094" rx="2.5" ry="2.5" style="stroke:#181818;stroke-width:0.5;" width="60" x="479" y="50"/><text fill="#000000" font-family="sans-serif" font-size="14" lengthAdjust="spacing" textLength="46" x="486" y="71.5332">System</text><rect fill="#E2E2F0" height="31.6094" rx="2.5" ry="2.5" style="stroke:#181818;stroke-width:0.5;" width="60" x="479" y="522.1797"/><text fill="#000000" font-family="sans-serif" font-size="14" lengthAdjust="spacing" textLength="46" x="486" y="543.7129">System</text><polygon fill="#181818" points="497,110.9609,507,114.9609,497,118.9609,501,114.9609" style="stroke:#181818;stroke-width:1.0;"/><line style="stroke:#181818;stroke-width:1.0;" x1="42" x2="503" y1="114.9609" y2="114.9609"/><text fill="#000000" font-family="sans-serif" font-size="13" font-weight="bold" lengthAdjust="spacing" textLength="7" x="49" y="110.1045">1</text><text fill="#000000" font-family="sans-serif" font-size="13" lengthAdjust="spacing" textLength="196" x="60" y="110.1045">Wants to register a new costumer</text><polygon fill="#181818" points="53,141.3125,43,145.3125,53,149.3125,49,145.3125" style="stroke:#181818;stroke-width:1.0;"/><line style="stroke:#181818;stroke-width:1.0;stroke-dasharray:2.0,2.0;" x1="47" x2="508" y1="145.3125" y2="145.3125"/><text fill="#000000" font-family="sans-serif" font-size="13" font-weight="bold" lengthAdjust="spacing" textLength="7" x="59" y="140.4561">2</text><text fill="#000000" font-family="sans-serif" font-size="13" lengthAdjust="spacing" textLength="432" x="70" y="140.4561">Asks for the needed data (name,gender,email,phone number,VAT,address)</text><polygon fill="#181818" points="497,171.6641,507,175.6641,497,179.6641,501,175.6641" style="stroke:#181818;stroke-width:1.0;"/><line style="stroke:#181818;stroke-width:1.0;" x1="42" x2="503" y1="175.6641" y2="175.6641"/><text fill="#000000" font-family="sans-serif" font-size="13" font-weight="bold" lengthAdjust="spacing" textLength="7" x="49" y="170.8076">3</text><text fill="#000000" font-family="sans-serif" font-size="13" lengthAdjust="spacing" textLength="172" x="60" y="170.8076">Introduces the requested data</text><line style="stroke:#181818;stroke-width:1.0;" x1="509" x2="551" y1="206.0156" y2="206.0156"/><line style="stroke:#181818;stroke-width:1.0;" x1="551" x2="551" y1="206.0156" y2="219.0156"/><line style="stroke:#181818;stroke-width:1.0;" x1="510" x2="551" y1="219.0156" y2="219.0156"/><polygon fill="#181818" points="520,215.0156,510,219.0156,520,223.0156,516,219.0156" style="stroke:#181818;stroke-width:1.0;"/><text fill="#000000" font-family="sans-serif" font-size="13" font-weight="bold" lengthAdjust="spacing" textLength="7" x="516" y="201.1592">4</text><text fill="#000000" font-family="sans-serif" font-size="13" lengthAdjust="spacing" textLength="83" x="527" y="201.1592">Validates data</text><polygon fill="#181818" points="53,245.3672,43,249.3672,53,253.3672,49,249.3672" style="stroke:#181818;stroke-width:1.0;"/><line style="stroke:#181818;stroke-width:1.0;stroke-dasharray:2.0,2.0;" x1="47" x2="508" y1="249.3672" y2="249.3672"/><text fill="#000000" font-family="sans-serif" font-size="13" font-weight="bold" lengthAdjust="spacing" textLength="7" x="59" y="244.5107">5</text><text fill="#000000" font-family="sans-serif" font-size="13" lengthAdjust="spacing" textLength="239" x="70" y="244.5107">Shows the data and asks for confirmation</text><polygon fill="#181818" points="497,275.7188,507,279.7188,497,283.7188,501,279.7188" style="stroke:#181818;stroke-width:1.0;"/><line style="stroke:#181818;stroke-width:1.0;" x1="42" x2="503" y1="279.7188" y2="279.7188"/><text fill="#000000" font-family="sans-serif" font-size="13" font-weight="bold" lengthAdjust="spacing" textLength="7" x="49" y="274.8623">6</text><text fill="#000000" font-family="sans-serif" font-size="13" lengthAdjust="spacing" textLength="51" x="60" y="274.8623">Confirms</text><polygon fill="#181818" points="53,306.0703,43,310.0703,53,314.0703,49,310.0703" style="stroke:#181818;stroke-width:1.0;"/><line style="stroke:#181818;stroke-width:1.0;stroke-dasharray:2.0,2.0;" x1="47" x2="508" y1="310.0703" y2="310.0703"/><text fill="#000000" font-family="sans-serif" font-size="13" font-weight="bold" lengthAdjust="spacing" textLength="7" x="59" y="305.2139">7</text><text fill="#000000" font-family="sans-serif" font-size="13" lengthAdjust="spacing" textLength="164" x="70" y="305.2139">Operation successfully done</text><polygon fill="#181818" points="53,336.4219,43,340.4219,53,344.4219,49,340.4219" style="stroke:#181818;stroke-width:1.0;"/><line style="stroke:#181818;stroke-width:1.0;stroke-dasharray:2.0,2.0;" x1="47" x2="508" y1="340.4219" y2="340.4219"/><text fill="#000000" font-family="sans-serif" font-size="13" font-weight="bold" lengthAdjust="spacing" textLength="7" x="59" y="335.5654">8</text><text fill="#000000" font-family="sans-serif" font-size="13" lengthAdjust="spacing" textLength="345" x="70" y="335.5654">Asks if it is wanted to give the customer system credentials</text><polygon fill="#181818" points="497,366.7734,507,370.7734,497,374.7734,501,370.7734" style="stroke:#181818;stroke-width:1.0;"/><line style="stroke:#181818;stroke-width:1.0;" x1="42" x2="503" y1="370.7734" y2="370.7734"/><text fill="#000000" font-family="sans-serif" font-size="13" font-weight="bold" lengthAdjust="spacing" textLength="7" x="49" y="365.917">9</text><text fill="#000000" font-family="sans-serif" font-size="13" lengthAdjust="spacing" textLength="58" x="60" y="365.917">Responds</text><polygon fill="#181818" points="53,397.125,43,401.125,53,405.125,49,401.125" style="stroke:#181818;stroke-width:1.0;"/><line style="stroke:#181818;stroke-width:1.0;stroke-dasharray:2.0,2.0;" x1="47" x2="508" y1="401.125" y2="401.125"/><text fill="#000000" font-family="sans-serif" font-size="13" font-weight="bold" lengthAdjust="spacing" textLength="14" x="59" y="396.2686">10</text><text fill="#000000" font-family="sans-serif" font-size="13" lengthAdjust="spacing" textLength="331" x="77" y="396.2686">If "YES" asks for the need data / If "NO" closes the menu</text><polygon fill="#181818" points="497,427.4766,507,431.4766,497,435.4766,501,431.4766" style="stroke:#181818;stroke-width:1.0;"/><line style="stroke:#181818;stroke-width:1.0;" x1="42" x2="503" y1="431.4766" y2="431.4766"/><text fill="#000000" font-family="sans-serif" font-size="13" font-weight="bold" lengthAdjust="spacing" textLength="14" x="49" y="426.6201">11</text><text fill="#000000" font-family="sans-serif" font-size="13" lengthAdjust="spacing" textLength="156" x="67" y="426.6201">Introduces the wanted data</text><line style="stroke:#181818;stroke-width:1.0;" x1="509" x2="551" y1="461.8281" y2="461.8281"/><line style="stroke:#181818;stroke-width:1.0;" x1="551" x2="551" y1="461.8281" y2="474.8281"/><line style="stroke:#181818;stroke-width:1.0;" x1="510" x2="551" y1="474.8281" y2="474.8281"/><polygon fill="#181818" points="520,470.8281,510,474.8281,520,478.8281,516,474.8281" style="stroke:#181818;stroke-width:1.0;"/><text fill="#000000" font-family="sans-serif" font-size="13" font-weight="bold" lengthAdjust="spacing" textLength="14" x="516" y="456.9717">12</text><text fill="#000000" font-family="sans-serif" font-size="13" lengthAdjust="spacing" textLength="116" x="534" y="456.9717">generates password</text><polygon fill="#181818" points="53,501.1797,43,505.1797,53,509.1797,49,505.1797" style="stroke:#181818;stroke-width:1.0;"/><line style="stroke:#181818;stroke-width:1.0;stroke-dasharray:2.0,2.0;" x1="47" x2="508" y1="505.1797" y2="505.1797"/><text fill="#000000" font-family="sans-serif" font-size="13" font-weight="bold" lengthAdjust="spacing" textLength="14" x="59" y="500.3232">13</text><text fill="#000000" font-family="sans-serif" font-size="13" lengthAdjust="spacing" textLength="164" x="77" y="500.3232">Operation successfully done</text><!--MD5=[a20be71bd6738f5f3b3c1d6adf58c161]
@startuml
'https://plantuml.com/sequence-diagram

autonumber

actor SalesClerk

SalesClerk -> System: Wants to register a new costumer

System - -> SalesClerk: Asks for the needed data (name,gender,email,phone number,VAT,address)

SalesClerk -> System : Introduces the requested data

System -> System : Validates data
System - -> SalesClerk : Shows the data and asks for confirmation

SalesClerk -> System : Confirms
System - -> SalesClerk : Operation successfully done
System - -> SalesClerk : Asks if it is wanted to give the customer system credentials

SalesClerk -> System : Responds
System - -> SalesClerk : If "YES" asks for the need data / If "NO" closes the menu

SalesClerk -> System : Introduces the wanted data

System -> System : generates password
System - -> SalesClerk : Operation successfully done
@enduml

@startuml

autonumber

actor SalesClerk

SalesClerk -> System: Wants to register a new costumer

System - -> SalesClerk: Asks for the needed data (name,gender,email,phone number,VAT,address)

SalesClerk -> System : Introduces the requested data

System -> System : Validates data
System - -> SalesClerk : Shows the data and asks for confirmation

SalesClerk -> System : Confirms
System - -> SalesClerk : Operation successfully done
System - -> SalesClerk : Asks if it is wanted to give the customer system credentials

SalesClerk -> System : Responds
System - -> SalesClerk : If "YES" asks for the need data / If "NO" closes the menu

SalesClerk -> System : Introduces the wanted data

System -> System : generates password
System - -> SalesClerk : Operation successfully done
@enduml

PlantUML version 1.2022.4(Sat Apr 09 14:29:17 BST 2022)
(GPL source distribution)
Java Runtime: OpenJDK Runtime Environment
JVM: OpenJDK 64-Bit Server VM
Default Encoding: Cp1252
Language: pt
Country: PT
--></g></svg>