<?xml version="1.0" encoding="UTF-8" standalone="no"?><svg xmlns="http://www.w3.org/2000/svg" xmlns:xlink="http://www.w3.org/1999/xlink" contentStyleType="text/css" height="1076px" preserveAspectRatio="none" style="width:1392px;height:1076px;background:#FFFFFF;" version="1.1" viewBox="0 0 1392 1076" width="1392px" zoomAndPan="magnify"><defs/><g><polygon fill="#FFFFFF" points="281,118.5703,281,118.6404,283,118.4322,285,118.6347,287,118.7035,289,118.3325,291,118.5703,290.9223,118.5703,290.5735,128.6048,290.6165,138.6393,290.9318,148.6738,290.3086,158.7083,291.5536,168.7428,290.3697,178.7773,290.8022,188.8118,291.4319,198.8464,290.9142,208.8809,291.0682,218.9154,290.9681,228.9499,291.1785,238.9844,291.2391,249.0189,291.5857,259.0534,291.6711,269.0879,291.6793,279.1224,291.2546,289.1569,291.4636,299.1914,291.7022,309.2259,290.2788,319.2604,291.6785,329.2949,290.7035,339.3294,291.5338,349.3639,290.505,359.3984,290.9315,369.4329,291.7416,379.4674,290.9513,389.502,291.1053,399.5365,291.3386,409.571,291.4162,419.6055,290.9961,429.64,291.2872,439.6745,290.4276,449.709,291.2844,459.7435,291.5482,469.778,291.4445,479.8125,291.613,489.847,290.5169,499.8815,290.3478,509.916,290.3786,519.9505,290.9411,529.985,290.8035,540.0195,291.6814,550.054,290.8253,560.0885,290.6569,570.123,291.2283,580.1576,290.3332,590.1921,290.4809,600.2266,291.649,610.2611,291.4357,620.2956,291.7345,630.3301,290.6782,640.3646,291.3192,650.3991,291.5904,660.4336,290.5276,670.4681,290.9041,680.5026,291.126,690.5371,291.6518,700.5716,290.9958,710.6061,291.4626,720.6406,290.4462,730.6751,290.3227,740.7096,291.5036,750.7441,290.2831,760.7786,291.509,770.8132,291.2066,780.8477,290.7321,790.8822,290.6462,800.9167,291.4588,810.9512,290.7007,820.9857,291.5919,831.0202,290.4473,841.0547,291.6174,851.0892,291.4843,861.1237,291.245,871.1582,291.0472,881.1927,291.7266,891.2272,291.6136,901.2617,291.1693,911.2962,291.2682,921.3307,290.8697,931.3652,291.7165,941.3997,291.1549,951.4342,291,961.4688,291,961.5263,289,961.266,287,961.3337,285,961.6457,283,961.612,281,961.4688,280.9571,961.4688,280.6778,951.4342,280.7811,941.3997,280.3138,931.3652,281.4147,921.3307,281.7396,911.2962,281.5264,901.2617,281.6949,891.2272,280.8633,881.1927,281.0872,871.1582,280.6124,861.1237,281.284,851.0892,281.2468,841.0547,281.5524,831.0202,280.7703,820.9857,280.8656,810.9512,281.4435,800.9167,281.5673,790.8822,280.4875,780.8477,280.8061,770.8132,281.1493,760.7786,280.3892,750.7441,281.3534,740.7096,281.258,730.6751,280.8992,720.6406,281.1422,710.6061,281.7287,700.5716,280.6871,690.5371,281.315,680.5026,281.2856,670.4681,281.1158,660.4336,281.1409,650.3991,281.1135,640.3646,280.3758,630.3301,280.5992,620.2956,280.5385,610.2611,281.0638,600.2266,281.0881,590.1921,281.1617,580.1576,280.709,570.123,280.9325,560.0885,280.8798,550.054,281.5769,540.0195,281.4266,529.985,280.5145,519.9505,280.9271,509.916,280.4228,499.8815,281.2884,489.847,281.6085,479.8125,281.5446,469.778,280.5644,459.7435,281.464,449.709,280.2572,439.6745,281.2002,429.64,280.7007,419.6055,281.0967,409.571,281.2403,399.5365,281.4721,389.502,280.2801,379.4674,281.4755,369.4329,281.1782,359.3984,281.3553,349.3639,281.7478,339.3294,281.0055,329.2949,281.1753,319.2604,281.2134,309.2259,281.1972,299.1914,280.9992,289.1569,281.7107,279.1224,280.3903,269.0879,281.5653,259.0534,280.376,249.0189,280.4597,238.9844,281.04,228.9499,281.0283,218.9154,280.5072,208.8809,281.4137,198.8464,281.1089,188.8118,281.7267,178.7773,281.6671,168.7428,280.5517,158.7083,280.6021,148.6738,280.8708,138.6393,281.3555,128.6048,281,118.5703" style="stroke:#181818;stroke-width:1.0;"/><polygon fill="#FFFFFF" points="531,414.7891,531,414.8591,533,414.651,535,414.8535,537,414.9223,539,414.5513,541,414.7891,540.9223,414.7891,540.5735,424.7184,540.6165,434.6478,540.9318,444.5772,540.3086,454.5066,541.5536,464.436,540.3697,474.3654,540.8022,484.2948,541.4319,494.2242,540.9142,504.1535,541.0682,514.0829,540.9681,524.0123,541.1785,533.9417,541.2391,543.8711,541.5857,553.8005,541.6711,563.7299,541.6793,573.6593,541.2546,583.5886,541.4636,593.518,541.7022,603.4474,540.2788,613.3768,541.6785,623.3062,540.7035,633.2356,541.5338,643.165,540.505,653.0944,540.9315,663.0237,541.7416,672.9531,540.9513,682.8825,541.1053,692.8119,541.3386,702.7413,541.4162,712.6707,540.9961,722.6001,541.2872,732.5294,540.4276,742.4588,541.2844,752.3882,541.5482,762.3176,541.4445,772.247,541.613,782.1764,540.5169,792.1058,540.3478,802.0352,540.3786,811.9645,540.9411,821.8939,540.8035,831.8233,541.6814,841.7527,540.8253,851.6821,540.6569,861.6115,541.2283,871.5409,540.3332,881.4703,540.4809,891.3996,541.649,901.329,541.4357,911.2584,541.7345,921.1878,541,931.1172,541,931.0099,539,931.2236,537,931.314,535,930.9597,533,931.0852,531,931.1172,531.126,931.1172,531.6518,921.1878,530.9958,911.2584,531.4626,901.329,530.4462,891.3996,530.3227,881.4703,531.5036,871.5409,530.2831,861.6115,531.509,851.6821,531.2066,841.7527,530.7321,831.8233,530.6462,821.8939,531.4588,811.9645,530.7007,802.0352,531.5919,792.1058,530.4473,782.1764,531.6174,772.247,531.4843,762.3176,531.245,752.3882,531.0472,742.4588,531.7266,732.5294,531.6136,722.6001,531.1693,712.6707,531.2682,702.7413,530.8697,692.8119,531.7165,682.8825,531.1549,672.9531,531.1726,663.0237,530.3916,653.0944,530.5948,643.165,531.5307,633.2356,531.4298,623.3062,530.9571,613.3768,530.6778,603.4474,530.7811,593.518,530.3138,583.5886,531.4147,573.6593,531.7396,563.7299,531.5264,553.8005,531.6949,543.8711,530.8633,533.9417,531.0872,524.0123,530.6124,514.0829,531.284,504.1535,531.2468,494.2242,531.5524,484.2948,530.7703,474.3654,530.8656,464.436,531.4435,454.5066,531.5673,444.5772,530.4875,434.6478,530.8061,424.7184,531,414.7891" style="stroke:#181818;stroke-width:1.0;"/><polygon fill="#FFFFFF" points="695.5,511.8438,695.5,511.9138,697.5,511.7056,699.5,511.9082,701.5,511.977,703.5,511.606,705.5,511.8438,705.4223,511.8438,705.0735,521.8516,705.1165,531.8594,705.4318,541.8672,704.8086,551.875,706.0536,561.8828,704.8697,571.8906,705.3022,581.8984,705.9319,591.9063,705.4142,601.9141,705.5682,611.9219,705.4681,621.9297,705.6785,631.9375,705.7391,641.9453,705.5,651.9531,705.5,652.1484,703.5,652.1768,701.5,652.1795,699.5,652.038,697.5,652.1077,695.5,651.9531,696.2022,651.9531,694.7788,641.9453,696.1785,631.9375,695.2035,621.9297,696.0338,611.9219,695.005,601.9141,695.4315,591.9063,696.2416,581.8984,695.4513,571.8906,695.6053,561.8828,695.8386,551.875,695.9162,541.8672,695.4961,531.8594,695.7872,521.8516,695.5,511.8438" style="stroke:#181818;stroke-width:1.0;"/><polygon fill="#FFFFFF" points="1033,682.3047,1033,682.3747,1035,682.1666,1037,682.3691,1039,682.4379,1041,682.0669,1043,682.3047,1042.9223,682.3047,1042.5735,692.0102,1042.6165,701.7156,1042.9318,711.4211,1042.3086,721.1266,1043.5536,730.832,1042.3697,740.5375,1042.8022,750.243,1043.4319,759.9484,1042.9142,769.6539,1043,779.3594,1043,779.3821,1041,779.3487,1039,779.4189,1037,779.4391,1035,779.5546,1033,779.3594,1033.6711,779.3594,1033.6793,769.6539,1033.2546,759.9484,1033.4636,750.243,1033.7022,740.5375,1032.2788,730.832,1033.6785,721.1266,1032.7035,711.4211,1033.5338,701.7156,1032.505,692.0102,1033,682.3047" style="stroke:#181818;stroke-width:1.0;"/><polygon fill="#FFFFFF" points="1176,809.7109,1176,809.781,1178,809.5728,1180,809.7754,1182,809.8442,1184,809.4731,1186,809.7109,1185.9223,809.7109,1185.5735,819.8281,1185.6165,829.9453,1185.9318,840.0625,1185.3086,850.1797,1186.5536,860.2969,1186,870.4141,1186,870.204,1184,870.3481,1182,870.558,1180,870.3855,1178,870.4368,1176,870.4141,1175.9681,870.4141,1176.1785,860.2969,1176.2391,850.1797,1176.5857,840.0625,1176.6711,829.9453,1176.6793,819.8281,1176,809.7109" style="stroke:#181818;stroke-width:1.0;"/><polygon points="10,257.3281,10,257.5383,19.8889,256.9138,29.7778,257.5214,39.6667,257.7278,49.5556,256.6147,59.4444,257.2504,69.3333,256.9016,79.2222,256.9446,89.1111,257.26,99,256.6368,108.8889,257.8818,118.7778,256.6978,128.6667,257.1304,138.5556,257.7601,148.4444,257.2423,158.3333,257.3964,168.2222,257.2962,178.1111,257.5067,188,257.5673,197.8889,257.9138,207.7778,257.9992,217.6667,258.0074,227.5556,257.5828,237.4444,257.7917,247.3333,258.0304,257.2222,256.6069,267.1111,258.0066,277,257.0316,286.8889,257.8619,296.7778,256.8331,306.6667,257.2596,316.5556,258.0697,326.4444,257.2794,336.3333,257.4334,346.2222,257.6668,356.1111,257.7444,366,257.3281,365.9961,257.3281,366.2872,267.21,365.4276,277.0918,366.2844,286.9736,366.5482,296.8555,366.4445,306.7373,366.613,316.6191,365.5169,326.501,366,336.3828,366,335.7306,356.1111,335.7614,346.2222,336.3239,336.3333,336.1863,326.4444,337.0642,316.5556,336.2081,306.6667,336.0398,296.7778,336.6111,286.8889,335.716,277,335.8637,267.1111,337.0318,257.2222,336.8185,247.3333,337.1173,237.4444,336.061,227.5556,336.702,217.6667,336.9732,207.7778,335.9104,197.8889,336.287,188,336.5088,178.1111,337.0346,168.2222,336.3786,158.3333,336.8454,148.4444,335.829,138.5556,335.7056,128.6667,336.8864,118.7778,335.6659,108.8889,336.8918,99,336.5894,89.1111,336.1149,79.2222,336.029,69.3333,336.8416,59.4444,336.0835,49.5556,336.9747,39.6667,335.8301,29.7778,337.0002,19.8889,336.8671,10,336.3828,10.245,336.3828,10.0472,326.501,10.7266,316.6191,10.6136,306.7373,10.1693,296.8555,10.2682,286.9736,9.8697,277.0918,10.7165,267.21,10,257.3281" style="stroke:#000000;stroke-width:1.5;fill:none;"/><path d="M57,86.2188 L57.2802,86.2188 L56.4476,96.2553 L57.2577,106.2918 L57.5329,116.3283 L56.0488,126.3648 L56.8964,136.4013 L56.4313,146.4379 L56.4887,156.4744 L56.9091,166.5109 L56.0782,176.5474 L57.7382,186.5839 L56.1596,196.6204 L56.7363,206.657 L57.5759,216.6935 L56.8856,226.73 L57.091,236.7665 L56.9574,246.803 L57.238,256.8395 L57.3188,266.8761 L57.7809,276.9126 L57.8947,286.9491 L57.9057,296.9856 L57.3395,307.0221 L57.6181,317.0586 L57.9363,327.0952 L56.0384,337.1317 L57.9047,347.1682 L56.6047,357.2047 L57.7117,367.2412 L56.34,377.2777 L56.9087,387.3143 L57.9888,397.3508 L56.935,407.3873 L57.1404,417.4238 L57.4515,427.4603 L57.555,437.4968 L56.9948,447.5334 L57.383,457.5699 L56.2368,467.6064 L57.3792,477.6429 L57.7309,487.6794 L57.5927,497.7159 L57.8174,507.7525 L56.3559,517.789 L56.1304,527.8255 L56.1715,537.862 L56.9215,547.8985 L56.738,557.935 L57.9085,567.9716 L56.7671,578.0081 L56.5426,588.0446 L57.3044,598.0811 L56.1109,608.1176 L56.3078,618.1541 L57.8653,628.1907 L57.5809,638.2272 L57.9793,648.2637 L56.5709,658.3002 L57.4256,668.3367 L57.7872,678.3732 L56.3701,688.4098 L56.8722,698.4463 L57.168,708.4828 L57.869,718.5193 L56.9944,728.5558 L57.6168,738.5923 L56.2616,748.6289 L56.097,758.6654 L57.6715,768.7019 L56.0441,778.7384 L57.6786,788.7749 L57.2755,798.8114 L56.6428,808.848 L56.5283,818.8845 L57.6117,828.921 L56.6009,838.9575 L57.7891,848.994 L56.263,859.0305 L57.8232,869.0671 L57.6457,879.1036 L57.3266,889.1401 L57.063,899.1766 L57.9688,909.2131 L57.8181,919.2496 L57.2257,929.2862 L57.3576,939.3227 L56.8263,949.3592 L57.9553,959.3957 L57.2065,969.4322 L57,979.4688 " fill="none" style="stroke:#181818;stroke-width:0.5;stroke-dasharray:5.0,5.0;"/><path d="M286,86.2188 L286.2802,86.2188 L285.4476,96.2553 L286.2577,106.2918 L286.5329,116.3283 L285.0488,126.3648 L285.8964,136.4013 L285.4313,146.4379 L285.4887,156.4744 L285.9091,166.5109 L285.0782,176.5474 L286.7382,186.5839 L285.1596,196.6204 L285.7363,206.657 L286.5759,216.6935 L285.8856,226.73 L286.091,236.7665 L285.9574,246.803 L286.238,256.8395 L286.3188,266.8761 L286.7809,276.9126 L286.8947,286.9491 L286.9057,296.9856 L286.3395,307.0221 L286.6181,317.0586 L286.9363,327.0952 L285.0384,337.1317 L286.9047,347.1682 L285.6047,357.2047 L286.7117,367.2412 L285.34,377.2777 L285.9087,387.3143 L286.9888,397.3508 L285.935,407.3873 L286.1404,417.4238 L286.4515,427.4603 L286.555,437.4968 L285.9948,447.5334 L286.383,457.5699 L285.2368,467.6064 L286.3792,477.6429 L286.7309,487.6794 L286.5927,497.7159 L286.8174,507.7525 L285.3559,517.789 L285.1304,527.8255 L285.1715,537.862 L285.9215,547.8985 L285.738,557.935 L286.9085,567.9716 L285.7671,578.0081 L285.5426,588.0446 L286.3044,598.0811 L285.1109,608.1176 L285.3078,618.1541 L286.8653,628.1907 L286.5809,638.2272 L286.9793,648.2637 L285.5709,658.3002 L286.4256,668.3367 L286.7872,678.3732 L285.3701,688.4098 L285.8722,698.4463 L286.168,708.4828 L286.869,718.5193 L285.9944,728.5558 L286.6168,738.5923 L285.2616,748.6289 L285.097,758.6654 L286.6715,768.7019 L285.0441,778.7384 L286.6786,788.7749 L286.2755,798.8114 L285.6428,808.848 L285.5283,818.8845 L286.6117,828.921 L285.6009,838.9575 L286.7891,848.994 L285.263,859.0305 L286.8232,869.0671 L286.6457,879.1036 L286.3266,889.1401 L286.063,899.1766 L286.9688,909.2131 L286.8181,919.2496 L286.2257,929.2862 L286.3576,939.3227 L285.8263,949.3592 L286.9553,959.3957 L286.2065,969.4322 L286,979.4688 " fill="none" style="stroke:#181818;stroke-width:0.5;stroke-dasharray:5.0,5.0;"/><path d="M536,86.2188 L536.2802,86.2188 L535.4476,96.2553 L536.2577,106.2918 L536.5329,116.3283 L535.0488,126.3648 L535.8964,136.4013 L535.4313,146.4379 L535.4887,156.4744 L535.9091,166.5109 L535.0782,176.5474 L536.7382,186.5839 L535.1596,196.6204 L535.7363,206.657 L536.5759,216.6935 L535.8856,226.73 L536.091,236.7665 L535.9574,246.803 L536.238,256.8395 L536.3188,266.8761 L536.7809,276.9126 L536.8947,286.9491 L536.9057,296.9856 L536.3395,307.0221 L536.6181,317.0586 L536.9363,327.0952 L535.0384,337.1317 L536.9047,347.1682 L535.6047,357.2047 L536.7117,367.2412 L535.34,377.2777 L535.9087,387.3143 L536.9888,397.3508 L535.935,407.3873 L536.1404,417.4238 L536.4515,427.4603 L536.555,437.4968 L535.9948,447.5334 L536.383,457.5699 L535.2368,467.6064 L536.3792,477.6429 L536.7309,487.6794 L536.5927,497.7159 L536.8174,507.7525 L535.3559,517.789 L535.1304,527.8255 L535.1715,537.862 L535.9215,547.8985 L535.738,557.935 L536.9085,567.9716 L535.7671,578.0081 L535.5426,588.0446 L536.3044,598.0811 L535.1109,608.1176 L535.3078,618.1541 L536.8653,628.1907 L536.5809,638.2272 L536.9793,648.2637 L535.5709,658.3002 L536.4256,668.3367 L536.7872,678.3732 L535.3701,688.4098 L535.8722,698.4463 L536.168,708.4828 L536.869,718.5193 L535.9944,728.5558 L536.6168,738.5923 L535.2616,748.6289 L535.097,758.6654 L536.6715,768.7019 L535.0441,778.7384 L536.6786,788.7749 L536.2755,798.8114 L535.6428,808.848 L535.5283,818.8845 L536.6117,828.921 L535.6009,838.9575 L536.7891,848.994 L535.263,859.0305 L536.8232,869.0671 L536.6457,879.1036 L536.3266,889.1401 L536.063,899.1766 L536.9688,909.2131 L536.8181,919.2496 L536.2257,929.2862 L536.3576,939.3227 L535.8263,949.3592 L536.9553,959.3957 L536.2065,969.4322 L536,979.4688 " fill="none" style="stroke:#181818;stroke-width:0.5;stroke-dasharray:5.0,5.0;"/><path d="M700,86.2188 L700.2802,86.2188 L699.4476,96.2553 L700.2577,106.2918 L700.5329,116.3283 L699.0488,126.3648 L699.8964,136.4013 L699.4313,146.4379 L699.4887,156.4744 L699.9091,166.5109 L699.0782,176.5474 L700.7382,186.5839 L699.1596,196.6204 L699.7363,206.657 L700.5759,216.6935 L699.8856,226.73 L700.091,236.7665 L699.9574,246.803 L700.238,256.8395 L700.3188,266.8761 L700.7809,276.9126 L700.8947,286.9491 L700.9057,296.9856 L700.3395,307.0221 L700.6181,317.0586 L700.9363,327.0952 L699.0384,337.1317 L700.9047,347.1682 L699.6047,357.2047 L700.7117,367.2412 L699.34,377.2777 L699.9087,387.3143 L700.9888,397.3508 L699.935,407.3873 L700.1404,417.4238 L700.4515,427.4603 L700.555,437.4968 L699.9948,447.5334 L700.383,457.5699 L699.2368,467.6064 L700.3792,477.6429 L700.7309,487.6794 L700.5927,497.7159 L700.8174,507.7525 L699.3559,517.789 L699.1304,527.8255 L699.1715,537.862 L699.9215,547.8985 L699.738,557.935 L700.9085,567.9716 L699.7671,578.0081 L699.5426,588.0446 L700.3044,598.0811 L699.1109,608.1176 L699.3078,618.1541 L700.8653,628.1907 L700.5809,638.2272 L700.9793,648.2637 L699.5709,658.3002 L700.4256,668.3367 L700.7872,678.3732 L699.3701,688.4098 L699.8722,698.4463 L700.168,708.4828 L700.869,718.5193 L699.9944,728.5558 L700.6168,738.5923 L699.2616,748.6289 L699.097,758.6654 L700.6715,768.7019 L699.0441,778.7384 L700.6786,788.7749 L700.2755,798.8114 L699.6428,808.848 L699.5283,818.8845 L700.6117,828.921 L699.6009,838.9575 L700.7891,848.994 L699.263,859.0305 L700.8232,869.0671 L700.6457,879.1036 L700.3266,889.1401 L700.063,899.1766 L700.9688,909.2131 L700.8181,919.2496 L700.2257,929.2862 L700.3576,939.3227 L699.8263,949.3592 L700.9553,959.3957 L700.2065,969.4322 L700,979.4688 " fill="none" style="stroke:#181818;stroke-width:0.5;stroke-dasharray:5.0,5.0;"/><path d="M891,86.2188 L891.2802,86.2188 L890.4476,96.2553 L891.2577,106.2918 L891.5329,116.3283 L890.0488,126.3648 L890.8964,136.4013 L890.4313,146.4379 L890.4887,156.4744 L890.9091,166.5109 L890.0782,176.5474 L891.7382,186.5839 L890.1596,196.6204 L890.7363,206.657 L891.5759,216.6935 L890.8856,226.73 L891.091,236.7665 L890.9574,246.803 L891.238,256.8395 L891.3188,266.8761 L891.7809,276.9126 L891.8947,286.9491 L891.9057,296.9856 L891.3395,307.0221 L891.6181,317.0586 L891.9363,327.0952 L890.0384,337.1317 L891.9047,347.1682 L890.6047,357.2047 L891.7117,367.2412 L890.34,377.2777 L890.9087,387.3143 L891.9888,397.3508 L890.935,407.3873 L891.1404,417.4238 L891.4515,427.4603 L891.555,437.4968 L890.9948,447.5334 L891.383,457.5699 L890.2368,467.6064 L891.3792,477.6429 L891.7309,487.6794 L891.5927,497.7159 L891.8174,507.7525 L890.3559,517.789 L890.1304,527.8255 L890.1715,537.862 L890.9215,547.8985 L890.738,557.935 L891.9085,567.9716 L890.7671,578.0081 L890.5426,588.0446 L891.3044,598.0811 L890.1109,608.1176 L890.3078,618.1541 L891.8653,628.1907 L891.5809,638.2272 L891.9793,648.2637 L890.5709,658.3002 L891.4256,668.3367 L891.7872,678.3732 L890.3701,688.4098 L890.8722,698.4463 L891.168,708.4828 L891.869,718.5193 L890.9944,728.5558 L891.6168,738.5923 L890.2616,748.6289 L890.097,758.6654 L891.6715,768.7019 L890.0441,778.7384 L891.6786,788.7749 L891.2755,798.8114 L890.6428,808.848 L890.5283,818.8845 L891.6117,828.921 L890.6009,838.9575 L891.7891,848.994 L890.263,859.0305 L891.8232,869.0671 L891.6457,879.1036 L891.3266,889.1401 L891.063,899.1766 L891.9688,909.2131 L891.8181,919.2496 L891.2257,929.2862 L891.3576,939.3227 L890.8263,949.3592 L891.9553,959.3957 L891.2065,969.4322 L891,979.4688 " fill="none" style="stroke:#181818;stroke-width:0.5;stroke-dasharray:5.0,5.0;"/><path d="M1038,86.2188 L1038.2802,86.2188 L1037.4476,96.2553 L1038.2577,106.2918 L1038.5329,116.3283 L1037.0488,126.3648 L1037.8964,136.4013 L1037.4313,146.4379 L1037.4887,156.4744 L1037.9091,166.5109 L1037.0782,176.5474 L1038.7382,186.5839 L1037.1596,196.6204 L1037.7363,206.657 L1038.5759,216.6935 L1037.8856,226.73 L1038.091,236.7665 L1037.9574,246.803 L1038.238,256.8395 L1038.3188,266.8761 L1038.7809,276.9126 L1038.8947,286.9491 L1038.9057,296.9856 L1038.3395,307.0221 L1038.6181,317.0586 L1038.9363,327.0952 L1037.0384,337.1317 L1038.9047,347.1682 L1037.6047,357.2047 L1038.7117,367.2412 L1037.34,377.2777 L1037.9087,387.3143 L1038.9888,397.3508 L1037.935,407.3873 L1038.1404,417.4238 L1038.4515,427.4603 L1038.555,437.4968 L1037.9948,447.5334 L1038.383,457.5699 L1037.2368,467.6064 L1038.3792,477.6429 L1038.7309,487.6794 L1038.5927,497.7159 L1038.8174,507.7525 L1037.3559,517.789 L1037.1304,527.8255 L1037.1715,537.862 L1037.9215,547.8985 L1037.738,557.935 L1038.9085,567.9716 L1037.7671,578.0081 L1037.5426,588.0446 L1038.3044,598.0811 L1037.1109,608.1176 L1037.3078,618.1541 L1038.8653,628.1907 L1038.5809,638.2272 L1038.9793,648.2637 L1037.5709,658.3002 L1038.4256,668.3367 L1038.7872,678.3732 L1037.3701,688.4098 L1037.8722,698.4463 L1038.168,708.4828 L1038.869,718.5193 L1037.9944,728.5558 L1038.6168,738.5923 L1037.2616,748.6289 L1037.097,758.6654 L1038.6715,768.7019 L1037.0441,778.7384 L1038.6786,788.7749 L1038.2755,798.8114 L1037.6428,808.848 L1037.5283,818.8845 L1038.6117,828.921 L1037.6009,838.9575 L1038.7891,848.994 L1037.263,859.0305 L1038.8232,869.0671 L1038.6457,879.1036 L1038.3266,889.1401 L1038.063,899.1766 L1038.9688,909.2131 L1038.8181,919.2496 L1038.2257,929.2862 L1038.3576,939.3227 L1037.8263,949.3592 L1038.9553,959.3957 L1038.2065,969.4322 L1038,979.4688 " fill="none" style="stroke:#181818;stroke-width:0.5;stroke-dasharray:5.0,5.0;"/><path d="M1181,86.2188 L1181.2802,86.2188 L1180.4476,96.2553 L1181.2577,106.2918 L1181.5329,116.3283 L1180.0488,126.3648 L1180.8964,136.4013 L1180.4313,146.4379 L1180.4887,156.4744 L1180.9091,166.5109 L1180.0782,176.5474 L1181.7382,186.5839 L1180.1596,196.6204 L1180.7363,206.657 L1181.5759,216.6935 L1180.8856,226.73 L1181.091,236.7665 L1180.9574,246.803 L1181.238,256.8395 L1181.3188,266.8761 L1181.7809,276.9126 L1181.8947,286.9491 L1181.9057,296.9856 L1181.3395,307.0221 L1181.6181,317.0586 L1181.9363,327.0952 L1180.0384,337.1317 L1181.9047,347.1682 L1180.6047,357.2047 L1181.7117,367.2412 L1180.34,377.2777 L1180.9087,387.3143 L1181.9888,397.3508 L1180.935,407.3873 L1181.1404,417.4238 L1181.4515,427.4603 L1181.555,437.4968 L1180.9948,447.5334 L1181.383,457.5699 L1180.2368,467.6064 L1181.3792,477.6429 L1181.7309,487.6794 L1181.5927,497.7159 L1181.8174,507.7525 L1180.3559,517.789 L1180.1304,527.8255 L1180.1715,537.862 L1180.9215,547.8985 L1180.738,557.935 L1181.9085,567.9716 L1180.7671,578.0081 L1180.5426,588.0446 L1181.3044,598.0811 L1180.1109,608.1176 L1180.3078,618.1541 L1181.8653,628.1907 L1181.5809,638.2272 L1181.9793,648.2637 L1180.5709,658.3002 L1181.4256,668.3367 L1181.7872,678.3732 L1180.3701,688.4098 L1180.8722,698.4463 L1181.168,708.4828 L1181.869,718.5193 L1180.9944,728.5558 L1181.6168,738.5923 L1180.2616,748.6289 L1180.097,758.6654 L1181.6715,768.7019 L1180.0441,778.7384 L1181.6786,788.7749 L1181.2755,798.8114 L1180.6428,808.848 L1180.5283,818.8845 L1181.6117,828.921 L1180.6009,838.9575 L1181.7891,848.994 L1180.263,859.0305 L1181.8232,869.0671 L1181.6457,879.1036 L1181.3266,889.1401 L1181.063,899.1766 L1181.9688,909.2131 L1181.8181,919.2496 L1181.2257,929.2862 L1181.3576,939.3227 L1180.8263,949.3592 L1181.9553,959.3957 L1181.2065,969.4322 L1181,979.4688 " fill="none" style="stroke:#181818;stroke-width:0.5;stroke-dasharray:5.0,5.0;"/><path d="M1323,86.2188 L1323.2802,86.2188 L1322.4476,96.2553 L1323.2577,106.2918 L1323.5329,116.3283 L1322.0488,126.3648 L1322.8964,136.4013 L1322.4313,146.4379 L1322.4887,156.4744 L1322.9091,166.5109 L1322.0782,176.5474 L1323.7382,186.5839 L1322.1596,196.6204 L1322.7363,206.657 L1323.5759,216.6935 L1322.8856,226.73 L1323.091,236.7665 L1322.9574,246.803 L1323.238,256.8395 L1323.3188,266.8761 L1323.7809,276.9126 L1323.8947,286.9491 L1323.9057,296.9856 L1323.3395,307.0221 L1323.6181,317.0586 L1323.9363,327.0952 L1322.0384,337.1317 L1323.9047,347.1682 L1322.6047,357.2047 L1323.7117,367.2412 L1322.34,377.2777 L1322.9087,387.3143 L1323.9888,397.3508 L1322.935,407.3873 L1323.1404,417.4238 L1323.4515,427.4603 L1323.555,437.4968 L1322.9948,447.5334 L1323.383,457.5699 L1322.2368,467.6064 L1323.3792,477.6429 L1323.7309,487.6794 L1323.5927,497.7159 L1323.8174,507.7525 L1322.3559,517.789 L1322.1304,527.8255 L1322.1715,537.862 L1322.9215,547.8985 L1322.738,557.935 L1323.9085,567.9716 L1322.7671,578.0081 L1322.5426,588.0446 L1323.3044,598.0811 L1322.1109,608.1176 L1322.3078,618.1541 L1323.8653,628.1907 L1323.5809,638.2272 L1323.9793,648.2637 L1322.5709,658.3002 L1323.4256,668.3367 L1323.7872,678.3732 L1322.3701,688.4098 L1322.8722,698.4463 L1323.168,708.4828 L1323.869,718.5193 L1322.9944,728.5558 L1323.6168,738.5923 L1322.2616,748.6289 L1322.097,758.6654 L1323.6715,768.7019 L1322.0441,778.7384 L1323.6786,788.7749 L1323.2755,798.8114 L1322.6428,808.848 L1322.5283,818.8845 L1323.6117,828.921 L1322.6009,838.9575 L1323.7891,848.994 L1322.263,859.0305 L1323.8232,869.0671 L1323.6457,879.1036 L1323.3266,889.1401 L1323.063,899.1766 L1323.9688,909.2131 L1323.8181,919.2496 L1323.2257,929.2862 L1323.3576,939.3227 L1322.8263,949.3592 L1323.9553,959.3957 L1323.2065,969.4322 L1323,979.4688 " fill="none" style="stroke:#181818;stroke-width:0.5;stroke-dasharray:5.0,5.0;"/><text fill="#000000" font-family="FG Virgil" font-size="14" lengthAdjust="spacing" textLength="68" x="20" y="83.1426">SalesClerk</text><polygon fill="#E3E3E3" points="65.0442,19.0553,63.8715,20.6576,62.4845,23.0044,60.5008,24.586,58.4163,25.4509,56.7542,25.526,54.618,24.4443,52.6023,23.7377,51.0724,22.303,50.2699,20.6605,49.7939,19.3527,49.3277,17.6444,48.5709,16.1744,49.1525,14.7392,49.662,13.167,51.574,11.9235,52.9192,10.3102,54.5843,9.7744,56.5637,9.313,59.1021,9.5872,60.4924,10.2429,62.1089,10.5401,64.0743,12.5537,64.7595,14.6795,65.0571,16.13,64.72,18.5202" style="stroke:#181818;stroke-width:0.5;"/><path d="M57,25.1094 L57.1868,25.1094 L56.6317,30.5094 L57.1718,35.9094 L57.3553,41.3094 L56.3659,46.7094 L57,52.1094 M44,33.1094 L44,33.0403 L49.2,32.7303 L54.4,32.7685 L59.6,33.0488 L64.8,32.4948 L70,33.1094 M57,52.1094 L57.3719,52.4317 L53.9766,54.7425 L51.6672,57.9942 L49.4901,61.3608 L46.5424,64.0594 L44,67.1094 M57,52.1094 L57.0458,52.1491 L59.5785,55.0908 L62.3199,58.2133 L64.9606,61.2486 L67.7934,64.4503 L70,67.1094 " fill="none" style="stroke:#181818;stroke-width:0.5;"/><text fill="#000000" font-family="FG Virgil" font-size="14" lengthAdjust="spacing" textLength="68" x="20" y="993.002">SalesClerk</text><polygon fill="#E3E3E3" points="65.0442,1006.524,63.8715,1008.1263,62.4845,1010.4732,60.5008,1012.0548,58.4163,1012.9197,56.7542,1012.9947,54.618,1011.9131,52.6023,1011.2064,51.0724,1009.7717,50.2699,1008.1292,49.7939,1006.8214,49.3277,1005.1132,48.5709,1003.6432,49.1525,1002.2079,49.662,1000.6357,51.574,999.3923,52.9192,997.7789,54.5843,997.2432,56.5637,996.7818,59.1021,997.0559,60.4924,997.7116,62.1089,998.0088,64.0743,1000.0225,64.7595,1002.1483,65.0571,1003.5987,64.72,1005.9889" style="stroke:#181818;stroke-width:0.5;"/><path d="M57,1012.5781 L57.1868,1012.5781 L56.6317,1017.9781 L57.1718,1023.3781 L57.3553,1028.7781 L56.3659,1034.1781 L57,1039.5781 M44,1020.5781 L44,1020.509 L49.2,1020.199 L54.4,1020.2372 L59.6,1020.5175 L64.8,1019.9636 L70,1020.5781 M57,1039.5781 L57.3719,1039.9004 L53.9766,1042.2112 L51.6672,1045.463 L49.4901,1048.8296 L46.5424,1051.5282 L44,1054.5781 M57,1039.5781 L57.0458,1039.6179 L59.5785,1042.5595 L62.3199,1045.6821 L64.9606,1048.7173 L67.7934,1051.9191 L70,1054.5781 " fill="none" style="stroke:#181818;stroke-width:0.5;"/><polygon fill="#E3E3E3" points="218.5,36,218.5,36.2102,228.1429,35.5857,237.7857,36.1933,247.4286,36.3997,257.0714,35.2866,266.7143,35.9223,276.3571,35.5735,286,35.6165,295.6429,35.9318,305.2857,35.3086,314.9286,36.5536,324.5714,35.3697,334.2143,35.8022,343.8571,36.4319,353.5,36,353.4891,35.9736,353.8623,36.1675,354.203,36.2831,354.5834,36.4943,354.9447,36.6594,355.2678,36.7322,355.4481,36.8069,355.6209,37.1714,355.7698,37.526,355.7855,37.8254,355.9963,38.2056,356,38.5,356.2341,38.5,355.7596,47.3438,356.2262,56.1875,355.9012,65.0313,356.1779,73.875,356,82.7188,355.8476,82.6556,355.8325,83.0636,355.9355,83.5205,355.5457,83.7732,355.4466,84.1464,355.2678,84.4865,355.311,84.5908,354.9673,84.7611,354.5602,84.7782,354.2437,85.0143,353.7805,84.896,353.5,85.2188,353.5,85.5031,343.8571,85.7669,334.2143,85.6633,324.5714,85.8318,314.9286,84.7357,305.2857,84.5666,295.6429,84.5973,286,85.1599,276.3571,85.0222,266.7143,85.9002,257.0714,85.0441,247.4286,84.8757,237.7857,85.447,228.1429,84.5519,218.5,85.2188,218.4338,85.0589,218.2292,85.2722,217.8485,85.06,217.533,85.0056,217.0447,84.5339,216.7322,84.4865,216.8305,84.5272,216.7676,84.2083,216.2939,83.7191,216.2634,83.4136,216.1852,83.0884,216,82.7188,216.2173,82.7188,215.9986,73.875,216.1542,65.0313,215.8154,56.1875,215.7742,47.3438,216,38.5,216.1551,38.5642,215.9257,38.055,216.4496,37.8578,216.503,37.4657,216.5033,37.0516,216.7322,36.7322,216.6871,36.6233,217.1443,36.7271,217.4012,36.3472,217.8684,36.4752,218.0759,35.9762,218.5,36" style="stroke:#181818;stroke-width:0.5;"/><text fill="#000000" font-family="FG Virgil" font-size="14" font-style="italic" lengthAdjust="spacing" textLength="95" x="238.5" y="57.5332">«presentation»</text><text fill="#000000" font-family="FG Virgil" font-size="14" lengthAdjust="spacing" textLength="126" x="223" y="75.1426">RegisterCustomerUI</text><polygon fill="#E3E3E3" points="218.5,978.4688,218.5,978.6789,228.1429,978.0544,237.7857,978.662,247.4286,978.8684,257.0714,977.7554,266.7143,978.391,276.3571,978.0423,286,978.0853,295.6429,978.4006,305.2857,977.7774,314.9286,979.0224,324.5714,977.8385,334.2143,978.271,343.8571,978.9007,353.5,978.4688,353.4891,978.4423,353.8623,978.6362,354.203,978.7518,354.5834,978.9631,354.9447,979.1282,355.2678,979.201,355.4481,979.2757,355.6209,979.6401,355.7698,979.9947,355.7855,980.2941,355.9963,980.6743,356,980.9688,356.2341,980.9688,355.7596,989.8125,356.2262,998.6563,355.9012,1007.5,356.1779,1016.3438,356,1025.1875,355.8476,1025.1244,355.8325,1025.5323,355.9355,1025.9892,355.5457,1026.2419,355.4466,1026.6151,355.2678,1026.9553,355.311,1027.0596,354.9673,1027.2299,354.5602,1027.247,354.2437,1027.4831,353.7805,1027.3648,353.5,1027.6875,353.5,1027.9719,343.8571,1028.2357,334.2143,1028.132,324.5714,1028.3005,314.9286,1027.2044,305.2857,1027.0353,295.6429,1027.0661,286,1027.6286,276.3571,1027.491,266.7143,1028.3689,257.0714,1027.5128,247.4286,1027.3444,237.7857,1027.9158,228.1429,1027.0207,218.5,1027.6875,218.4338,1027.5276,218.2292,1027.7409,217.8485,1027.5288,217.533,1027.4744,217.0447,1027.0026,216.7322,1026.9553,216.8305,1026.996,216.7676,1026.677,216.2939,1026.1879,216.2634,1025.8824,216.1852,1025.5571,216,1025.1875,216.2173,1025.1875,215.9986,1016.3438,216.1542,1007.5,215.8154,998.6563,215.7742,989.8125,216,980.9688,216.1551,981.033,215.9257,980.5237,216.4496,980.3266,216.503,979.9344,216.5033,979.5204,216.7322,979.201,216.6871,979.092,217.1443,979.1958,217.4012,978.8159,217.8684,978.9439,218.0759,978.445,218.5,978.4688" style="stroke:#181818;stroke-width:0.5;"/><text fill="#000000" font-family="FG Virgil" font-size="14" font-style="italic" lengthAdjust="spacing" textLength="95" x="238.5" y="1000.002">«presentation»</text><text fill="#000000" font-family="FG Virgil" font-size="14" lengthAdjust="spacing" textLength="126" x="223" y="1017.6113">RegisterCustomerUI</text><polygon fill="#E3E3E3" points="443.5,36,443.5,36.2102,453.2368,35.5857,462.9737,36.1933,472.7105,36.3997,482.4474,35.2866,492.1842,35.9223,501.9211,35.5735,511.6579,35.6165,521.3947,35.9318,531.1316,35.3086,540.8684,36.5536,550.6053,35.3697,560.3421,35.8022,570.0789,36.4319,579.8158,35.9142,589.5526,36.0682,599.2895,35.9681,609.0263,36.1785,618.7632,36.2391,628.5,36,628.5747,36.1804,628.9392,36.3531,629.2938,36.5021,629.5931,36.5178,629.9733,36.7286,630.2678,36.7322,630.484,36.8218,630.1921,36.9938,630.7696,37.5259,630.6158,37.7551,631.0179,38.2145,631,38.5,630.835,38.5,630.9772,47.3438,631.2472,56.1875,630.9838,65.0313,631.0351,73.875,631,82.7188,631.1043,82.7619,630.9817,83.1254,630.7059,83.4254,630.6491,83.816,630.2379,84.0599,630.2678,84.4865,630.304,84.5741,629.9841,84.8018,629.6174,84.9163,629.2853,85.1146,628.7919,84.9235,628.5,85.2188,628.5,84.5666,618.7632,84.5973,609.0263,85.1599,599.2895,85.0222,589.5526,85.9002,579.8158,85.0441,570.0789,84.8757,560.3421,85.447,550.6053,84.5519,540.8684,84.6996,531.1316,85.8677,521.3947,85.6544,511.6579,85.9532,501.9211,84.897,492.1842,85.5379,482.4474,85.8092,472.7105,84.7463,462.9737,85.1229,453.2368,85.3447,443.5,85.2188,443.5831,85.4195,443.1459,85.071,442.8519,85.0683,442.3687,84.6089,441.9994,84.4244,441.7322,84.4865,441.8873,84.5508,441.365,84.0415,441.5961,83.8443,441.3565,83.4522,441.0639,83.0381,441,82.7188,440.8821,82.7188,441.1529,73.875,440.9002,65.0313,441.1973,56.1875,440.8158,47.3438,441,38.5,441.1901,38.5788,441.2956,38.2082,441.3683,37.8241,441.4539,37.4454,441.8096,37.1785,441.7322,36.7322,441.8105,36.9212,442.1074,36.6379,442.4736,36.5219,442.7763,36.2528,443.2378,36.3671,443.5,36" style="stroke:#181818;stroke-width:0.5;"/><text fill="#000000" font-family="FG Virgil" font-size="14" font-style="italic" lengthAdjust="spacing" textLength="84" x="494" y="57.5332">«application»</text><text fill="#000000" font-family="FG Virgil" font-size="14" lengthAdjust="spacing" textLength="176" x="448" y="75.1426">RegisterCustomerController</text><polygon fill="#E3E3E3" points="443.5,978.4688,443.5,978.6789,453.2368,978.0544,462.9737,978.662,472.7105,978.8684,482.4474,977.7554,492.1842,978.391,501.9211,978.0423,511.6579,978.0853,521.3947,978.4006,531.1316,977.7774,540.8684,979.0224,550.6053,977.8385,560.3421,978.271,570.0789,978.9007,579.8158,978.383,589.5526,978.537,599.2895,978.4368,609.0263,978.6473,618.7632,978.7079,628.5,978.4688,628.5747,978.6491,628.9392,978.8219,629.2938,978.9708,629.5931,978.9865,629.9733,979.1973,630.2678,979.201,630.484,979.2906,630.1921,979.4625,630.7696,979.9946,630.6158,980.2238,631.0179,980.6833,631,980.9688,630.835,980.9688,630.9772,989.8125,631.2472,998.6563,630.9838,1007.5,631.0351,1016.3438,631,1025.1875,631.1043,1025.2307,630.9817,1025.5941,630.7059,1025.8941,630.6491,1026.2848,630.2379,1026.5287,630.2678,1026.9553,630.304,1027.0428,629.9841,1027.2705,629.6174,1027.3851,629.2853,1027.5834,628.7919,1027.3923,628.5,1027.6875,628.5,1027.0353,618.7632,1027.0661,609.0263,1027.6286,599.2895,1027.491,589.5526,1028.3689,579.8158,1027.5128,570.0789,1027.3444,560.3421,1027.9158,550.6053,1027.0207,540.8684,1027.1684,531.1316,1028.3365,521.3947,1028.1232,511.6579,1028.422,501.9211,1027.3657,492.1842,1028.0067,482.4474,1028.2779,472.7105,1027.2151,462.9737,1027.5916,453.2368,1027.8135,443.5,1027.6875,443.5831,1027.8882,443.1459,1027.5398,442.8519,1027.5371,442.3687,1027.0776,441.9994,1026.8931,441.7322,1026.9553,441.8873,1027.0195,441.365,1026.5103,441.5961,1026.3131,441.3565,1025.921,441.0639,1025.5069,441,1025.1875,440.8821,1025.1875,441.1529,1016.3438,440.9002,1007.5,441.1973,998.6563,440.8158,989.8125,441,980.9688,441.1901,981.0475,441.2956,980.677,441.3683,980.2929,441.4539,979.9141,441.8096,979.6472,441.7322,979.201,441.8105,979.3899,442.1074,979.1067,442.4736,978.9907,442.7763,978.7215,443.2378,978.8358,443.5,978.4688" style="stroke:#181818;stroke-width:0.5;"/><text fill="#000000" font-family="FG Virgil" font-size="14" font-style="italic" lengthAdjust="spacing" textLength="84" x="494" y="1000.002">«application»</text><text fill="#000000" font-family="FG Virgil" font-size="14" lengthAdjust="spacing" textLength="176" x="448" y="1017.6113">RegisterCustomerController</text><polygon fill="#E3E3E3" points="643.5,36,643.5,36.2102,653.8636,35.5857,664.2273,36.1933,674.5909,36.3997,684.9545,35.2866,695.3182,35.9223,705.6818,35.5735,716.0455,35.6165,726.4091,35.9318,736.7727,35.3086,747.1364,36.5536,757.5,36,757.4196,35.8059,757.8283,36.0855,758.2622,36.4259,758.5497,36.4129,758.9229,36.6068,759.2678,36.7322,759.2579,36.7282,759.4692,37.1086,759.6343,37.4698,759.8875,37.8676,760.0602,38.232,760,38.5,760.2264,38.5,760.0849,47.3438,760.1545,56.1875,760.2341,65.0313,759.7596,73.875,760,82.7188,760.209,82.8053,759.7622,83.0345,759.8715,83.494,759.4082,83.7163,759.3931,84.1242,759.2678,84.4865,759.3624,84.7149,758.908,84.618,758.5741,84.8118,758.2503,85.0301,757.9066,85.2005,757.5,85.2188,757.5,85.2148,747.1364,85.506,736.7727,84.6463,726.4091,85.5031,716.0455,85.7669,705.6818,85.6633,695.3182,85.8318,684.9545,84.7357,674.5909,84.5666,664.2273,84.5973,653.8636,85.1599,643.5,85.2188,643.4749,85.1582,643.2334,85.2822,642.7706,84.8721,642.3956,84.6738,642.1149,84.7033,641.7322,84.4865,641.5269,84.4015,641.4259,84.0667,641.6392,83.8622,641.4271,83.4814,641.3726,83.166,641,82.7188,640.8927,82.7188,641.1064,73.875,641.1968,65.0313,640.8425,56.1875,640.968,47.3438,641,38.5,641.0388,38.5161,641.3472,38.2296,641.2916,37.7924,641.5818,37.4983,641.4152,37.0151,641.7322,36.7322,641.6458,36.5237,642.15,36.7409,642.3479,36.2186,642.8578,36.4496,643.1728,36.2101,643.5,36" style="stroke:#181818;stroke-width:0.5;"/><text fill="#000000" font-family="FG Virgil" font-size="14" font-style="italic" lengthAdjust="spacing" textLength="59" x="671" y="57.5332">«builder»</text><text fill="#000000" font-family="FG Virgil" font-size="14" lengthAdjust="spacing" textLength="105" x="648" y="75.1426">CustomerBuilder</text><polygon fill="#E3E3E3" points="643.5,978.4688,643.5,978.6789,653.8636,978.0544,664.2273,978.662,674.5909,978.8684,684.9545,977.7554,695.3182,978.391,705.6818,978.0423,716.0455,978.0853,726.4091,978.4006,736.7727,977.7774,747.1364,979.0224,757.5,978.4688,757.4196,978.2746,757.8283,978.5543,758.2622,978.8947,758.5497,978.8817,758.9229,979.0756,759.2678,979.201,759.2579,979.1969,759.4692,979.5773,759.6343,979.9386,759.8875,980.3364,760.0602,980.7008,760,980.9688,760.2264,980.9688,760.0849,989.8125,760.1545,998.6563,760.2341,1007.5,759.7596,1016.3438,760,1025.1875,760.209,1025.2741,759.7622,1025.5032,759.8715,1025.9627,759.4082,1026.185,759.3931,1026.593,759.2678,1026.9553,759.3624,1027.1837,758.908,1027.0867,758.5741,1027.2806,758.2503,1027.4989,757.9066,1027.6692,757.5,1027.6875,757.5,1027.6836,747.1364,1027.9747,736.7727,1027.1151,726.4091,1027.9719,716.0455,1028.2357,705.6818,1028.132,695.3182,1028.3005,684.9545,1027.2044,674.5909,1027.0353,664.2273,1027.0661,653.8636,1027.6286,643.5,1027.6875,643.4749,1027.627,643.2334,1027.7509,642.7706,1027.3408,642.3956,1027.1425,642.1149,1027.172,641.7322,1026.9553,641.5269,1026.8702,641.4259,1026.5355,641.6392,1026.3309,641.4271,1025.9502,641.3726,1025.6347,641,1025.1875,640.8927,1025.1875,641.1064,1016.3438,641.1968,1007.5,640.8425,998.6563,640.968,989.8125,641,980.9688,641.0388,980.9848,641.3472,980.6983,641.2916,980.2611,641.5818,979.9671,641.4152,979.4839,641.7322,979.201,641.6458,978.9924,642.15,979.2096,642.3479,978.6873,642.8578,978.9184,643.1728,978.6788,643.5,978.4688" style="stroke:#181818;stroke-width:0.5;"/><text fill="#000000" font-family="FG Virgil" font-size="14" font-style="italic" lengthAdjust="spacing" textLength="59" x="671" y="1000.002">«builder»</text><text fill="#000000" font-family="FG Virgil" font-size="14" lengthAdjust="spacing" textLength="105" x="648" y="1017.6113">CustomerBuilder</text><polygon fill="#E3E3E3" points="825.5,36,825.5,36.2102,835.6538,35.5857,845.8077,36.1933,855.9615,36.3997,866.1154,35.2866,876.2692,35.9223,886.4231,35.5735,896.5769,35.6165,906.7308,35.9318,916.8846,35.3086,927.0385,36.5536,937.1923,35.3697,947.3462,35.8022,957.5,36,957.5551,36.133,957.8426,36.12,958.2158,36.3139,958.5566,36.4295,958.937,36.6408,959.2678,36.7322,959.3414,36.7627,959.5946,37.1605,959.7673,37.5249,959.9163,37.8795,959.932,38.1789,960,38.5,960.1545,38.5,960.2341,47.3438,959.7596,56.1875,960.2262,65.0313,959.9012,73.875,960,82.7188,960.1644,82.7868,959.7011,83.0092,959.686,83.4171,959.789,83.874,959.3992,84.1267,959.2678,84.4865,959.2812,84.5189,958.9574,84.7372,958.6138,84.9076,958.2066,84.9247,957.8902,85.1608,957.5,85.2188,957.5,84.6463,947.3462,85.5031,937.1923,85.7669,927.0385,85.6633,916.8846,85.8318,906.7308,84.7357,896.5769,84.5666,886.4231,84.5973,876.2692,85.1599,866.1154,85.0222,855.9615,85.9002,845.8077,85.0441,835.6538,84.8757,825.5,85.2188,825.5291,85.289,825.0614,84.8669,824.7267,84.766,824.5221,84.9793,824.1414,84.7671,823.7322,84.4865,823.9584,84.5802,823.4867,84.0919,823.5376,83.8201,823.4747,83.5012,823.001,83.012,823,82.7188,822.968,82.7188,823.042,73.875,823.2173,65.0313,822.9986,56.1875,823.1542,47.3438,823,38.5,822.8295,38.4294,822.9379,38.0601,823.448,37.8571,823.2186,37.3479,823.7425,37.1507,823.7322,36.7322,823.7586,36.7959,824.0516,36.5033,824.3942,36.3304,824.8514,36.4342,825.1083,36.0543,825.5,36" style="stroke:#181818;stroke-width:0.5;"/><text fill="#000000" font-family="FG Virgil" font-size="14" font-style="italic" lengthAdjust="spacing" textLength="62" x="860.5" y="57.5332">«domain»</text><text fill="#000000" font-family="FG Virgil" font-size="14" lengthAdjust="spacing" textLength="123" x="830" y="75.1426">customer:Customer</text><polygon fill="#E3E3E3" points="825.5,978.4688,825.5,978.6789,835.6538,978.0544,845.8077,978.662,855.9615,978.8684,866.1154,977.7554,876.2692,978.391,886.4231,978.0423,896.5769,978.0853,906.7308,978.4006,916.8846,977.7774,927.0385,979.0224,937.1923,977.8385,947.3462,978.271,957.5,978.4688,957.5551,978.6018,957.8426,978.5888,958.2158,978.7827,958.5566,978.8983,958.937,979.1095,959.2678,979.201,959.3414,979.2315,959.5946,979.6292,959.7673,979.9937,959.9163,980.3483,959.932,980.6477,960,980.9688,960.1545,980.9688,960.2341,989.8125,959.7596,998.6563,960.2262,1007.5,959.9012,1016.3438,960,1025.1875,960.1644,1025.2556,959.7011,1025.4779,959.686,1025.8859,959.789,1026.3428,959.3992,1026.5955,959.2678,1026.9553,959.2812,1026.9877,958.9574,1027.206,958.6138,1027.3763,958.2066,1027.3934,957.8902,1027.6295,957.5,1027.6875,957.5,1027.1151,947.3462,1027.9719,937.1923,1028.2357,927.0385,1028.132,916.8846,1028.3005,906.7308,1027.2044,896.5769,1027.0353,886.4231,1027.0661,876.2692,1027.6286,866.1154,1027.491,855.9615,1028.3689,845.8077,1027.5128,835.6538,1027.3444,825.5,1027.6875,825.5291,1027.7578,825.0614,1027.3357,824.7267,1027.2347,824.5221,1027.448,824.1414,1027.2359,823.7322,1026.9553,823.9584,1027.049,823.4867,1026.5607,823.5376,1026.2889,823.4747,1025.9699,823.001,1025.4808,823,1025.1875,822.968,1025.1875,823.042,1016.3438,823.2173,1007.5,822.9986,998.6563,823.1542,989.8125,823,980.9688,822.8295,980.8981,822.9379,980.5288,823.448,980.3259,823.2186,979.8166,823.7425,979.6195,823.7322,979.201,823.7586,979.2646,824.0516,978.972,824.3942,978.7991,824.8514,978.9029,825.1083,978.523,825.5,978.4688" style="stroke:#181818;stroke-width:0.5;"/><text fill="#000000" font-family="FG Virgil" font-size="14" font-style="italic" lengthAdjust="spacing" textLength="62" x="860.5" y="1000.002">«domain»</text><text fill="#000000" font-family="FG Virgil" font-size="14" lengthAdjust="spacing" textLength="123" x="830" y="1017.6113">customer:Customer</text><polygon fill="#E3E3E3" points="972.5,36,972.5,36.2102,982.5769,35.5857,992.6538,36.1933,1002.7308,36.3997,1012.8077,35.2866,1022.8846,35.9223,1032.9615,35.5735,1043.0385,35.6165,1053.1154,35.9318,1063.1923,35.3086,1073.2692,36.5536,1083.3462,35.3697,1093.4231,35.8022,1103.5,36,1103.5551,36.133,1103.8426,36.12,1104.2158,36.3139,1104.5566,36.4295,1104.937,36.6408,1105.2678,36.7322,1105.3414,36.7627,1105.5946,37.1605,1105.7673,37.5249,1105.9163,37.8795,1105.932,38.1789,1106,38.5,1106.1545,38.5,1106.2341,47.3438,1105.7596,56.1875,1106.2262,65.0313,1105.9012,73.875,1106,82.7188,1106.1644,82.7868,1105.7011,83.0092,1105.686,83.4171,1105.789,83.874,1105.3992,84.1267,1105.2678,84.4865,1105.2812,84.5189,1104.9574,84.7372,1104.6138,84.9076,1104.2066,84.9247,1103.8902,85.1608,1103.5,85.2188,1103.5,84.6463,1093.4231,85.5031,1083.3462,85.7669,1073.2692,85.6633,1063.1923,85.8318,1053.1154,84.7357,1043.0385,84.5666,1032.9615,84.5973,1022.8846,85.1599,1012.8077,85.0222,1002.7308,85.9002,992.6538,85.0441,982.5769,84.8757,972.5,85.2188,972.5291,85.289,972.0614,84.8669,971.7267,84.766,971.5221,84.9793,971.1414,84.7671,970.7322,84.4865,970.9584,84.5802,970.4867,84.0919,970.5376,83.8201,970.4747,83.5012,970.001,83.012,970,82.7188,969.968,82.7188,970.042,73.875,970.2173,65.0313,969.9986,56.1875,970.1542,47.3438,970,38.5,969.8295,38.4294,969.9379,38.0601,970.448,37.8571,970.2186,37.3479,970.7425,37.1507,970.7322,36.7322,970.7586,36.7959,971.0516,36.5033,971.3942,36.3304,971.8514,36.4342,972.1083,36.0543,972.5,36" style="stroke:#181818;stroke-width:0.5;"/><text fill="#000000" font-family="FG Virgil" font-size="14" font-style="italic" lengthAdjust="spacing" textLength="89" x="993.5" y="57.5332">«persistence»</text><text fill="#000000" font-family="FG Virgil" font-size="14" lengthAdjust="spacing" textLength="122" x="977" y="75.1426">PersistenceContext</text><polygon fill="#E3E3E3" points="972.5,978.4688,972.5,978.6789,982.5769,978.0544,992.6538,978.662,1002.7308,978.8684,1012.8077,977.7554,1022.8846,978.391,1032.9615,978.0423,1043.0385,978.0853,1053.1154,978.4006,1063.1923,977.7774,1073.2692,979.0224,1083.3462,977.8385,1093.4231,978.271,1103.5,978.4688,1103.5551,978.6018,1103.8426,978.5888,1104.2158,978.7827,1104.5566,978.8983,1104.937,979.1095,1105.2678,979.201,1105.3414,979.2315,1105.5946,979.6292,1105.7673,979.9937,1105.9163,980.3483,1105.932,980.6477,1106,980.9688,1106.1545,980.9688,1106.2341,989.8125,1105.7596,998.6563,1106.2262,1007.5,1105.9012,1016.3438,1106,1025.1875,1106.1644,1025.2556,1105.7011,1025.4779,1105.686,1025.8859,1105.789,1026.3428,1105.3992,1026.5955,1105.2678,1026.9553,1105.2812,1026.9877,1104.9574,1027.206,1104.6138,1027.3763,1104.2066,1027.3934,1103.8902,1027.6295,1103.5,1027.6875,1103.5,1027.1151,1093.4231,1027.9719,1083.3462,1028.2357,1073.2692,1028.132,1063.1923,1028.3005,1053.1154,1027.2044,1043.0385,1027.0353,1032.9615,1027.0661,1022.8846,1027.6286,1012.8077,1027.491,1002.7308,1028.3689,992.6538,1027.5128,982.5769,1027.3444,972.5,1027.6875,972.5291,1027.7578,972.0614,1027.3357,971.7267,1027.2347,971.5221,1027.448,971.1414,1027.2359,970.7322,1026.9553,970.9584,1027.049,970.4867,1026.5607,970.5376,1026.2889,970.4747,1025.9699,970.001,1025.4808,970,1025.1875,969.968,1025.1875,970.042,1016.3438,970.2173,1007.5,969.9986,998.6563,970.1542,989.8125,970,980.9688,969.8295,980.8981,969.9379,980.5288,970.448,980.3259,970.2186,979.8166,970.7425,979.6195,970.7322,979.201,970.7586,979.2646,971.0516,978.972,971.3942,978.7991,971.8514,978.9029,972.1083,978.523,972.5,978.4688" style="stroke:#181818;stroke-width:0.5;"/><text fill="#000000" font-family="FG Virgil" font-size="14" font-style="italic" lengthAdjust="spacing" textLength="89" x="993.5" y="1000.002">«persistence»</text><text fill="#000000" font-family="FG Virgil" font-size="14" lengthAdjust="spacing" textLength="122" x="977" y="1017.6113">PersistenceContext</text><polygon fill="#E3E3E3" points="1118.5,36,1118.5,36.2102,1128.1154,35.5857,1137.7308,36.1933,1147.3462,36.3997,1156.9615,35.2866,1166.5769,35.9223,1176.1923,35.5735,1185.8077,35.6165,1195.4231,35.9318,1205.0385,35.3086,1214.6538,36.5536,1224.2692,35.3697,1233.8846,35.8022,1243.5,36,1243.5551,36.133,1243.8426,36.12,1244.2158,36.3139,1244.5566,36.4295,1244.937,36.6408,1245.2678,36.7322,1245.3414,36.7627,1245.5946,37.1605,1245.7673,37.5249,1245.9163,37.8795,1245.932,38.1789,1246,38.5,1246.1545,38.5,1246.2341,47.3438,1245.7596,56.1875,1246.2262,65.0313,1245.9012,73.875,1246,82.7188,1246.1644,82.7868,1245.7011,83.0092,1245.686,83.4171,1245.789,83.874,1245.3992,84.1267,1245.2678,84.4865,1245.2812,84.5189,1244.9574,84.7372,1244.6138,84.9076,1244.2066,84.9247,1243.8902,85.1608,1243.5,85.2188,1243.5,84.6463,1233.8846,85.5031,1224.2692,85.7669,1214.6538,85.6633,1205.0385,85.8318,1195.4231,84.7357,1185.8077,84.5666,1176.1923,84.5973,1166.5769,85.1599,1156.9615,85.0222,1147.3462,85.9002,1137.7308,85.0441,1128.1154,84.8757,1118.5,85.2188,1118.5291,85.289,1118.0614,84.8669,1117.7267,84.766,1117.5221,84.9793,1117.1414,84.7671,1116.7322,84.4865,1116.9584,84.5802,1116.4867,84.0919,1116.5376,83.8201,1116.4747,83.5012,1116.001,83.012,1116,82.7188,1115.968,82.7188,1116.042,73.875,1116.2173,65.0313,1115.9986,56.1875,1116.1542,47.3438,1116,38.5,1115.8295,38.4294,1115.9379,38.0601,1116.448,37.8571,1116.2186,37.3479,1116.7425,37.1507,1116.7322,36.7322,1116.7586,36.7959,1117.0516,36.5033,1117.3942,36.3304,1117.8514,36.4342,1118.1083,36.0543,1118.5,36" style="stroke:#181818;stroke-width:0.5;"/><text fill="#000000" font-family="FG Virgil" font-size="14" font-style="italic" lengthAdjust="spacing" textLength="59" x="1151.5" y="57.5332">«factory»</text><text fill="#000000" font-family="FG Virgil" font-size="14" lengthAdjust="spacing" textLength="116" x="1123" y="75.1426">RepositoryFactory</text><polygon fill="#E3E3E3" points="1118.5,978.4688,1118.5,978.6789,1128.1154,978.0544,1137.7308,978.662,1147.3462,978.8684,1156.9615,977.7554,1166.5769,978.391,1176.1923,978.0423,1185.8077,978.0853,1195.4231,978.4006,1205.0385,977.7774,1214.6538,979.0224,1224.2692,977.8385,1233.8846,978.271,1243.5,978.4688,1243.5551,978.6018,1243.8426,978.5888,1244.2158,978.7827,1244.5566,978.8983,1244.937,979.1095,1245.2678,979.201,1245.3414,979.2315,1245.5946,979.6292,1245.7673,979.9937,1245.9163,980.3483,1245.932,980.6477,1246,980.9688,1246.1545,980.9688,1246.2341,989.8125,1245.7596,998.6563,1246.2262,1007.5,1245.9012,1016.3438,1246,1025.1875,1246.1644,1025.2556,1245.7011,1025.4779,1245.686,1025.8859,1245.789,1026.3428,1245.3992,1026.5955,1245.2678,1026.9553,1245.2812,1026.9877,1244.9574,1027.206,1244.6138,1027.3763,1244.2066,1027.3934,1243.8902,1027.6295,1243.5,1027.6875,1243.5,1027.1151,1233.8846,1027.9719,1224.2692,1028.2357,1214.6538,1028.132,1205.0385,1028.3005,1195.4231,1027.2044,1185.8077,1027.0353,1176.1923,1027.0661,1166.5769,1027.6286,1156.9615,1027.491,1147.3462,1028.3689,1137.7308,1027.5128,1128.1154,1027.3444,1118.5,1027.6875,1118.5291,1027.7578,1118.0614,1027.3357,1117.7267,1027.2347,1117.5221,1027.448,1117.1414,1027.2359,1116.7322,1026.9553,1116.9584,1027.049,1116.4867,1026.5607,1116.5376,1026.2889,1116.4747,1025.9699,1116.001,1025.4808,1116,1025.1875,1115.968,1025.1875,1116.042,1016.3438,1116.2173,1007.5,1115.9986,998.6563,1116.1542,989.8125,1116,980.9688,1115.8295,980.8981,1115.9379,980.5288,1116.448,980.3259,1116.2186,979.8166,1116.7425,979.6195,1116.7322,979.201,1116.7586,979.2646,1117.0516,978.972,1117.3942,978.7991,1117.8514,978.9029,1118.1083,978.523,1118.5,978.4688" style="stroke:#181818;stroke-width:0.5;"/><text fill="#000000" font-family="FG Virgil" font-size="14" font-style="italic" lengthAdjust="spacing" textLength="59" x="1151.5" y="1000.002">«factory»</text><text fill="#000000" font-family="FG Virgil" font-size="14" lengthAdjust="spacing" textLength="116" x="1123" y="1017.6113">RepositoryFactory</text><text fill="#000000" font-family="FG Virgil" font-size="14" font-style="italic" lengthAdjust="spacing" textLength="79" x="1281" y="65.5332">«repository»</text><text fill="#000000" font-family="FG Virgil" font-size="14" lengthAdjust="spacing" textLength="129" x="1256" y="83.1426">CustomerRepository</text><path d="M1305.5,15 L1305.5,15 L1305.5651,15.067 L1307.1716,13.118 L1309.1599,11.5616 L1311.0238,9.8774 L1312.479,7.7727 L1314.5,6.25 L1314.4952,6.2158 L1316.2739,5.8122 L1318.0766,5.5812 L1319.8958,5.47 L1321.6577,4.9456 L1323.5,5 L1323.5,5 L1323.5339,5.2437 L1325.2615,4.9725 L1327.0879,5.4129 L1328.9264,5.9402 L1330.6948,5.9622 L1332.5,6.25 L1332.5211,6.2717 L1334.2901,7.9898 L1336.1553,9.8069 L1337.9741,11.5762 L1339.8815,13.4366 L1341.5,15 L1342.0965,15 L1342.1038,20.2 L1341.7263,25.4 L1341.9121,30.6 L1342.1242,35.8 L1341.5,41 L1341.5,41 L1341.2766,40.7702 L1339.9102,42.9662 L1337.8081,44.4055 L1336.2654,46.4201 L1334.1466,47.8423 L1332.5,49.75 L1332.4958,49.7198 L1330.7453,50.3265 L1328.897,50.2285 L1327.1064,50.5464 L1325.3207,50.8991 L1323.5,51 L1323.5,51 L1323.5254,51.1832 L1321.6998,50.7483 L1319.9176,50.6264 L1318.065,49.998 L1316.3174,50.1252 L1314.5,49.75 L1314.6698,49.9247 L1312.8377,48.1417 L1311.0899,46.4453 L1308.9503,44.3461 L1307.0979,42.5422 L1305.5,41 L1304.9476,41 L1305.4477,35.8 L1305.3253,30.6 L1306.1057,25.4 L1305.3447,20.2 L1305.5,15 " fill="#E3E3E3" style="stroke:#181818;stroke-width:1.5;"/><path d="M1305.5,15 L1305.5,15 L1305.5651,15.067 L1307.1716,16.618 L1309.1599,18.5616 L1311.0238,20.3774 L1312.479,21.7727 L1314.5,23.75 L1314.4952,23.7158 L1316.2739,23.8122 L1318.0766,24.0812 L1319.8958,24.47 L1321.6577,24.4456 L1323.5,25 L1323.5,25 L1323.5339,25.2437 L1325.2615,24.4725 L1327.0879,24.4129 L1328.9264,24.4402 L1330.6948,23.9622 L1332.5,23.75 L1332.5211,23.7717 L1334.2901,21.9898 L1336.1553,20.3069 L1337.9741,18.5762 L1339.8815,16.9366 L1341.5,15 " fill="none" style="stroke:#181818;stroke-width:1.5;"/><text fill="#000000" font-family="FG Virgil" font-size="14" font-style="italic" lengthAdjust="spacing" textLength="79" x="1281" y="993.002">«repository»</text><text fill="#000000" font-family="FG Virgil" font-size="14" lengthAdjust="spacing" textLength="129" x="1256" y="1010.6113">CustomerRepository</text><path d="M1305.5,1023.6875 L1305.5,1023.6875 L1305.5651,1023.7545 L1307.1716,1021.8055 L1309.1599,1020.2491 L1311.0238,1018.5649 L1312.479,1016.4602 L1314.5,1014.9375 L1314.4952,1014.9033 L1316.2739,1014.4997 L1318.0766,1014.2687 L1319.8958,1014.1575 L1321.6577,1013.6331 L1323.5,1013.6875 L1323.5,1013.6875 L1323.5339,1013.9312 L1325.2615,1013.66 L1327.0879,1014.1004 L1328.9264,1014.6277 L1330.6948,1014.6497 L1332.5,1014.9375 L1332.5211,1014.9592 L1334.2901,1016.6773 L1336.1553,1018.4944 L1337.9741,1020.2637 L1339.8815,1022.1241 L1341.5,1023.6875 L1342.0965,1023.6875 L1342.1038,1028.8875 L1341.7263,1034.0875 L1341.9121,1039.2875 L1342.1242,1044.4875 L1341.5,1049.6875 L1341.5,1049.6875 L1341.2766,1049.4577 L1339.9102,1051.6537 L1337.8081,1053.093 L1336.2654,1055.1076 L1334.1466,1056.5298 L1332.5,1058.4375 L1332.4958,1058.4073 L1330.7453,1059.014 L1328.897,1058.916 L1327.1064,1059.2339 L1325.3207,1059.5866 L1323.5,1059.6875 L1323.5,1059.6875 L1323.5254,1059.8707 L1321.6998,1059.4358 L1319.9176,1059.3139 L1318.065,1058.6855 L1316.3174,1058.8127 L1314.5,1058.4375 L1314.6698,1058.6122 L1312.8377,1056.8292 L1311.0899,1055.1328 L1308.9503,1053.0336 L1307.0979,1051.2297 L1305.5,1049.6875 L1304.9476,1049.6875 L1305.4477,1044.4875 L1305.3253,1039.2875 L1306.1057,1034.0875 L1305.3447,1028.8875 L1305.5,1023.6875 " fill="#E3E3E3" style="stroke:#181818;stroke-width:1.5;"/><path d="M1305.5,1023.6875 L1305.5,1023.6875 L1305.5651,1023.7545 L1307.1716,1025.3055 L1309.1599,1027.2491 L1311.0238,1029.0649 L1312.479,1030.4602 L1314.5,1032.4375 L1314.4952,1032.4033 L1316.2739,1032.4997 L1318.0766,1032.7687 L1319.8958,1033.1575 L1321.6577,1033.1331 L1323.5,1033.6875 L1323.5,1033.6875 L1323.5339,1033.9312 L1325.2615,1033.16 L1327.0879,1033.1004 L1328.9264,1033.1277 L1330.6948,1032.6497 L1332.5,1032.4375 L1332.5211,1032.4592 L1334.2901,1030.6773 L1336.1553,1028.9944 L1337.9741,1027.2637 L1339.8815,1025.6241 L1341.5,1023.6875 " fill="none" style="stroke:#181818;stroke-width:1.5;"/><polygon fill="#FFFFFF" points="281,118.5703,281,118.6404,283,118.4322,285,118.6347,287,118.7035,289,118.3325,291,118.5703,290.9223,118.5703,290.5735,128.6048,290.6165,138.6393,290.9318,148.6738,290.3086,158.7083,291.5536,168.7428,290.3697,178.7773,290.8022,188.8118,291.4319,198.8464,290.9142,208.8809,291.0682,218.9154,290.9681,228.9499,291.1785,238.9844,291.2391,249.0189,291.5857,259.0534,291.6711,269.0879,291.6793,279.1224,291.2546,289.1569,291.4636,299.1914,291.7022,309.2259,290.2788,319.2604,291.6785,329.2949,290.7035,339.3294,291.5338,349.3639,290.505,359.3984,290.9315,369.4329,291.7416,379.4674,290.9513,389.502,291.1053,399.5365,291.3386,409.571,291.4162,419.6055,290.9961,429.64,291.2872,439.6745,290.4276,449.709,291.2844,459.7435,291.5482,469.778,291.4445,479.8125,291.613,489.847,290.5169,499.8815,290.3478,509.916,290.3786,519.9505,290.9411,529.985,290.8035,540.0195,291.6814,550.054,290.8253,560.0885,290.6569,570.123,291.2283,580.1576,290.3332,590.1921,290.4809,600.2266,291.649,610.2611,291.4357,620.2956,291.7345,630.3301,290.6782,640.3646,291.3192,650.3991,291.5904,660.4336,290.5276,670.4681,290.9041,680.5026,291.126,690.5371,291.6518,700.5716,290.9958,710.6061,291.4626,720.6406,290.4462,730.6751,290.3227,740.7096,291.5036,750.7441,290.2831,760.7786,291.509,770.8132,291.2066,780.8477,290.7321,790.8822,290.6462,800.9167,291.4588,810.9512,290.7007,820.9857,291.5919,831.0202,290.4473,841.0547,291.6174,851.0892,291.4843,861.1237,291.245,871.1582,291.0472,881.1927,291.7266,891.2272,291.6136,901.2617,291.1693,911.2962,291.2682,921.3307,290.8697,931.3652,291.7165,941.3997,291.1549,951.4342,291,961.4688,291,961.5263,289,961.266,287,961.3337,285,961.6457,283,961.612,281,961.4688,280.9571,961.4688,280.6778,951.4342,280.7811,941.3997,280.3138,931.3652,281.4147,921.3307,281.7396,911.2962,281.5264,901.2617,281.6949,891.2272,280.8633,881.1927,281.0872,871.1582,280.6124,861.1237,281.284,851.0892,281.2468,841.0547,281.5524,831.0202,280.7703,820.9857,280.8656,810.9512,281.4435,800.9167,281.5673,790.8822,280.4875,780.8477,280.8061,770.8132,281.1493,760.7786,280.3892,750.7441,281.3534,740.7096,281.258,730.6751,280.8992,720.6406,281.1422,710.6061,281.7287,700.5716,280.6871,690.5371,281.315,680.5026,281.2856,670.4681,281.1158,660.4336,281.1409,650.3991,281.1135,640.3646,280.3758,630.3301,280.5992,620.2956,280.5385,610.2611,281.0638,600.2266,281.0881,590.1921,281.1617,580.1576,280.709,570.123,280.9325,560.0885,280.8798,550.054,281.5769,540.0195,281.4266,529.985,280.5145,519.9505,280.9271,509.916,280.4228,499.8815,281.2884,489.847,281.6085,479.8125,281.5446,469.778,280.5644,459.7435,281.464,449.709,280.2572,439.6745,281.2002,429.64,280.7007,419.6055,281.0967,409.571,281.2403,399.5365,281.4721,389.502,280.2801,379.4674,281.4755,369.4329,281.1782,359.3984,281.3553,349.3639,281.7478,339.3294,281.0055,329.2949,281.1753,319.2604,281.2134,309.2259,281.1972,299.1914,280.9992,289.1569,281.7107,279.1224,280.3903,269.0879,281.5653,259.0534,280.376,249.0189,280.4597,238.9844,281.04,228.9499,281.0283,218.9154,280.5072,208.8809,281.4137,198.8464,281.1089,188.8118,281.7267,178.7773,281.6671,168.7428,280.5517,158.7083,280.6021,148.6738,280.8708,138.6393,281.3555,128.6048,281,118.5703" style="stroke:#181818;stroke-width:1.0;"/><polygon fill="#FFFFFF" points="531,414.7891,531,414.8591,533,414.651,535,414.8535,537,414.9223,539,414.5513,541,414.7891,540.9223,414.7891,540.5735,424.7184,540.6165,434.6478,540.9318,444.5772,540.3086,454.5066,541.5536,464.436,540.3697,474.3654,540.8022,484.2948,541.4319,494.2242,540.9142,504.1535,541.0682,514.0829,540.9681,524.0123,541.1785,533.9417,541.2391,543.8711,541.5857,553.8005,541.6711,563.7299,541.6793,573.6593,541.2546,583.5886,541.4636,593.518,541.7022,603.4474,540.2788,613.3768,541.6785,623.3062,540.7035,633.2356,541.5338,643.165,540.505,653.0944,540.9315,663.0237,541.7416,672.9531,540.9513,682.8825,541.1053,692.8119,541.3386,702.7413,541.4162,712.6707,540.9961,722.6001,541.2872,732.5294,540.4276,742.4588,541.2844,752.3882,541.5482,762.3176,541.4445,772.247,541.613,782.1764,540.5169,792.1058,540.3478,802.0352,540.3786,811.9645,540.9411,821.8939,540.8035,831.8233,541.6814,841.7527,540.8253,851.6821,540.6569,861.6115,541.2283,871.5409,540.3332,881.4703,540.4809,891.3996,541.649,901.329,541.4357,911.2584,541.7345,921.1878,541,931.1172,541,931.0099,539,931.2236,537,931.314,535,930.9597,533,931.0852,531,931.1172,531.126,931.1172,531.6518,921.1878,530.9958,911.2584,531.4626,901.329,530.4462,891.3996,530.3227,881.4703,531.5036,871.5409,530.2831,861.6115,531.509,851.6821,531.2066,841.7527,530.7321,831.8233,530.6462,821.8939,531.4588,811.9645,530.7007,802.0352,531.5919,792.1058,530.4473,782.1764,531.6174,772.247,531.4843,762.3176,531.245,752.3882,531.0472,742.4588,531.7266,732.5294,531.6136,722.6001,531.1693,712.6707,531.2682,702.7413,530.8697,692.8119,531.7165,682.8825,531.1549,672.9531,531.1726,663.0237,530.3916,653.0944,530.5948,643.165,531.5307,633.2356,531.4298,623.3062,530.9571,613.3768,530.6778,603.4474,530.7811,593.518,530.3138,583.5886,531.4147,573.6593,531.7396,563.7299,531.5264,553.8005,531.6949,543.8711,530.8633,533.9417,531.0872,524.0123,530.6124,514.0829,531.284,504.1535,531.2468,494.2242,531.5524,484.2948,530.7703,474.3654,530.8656,464.436,531.4435,454.5066,531.5673,444.5772,530.4875,434.6478,530.8061,424.7184,531,414.7891" style="stroke:#181818;stroke-width:1.0;"/><polygon fill="#FFFFFF" points="695.5,511.8438,695.5,511.9138,697.5,511.7056,699.5,511.9082,701.5,511.977,703.5,511.606,705.5,511.8438,705.4223,511.8438,705.0735,521.8516,705.1165,531.8594,705.4318,541.8672,704.8086,551.875,706.0536,561.8828,704.8697,571.8906,705.3022,581.8984,705.9319,591.9063,705.4142,601.9141,705.5682,611.9219,705.4681,621.9297,705.6785,631.9375,705.7391,641.9453,705.5,651.9531,705.5,652.1484,703.5,652.1768,701.5,652.1795,699.5,652.038,697.5,652.1077,695.5,651.9531,696.2022,651.9531,694.7788,641.9453,696.1785,631.9375,695.2035,621.9297,696.0338,611.9219,695.005,601.9141,695.4315,591.9063,696.2416,581.8984,695.4513,571.8906,695.6053,561.8828,695.8386,551.875,695.9162,541.8672,695.4961,531.8594,695.7872,521.8516,695.5,511.8438" style="stroke:#181818;stroke-width:1.0;"/><polygon fill="#FFFFFF" points="1033,682.3047,1033,682.3747,1035,682.1666,1037,682.3691,1039,682.4379,1041,682.0669,1043,682.3047,1042.9223,682.3047,1042.5735,692.0102,1042.6165,701.7156,1042.9318,711.4211,1042.3086,721.1266,1043.5536,730.832,1042.3697,740.5375,1042.8022,750.243,1043.4319,759.9484,1042.9142,769.6539,1043,779.3594,1043,779.3821,1041,779.3487,1039,779.4189,1037,779.4391,1035,779.5546,1033,779.3594,1033.6711,779.3594,1033.6793,769.6539,1033.2546,759.9484,1033.4636,750.243,1033.7022,740.5375,1032.2788,730.832,1033.6785,721.1266,1032.7035,711.4211,1033.5338,701.7156,1032.505,692.0102,1033,682.3047" style="stroke:#181818;stroke-width:1.0;"/><polygon fill="#FFFFFF" points="1176,809.7109,1176,809.781,1178,809.5728,1180,809.7754,1182,809.8442,1184,809.4731,1186,809.7109,1185.9223,809.7109,1185.5735,819.8281,1185.6165,829.9453,1185.9318,840.0625,1185.3086,850.1797,1186.5536,860.2969,1186,870.4141,1186,870.204,1184,870.3481,1182,870.558,1180,870.3855,1178,870.4368,1176,870.4141,1175.9681,870.4141,1176.1785,860.2969,1176.2391,850.1797,1176.5857,840.0625,1176.6711,829.9453,1176.6793,819.8281,1176,809.7109" style="stroke:#181818;stroke-width:1.0;"/><polygon fill="#181818" points="269,114.5703,269.026,114.6354,270.9487,115.2421,273.0239,116.2301,275.0495,117.094,276.9117,117.5495,279,118.5703,278.9904,118.5463,276.9472,119.2383,274.9525,120.0516,272.9916,120.9492,270.9144,121.5563,269,122.5703,269.1305,122.7008,269.6514,121.6218,270.5534,120.9237,271.5018,120.2721,272.1798,119.3501,273,118.5703,273.0161,118.5864,272.1925,117.7628,271.4421,117.0124,270.6564,116.2267,269.938,115.5084,269,114.5703" style="stroke:#181818;stroke-width:1.0;"/><path d="M57,118.5703 L57,118.8506 L66.9091,118.0179 L76.8182,118.828 L86.7273,119.1032 L96.6364,117.6191 L106.5455,118.4667 L116.4545,118.0017 L126.3636,118.059 L136.2727,118.4794 L146.1818,117.6485 L156.0909,119.3085 L166,117.7299 L175.9091,118.3066 L185.8182,119.1462 L195.7273,118.4559 L205.6364,118.6613 L215.5455,118.5277 L225.4545,118.8083 L235.3636,118.8892 L245.2727,119.3512 L255.1818,119.4651 L265.0909,119.476 L275,118.5703 " fill="none" style="stroke:#181818;stroke-width:1.0;stroke-dasharray:2.0,2.0;"/><text fill="#000000" font-family="FG Virgil" font-size="13" lengthAdjust="spacing" textLength="83" x="64" y="113.7139">Add Customer</text><polygon fill="#181818" points="524,144.9219,524.026,144.9869,525.9487,145.5936,528.0239,146.5817,530.0495,147.4456,531.9117,147.9011,534,148.9219,533.9904,148.8978,531.9472,149.5899,529.9525,150.4032,527.9916,151.3008,525.9144,151.9079,524,152.9219,524.1305,153.0524,524.6514,151.9733,525.5534,151.2753,526.5018,150.6237,527.1798,149.7017,528,148.9219,528.0161,148.938,527.1925,148.1143,526.4421,147.364,525.6564,146.5782,524.938,145.8599,524,144.9219" style="stroke:#181818;stroke-width:1.0;"/><path d="M291,148.9219 L291,149.2021 L300.9583,148.3694 L310.9167,149.1796 L320.875,149.4548 L330.8333,147.9707 L340.7917,148.8183 L350.75,148.3532 L360.7083,148.4105 L370.6667,148.831 L380.625,148 L390.5833,149.6601 L400.5417,148.0815 L410.5,148.6582 L420.4583,149.4978 L430.4167,148.8075 L440.375,149.0129 L450.3333,148.8793 L460.2917,149.1599 L470.25,149.2407 L480.2083,149.7028 L490.1667,149.8166 L500.125,149.8276 L510.0833,149.2614 L520.0417,149.54 L530,148.9219 " fill="none" style="stroke:#181818;stroke-width:1.0;"/><text fill="#000000" font-family="FG Virgil" font-size="13" lengthAdjust="spacing" textLength="36" x="298" y="144.0654">create</text><polygon fill="#181818" points="68,175.2734,68.026,175.3385,65.9487,175.9452,64.0239,176.9333,62.0495,177.7971,59.9117,178.2526,58,179.2734,57.9904,179.2494,59.9472,179.9414,61.9525,180.7547,63.9916,181.6523,65.9144,182.2595,68,183.2734,68.1305,183.4039,67.0514,182.3249,66.3534,181.6268,65.7018,180.9752,64.7798,180.0532,64,179.2734,64.0161,179.2895,64.7925,178.4659,65.6421,177.7155,66.4564,176.9298,67.338,176.2115,68,175.2734" style="stroke:#181818;stroke-width:1.0;"/><path d="M62,179.2734 L62,179.5537 L71.9091,178.721 L81.8182,179.5312 L91.7273,179.8063 L101.6364,178.3222 L111.5455,179.1698 L121.4545,178.7048 L131.3636,178.7621 L141.2727,179.1826 L151.1818,178.3516 L161.0909,180.0116 L171,178.4331 L180.9091,179.0097 L190.8182,179.8494 L200.7273,179.1591 L210.6364,179.3644 L220.5455,179.2308 L230.4545,179.5115 L240.3636,179.5923 L250.2727,180.0544 L260.1818,180.1682 L270.0909,180.1791 L280,179.2734 " fill="none" style="stroke:#181818;stroke-width:1.0;stroke-dasharray:2.0,2.0;"/><text fill="#000000" font-family="FG Virgil" font-size="13" lengthAdjust="spacing" textLength="119" x="74" y="174.417">Ask user information</text><polygon fill="#181818" points="269,238.3281,269.026,238.3932,270.9487,238.9999,273.0239,239.9879,275.0495,240.8518,276.9117,241.3073,279,242.3281,278.9904,242.3041,276.9472,242.9961,274.9525,243.8094,272.9916,244.707,270.9144,245.3142,269,246.3281,269.1305,246.4586,269.6514,245.3796,270.5534,244.6815,271.5018,244.0299,272.1798,243.1079,273,242.3281,273.0161,242.3442,272.1925,241.5206,271.4421,240.7702,270.6564,239.9845,269.938,239.2662,269,238.3281" style="stroke:#181818;stroke-width:1.0;"/><path d="M57,242.3281 L57,242.6084 L66.9091,241.7757 L76.8182,242.5858 L86.7273,242.861 L96.6364,241.3769 L106.5455,242.2245 L116.4545,241.7595 L126.3636,241.8168 L136.2727,242.2372 L146.1818,241.4063 L156.0909,243.0663 L166,241.4878 L175.9091,242.0644 L185.8182,242.9041 L195.7273,242.2138 L205.6364,242.4191 L215.5455,242.2855 L225.4545,242.5662 L235.3636,242.647 L245.2727,243.109 L255.1818,243.2229 L265.0909,243.2338 L275,242.3281 " fill="none" style="stroke:#181818;stroke-width:1.0;stroke-dasharray:2.0,2.0;"/><text fill="#000000" font-family="FG Virgil" font-size="13" lengthAdjust="spacing" textLength="122" x="64" y="204.7686">First and Last Name,</text><text fill="#000000" font-family="FG Virgil" font-size="13" lengthAdjust="spacing" textLength="172" x="68" y="221.1201">phone number, Vat, birthdate,</text><text fill="#000000" font-family="FG Virgil" font-size="13" lengthAdjust="spacing" textLength="74" x="68" y="237.4717">gender email</text><path d="M10,257.3281 L10,257.8886 L20.4286,256.2233 L30.8571,257.8436 L41.2857,258.3939 L51.7143,255.4257 L62.1429,257.1209 L72.5714,256.1908 L83,257.3281 L82.6591,257.3281 L82.9394,258.9984 L82.3854,260.6688 L83.4921,262.3391 L82.4398,264.0094 L83,265.6797 L82.8757,265.5554 L81.2715,267.9512 L78.9461,269.6258 L77.0429,271.7226 L74.9799,273.6596 L73,275.6797 L73,276.1558 L62.5,276.3174 L52,277.2415 L41.5,277.4692 L31,277.491 L20.5,276.3587 L10,275.6797 L10.4121,275.6797 L10.6242,272.0094 L9.3589,268.3391 L10.6031,264.6688 L9.7364,260.9984 L10,257.3281 " fill="#EEEEEE" style="stroke:#000000;stroke-width:1.5;"/><polygon fill="none" points="10,257.3281,10,257.5383,19.8889,256.9138,29.7778,257.5214,39.6667,257.7278,49.5556,256.6147,59.4444,257.2504,69.3333,256.9016,79.2222,256.9446,89.1111,257.26,99,256.6368,108.8889,257.8818,118.7778,256.6978,128.6667,257.1304,138.5556,257.7601,148.4444,257.2423,158.3333,257.3964,168.2222,257.2962,178.1111,257.5067,188,257.5673,197.8889,257.9138,207.7778,257.9992,217.6667,258.0074,227.5556,257.5828,237.4444,257.7917,247.3333,258.0304,257.2222,256.6069,267.1111,258.0066,277,257.0316,286.8889,257.8619,296.7778,256.8331,306.6667,257.2596,316.5556,258.0697,326.4444,257.2794,336.3333,257.4334,346.2222,257.6668,356.1111,257.7444,366,257.3281,365.9961,257.3281,366.2872,267.21,365.4276,277.0918,366.2844,286.9736,366.5482,296.8555,366.4445,306.7373,366.613,316.6191,365.5169,326.501,366,336.3828,366,335.7306,356.1111,335.7614,346.2222,336.3239,336.3333,336.1863,326.4444,337.0642,316.5556,336.2081,306.6667,336.0398,296.7778,336.6111,286.8889,335.716,277,335.8637,267.1111,337.0318,257.2222,336.8185,247.3333,337.1173,237.4444,336.061,227.5556,336.702,217.6667,336.9732,207.7778,335.9104,197.8889,336.287,188,336.5088,178.1111,337.0346,168.2222,336.3786,158.3333,336.8454,148.4444,335.829,138.5556,335.7056,128.6667,336.8864,118.7778,335.6659,108.8889,336.8918,99,336.5894,89.1111,336.1149,79.2222,336.029,69.3333,336.8416,59.4444,336.0835,49.5556,336.9747,39.6667,335.8301,29.7778,337.0002,19.8889,336.8671,10,336.3828,10.245,336.3828,10.0472,326.501,10.7266,316.6191,10.6136,306.7373,10.1693,296.8555,10.2682,286.9736,9.8697,277.0918,10.7165,267.21,10,257.3281" style="stroke:#000000;stroke-width:1.5;"/><text fill="#000000" font-family="FG Virgil" font-size="13" font-weight="bold" lengthAdjust="spacing" textLength="28" x="25" y="271.8232">loop</text><text fill="#000000" font-family="FG Virgil" font-size="11" font-weight="bold" lengthAdjust="spacing" textLength="64" x="98" y="270.7471">[option != 0]</text><polygon fill="#181818" points="68,294.0313,68.026,294.0963,65.9487,294.703,64.0239,295.6911,62.0495,296.5549,59.9117,297.0105,58,298.0313,57.9904,298.0072,59.9472,298.6993,61.9525,299.5126,63.9916,300.4102,65.9144,301.0173,68,302.0313,68.1305,302.1617,67.0514,301.0827,66.3534,300.3846,65.7018,299.7331,64.7798,298.811,64,298.0313,64.0161,298.0473,64.7925,297.2237,65.6421,296.4733,66.4564,295.6876,67.338,294.9693,68,294.0313" style="stroke:#181818;stroke-width:1.0;"/><path d="M62,298.0313 L62,298.3115 L71.9091,297.4788 L81.8182,298.289 L91.7273,298.5642 L101.6364,297.0801 L111.5455,297.9276 L121.4545,297.4626 L131.3636,297.5199 L141.2727,297.9404 L151.1818,297.1094 L161.0909,298.7694 L171,297.1909 L180.9091,297.7676 L190.8182,298.6072 L200.7273,297.9169 L210.6364,298.1222 L220.5455,297.9887 L230.4545,298.2693 L240.3636,298.3501 L250.2727,298.8122 L260.1818,298.926 L270.0909,298.9369 L280,298.0313 " fill="none" style="stroke:#181818;stroke-width:1.0;stroke-dasharray:2.0,2.0;"/><text fill="#000000" font-family="FG Virgil" font-size="13" lengthAdjust="spacing" textLength="200" x="74" y="293.1748">Asks if he wants to add addresses</text><polygon fill="#181818" points="269,324.3828,269.026,324.4479,270.9487,325.0546,273.0239,326.0426,275.0495,326.9065,276.9117,327.362,279,328.3828,278.9904,328.3588,276.9472,329.0508,274.9525,329.8641,272.9916,330.7617,270.9144,331.3688,269,332.3828,269.1305,332.5133,269.6514,331.4343,270.5534,330.7362,271.5018,330.0846,272.1798,329.1626,273,328.3828,273.0161,328.3989,272.1925,327.5753,271.4421,326.8249,270.6564,326.0392,269.938,325.3209,269,324.3828" style="stroke:#181818;stroke-width:1.0;"/><path d="M57,328.3828 L57,328.6631 L66.9091,327.8304 L76.8182,328.6405 L86.7273,328.9157 L96.6364,327.4316 L106.5455,328.2792 L116.4545,327.8142 L126.3636,327.8715 L136.2727,328.2919 L146.1818,327.461 L156.0909,329.121 L166,327.5424 L175.9091,328.1191 L185.8182,328.9587 L195.7273,328.2684 L205.6364,328.4738 L215.5455,328.3402 L225.4545,328.6208 L235.3636,328.7017 L245.2727,329.1637 L255.1818,329.2776 L265.0909,329.2885 L275,328.3828 " fill="none" style="stroke:#181818;stroke-width:1.0;stroke-dasharray:2.0,2.0;"/><text fill="#000000" font-family="FG Virgil" font-size="13" lengthAdjust="spacing" textLength="103" x="64" y="323.5264">Inserts addresses</text><polygon fill="#181818" points="519,410.7891,519.026,410.8541,520.9487,411.4608,523.0239,412.4489,525.0495,413.3128,526.9117,413.7683,529,414.7891,528.9904,414.765,526.9472,415.4571,524.9525,416.2704,522.9916,417.168,520.9144,417.7751,519,418.7891,519.1305,418.9196,519.6514,417.8405,520.5534,417.1424,521.5018,416.4909,522.1798,415.5688,523,414.7891,523.0161,414.8051,522.1925,413.9815,521.4421,413.2311,520.6564,412.4454,519.938,411.7271,519,410.7891" style="stroke:#181818;stroke-width:1.0;"/><path d="M291,414.7891 L291,415.0693 L301.1739,414.2366 L311.3478,415.0468 L321.5217,415.322 L331.6957,413.8379 L341.8696,414.6854 L352.0435,414.2204 L362.2174,414.2777 L372.3913,414.6982 L382.5652,413.8672 L392.7391,415.5273 L402.913,413.9487 L413.087,414.5254 L423.2609,415.365 L433.4348,414.6747 L443.6087,414.88 L453.7826,414.7465 L463.9565,415.0271 L474.1304,415.1079 L484.3043,415.57 L494.4783,415.6838 L504.6522,415.6947 L514.8261,415.1286 L525,414.7891 " fill="none" style="stroke:#181818;stroke-width:1.0;"/><text fill="#000000" font-family="FG Virgil" font-size="13" lengthAdjust="spacing" textLength="221" x="298" y="360.8779">registerCustomer(firstName,lastName,</text><text fill="#000000" font-family="FG Virgil" font-size="13" lengthAdjust="spacing" textLength="74" x="302" y="377.2295">email,gender</text><text fill="#000000" font-family="FG Virgil" font-size="13" lengthAdjust="spacing" textLength="128" x="302" y="393.5811">,phone,vat,day,month,</text><text fill="#000000" font-family="FG Virgil" font-size="13" lengthAdjust="spacing" textLength="93" x="302" y="409.9326">year,addresses)</text><polygon fill="#181818" points="688.5,441.1406,688.526,441.2057,690.4487,441.8124,692.5239,442.8004,694.5495,443.6643,696.4117,444.1198,698.5,445.1406,698.4904,445.1166,696.4472,445.8086,694.4525,446.6219,692.4916,447.5195,690.4144,448.1267,688.5,449.1406,688.6305,449.2711,689.1514,448.1921,690.0534,447.494,691.0018,446.8424,691.6798,445.9204,692.5,445.1406,692.5161,445.1567,691.6925,444.3331,690.9421,443.5827,690.1564,442.797,689.438,442.0787,688.5,441.1406" style="stroke:#181818;stroke-width:1.0;"/><path d="M541,445.1406 L541,445.4209 L551.2333,444.5882 L561.4667,445.3983 L571.7,445.6735 L581.9333,444.1894 L592.1667,445.037 L602.4,444.572 L612.6333,444.6293 L622.8667,445.0497 L633.1,444.2188 L643.3333,445.8788 L653.5667,444.3003 L663.8,444.8769 L674.0333,445.7166 L684.2667,445.0263 L694.5,445.1406 " fill="none" style="stroke:#181818;stroke-width:1.0;"/><text fill="#000000" font-family="FG Virgil" font-size="13" lengthAdjust="spacing" textLength="36" x="548" y="440.2842">create</text><path d="M546,458.1406 L546.1868,458.1406 L545.6317,463.3406 L546.1718,468.5406 L546.3553,473.7406 L545.3659,478.9406 L546,484.1406 L546,483.9334 L556.1053,483.0033 L566.2105,483.118 L576.3158,483.9589 L586.4211,482.297 L596.5263,485.617 L606.6316,482.4599 L616.7368,483.6132 L626.8421,485.2925 L636.9474,483.9119 L647.0526,484.3226 L657.1579,484.0554 L667.2632,484.6167 L677.3684,484.7783 L687.4737,485.7025 L697.5789,485.9301 L707.6842,485.952 L717.7895,484.8196 L727.8947,485.3769 L738,484.1406 L738.6242,484.1406 L737.3589,480.9406 L738.6031,477.7406 L737.7364,474.5406 L738.4745,471.3406 L738,468.1406 L737.6889,467.8295 L735.9569,466.0976 L734.4661,464.6068 L731.9694,462.11 L730.0662,460.2068 L728,458.1406 L728,459.0436 L717.8889,459.2506 L707.7778,458.1302 L697.6667,458.9065 L687.5556,456.6142 L677.4444,458.899 L667.3333,459.6025 L657.2222,459.326 L647.1111,459.7754 L637,456.8524 L626.8889,456.4015 L616.7778,456.4836 L606.6667,457.9836 L596.5556,457.6165 L586.4444,459.9577 L576.3333,457.6748 L566.2222,457.2258 L556.1111,458.7493 L546,458.1406 " fill="#FAFAFA" style="stroke:#181818;stroke-width:0.5;"/><path d="M728,458.1406 L727.4073,458.1406 L727.5386,460.1406 L728.5768,462.1406 L728.3873,464.1406 L728.6529,466.1406 L728,468.1406 L728,467.8546 L730,468.4244 L732,468.6654 L734,467.7207 L736,468.0554 L738,468.1406 L738.0792,468.2198 L736.4097,466.5503 L733.9974,464.138 L732.2907,462.4314 L729.6519,459.7925 L728,458.1406 " fill="#FAFAFA" style="stroke:#181818;stroke-width:0.5;"/><text fill="#000000" font-family="FG Virgil" font-size="13" lengthAdjust="spacing" textLength="171" x="552" y="476.6357">Set the rest of the information</text><polygon fill="#181818" points="683.5,507.8438,683.526,507.9088,685.4487,508.5155,687.5239,509.5036,689.5495,510.3674,691.4117,510.823,693.5,511.8438,693.4904,511.8197,691.4472,512.5118,689.4525,513.3251,687.4916,514.2227,685.4144,514.8298,683.5,515.8438,683.6305,515.9742,684.1514,514.8952,685.0534,514.1971,686.0018,513.5456,686.6798,512.6235,687.5,511.8438,687.5161,511.8598,686.6925,511.0362,685.9421,510.2858,685.1564,509.5001,684.438,508.7818,683.5,507.8438" style="stroke:#181818;stroke-width:1.0;"/><path d="M541,511.8438 L541,512.124 L550.9,511.2913 L560.8,512.1015 L570.7,512.3767 L580.6,510.8926 L590.5,511.7401 L600.4,511.2751 L610.3,511.3324 L620.2,511.7529 L630.1,510.9219 L640,512.5819 L649.9,511.0034 L659.8,511.5801 L669.7,512.4197 L679.6,511.7294 L689.5,511.8438 " fill="none" style="stroke:#181818;stroke-width:1.0;"/><text fill="#000000" font-family="FG Virgil" font-size="13" lengthAdjust="spacing" textLength="107" x="548" y="506.9873">registerCustomer()</text><polygon fill="#181818" points="879.5,587.25,879.526,587.315,881.4487,587.9218,883.5239,588.9098,885.5495,589.7737,887.4117,590.2292,889.5,591.25,889.4904,591.2259,887.4472,591.918,885.4525,592.7313,883.4916,593.6289,881.4144,594.236,879.5,595.25,879.6305,595.3805,880.1514,594.3014,881.0534,593.6034,882.0018,592.9518,882.6798,592.0298,883.5,591.25,883.5161,591.2661,882.6925,590.4425,881.9421,589.6921,881.1564,588.9064,880.438,588.188,879.5,587.25" style="stroke:#181818;stroke-width:1.0;"/><path d="M705.5,591.25 L705.5,591.5302 L715.5,590.6976 L725.5,591.5077 L735.5,591.7829 L745.5,590.2988 L755.5,591.1464 L765.5,590.6813 L775.5,590.7387 L785.5,591.1591 L795.5,590.3282 L805.5,591.9882 L815.5,590.4096 L825.5,590.9863 L835.5,591.8259 L845.5,591.1356 L855.5,591.341 L865.5,591.2074 L875.5,591.488 L885.5,591.25 " fill="none" style="stroke:#181818;stroke-width:1.0;"/><text fill="#000000" font-family="FG Virgil" font-size="13" lengthAdjust="spacing" textLength="162" x="712.5" y="537.3389">create (firstName,lastName,</text><text fill="#000000" font-family="FG Virgil" font-size="13" lengthAdjust="spacing" textLength="74" x="716.5" y="553.6904">email,gender</text><text fill="#000000" font-family="FG Virgil" font-size="13" lengthAdjust="spacing" textLength="128" x="716.5" y="570.042">,phone,vat,day,month,</text><text fill="#000000" font-family="FG Virgil" font-size="13" lengthAdjust="spacing" textLength="93" x="716.5" y="586.3936">year,addresses)</text><polygon fill="#181818" points="716.5,617.6016,716.526,617.6666,714.4487,618.2733,712.5239,619.2614,710.5495,620.1253,708.4117,620.5808,706.5,621.6016,706.4904,621.5775,708.4472,622.2696,710.4525,623.0829,712.4916,623.9805,714.4144,624.5876,716.5,625.6016,716.6305,625.7321,715.5514,624.653,714.8534,623.9549,714.2018,623.3034,713.2798,622.3813,712.5,621.6016,712.5161,621.6176,713.2925,620.794,714.1421,620.0436,714.9564,619.2579,715.838,618.5396,716.5,617.6016" style="stroke:#181818;stroke-width:1.0;"/><path d="M710.5,621.6016 L710.5,621.8818 L720.5,621.0491 L730.5,621.8593 L740.5,622.1345 L750.5,620.6504 L760.5,621.4979 L770.5,621.0329 L780.5,621.0902 L790.5,621.5107 L800.5,620.6797 L810.5,622.3398 L820.5,620.7612 L830.5,621.3379 L840.5,622.1775 L850.5,621.4872 L860.5,621.6925 L870.5,621.559 L880.5,621.8396 L890.5,621.6016 " fill="none" style="stroke:#181818;stroke-width:1.0;"/><text fill="#000000" font-family="FG Virgil" font-size="13" lengthAdjust="spacing" textLength="54" x="722.5" y="616.7451">customer</text><polygon fill="#181818" points="552,647.9531,552.026,648.0182,549.9487,648.6249,548.0239,649.6129,546.0495,650.4768,543.9117,650.9323,542,651.9531,541.9904,651.9291,543.9472,652.6211,545.9525,653.4344,547.9916,654.332,549.9144,654.9392,552,655.9531,552.1305,656.0836,551.0514,655.0046,550.3534,654.3065,549.7018,653.6549,548.7798,652.7329,548,651.9531,548.0161,651.9692,548.7925,651.1456,549.6421,650.3952,550.4564,649.6095,551.338,648.8912,552,647.9531" style="stroke:#181818;stroke-width:1.0;"/><path d="M546,651.9531 L546,652.2334 L556.2333,651.4007 L566.4667,652.2108 L576.7,652.486 L586.9333,651.0019 L597.1667,651.8495 L607.4,651.3845 L617.6333,651.4418 L627.8667,651.8622 L638.1,651.0313 L648.3333,652.6913 L658.5667,651.1128 L668.8,651.6894 L679.0333,652.5291 L689.2667,651.8388 L699.5,651.9531 " fill="none" style="stroke:#181818;stroke-width:1.0;"/><text fill="#000000" font-family="FG Virgil" font-size="13" lengthAdjust="spacing" textLength="54" x="558" y="647.0967">customer</text><polygon fill="#181818" points="1021,678.3047,1021.026,678.3697,1022.9487,678.9765,1025.0239,679.9645,1027.0495,680.8284,1028.9117,681.2839,1031,682.3047,1030.9904,682.2806,1028.9472,682.9727,1026.9525,683.786,1024.9916,684.6836,1022.9144,685.2907,1021,686.3047,1021.1305,686.4352,1021.6514,685.3561,1022.5534,684.6581,1023.5018,684.0065,1024.1798,683.0845,1025,682.3047,1025.0161,682.3208,1024.1925,681.4972,1023.4421,680.7468,1022.6564,679.9611,1021.938,679.2427,1021,678.3047" style="stroke:#181818;stroke-width:1.0;"/><path d="M541,682.3047 L541,682.5849 L550.9184,681.7523 L560.8367,682.5624 L570.7551,682.8376 L580.6735,681.3535 L590.5918,682.2011 L600.5102,681.736 L610.4286,681.7934 L620.3469,682.2138 L630.2653,681.3829 L640.1837,683.0429 L650.102,681.4643 L660.0204,682.041 L669.9388,682.8806 L679.8571,682.1903 L689.7755,682.3957 L699.6939,682.2621 L709.6122,682.5427 L719.5306,682.6235 L729.449,683.0856 L739.3673,683.1994 L749.2857,683.2104 L759.2041,682.6442 L769.1224,682.9228 L779.0408,683.241 L788.9592,681.3431 L798.8776,683.2094 L808.7959,681.9093 L818.7143,683.0164 L828.6327,681.6447 L838.551,682.2134 L848.4694,683.2935 L858.3878,682.2397 L868.3061,682.4451 L878.2245,682.7562 L888.1429,682.8597 L898.0612,682.2995 L907.9796,682.6876 L917.898,681.5415 L927.8163,682.6839 L937.7347,683.0356 L947.6531,682.8974 L957.5714,683.1221 L967.4898,681.6606 L977.4082,681.4351 L987.3265,681.4762 L997.2449,682.2262 L1007.1633,682.0426 L1017.0816,683.2132 L1027,682.3047 " fill="none" style="stroke:#181818;stroke-width:1.0;"/><text fill="#000000" font-family="FG Virgil" font-size="13" lengthAdjust="spacing" textLength="75" x="548" y="677.4482">repositories()</text><path d="M1048,695.3047 L1048.1868,695.3047 L1047.6317,700.5047 L1048.1718,705.7047 L1048.3553,710.9047 L1047.3659,716.1047 L1048,721.3047 L1048,721.0975 L1058.1111,720.1674 L1068.2222,720.282 L1078.3333,721.1229 L1088.4444,719.461 L1098.5556,722.7811 L1108.6667,719.6239 L1118.7778,720.7773 L1128.8889,722.4565 L1139,721.0759 L1149.1111,721.4867 L1159.2222,721.2195 L1169.3333,721.7808 L1179.4444,721.9424 L1189.5556,722.8665 L1199.6667,723.0942 L1209.7778,723.116 L1219.8889,721.9837 L1230,722.5409 L1240.1111,723.1773 L1250.2222,719.3815 L1260.3333,723.114 L1270.4444,720.514 L1280.5556,722.7282 L1290.6667,719.9846 L1300.7778,721.122 L1310.8889,723.2823 L1321,721.3047 L1320.9567,721.3047 L1321.0936,718.1047 L1321.301,714.9047 L1321.37,711.7047 L1320.9965,708.5047 L1321,705.3047 L1321.1805,705.4852 L1318.6402,702.9449 L1317.1787,701.4834 L1315.3446,699.6492 L1313.2794,697.5841 L1311,695.3047 L1311,696.9394 L1300.8846,694.0165 L1290.7692,693.5655 L1280.6538,693.6476 L1270.5385,695.1477 L1260.4231,694.7806 L1250.3077,697.1218 L1240.1923,694.8389 L1230.0769,694.3899 L1219.9615,695.9134 L1209.8462,693.5265 L1199.7308,693.9204 L1189.6154,697.0352 L1179.5,696.4665 L1169.3846,697.2633 L1159.2692,694.4466 L1149.1538,696.1559 L1139.0385,696.8791 L1128.9231,694.0449 L1118.8077,695.0491 L1108.6923,695.6406 L1098.5769,697.0427 L1088.4615,695.2935 L1078.3462,696.5382 L1068.2308,693.8279 L1058.1154,693.4987 L1048,695.3047 " fill="#FAFAFA" style="stroke:#181818;stroke-width:0.5;"/><path d="M1311,695.3047 L1311.4477,695.3047 L1310.3627,697.3047 L1311.4524,699.3047 L1311.1837,701.3047 L1310.7619,703.3047 L1311,705.3047 L1311,704.9902 L1313,705.7125 L1315,705.0386 L1317,705.8308 L1319,704.8134 L1321,705.3047 L1321.3881,705.6928 L1319.3044,703.6091 L1317.154,701.4587 L1315.0297,699.3344 L1313.4567,697.7614 L1311,695.3047 " fill="#FAFAFA" style="stroke:#181818;stroke-width:0.5;"/><text fill="#000000" font-family="FG Virgil" font-size="13" lengthAdjust="spacing" textLength="252" x="1054" y="713.7998">can create the repository in memory or JPA</text><polygon fill="#181818" points="1169,745.0078,1169.026,745.0729,1170.9487,745.6796,1173.0239,746.6676,1175.0495,747.5315,1176.9117,747.987,1179,749.0078,1178.9904,748.9838,1176.9472,749.6758,1174.9525,750.4891,1172.9916,751.3867,1170.9144,751.9938,1169,753.0078,1169.1305,753.1383,1169.6514,752.0593,1170.5534,751.3612,1171.5018,750.7096,1172.1798,749.7876,1173,749.0078,1173.0161,749.0239,1172.1925,748.2003,1171.4421,747.4499,1170.6564,746.6642,1169.938,745.9459,1169,745.0078" style="stroke:#181818;stroke-width:1.0;"/><path d="M1043,749.0078 L1043,749.2881 L1053.1538,748.4554 L1063.3077,749.2655 L1073.4615,749.5407 L1083.6154,748.0566 L1093.7692,748.9042 L1103.9231,748.4392 L1114.0769,748.4965 L1124.2308,748.9169 L1134.3846,748.086 L1144.5385,749.746 L1154.6923,748.1674 L1164.8462,748.7441 L1175,749.0078 " fill="none" style="stroke:#181818;stroke-width:1.0;"/><text fill="#000000" font-family="FG Virgil" font-size="13" lengthAdjust="spacing" textLength="36" x="1050" y="744.1514">create</text><polygon fill="#181818" points="552,775.3594,552.026,775.4244,549.9487,776.0311,548.0239,777.0192,546.0495,777.8831,543.9117,778.3386,542,779.3594,541.9904,779.3353,543.9472,780.0274,545.9525,780.8407,547.9916,781.7383,549.9144,782.3454,552,783.3594,552.1305,783.4899,551.0514,782.4108,550.3534,781.7128,549.7018,781.0612,548.7798,780.1392,548,779.3594,548.0161,779.3755,548.7925,778.5518,549.6421,777.8015,550.4564,777.0157,551.338,776.2974,552,775.3594" style="stroke:#181818;stroke-width:1.0;"/><path d="M546,779.3594 L546,779.6396 L556.0204,778.8069 L566.0408,779.6171 L576.0612,779.8923 L586.0816,778.4082 L596.102,779.2558 L606.1224,778.7907 L616.1429,778.848 L626.1633,779.2685 L636.1837,778.4375 L646.2041,780.0976 L656.2245,778.519 L666.2449,779.0957 L676.2653,779.9353 L686.2857,779.245 L696.3061,779.4504 L706.3265,779.3168 L716.3469,779.5974 L726.3673,779.6782 L736.3878,780.1403 L746.4082,780.2541 L756.4286,780.2651 L766.449,779.6989 L776.4694,779.9775 L786.4898,780.2957 L796.5102,778.3978 L806.5306,780.2641 L816.551,778.964 L826.5714,780.0711 L836.5918,778.6993 L846.6122,779.268 L856.6327,780.3482 L866.6531,779.2944 L876.6735,779.4998 L886.6939,779.8109 L896.7143,779.9144 L906.7347,779.3542 L916.7551,779.7423 L926.7755,778.5962 L936.7959,779.7386 L946.8163,780.0903 L956.8367,779.9521 L966.8571,780.1767 L976.8776,778.7153 L986.898,778.4898 L996.9184,778.5308 L1006.9388,779.2809 L1016.9592,779.0973 L1026.9796,780.2679 L1037,779.3594 " fill="none" style="stroke:#181818;stroke-width:1.0;"/><text fill="#000000" font-family="FG Virgil" font-size="13" lengthAdjust="spacing" textLength="39" x="558" y="774.5029">factory</text><polygon fill="#181818" points="1164,805.7109,1164.026,805.776,1165.9487,806.3827,1168.0239,807.3708,1170.0495,808.2346,1171.9117,808.6901,1174,809.7109,1173.9904,809.6869,1171.9472,810.3789,1169.9525,811.1922,1167.9916,812.0898,1165.9144,812.697,1164,813.7109,1164.1305,813.8414,1164.6514,812.7624,1165.5534,812.0643,1166.5018,811.4127,1167.1798,810.4907,1168,809.7109,1168.0161,809.727,1167.1925,808.9034,1166.4421,808.153,1165.6564,807.3673,1164.938,806.649,1164,805.7109" style="stroke:#181818;stroke-width:1.0;"/><path d="M541,809.7109 L541,809.9912 L550.9841,809.1585 L560.9683,809.9687 L570.9524,810.2438 L580.9365,808.7597 L590.9206,809.6073 L600.9048,809.1423 L610.8889,809.1996 L620.873,809.6201 L630.8571,808.7891 L640.8413,810.4491 L650.8254,808.8706 L660.8095,809.4472 L670.7937,810.2869 L680.7778,809.5966 L690.7619,809.8019 L700.746,809.6683 L710.7302,809.949 L720.7143,810.0298 L730.6984,810.4919 L740.6825,810.6057 L750.6667,810.6166 L760.6508,810.0504 L770.6349,810.3291 L780.619,810.6472 L790.6032,808.7494 L800.5873,810.6156 L810.5714,809.3156 L820.5556,810.4227 L830.5397,809.0509 L840.5238,809.6196 L850.5079,810.6997 L860.4921,809.646 L870.4762,809.8513 L880.4603,810.1624 L890.4444,810.2659 L900.4286,809.7057 L910.4127,810.0939 L920.3968,808.9477 L930.381,810.0901 L940.3651,810.4419 L950.3492,810.3036 L960.3333,810.5283 L970.3175,809.0668 L980.3016,808.8414 L990.2857,808.8824 L1000.2698,809.6324 L1010.254,809.4489 L1020.2381,810.6195 L1030.2222,809.478 L1040.2063,809.2535 L1050.1905,810.0153 L1060.1746,808.8218 L1070.1587,809.0188 L1080.1429,810.5762 L1090.127,810.2918 L1100.1111,810.6903 L1110.0952,809.2819 L1120.0794,810.1365 L1130.0635,810.4982 L1140.0476,809.0811 L1150.0317,809.5831 L1160.0159,809.8789 L1170,809.7109 " fill="none" style="stroke:#181818;stroke-width:1.0;"/><text fill="#000000" font-family="FG Virgil" font-size="13" lengthAdjust="spacing" textLength="69" x="548" y="804.8545">customers()</text><polygon fill="#181818" points="1311.5,836.0625,1311.526,836.1275,1313.4487,836.7343,1315.5239,837.7223,1317.5495,838.5862,1319.4117,839.0417,1321.5,840.0625,1321.4904,840.0384,1319.4472,840.7305,1317.4525,841.5438,1315.4916,842.4414,1313.4144,843.0485,1311.5,844.0625,1311.6305,844.193,1312.1514,843.1139,1313.0534,842.4159,1314.0018,841.7643,1314.6798,840.8423,1315.5,840.0625,1315.5161,840.0786,1314.6925,839.255,1313.9421,838.5046,1313.1564,837.7189,1312.438,837.0005,1311.5,836.0625" style="stroke:#181818;stroke-width:1.0;"/><path d="M1186,840.0625 L1186,840.3427 L1196.1154,839.5101 L1206.2308,840.3202 L1216.3462,840.5954 L1226.4615,839.1113 L1236.5769,839.9589 L1246.6923,839.4938 L1256.8077,839.5512 L1266.9231,839.9716 L1277.0385,839.1407 L1287.1538,840.8007 L1297.2692,839.2221 L1307.3846,839.7988 L1317.5,840.0625 " fill="none" style="stroke:#181818;stroke-width:1.0;"/><text fill="#000000" font-family="FG Virgil" font-size="13" lengthAdjust="spacing" textLength="36" x="1193" y="835.2061">create</text><polygon fill="#181818" points="552,866.4141,552.026,866.4791,549.9487,867.0858,548.0239,868.0739,546.0495,868.9378,543.9117,869.3933,542,870.4141,541.9904,870.39,543.9472,871.0821,545.9525,871.8954,547.9916,872.793,549.9144,873.4001,552,874.4141,552.1305,874.5446,551.0514,873.4655,550.3534,872.7674,549.7018,872.1159,548.7798,871.1938,548,870.4141,548.0161,870.4301,548.7925,869.6065,549.6421,868.8561,550.4564,868.0704,551.338,867.3521,552,866.4141" style="stroke:#181818;stroke-width:1.0;"/><path d="M546,870.4141 L546,870.6943 L556.0635,869.8616 L566.127,870.6718 L576.1905,870.947 L586.254,869.4629 L596.3175,870.3104 L606.381,869.8454 L616.4444,869.9027 L626.5079,870.3232 L636.5714,869.4922 L646.6349,871.1523 L656.6984,869.5737 L666.7619,870.1504 L676.8254,870.99 L686.8889,870.2997 L696.9524,870.505 L707.0159,870.3715 L717.0794,870.6521 L727.1429,870.7329 L737.2063,871.195 L747.2698,871.3088 L757.3333,871.3197 L767.3968,870.7536 L777.4603,871.0322 L787.5238,871.3504 L797.5873,869.4525 L807.6508,871.3187 L817.7143,870.0187 L827.7778,871.1258 L837.8413,869.754 L847.9048,870.3227 L857.9683,871.4029 L868.0317,870.3491 L878.0952,870.5545 L888.1587,870.8656 L898.2222,870.969 L908.2857,870.4089 L918.3492,870.797 L928.4127,869.6508 L938.4762,870.7932 L948.5397,871.145 L958.6032,871.0068 L968.6667,871.2314 L978.7302,869.77 L988.7937,869.5445 L998.8571,869.5855 L1008.9206,870.3356 L1018.9841,870.152 L1029.0476,871.3226 L1039.1111,870.1812 L1049.1746,869.9567 L1059.2381,870.7184 L1069.3016,869.5249 L1079.3651,869.7219 L1089.4286,871.2793 L1099.4921,870.995 L1109.5556,871.3934 L1119.619,869.985 L1129.6825,870.8397 L1139.746,871.2013 L1149.8095,869.7842 L1159.873,870.2862 L1169.9365,870.582 L1180,870.4141 " fill="none" style="stroke:#181818;stroke-width:1.0;"/><text fill="#000000" font-family="FG Virgil" font-size="13" lengthAdjust="spacing" textLength="116" x="558" y="865.5576">customerRepository</text><polygon fill="#181818" points="1311.5,896.7656,1311.526,896.8307,1313.4487,897.4374,1315.5239,898.4254,1317.5495,899.2893,1319.4117,899.7448,1321.5,900.7656,1321.4904,900.7416,1319.4472,901.4336,1317.4525,902.2469,1315.4916,903.1445,1313.4144,903.7517,1311.5,904.7656,1311.6305,904.8961,1312.1514,903.8171,1313.0534,903.119,1314.0018,902.4674,1314.6798,901.5454,1315.5,900.7656,1315.5161,900.7817,1314.6925,899.9581,1313.9421,899.2077,1313.1564,898.422,1312.438,897.7037,1311.5,896.7656" style="stroke:#181818;stroke-width:1.0;"/><path d="M541,900.7656 L541,901.0459 L550.9551,900.2132 L560.9103,901.0233 L570.8654,901.2985 L580.8205,899.8144 L590.7756,900.662 L600.7308,900.197 L610.6859,900.2543 L620.641,900.6747 L630.5962,899.8438 L640.5513,901.5038 L650.5064,899.9253 L660.4615,900.5019 L670.4167,901.3416 L680.3718,900.6513 L690.3269,900.8566 L700.2821,900.723 L710.2372,901.0037 L720.1923,901.0845 L730.1474,901.5465 L740.1026,901.6604 L750.0577,901.6713 L760.0128,901.1051 L769.9679,901.3837 L779.9231,901.7019 L789.8782,899.804 L799.8333,901.6703 L809.7885,900.3703 L819.7436,901.4774 L829.6987,900.1056 L839.6538,900.6743 L849.609,901.7544 L859.5641,900.7006 L869.5192,900.906 L879.4744,901.2171 L889.4295,901.3206 L899.3846,900.7604 L909.3397,901.1486 L919.2949,900.0024 L929.25,901.1448 L939.2051,901.4966 L949.1603,901.3583 L959.1154,901.583 L969.0705,900.1215 L979.0256,899.896 L988.9808,899.9371 L998.9359,900.6871 L1008.891,900.5036 L1018.8462,901.6742 L1028.8013,900.5327 L1038.7564,900.3082 L1048.7115,901.07 L1058.6667,899.8765 L1068.6218,900.0735 L1078.5769,901.6309 L1088.5321,901.3465 L1098.4872,901.7449 L1108.4423,900.3366 L1118.3974,901.1912 L1128.3526,901.5529 L1138.3077,900.1358 L1148.2628,900.6378 L1158.2179,900.9336 L1168.1731,901.6346 L1178.1282,900.76 L1188.0833,901.3824 L1198.0385,900.0272 L1207.9936,899.8626 L1217.9487,901.4371 L1227.9038,899.8097 L1237.859,901.4442 L1247.8141,901.0411 L1257.7692,900.4084 L1267.7244,900.2939 L1277.6795,901.3773 L1287.6346,900.3665 L1297.5897,901.5548 L1307.5449,900.0286 L1317.5,900.7656 " fill="none" style="stroke:#181818;stroke-width:1.0;"/><text fill="#000000" font-family="FG Virgil" font-size="13" lengthAdjust="spacing" textLength="88" x="548" y="895.9092">save(customer)</text><polygon fill="#181818" points="302,927.1172,302.026,927.1822,299.9487,927.789,298.0239,928.777,296.0495,929.6409,293.9117,930.0964,292,931.1172,291.9904,931.0931,293.9472,931.7852,295.9525,932.5985,297.9916,933.4961,299.9144,934.1032,302,935.1172,302.1305,935.2477,301.0514,934.1686,300.3534,933.4706,299.7018,932.819,298.7798,931.897,298,931.1172,298.0161,931.1333,298.7925,930.3097,299.6421,929.5593,300.4564,928.7736,301.338,928.0552,302,927.1172" style="stroke:#181818;stroke-width:1.0;"/><path d="M296,931.1172 L296,931.3974 L305.9583,930.5648 L315.9167,931.3749 L325.875,931.6501 L335.8333,930.166 L345.7917,931.0136 L355.75,930.5485 L365.7083,930.6059 L375.6667,931.0263 L385.625,930.1954 L395.5833,931.8554 L405.5417,930.2768 L415.5,930.8535 L425.4583,931.6931 L435.4167,931.0028 L445.375,931.2082 L455.3333,931.0746 L465.2917,931.3552 L475.25,931.436 L485.2083,931.8981 L495.1667,932.0119 L505.125,932.0229 L515.0833,931.4567 L525.0417,931.7353 L535,931.1172 " fill="none" style="stroke:#181818;stroke-width:1.0;"/><text fill="#000000" font-family="FG Virgil" font-size="13" lengthAdjust="spacing" textLength="54" x="308" y="926.2607">customer</text><polygon fill="#181818" points="68,957.4688,68.026,957.5338,65.9487,958.1405,64.0239,959.1286,62.0495,959.9924,59.9117,960.448,58,961.4688,57.9904,961.4447,59.9472,962.1368,61.9525,962.9501,63.9916,963.8477,65.9144,964.4548,68,965.4688,68.1305,965.5992,67.0514,964.5202,66.3534,963.8221,65.7018,963.1706,64.7798,962.2485,64,961.4688,64.0161,961.4848,64.7925,960.6612,65.6421,959.9108,66.4564,959.1251,67.338,958.4068,68,957.4688" style="stroke:#181818;stroke-width:1.0;"/><path d="M62,961.4688 L62,961.749 L72.1364,960.9163 L82.2727,961.7265 L92.4091,962.0017 L102.5455,960.5176 L112.6818,961.3651 L122.8182,960.9001 L132.9545,960.9574 L143.0909,961.3779 L153.2273,960.5469 L163.3636,962.2069 L173.5,960.6284 L183.6364,961.2051 L193.7727,962.0447 L203.9091,961.3544 L214.0455,961.5597 L224.1818,961.4262 L234.3182,961.7068 L244.4545,961.7876 L254.5909,962.2497 L264.7273,962.3635 L274.8636,962.3744 L285,961.4688 " fill="none" style="stroke:#181818;stroke-width:1.0;stroke-dasharray:2.0,2.0;"/><text fill="#000000" font-family="FG Virgil" font-size="13" lengthAdjust="spacing" textLength="147" x="74" y="956.6123">Operation was a success</text><!--MD5=[ca5a0aef367ea7a582cd75bcddb5aa26]
@startuml
'http://plantuml.com/skinparam.html
skinparam handwritten true
skinparam monochrome true
skinparam packageStyle rect
skinparam defaultFontName FG Virgil
skinparam shadowing false

actor SalesClerk as Actor
participant RegisterCustomerUI as UI <<presentation>>
participant RegisterCustomerController as Controller <<application>>
participant CustomerBuilder as Builder <<builder>>
participant "customer:Customer" as Domain <<domain>>
participant PersistenceContext as Persistence <<persistence>>
participant RepositoryFactory as Factory <<factory>>
database CustomerRepository as Repository <<repository>>

Actor - -> UI: Add Customer
activate UI
    UI -> Controller: create
    UI - -> Actor: Ask user information
    Actor - -> UI: First and Last Name, \n phone number, Vat, birthdate, \n gender email
    loop option != 0
            UI - -> Actor: Asks if he wants to add addresses
            Actor - -> UI: Inserts addresses
    end

    UI -> Controller : registerCustomer(firstName,lastName,\n email,gender \n ,phone,vat,day,month,\n year,addresses)
        activate Controller
            Controller -> Builder: create

            note right of Controller: Set the rest of the information

     Controller -> Builder:registerCustomer()
            activate Builder
                Builder -> Domain: create (firstName,lastName,\n email,gender \n ,phone,vat,day,month,\n year,addresses)
                Domain->Builder: customer
                Builder -> Controller:customer
            deactivate Builder

        Controller -> Persistence: repositories()
        activate Persistence
            note right of Persistence: can create the repository in memory or JPA
            Persistence -> Factory: create
            Persistence -> Controller: factory
        deactivate Persistence

        Controller -> Factory: customers()
        activate Factory
            Factory -> Repository: create
            Factory -> Controller: customerRepository
        deactivate Factory

        Controller->Repository:save(customer)
        Controller->UI: customer
    deactivate Controller

        UI- ->Actor: Operation was a success

deactivate UI

@enduml

@startuml
skinparam handwritten true
skinparam monochrome true
skinparam packageStyle rect
skinparam defaultFontName FG Virgil
skinparam shadowing false

actor SalesClerk as Actor
participant RegisterCustomerUI as UI <<presentation>>
participant RegisterCustomerController as Controller <<application>>
participant CustomerBuilder as Builder <<builder>>
participant "customer:Customer" as Domain <<domain>>
participant PersistenceContext as Persistence <<persistence>>
participant RepositoryFactory as Factory <<factory>>
database CustomerRepository as Repository <<repository>>

Actor - -> UI: Add Customer
activate UI
    UI -> Controller: create
    UI - -> Actor: Ask user information
    Actor - -> UI: First and Last Name, \n phone number, Vat, birthdate, \n gender email
    loop option != 0
            UI - -> Actor: Asks if he wants to add addresses
            Actor - -> UI: Inserts addresses
    end

    UI -> Controller : registerCustomer(firstName,lastName,\n email,gender \n ,phone,vat,day,month,\n year,addresses)
        activate Controller
            Controller -> Builder: create

            note right of Controller: Set the rest of the information

     Controller -> Builder:registerCustomer()
            activate Builder
                Builder -> Domain: create (firstName,lastName,\n email,gender \n ,phone,vat,day,month,\n year,addresses)
                Domain->Builder: customer
                Builder -> Controller:customer
            deactivate Builder

        Controller -> Persistence: repositories()
        activate Persistence
            note right of Persistence: can create the repository in memory or JPA
            Persistence -> Factory: create
            Persistence -> Controller: factory
        deactivate Persistence

        Controller -> Factory: customers()
        activate Factory
            Factory -> Repository: create
            Factory -> Controller: customerRepository
        deactivate Factory

        Controller->Repository:save(customer)
        Controller->UI: customer
    deactivate Controller

        UI- ->Actor: Operation was a success

deactivate UI

@enduml

PlantUML version 1.2022.4(Sat Apr 09 14:29:17 BST 2022)
(GPL source distribution)
Java Runtime: OpenJDK Runtime Environment
JVM: OpenJDK 64-Bit Server VM
Default Encoding: Cp1252
Language: pt
Country: PT
--></g></svg>