<?xml version="1.0" encoding="UTF-8" standalone="no"?><svg xmlns="http://www.w3.org/2000/svg" xmlns:xlink="http://www.w3.org/1999/xlink" contentStyleType="text/css" height="714px" preserveAspectRatio="none" style="width:2178px;height:714px;background:#FFFFFF;" version="1.1" viewBox="0 0 2178 714" width="2178px" zoomAndPan="magnify"><defs/><g><path d="M60,37.6094 L60.2802,37.6094 L59.4476,47.6099 L60.2577,57.6104 L60.5329,67.6108 L59.0488,77.6113 L59.8964,87.6118 L59.4313,97.6123 L59.4887,107.6128 L59.9091,117.6133 L59.0782,127.6138 L60.7382,137.6143 L59.1596,147.6147 L59.7363,157.6152 L60.5759,167.6157 L59.8856,177.6162 L60.091,187.6167 L59.9574,197.6172 L60.238,207.6177 L60.3188,217.6182 L60.7809,227.6187 L60.8947,237.6191 L60.9057,247.6196 L60.3395,257.6201 L60.6181,267.6206 L60.9363,277.6211 L59.0384,287.6216 L60.9047,297.6221 L59.6047,307.6226 L60.7117,317.623 L59.34,327.6235 L59.9087,337.624 L60.9888,347.6245 L59.935,357.625 L60.1404,367.6255 L60.4515,377.626 L60.555,387.6265 L59.9948,397.627 L60.383,407.6274 L59.2368,417.6279 L60.3792,427.6284 L60.7309,437.6289 L60.5927,447.6294 L60.8174,457.6299 L59.3559,467.6304 L59.1304,477.6309 L59.1715,487.6313 L59.9215,497.6318 L59.738,507.6323 L60.9085,517.6328 L59.7671,527.6333 L59.5426,537.6338 L60.3044,547.6343 L59.1109,557.6348 L59.3078,567.6353 L60.8653,577.6357 L60.5809,587.6362 L60.9793,597.6367 L59.5709,607.6372 L60.4256,617.6377 L60.7872,627.6382 L59.3701,637.6387 L59.8722,647.6392 L60.168,657.6396 L60.869,667.6401 L60,677.6406 " fill="none" style="stroke:#181818;stroke-width:0.5;stroke-dasharray:5.0,5.0;"/><path d="M928,37.6094 L928.2802,37.6094 L927.4476,47.6099 L928.2577,57.6104 L928.5329,67.6108 L927.0488,77.6113 L927.8964,87.6118 L927.4313,97.6123 L927.4887,107.6128 L927.9091,117.6133 L927.0782,127.6138 L928.7382,137.6143 L927.1596,147.6147 L927.7363,157.6152 L928.5759,167.6157 L927.8856,177.6162 L928.091,187.6167 L927.9574,197.6172 L928.238,207.6177 L928.3188,217.6182 L928.7809,227.6187 L928.8947,237.6191 L928.9057,247.6196 L928.3395,257.6201 L928.6181,267.6206 L928.9363,277.6211 L927.0384,287.6216 L928.9047,297.6221 L927.6047,307.6226 L928.7117,317.623 L927.34,327.6235 L927.9087,337.624 L928.9888,347.6245 L927.935,357.625 L928.1404,367.6255 L928.4515,377.626 L928.555,387.6265 L927.9948,397.627 L928.383,407.6274 L927.2368,417.6279 L928.3792,427.6284 L928.7309,437.6289 L928.5927,447.6294 L928.8174,457.6299 L927.3559,467.6304 L927.1304,477.6309 L927.1715,487.6313 L927.9215,497.6318 L927.738,507.6323 L928.9085,517.6328 L927.7671,527.6333 L927.5426,537.6338 L928.3044,547.6343 L927.1109,557.6348 L927.3078,567.6353 L928.8653,577.6357 L928.5809,587.6362 L928.9793,597.6367 L927.5709,607.6372 L928.4256,617.6377 L928.7872,627.6382 L927.3701,637.6387 L927.8722,647.6392 L928.168,657.6396 L928.869,667.6401 L928,677.6406 " fill="none" style="stroke:#181818;stroke-width:0.5;stroke-dasharray:5.0,5.0;"/><path d="M1132,37.6094 L1132.2802,37.6094 L1131.4476,47.6099 L1132.2577,57.6104 L1132.5329,67.6108 L1131.0488,77.6113 L1131.8964,87.6118 L1131.4313,97.6123 L1131.4887,107.6128 L1131.9091,117.6133 L1131.0782,127.6138 L1132.7382,137.6143 L1131.1596,147.6147 L1131.7363,157.6152 L1132.5759,167.6157 L1131.8856,177.6162 L1132.091,187.6167 L1131.9574,197.6172 L1132.238,207.6177 L1132.3188,217.6182 L1132.7809,227.6187 L1132.8947,237.6191 L1132.9057,247.6196 L1132.3395,257.6201 L1132.6181,267.6206 L1132.9363,277.6211 L1131.0384,287.6216 L1132.9047,297.6221 L1131.6047,307.6226 L1132.7117,317.623 L1131.34,327.6235 L1131.9087,337.624 L1132.9888,347.6245 L1131.935,357.625 L1132.1404,367.6255 L1132.4515,377.626 L1132.555,387.6265 L1131.9948,397.627 L1132.383,407.6274 L1131.2368,417.6279 L1132.3792,427.6284 L1132.7309,437.6289 L1132.5927,447.6294 L1132.8174,457.6299 L1131.3559,467.6304 L1131.1304,477.6309 L1131.1715,487.6313 L1131.9215,497.6318 L1131.738,507.6323 L1132.9085,517.6328 L1131.7671,527.6333 L1131.5426,537.6338 L1132.3044,547.6343 L1131.1109,557.6348 L1131.3078,567.6353 L1132.8653,577.6357 L1132.5809,587.6362 L1132.9793,597.6367 L1131.5709,607.6372 L1132.4256,617.6377 L1132.7872,627.6382 L1131.3701,637.6387 L1131.8722,647.6392 L1132.168,657.6396 L1132.869,667.6401 L1132,677.6406 " fill="none" style="stroke:#181818;stroke-width:0.5;stroke-dasharray:5.0,5.0;"/><path d="M1302,37.6094 L1302.2802,37.6094 L1301.4476,47.6099 L1302.2577,57.6104 L1302.5329,67.6108 L1301.0488,77.6113 L1301.8964,87.6118 L1301.4313,97.6123 L1301.4887,107.6128 L1301.9091,117.6133 L1301.0782,127.6138 L1302.7382,137.6143 L1301.1596,147.6147 L1301.7363,157.6152 L1302.5759,167.6157 L1301.8856,177.6162 L1302.091,187.6167 L1301.9574,197.6172 L1302.238,207.6177 L1302.3188,217.6182 L1302.7809,227.6187 L1302.8947,237.6191 L1302.9057,247.6196 L1302.3395,257.6201 L1302.6181,267.6206 L1302.9363,277.6211 L1301.0384,287.6216 L1302.9047,297.6221 L1301.6047,307.6226 L1302.7117,317.623 L1301.34,327.6235 L1301.9087,337.624 L1302.9888,347.6245 L1301.935,357.625 L1302.1404,367.6255 L1302.4515,377.626 L1302.555,387.6265 L1301.9948,397.627 L1302.383,407.6274 L1301.2368,417.6279 L1302.3792,427.6284 L1302.7309,437.6289 L1302.5927,447.6294 L1302.8174,457.6299 L1301.3559,467.6304 L1301.1304,477.6309 L1301.1715,487.6313 L1301.9215,497.6318 L1301.738,507.6323 L1302.9085,517.6328 L1301.7671,527.6333 L1301.5426,537.6338 L1302.3044,547.6343 L1301.1109,557.6348 L1301.3078,567.6353 L1302.8653,577.6357 L1302.5809,587.6362 L1302.9793,597.6367 L1301.5709,607.6372 L1302.4256,617.6377 L1302.7872,627.6382 L1301.3701,637.6387 L1301.8722,647.6392 L1302.168,657.6396 L1302.869,667.6401 L1302,677.6406 " fill="none" style="stroke:#181818;stroke-width:0.5;stroke-dasharray:5.0,5.0;"/><path d="M1458,37.6094 L1458.2802,37.6094 L1457.4476,47.6099 L1458.2577,57.6104 L1458.5329,67.6108 L1457.0488,77.6113 L1457.8964,87.6118 L1457.4313,97.6123 L1457.4887,107.6128 L1457.9091,117.6133 L1457.0782,127.6138 L1458.7382,137.6143 L1457.1596,147.6147 L1457.7363,157.6152 L1458.5759,167.6157 L1457.8856,177.6162 L1458.091,187.6167 L1457.9574,197.6172 L1458.238,207.6177 L1458.3188,217.6182 L1458.7809,227.6187 L1458.8947,237.6191 L1458.9057,247.6196 L1458.3395,257.6201 L1458.6181,267.6206 L1458.9363,277.6211 L1457.0384,287.6216 L1458.9047,297.6221 L1457.6047,307.6226 L1458.7117,317.623 L1457.34,327.6235 L1457.9087,337.624 L1458.9888,347.6245 L1457.935,357.625 L1458.1404,367.6255 L1458.4515,377.626 L1458.555,387.6265 L1457.9948,397.627 L1458.383,407.6274 L1457.2368,417.6279 L1458.3792,427.6284 L1458.7309,437.6289 L1458.5927,447.6294 L1458.8174,457.6299 L1457.3559,467.6304 L1457.1304,477.6309 L1457.1715,487.6313 L1457.9215,497.6318 L1457.738,507.6323 L1458.9085,517.6328 L1457.7671,527.6333 L1457.5426,537.6338 L1458.3044,547.6343 L1457.1109,557.6348 L1457.3078,567.6353 L1458.8653,577.6357 L1458.5809,587.6362 L1458.9793,597.6367 L1457.5709,607.6372 L1458.4256,617.6377 L1458.7872,627.6382 L1457.3701,637.6387 L1457.8722,647.6392 L1458.168,657.6396 L1458.869,667.6401 L1458,677.6406 " fill="none" style="stroke:#181818;stroke-width:0.5;stroke-dasharray:5.0,5.0;"/><path d="M1605,37.6094 L1605.2802,37.6094 L1604.4476,47.6099 L1605.2577,57.6104 L1605.5329,67.6108 L1604.0488,77.6113 L1604.8964,87.6118 L1604.4313,97.6123 L1604.4887,107.6128 L1604.9091,117.6133 L1604.0782,127.6138 L1605.7382,137.6143 L1604.1596,147.6147 L1604.7363,157.6152 L1605.5759,167.6157 L1604.8856,177.6162 L1605.091,187.6167 L1604.9574,197.6172 L1605.238,207.6177 L1605.3188,217.6182 L1605.7809,227.6187 L1605.8947,237.6191 L1605.9057,247.6196 L1605.3395,257.6201 L1605.6181,267.6206 L1605.9363,277.6211 L1604.0384,287.6216 L1605.9047,297.6221 L1604.6047,307.6226 L1605.7117,317.623 L1604.34,327.6235 L1604.9087,337.624 L1605.9888,347.6245 L1604.935,357.625 L1605.1404,367.6255 L1605.4515,377.626 L1605.555,387.6265 L1604.9948,397.627 L1605.383,407.6274 L1604.2368,417.6279 L1605.3792,427.6284 L1605.7309,437.6289 L1605.5927,447.6294 L1605.8174,457.6299 L1604.3559,467.6304 L1604.1304,477.6309 L1604.1715,487.6313 L1604.9215,497.6318 L1604.738,507.6323 L1605.9085,517.6328 L1604.7671,527.6333 L1604.5426,537.6338 L1605.3044,547.6343 L1604.1109,557.6348 L1604.3078,567.6353 L1605.8653,577.6357 L1605.5809,587.6362 L1605.9793,597.6367 L1604.5709,607.6372 L1605.4256,617.6377 L1605.7872,627.6382 L1604.3701,637.6387 L1604.8722,647.6392 L1605.168,657.6396 L1605.869,667.6401 L1605,677.6406 " fill="none" style="stroke:#181818;stroke-width:0.5;stroke-dasharray:5.0,5.0;"/><path d="M1743,37.6094 L1743.2802,37.6094 L1742.4476,47.6099 L1743.2577,57.6104 L1743.5329,67.6108 L1742.0488,77.6113 L1742.8964,87.6118 L1742.4313,97.6123 L1742.4887,107.6128 L1742.9091,117.6133 L1742.0782,127.6138 L1743.7382,137.6143 L1742.1596,147.6147 L1742.7363,157.6152 L1743.5759,167.6157 L1742.8856,177.6162 L1743.091,187.6167 L1742.9574,197.6172 L1743.238,207.6177 L1743.3188,217.6182 L1743.7809,227.6187 L1743.8947,237.6191 L1743.9057,247.6196 L1743.3395,257.6201 L1743.6181,267.6206 L1743.9363,277.6211 L1742.0384,287.6216 L1743.9047,297.6221 L1742.6047,307.6226 L1743.7117,317.623 L1742.34,327.6235 L1742.9087,337.624 L1743.9888,347.6245 L1742.935,357.625 L1743.1404,367.6255 L1743.4515,377.626 L1743.555,387.6265 L1742.9948,397.627 L1743.383,407.6274 L1742.2368,417.6279 L1743.3792,427.6284 L1743.7309,437.6289 L1743.5927,447.6294 L1743.8174,457.6299 L1742.3559,467.6304 L1742.1304,477.6309 L1742.1715,487.6313 L1742.9215,497.6318 L1742.738,507.6323 L1743.9085,517.6328 L1742.7671,527.6333 L1742.5426,537.6338 L1743.3044,547.6343 L1742.1109,557.6348 L1742.3078,567.6353 L1743.8653,577.6357 L1743.5809,587.6362 L1743.9793,597.6367 L1742.5709,607.6372 L1743.4256,617.6377 L1743.7872,627.6382 L1742.3701,637.6387 L1742.8722,647.6392 L1743.168,657.6396 L1743.869,667.6401 L1743,677.6406 " fill="none" style="stroke:#181818;stroke-width:0.5;stroke-dasharray:5.0,5.0;"/><path d="M1888,37.6094 L1888.2802,37.6094 L1887.4476,47.6099 L1888.2577,57.6104 L1888.5329,67.6108 L1887.0488,77.6113 L1887.8964,87.6118 L1887.4313,97.6123 L1887.4887,107.6128 L1887.9091,117.6133 L1887.0782,127.6138 L1888.7382,137.6143 L1887.1596,147.6147 L1887.7363,157.6152 L1888.5759,167.6157 L1887.8856,177.6162 L1888.091,187.6167 L1887.9574,197.6172 L1888.238,207.6177 L1888.3188,217.6182 L1888.7809,227.6187 L1888.8947,237.6191 L1888.9057,247.6196 L1888.3395,257.6201 L1888.6181,267.6206 L1888.9363,277.6211 L1887.0384,287.6216 L1888.9047,297.6221 L1887.6047,307.6226 L1888.7117,317.623 L1887.34,327.6235 L1887.9087,337.624 L1888.9888,347.6245 L1887.935,357.625 L1888.1404,367.6255 L1888.4515,377.626 L1888.555,387.6265 L1887.9948,397.627 L1888.383,407.6274 L1887.2368,417.6279 L1888.3792,427.6284 L1888.7309,437.6289 L1888.5927,447.6294 L1888.8174,457.6299 L1887.3559,467.6304 L1887.1304,477.6309 L1887.1715,487.6313 L1887.9215,497.6318 L1887.738,507.6323 L1888.9085,517.6328 L1887.7671,527.6333 L1887.5426,537.6338 L1888.3044,547.6343 L1887.1109,557.6348 L1887.3078,567.6353 L1888.8653,577.6357 L1888.5809,587.6362 L1888.9793,597.6367 L1887.5709,607.6372 L1888.4256,617.6377 L1888.7872,627.6382 L1887.3701,637.6387 L1887.8722,647.6392 L1888.168,657.6396 L1888.869,667.6401 L1888,677.6406 " fill="none" style="stroke:#181818;stroke-width:0.5;stroke-dasharray:5.0,5.0;"/><path d="M2039,37.6094 L2039.2802,37.6094 L2038.4476,47.6099 L2039.2577,57.6104 L2039.5329,67.6108 L2038.0488,77.6113 L2038.8964,87.6118 L2038.4313,97.6123 L2038.4887,107.6128 L2038.9091,117.6133 L2038.0782,127.6138 L2039.7382,137.6143 L2038.1596,147.6147 L2038.7363,157.6152 L2039.5759,167.6157 L2038.8856,177.6162 L2039.091,187.6167 L2038.9574,197.6172 L2039.238,207.6177 L2039.3188,217.6182 L2039.7809,227.6187 L2039.8947,237.6191 L2039.9057,247.6196 L2039.3395,257.6201 L2039.6181,267.6206 L2039.9363,277.6211 L2038.0384,287.6216 L2039.9047,297.6221 L2038.6047,307.6226 L2039.7117,317.623 L2038.34,327.6235 L2038.9087,337.624 L2039.9888,347.6245 L2038.935,357.625 L2039.1404,367.6255 L2039.4515,377.626 L2039.555,387.6265 L2038.9948,397.627 L2039.383,407.6274 L2038.2368,417.6279 L2039.3792,427.6284 L2039.7309,437.6289 L2039.5927,447.6294 L2039.8174,457.6299 L2038.3559,467.6304 L2038.1304,477.6309 L2038.1715,487.6313 L2038.9215,497.6318 L2038.738,507.6323 L2039.9085,517.6328 L2038.7671,527.6333 L2038.5426,537.6338 L2039.3044,547.6343 L2038.1109,557.6348 L2038.3078,567.6353 L2039.8653,577.6357 L2039.5809,587.6362 L2039.9793,597.6367 L2038.5709,607.6372 L2039.4256,617.6377 L2039.7872,627.6382 L2038.3701,637.6387 L2038.8722,647.6392 L2039.168,657.6396 L2039.869,667.6401 L2039,677.6406 " fill="none" style="stroke:#181818;stroke-width:0.5;stroke-dasharray:5.0,5.0;"/><path d="M2144,37.6094 L2144.2802,37.6094 L2143.4476,47.6099 L2144.2577,57.6104 L2144.5329,67.6108 L2143.0488,77.6113 L2143.8964,87.6118 L2143.4313,97.6123 L2143.4887,107.6128 L2143.9091,117.6133 L2143.0782,127.6138 L2144.7382,137.6143 L2143.1596,147.6147 L2143.7363,157.6152 L2144.5759,167.6157 L2143.8856,177.6162 L2144.091,187.6167 L2143.9574,197.6172 L2144.238,207.6177 L2144.3188,217.6182 L2144.7809,227.6187 L2144.8947,237.6191 L2144.9057,247.6196 L2144.3395,257.6201 L2144.6181,267.6206 L2144.9363,277.6211 L2143.0384,287.6216 L2144.9047,297.6221 L2143.6047,307.6226 L2144.7117,317.623 L2143.34,327.6235 L2143.9087,337.624 L2144.9888,347.6245 L2143.935,357.625 L2144.1404,367.6255 L2144.4515,377.626 L2144.555,387.6265 L2143.9948,397.627 L2144.383,407.6274 L2143.2368,417.6279 L2144.3792,427.6284 L2144.7309,437.6289 L2144.5927,447.6294 L2144.8174,457.6299 L2143.3559,467.6304 L2143.1304,477.6309 L2143.1715,487.6313 L2143.9215,497.6318 L2143.738,507.6323 L2144.9085,517.6328 L2143.7671,527.6333 L2143.5426,537.6338 L2144.3044,547.6343 L2143.1109,557.6348 L2143.3078,567.6353 L2144.8653,577.6357 L2144.5809,587.6362 L2144.9793,597.6367 L2143.5709,607.6372 L2144.4256,617.6377 L2144.7872,627.6382 L2143.3701,637.6387 L2143.8722,647.6392 L2144.168,657.6396 L2144.869,667.6401 L2144,677.6406 " fill="none" style="stroke:#181818;stroke-width:0.5;stroke-dasharray:5.0,5.0;"/><polygon fill="#E3E3E3" points="7.5,5,7.5,5.2102,17.0455,4.5857,26.5909,5.1933,36.1364,5.3997,45.6818,4.2866,55.2273,4.9223,64.7727,4.5735,74.3182,4.6165,83.8636,4.9318,93.4091,4.3086,102.9545,5.5536,112.5,5,112.4196,4.8059,112.8283,5.0855,113.2622,5.4259,113.5497,5.4129,113.9229,5.6068,114.2678,5.7322,114.2579,5.7282,114.4692,6.1086,114.6343,6.4698,114.8875,6.8676,115.0602,7.232,115,7.5,115.2264,7.5,115.0849,12.8219,115.1545,18.1438,115.2341,23.4656,114.7596,28.7875,115,34.1094,115.209,34.1959,114.7622,34.4251,114.8715,34.8846,114.4082,35.1069,114.3931,35.5149,114.2678,35.8771,114.3624,36.1055,113.908,36.0086,113.5741,36.2025,113.2503,36.4208,112.9066,36.5911,112.5,36.6094,112.5,36.6055,102.9545,36.8966,93.4091,36.037,83.8636,36.8938,74.3182,37.1576,64.7727,37.0539,55.2273,37.2224,45.6818,36.1263,36.1364,35.9572,26.5909,35.988,17.0455,36.5505,7.5,36.6094,7.4749,36.5489,7.2334,36.6728,6.7706,36.2627,6.3956,36.0644,6.1149,36.0939,5.7322,35.8771,5.5269,35.7921,5.4259,35.4574,5.6392,35.2528,5.4271,34.8721,5.3726,34.5566,5,34.1094,4.8927,34.1094,5.1064,28.7875,5.1968,23.4656,4.8425,18.1437,4.968,12.8219,5,7.5,5.0388,7.5161,5.3472,7.2296,5.2916,6.7924,5.5818,6.4983,5.4152,6.0151,5.7322,5.7322,5.6458,5.5237,6.15,5.7409,6.3479,5.2186,6.8578,5.4496,7.1728,5.2101,7.5,5" style="stroke:#181818;stroke-width:0.5;"/><text fill="#000000" font-family="FG Virgil" font-size="14" lengthAdjust="spacing" textLength="96" x="12" y="26.5332">:CreateOrderUI</text><polygon fill="#E3E3E3" points="7.5,676.6406,7.5,676.8508,17.0455,676.2263,26.5909,676.8339,36.1364,677.0403,45.6818,675.9272,55.2273,676.5629,64.7727,676.2141,74.3182,676.2571,83.8636,676.5725,93.4091,675.9493,102.9545,677.1943,112.5,676.6406,112.4196,676.4465,112.8283,676.7262,113.2622,677.0665,113.5497,677.0535,113.9229,677.2474,114.2678,677.3729,114.2579,677.3688,114.4692,677.7492,114.6343,678.1105,114.8875,678.5082,115.0602,678.8727,115,679.1406,115.2264,679.1406,115.0849,684.4625,115.1545,689.7844,115.2341,695.1063,114.7596,700.4281,115,705.75,115.209,705.8366,114.7622,706.0657,114.8715,706.5252,114.4082,706.7475,114.3931,707.1555,114.2678,707.5178,114.3624,707.7462,113.908,707.6492,113.5741,707.8431,113.2503,708.0614,112.9066,708.2317,112.5,708.25,112.5,708.2461,102.9545,708.5372,93.4091,707.6776,83.8636,708.5344,74.3182,708.7982,64.7727,708.6945,55.2273,708.863,45.6818,707.7669,36.1364,707.5978,26.5909,707.6286,17.0455,708.1911,7.5,708.25,7.4749,708.1895,7.2334,708.3134,6.7706,707.9033,6.3956,707.705,6.1149,707.7345,5.7322,707.5178,5.5269,707.4327,5.4259,707.098,5.6392,706.8934,5.4271,706.5127,5.3726,706.1972,5,705.75,4.8927,705.75,5.1064,700.4281,5.1968,695.1063,4.8425,689.7844,4.968,684.4625,5,679.1406,5.0388,679.1567,5.3472,678.8702,5.2916,678.433,5.5818,678.139,5.4152,677.6558,5.7322,677.3729,5.6458,677.1643,6.15,677.3815,6.3479,676.8592,6.8578,677.0903,7.1728,676.8507,7.5,676.6406" style="stroke:#181818;stroke-width:0.5;"/><text fill="#000000" font-family="FG Virgil" font-size="14" lengthAdjust="spacing" textLength="96" x="12" y="698.1738">:CreateOrderUI</text><polygon fill="#E3E3E3" points="821.5,5,821.5,5.2102,831.6429,4.5857,841.7857,5.1933,851.9286,5.3997,862.0714,4.2866,872.2143,4.9223,882.3571,4.5735,892.5,4.6165,902.6429,4.9318,912.7857,4.3086,922.9286,5.5536,933.0714,4.3697,943.2143,4.8022,953.3571,5.4319,963.5,4.9142,973.6429,5.0682,983.7857,4.9681,993.9286,5.1785,1004.0714,5.2391,1014.2143,5.5857,1024.3571,5.6711,1034.5,5,1034.5866,5.2092,1034.886,5.2249,1035.2662,5.4357,1035.6502,5.6556,1035.8222,5.3637,1036.2678,5.7322,1036.4767,5.8188,1036.3229,6.048,1036.7251,6.5074,1036.5547,6.7297,1036.8325,7.1377,1037,7.5,1037.2472,7.5,1036.9838,12.8219,1037.0351,18.1438,1037.1129,23.4656,1037.1387,28.7875,1037,34.1094,1036.9988,34.1089,1036.942,34.4996,1036.5308,34.7435,1036.6482,35.2063,1036.583,35.5935,1036.2678,35.8771,1036.3245,36.014,1035.9924,36.2124,1035.499,36.0213,1035.1239,36.1156,1034.7743,36.2716,1034.5,36.6094,1034.5,36.5505,1024.3571,36.4128,1014.2143,37.2908,1004.0714,36.4347,993.9286,36.2663,983.7857,36.8376,973.6429,35.9425,963.5,36.0902,953.3571,37.2583,943.2143,37.045,933.0714,37.3439,922.9286,36.2876,912.7857,36.9286,902.6429,37.1998,892.5,36.137,882.3571,36.5135,872.2143,36.7354,862.0714,37.2611,851.9286,36.6052,841.7857,37.0719,831.6429,36.0556,821.5,36.6094,821.4136,36.4008,821.2107,36.618,820.7014,36.0957,820.5043,36.3268,820.1121,36.0872,819.7322,35.8771,819.6497,35.843,819.4768,35.4785,819.5806,35.2286,819.2007,34.7783,819.3287,34.5384,819,34.1094,818.8158,34.1094,819.2058,28.7875,819.1614,23.4656,819.0817,18.1437,819.0157,12.8219,819,7.5,819.2238,7.5927,819.3354,7.2247,819.345,6.8145,819.5219,6.4736,819.5457,6.0692,819.7322,5.7322,819.8236,5.9529,820.1055,5.6335,820.4614,5.4925,820.7153,5.1055,821.0948,5.0217,821.5,5" style="stroke:#181818;stroke-width:0.5;"/><text fill="#000000" font-family="FG Virgil" font-size="14" lengthAdjust="spacing" textLength="204" x="826" y="26.5332">:CreateOrderForClientController</text><polygon fill="#E3E3E3" points="821.5,676.6406,821.5,676.8508,831.6429,676.2263,841.7857,676.8339,851.9286,677.0403,862.0714,675.9272,872.2143,676.5629,882.3571,676.2141,892.5,676.2571,902.6429,676.5725,912.7857,675.9493,922.9286,677.1943,933.0714,676.0103,943.2143,676.4429,953.3571,677.0726,963.5,676.5548,973.6429,676.7089,983.7857,676.6087,993.9286,676.8192,1004.0714,676.8798,1014.2143,677.2263,1024.3571,677.3117,1034.5,676.6406,1034.5866,676.8498,1034.886,676.8655,1035.2662,677.0763,1035.6502,677.2962,1035.8222,677.0043,1036.2678,677.3729,1036.4767,677.4594,1036.3229,677.6886,1036.7251,678.1481,1036.5547,678.3704,1036.8325,678.7783,1037,679.1406,1037.2472,679.1406,1036.9838,684.4625,1037.0351,689.7844,1037.1129,695.1063,1037.1387,700.4281,1037,705.75,1036.9988,705.7495,1036.942,706.1402,1036.5308,706.3841,1036.6482,706.8469,1036.583,707.2341,1036.2678,707.5178,1036.3245,707.6547,1035.9924,707.853,1035.499,707.6619,1035.1239,707.7563,1034.7743,707.9122,1034.5,708.25,1034.5,708.1911,1024.3571,708.0535,1014.2143,708.9314,1004.0714,708.0753,993.9286,707.9069,983.7857,708.4783,973.6429,707.5832,963.5,707.7309,953.3571,708.899,943.2143,708.6857,933.0714,708.9845,922.9286,707.9282,912.7857,708.5692,902.6429,708.8404,892.5,707.7776,882.3571,708.1541,872.2143,708.376,862.0714,708.9018,851.9286,708.2458,841.7857,708.7126,831.6429,707.6962,821.5,708.25,821.4136,708.0414,821.2107,708.2586,820.7014,707.7363,820.5043,707.9674,820.1121,707.7278,819.7322,707.5178,819.6497,707.4836,819.4768,707.1191,819.5806,706.8692,819.2007,706.4189,819.3287,706.1791,819,705.75,818.8158,705.75,819.2058,700.4281,819.1614,695.1063,819.0817,689.7844,819.0157,684.4625,819,679.1406,819.2238,679.2333,819.3354,678.8653,819.345,678.4551,819.5219,678.1142,819.5457,677.7098,819.7322,677.3729,819.8236,677.5935,820.1055,677.2741,820.4614,677.1331,820.7153,676.7462,821.0948,676.6623,821.5,676.6406" style="stroke:#181818;stroke-width:0.5;"/><text fill="#000000" font-family="FG Virgil" font-size="14" lengthAdjust="spacing" textLength="204" x="826" y="698.1738">:CreateOrderForClientController</text><polygon fill="#E3E3E3" points="1049.5,5,1049.5,5.2102,1059.2059,4.5857,1068.9118,5.1933,1078.6176,5.3997,1088.3235,4.2866,1098.0294,4.9223,1107.7353,4.5735,1117.4412,4.6165,1127.1471,4.9318,1136.8529,4.3086,1146.5588,5.5536,1156.2647,4.3697,1165.9706,4.8022,1175.6765,5.4319,1185.3824,4.9142,1195.0882,5.0682,1204.7941,4.9681,1214.5,5,1214.5228,5.055,1214.8841,5.2201,1215.2818,5.4733,1215.6463,5.646,1216.0009,5.795,1216.2678,5.7322,1216.3462,5.7647,1216.557,6.1449,1216.7769,6.5289,1216.485,6.7009,1217.0625,7.233,1217,7.5,1216.9012,7.5,1217.1779,12.8219,1216.835,18.1438,1216.9772,23.4656,1217.2472,28.7875,1217,34.1094,1216.985,34.1032,1216.886,34.4764,1216.8114,34.8597,1216.6888,35.2231,1216.413,35.5231,1216.2678,35.8771,1216.3044,35.9656,1215.8412,35.8473,1215.5969,36.2576,1215.277,36.4853,1214.9103,36.5998,1214.5,36.6094,1214.5,37.2224,1204.7941,36.1263,1195.0882,35.9572,1185.3824,35.988,1175.6765,36.5505,1165.9706,36.4128,1156.2647,37.2908,1146.5588,36.4347,1136.8529,36.2663,1127.1471,36.8376,1117.4412,35.9425,1107.7353,36.0902,1098.0294,37.2583,1088.3235,37.045,1078.6176,37.3439,1068.9118,36.2876,1059.2059,36.9286,1049.5,36.6094,1049.5753,36.7912,1049.0862,36.3174,1048.7807,36.287,1048.4554,36.2088,1048.1689,36.2243,1047.7322,35.8771,1047.7309,35.8766,1047.7282,35.5826,1047.2688,35.0994,1047.0843,34.7301,1047.3015,34.5272,1047,34.1094,1046.761,34.1094,1047.1697,28.7875,1047.0689,23.4656,1046.9107,18.1437,1046.8821,12.8219,1047,7.5,1047.1413,7.5585,1047.0543,7.1083,1047.4752,6.8684,1047.2691,6.3688,1047.7759,6.1645,1047.7322,5.7322,1047.794,5.8814,1048.117,5.6612,1048.4454,5.4539,1048.8856,5.5167,1049.2247,5.3354,1049.5,5" style="stroke:#181818;stroke-width:0.5;"/><text fill="#000000" font-family="FG Virgil" font-size="14" lengthAdjust="spacing" textLength="156" x="1054" y="26.5332">:ListCustomersController</text><polygon fill="#E3E3E3" points="1049.5,676.6406,1049.5,676.8508,1059.2059,676.2263,1068.9118,676.8339,1078.6176,677.0403,1088.3235,675.9272,1098.0294,676.5629,1107.7353,676.2141,1117.4412,676.2571,1127.1471,676.5725,1136.8529,675.9493,1146.5588,677.1943,1156.2647,676.0103,1165.9706,676.4429,1175.6765,677.0726,1185.3824,676.5548,1195.0882,676.7089,1204.7941,676.6087,1214.5,676.6406,1214.5228,676.6956,1214.8841,676.8607,1215.2818,677.1139,1215.6463,677.2866,1216.0009,677.4356,1216.2678,677.3729,1216.3462,677.4053,1216.557,677.7855,1216.7769,678.1695,1216.485,678.3415,1217.0625,678.8736,1217,679.1406,1216.9012,679.1406,1217.1779,684.4625,1216.835,689.7844,1216.9772,695.1063,1217.2472,700.4281,1217,705.75,1216.985,705.7438,1216.886,706.117,1216.8114,706.5003,1216.6888,706.8638,1216.413,707.1637,1216.2678,707.5178,1216.3044,707.6062,1215.8412,707.4879,1215.5969,707.8982,1215.277,708.1259,1214.9103,708.2405,1214.5,708.25,1214.5,708.863,1204.7941,707.7669,1195.0882,707.5978,1185.3824,707.6286,1175.6765,708.1911,1165.9706,708.0535,1156.2647,708.9314,1146.5588,708.0753,1136.8529,707.9069,1127.1471,708.4783,1117.4412,707.5832,1107.7353,707.7309,1098.0294,708.899,1088.3235,708.6857,1078.6176,708.9845,1068.9118,707.9282,1059.2059,708.5692,1049.5,708.25,1049.5753,708.4318,1049.0862,707.9581,1048.7807,707.9276,1048.4554,707.8495,1048.1689,707.8649,1047.7322,707.5178,1047.7309,707.5172,1047.7282,707.2232,1047.2688,706.74,1047.0843,706.3707,1047.3015,706.1678,1047,705.75,1046.761,705.75,1047.1697,700.4281,1047.0689,695.1063,1046.9107,689.7844,1046.8821,684.4625,1047,679.1406,1047.1413,679.1991,1047.0543,678.7489,1047.4752,678.509,1047.2691,678.0095,1047.7759,677.8052,1047.7322,677.3729,1047.794,677.522,1048.117,677.3019,1048.4454,677.0945,1048.8856,677.1573,1049.2247,676.976,1049.5,676.6406" style="stroke:#181818;stroke-width:0.5;"/><text fill="#000000" font-family="FG Virgil" font-size="14" lengthAdjust="spacing" textLength="156" x="1054" y="698.1738">:ListCustomersController</text><polygon fill="#E3E3E3" points="1229.5,5,1229.5,5.2102,1239.2333,4.5857,1248.9667,5.1933,1258.7,5.3997,1268.4333,4.2866,1278.1667,4.9223,1287.9,4.5735,1297.6333,4.6165,1307.3667,4.9318,1317.1,4.3086,1326.8333,5.5536,1336.5667,4.3697,1346.3,4.8022,1356.0333,5.4319,1365.7667,4.9142,1375.5,5,1375.5087,5.021,1375.8495,5.1366,1376.2299,5.3479,1376.5912,5.513,1376.9889,5.7662,1377.2678,5.7322,1377.4744,5.8178,1377.6234,6.1724,1377.6391,6.4718,1377.8499,6.852,1378.0698,7.236,1378,7.5,1377.7596,7.5,1378.2262,12.8219,1377.9012,18.1438,1378.1779,23.4656,1377.835,28.7875,1378,34.1094,1377.9789,34.1006,1378.0819,34.5575,1377.6921,34.8103,1377.5931,35.1835,1377.5185,35.5668,1377.2678,35.8771,1377.3209,36.0053,1376.9137,36.0224,1376.5973,36.2585,1376.1341,36.1402,1375.8898,36.5505,1375.5,36.6094,1375.5,37.1576,1365.7667,37.0539,1356.0333,37.2224,1346.3,36.1263,1336.5667,35.9572,1326.8333,35.988,1317.1,36.5505,1307.3667,36.4128,1297.6333,37.2908,1287.9,36.4347,1278.1667,36.2663,1268.4333,36.8376,1258.7,35.9425,1248.9667,36.0902,1239.2333,37.2583,1229.5,36.6094,1229.5556,36.7435,1229.2401,36.6891,1228.7518,36.2174,1228.4801,36.2683,1228.1611,36.2054,1227.7322,35.8771,1227.5868,35.8169,1227.5563,35.5114,1227.4781,35.1861,1227.4936,34.8996,1227.1452,34.4624,1227,34.1094,1227.1542,34.1094,1226.8154,28.7875,1226.7742,23.4656,1227.1679,18.1437,1226.761,12.8219,1227,7.5,1227.1567,7.5649,1227.2101,7.1728,1227.2104,6.7587,1227.3304,6.3942,1227.7271,6.1443,1227.7322,5.7322,1227.694,5.6401,1228.1613,5.7681,1228.3688,5.2691,1228.8717,5.483,1229.2082,5.2956,1229.5,5" style="stroke:#181818;stroke-width:0.5;"/><text fill="#000000" font-family="FG Virgil" font-size="14" lengthAdjust="spacing" textLength="137" x="1234" y="26.5332">:ListProductController</text><polygon fill="#E3E3E3" points="1229.5,676.6406,1229.5,676.8508,1239.2333,676.2263,1248.9667,676.8339,1258.7,677.0403,1268.4333,675.9272,1278.1667,676.5629,1287.9,676.2141,1297.6333,676.2571,1307.3667,676.5725,1317.1,675.9493,1326.8333,677.1943,1336.5667,676.0103,1346.3,676.4429,1356.0333,677.0726,1365.7667,676.5548,1375.5,676.6406,1375.5087,676.6616,1375.8495,676.7772,1376.2299,676.9885,1376.5912,677.1536,1376.9889,677.4068,1377.2678,677.3729,1377.4744,677.4585,1377.6234,677.8131,1377.6391,678.1124,1377.8499,678.4927,1378.0698,678.8766,1378,679.1406,1377.7596,679.1406,1378.2262,684.4625,1377.9012,689.7844,1378.1779,695.1063,1377.835,700.4281,1378,705.75,1377.9789,705.7413,1378.0819,706.1982,1377.6921,706.4509,1377.5931,706.8241,1377.5185,707.2074,1377.2678,707.5178,1377.3209,707.6459,1376.9137,707.663,1376.5973,707.8991,1376.1341,707.7808,1375.8898,708.1911,1375.5,708.25,1375.5,708.7982,1365.7667,708.6945,1356.0333,708.863,1346.3,707.7669,1336.5667,707.5978,1326.8333,707.6286,1317.1,708.1911,1307.3667,708.0535,1297.6333,708.9314,1287.9,708.0753,1278.1667,707.9069,1268.4333,708.4783,1258.7,707.5832,1248.9667,707.7309,1239.2333,708.899,1229.5,708.25,1229.5556,708.3842,1229.2401,708.3297,1228.7518,707.858,1228.4801,707.909,1228.1611,707.846,1227.7322,707.5178,1227.5868,707.4575,1227.5563,707.152,1227.4781,706.8267,1227.4936,706.5402,1227.1452,706.103,1227,705.75,1227.1542,705.75,1226.8154,700.4281,1226.7742,695.1063,1227.1679,689.7844,1226.761,684.4625,1227,679.1406,1227.1567,679.2055,1227.2101,678.8134,1227.2104,678.3993,1227.3304,678.0348,1227.7271,677.7849,1227.7322,677.3729,1227.694,677.2807,1228.1613,677.4087,1228.3688,676.9097,1228.8717,677.1237,1229.2082,676.9362,1229.5,676.6406" style="stroke:#181818;stroke-width:0.5;"/><text fill="#000000" font-family="FG Virgil" font-size="14" lengthAdjust="spacing" textLength="137" x="1234" y="698.1738">:ListProductController</text><polygon fill="#E3E3E3" points="1390.5,5,1390.5,5.2102,1400.1429,4.5857,1409.7857,5.1933,1419.4286,5.3997,1429.0714,4.2866,1438.7143,4.9223,1448.3571,4.5735,1458,4.6165,1467.6429,4.9318,1477.2857,4.3086,1486.9286,5.5536,1496.5714,4.3697,1506.2143,4.8022,1515.8571,5.4319,1525.5,5,1525.4891,4.9736,1525.8623,5.1675,1526.203,5.2831,1526.5834,5.4943,1526.9447,5.6594,1527.2678,5.7322,1527.4481,5.8069,1527.6209,6.1714,1527.7698,6.526,1527.7855,6.8254,1527.9963,7.2056,1528,7.5,1528.2341,7.5,1527.7596,12.8219,1528.2262,18.1438,1527.9012,23.4656,1528.1779,28.7875,1528,34.1094,1527.8476,34.0462,1527.8325,34.4542,1527.9355,34.9111,1527.5457,35.1638,1527.4466,35.537,1527.2678,35.8771,1527.311,35.9814,1526.9673,36.1518,1526.5602,36.1688,1526.2437,36.4049,1525.7805,36.2866,1525.5,36.6094,1525.5,36.8938,1515.8571,37.1576,1506.2143,37.0539,1496.5714,37.2224,1486.9286,36.1263,1477.2857,35.9572,1467.6429,35.988,1458,36.5505,1448.3571,36.4128,1438.7143,37.2908,1429.0714,36.4347,1419.4286,36.2663,1409.7857,36.8376,1400.1429,35.9425,1390.5,36.6094,1390.4338,36.4495,1390.2292,36.6628,1389.8485,36.4506,1389.533,36.3962,1389.0447,35.9245,1388.7322,35.8771,1388.8305,35.9179,1388.7676,35.5989,1388.2939,35.1098,1388.2634,34.8043,1388.1852,34.479,1388,34.1094,1388.2173,34.1094,1387.9986,28.7875,1388.1542,23.4656,1387.8154,18.1437,1387.7742,12.8219,1388,7.5,1388.1551,7.5642,1387.9257,7.055,1388.4496,6.8578,1388.503,6.4657,1388.5033,6.0516,1388.7322,5.7322,1388.6871,5.6233,1389.1443,5.7271,1389.4012,5.3472,1389.8684,5.4752,1390.0759,4.9762,1390.5,5" style="stroke:#181818;stroke-width:0.5;"/><text fill="#000000" font-family="FG Virgil" font-size="14" lengthAdjust="spacing" textLength="126" x="1395" y="26.5332">:PersistenceContext</text><polygon fill="#E3E3E3" points="1390.5,676.6406,1390.5,676.8508,1400.1429,676.2263,1409.7857,676.8339,1419.4286,677.0403,1429.0714,675.9272,1438.7143,676.5629,1448.3571,676.2141,1458,676.2571,1467.6429,676.5725,1477.2857,675.9493,1486.9286,677.1943,1496.5714,676.0103,1506.2143,676.4429,1515.8571,677.0726,1525.5,676.6406,1525.4891,676.6142,1525.8623,676.8081,1526.203,676.9237,1526.5834,677.1349,1526.9447,677.3001,1527.2678,677.3729,1527.4481,677.4476,1527.6209,677.812,1527.7698,678.1666,1527.7855,678.466,1527.9963,678.8462,1528,679.1406,1528.2341,679.1406,1527.7596,684.4625,1528.2262,689.7844,1527.9012,695.1063,1528.1779,700.4281,1528,705.75,1527.8476,705.6869,1527.8325,706.0948,1527.9355,706.5517,1527.5457,706.8044,1527.4466,707.1776,1527.2678,707.5178,1527.311,707.6221,1526.9673,707.7924,1526.5602,707.8095,1526.2437,708.0456,1525.7805,707.9273,1525.5,708.25,1525.5,708.5344,1515.8571,708.7982,1506.2143,708.6945,1496.5714,708.863,1486.9286,707.7669,1477.2857,707.5978,1467.6429,707.6286,1458,708.1911,1448.3571,708.0535,1438.7143,708.9314,1429.0714,708.0753,1419.4286,707.9069,1409.7857,708.4783,1400.1429,707.5832,1390.5,708.25,1390.4338,708.0901,1390.2292,708.3034,1389.8485,708.0913,1389.533,708.0369,1389.0447,707.5651,1388.7322,707.5178,1388.8305,707.5585,1388.7676,707.2395,1388.2939,706.7504,1388.2634,706.4449,1388.1852,706.1196,1388,705.75,1388.2173,705.75,1387.9986,700.4281,1388.1542,695.1063,1387.8154,689.7844,1387.7742,684.4625,1388,679.1406,1388.1551,679.2049,1387.9257,678.6956,1388.4496,678.4984,1388.503,678.1063,1388.5033,677.6922,1388.7322,677.3729,1388.6871,677.2639,1389.1443,677.3677,1389.4012,676.9878,1389.8684,677.1158,1390.0759,676.6168,1390.5,676.6406" style="stroke:#181818;stroke-width:0.5;"/><text fill="#000000" font-family="FG Virgil" font-size="14" lengthAdjust="spacing" textLength="126" x="1395" y="698.1738">:PersistenceContext</text><polygon fill="#E3E3E3" points="1540.5,5,1540.5,5.2102,1550.4231,4.5857,1560.3462,5.1933,1570.2692,5.3997,1580.1923,4.2866,1590.1154,4.9223,1600.0385,4.5735,1609.9615,4.6165,1619.8846,4.9318,1629.8077,4.3086,1639.7308,5.5536,1649.6538,4.3697,1659.5769,4.8022,1669.5,5,1669.5551,5.133,1669.8426,5.12,1670.2158,5.3139,1670.5566,5.4295,1670.937,5.6408,1671.2678,5.7322,1671.3414,5.7627,1671.5946,6.1605,1671.7673,6.5249,1671.9163,6.8795,1671.932,7.1789,1672,7.5,1672.1545,7.5,1672.2341,12.8219,1671.7596,18.1438,1672.2262,23.4656,1671.9012,28.7875,1672,34.1094,1672.1644,34.1775,1671.7011,34.3998,1671.686,34.8077,1671.789,35.2646,1671.3992,35.5174,1671.2678,35.8771,1671.2812,35.9096,1670.9574,36.1279,1670.6138,36.2982,1670.2066,36.3153,1669.8902,36.5514,1669.5,36.6094,1669.5,36.037,1659.5769,36.8938,1649.6538,37.1576,1639.7308,37.0539,1629.8077,37.2224,1619.8846,36.1263,1609.9615,35.9572,1600.0385,35.988,1590.1154,36.5505,1580.1923,36.4128,1570.2692,37.2908,1560.3462,36.4347,1550.4231,36.2663,1540.5,36.6094,1540.5291,36.6797,1540.0614,36.2576,1539.7267,36.1566,1539.5221,36.3699,1539.1414,36.1578,1538.7322,35.8771,1538.9584,35.9708,1538.4867,35.4825,1538.5376,35.2108,1538.4747,34.8918,1538.001,34.4027,1538,34.1094,1537.968,34.1094,1538.042,28.7875,1538.2173,23.4656,1537.9986,18.1437,1538.1542,12.8219,1538,7.5,1537.8295,7.4294,1537.9379,7.0601,1538.448,6.8571,1538.2186,6.3479,1538.7425,6.1507,1538.7322,5.7322,1538.7586,5.7959,1539.0516,5.5033,1539.3942,5.3304,1539.8514,5.4342,1540.1083,5.0543,1540.5,5" style="stroke:#181818;stroke-width:0.5;"/><text fill="#000000" font-family="FG Virgil" font-size="14" lengthAdjust="spacing" textLength="120" x="1545" y="26.5332">:RepositoryFactory</text><polygon fill="#E3E3E3" points="1540.5,676.6406,1540.5,676.8508,1550.4231,676.2263,1560.3462,676.8339,1570.2692,677.0403,1580.1923,675.9272,1590.1154,676.5629,1600.0385,676.2141,1609.9615,676.2571,1619.8846,676.5725,1629.8077,675.9493,1639.7308,677.1943,1649.6538,676.0103,1659.5769,676.4429,1669.5,676.6406,1669.5551,676.7736,1669.8426,676.7607,1670.2158,676.9545,1670.5566,677.0701,1670.937,677.2814,1671.2678,677.3729,1671.3414,677.4034,1671.5946,677.8011,1671.7673,678.1656,1671.9163,678.5202,1671.932,678.8196,1672,679.1406,1672.1545,679.1406,1672.2341,684.4625,1671.7596,689.7844,1672.2262,695.1063,1671.9012,700.4281,1672,705.75,1672.1644,705.8181,1671.7011,706.0404,1671.686,706.4484,1671.789,706.9053,1671.3992,707.158,1671.2678,707.5178,1671.2812,707.5502,1670.9574,707.7685,1670.6138,707.9388,1670.2066,707.9559,1669.8902,708.192,1669.5,708.25,1669.5,707.6776,1659.5769,708.5344,1649.6538,708.7982,1639.7308,708.6945,1629.8077,708.863,1619.8846,707.7669,1609.9615,707.5978,1600.0385,707.6286,1590.1154,708.1911,1580.1923,708.0535,1570.2692,708.9314,1560.3462,708.0753,1550.4231,707.9069,1540.5,708.25,1540.5291,708.3203,1540.0614,707.8982,1539.7267,707.7972,1539.5221,708.0105,1539.1414,707.7984,1538.7322,707.5178,1538.9584,707.6115,1538.4867,707.1232,1538.5376,706.8514,1538.4747,706.5324,1538.001,706.0433,1538,705.75,1537.968,705.75,1538.042,700.4281,1538.2173,695.1063,1537.9986,689.7844,1538.1542,684.4625,1538,679.1406,1537.8295,679.07,1537.9379,678.7007,1538.448,678.4978,1538.2186,677.9885,1538.7425,677.7913,1538.7322,677.3729,1538.7586,677.4365,1539.0516,677.1439,1539.3942,676.971,1539.8514,677.0748,1540.1083,676.6949,1540.5,676.6406" style="stroke:#181818;stroke-width:0.5;"/><text fill="#000000" font-family="FG Virgil" font-size="14" lengthAdjust="spacing" textLength="120" x="1545" y="698.1738">:RepositoryFactory</text><polygon fill="#E3E3E3" points="1684.5,5,1684.5,5.2102,1694.3333,4.5857,1704.1667,5.1933,1714,5.3997,1723.8333,4.2866,1733.6667,4.9223,1743.5,4.5735,1753.3333,4.6165,1763.1667,4.9318,1773,4.3086,1782.8333,5.5536,1792.6667,4.3697,1802.5,5,1802.4748,4.9391,1802.9087,5.2795,1803.1962,5.2665,1803.5694,5.4604,1803.9101,5.5759,1804.2678,5.7322,1804.3227,5.755,1804.4879,6.1163,1804.741,6.5141,1804.9138,6.8785,1805.0627,7.2331,1805,7.5,1805.0849,7.5,1805.1545,12.8219,1805.2341,18.1438,1804.7596,23.4656,1805.2262,28.7875,1805,34.1094,1804.9087,34.0716,1805.0179,34.531,1804.5547,34.7533,1804.5396,35.1613,1804.6426,35.6182,1804.2678,35.8771,1804.2616,35.8621,1803.9276,36.056,1803.6039,36.2743,1803.2602,36.4447,1802.8531,36.4617,1802.5,36.6094,1802.5,36.8966,1792.6667,36.037,1782.8333,36.8938,1773,37.1576,1763.1667,37.0539,1753.3333,37.2224,1743.5,36.1263,1733.6667,35.9572,1723.8333,35.988,1714,36.5505,1704.1667,36.4128,1694.3333,37.2908,1684.5,36.6094,1684.4777,36.5556,1684.1027,36.3573,1683.822,36.3868,1683.3543,35.9647,1683.0196,35.8637,1682.7322,35.8771,1682.9321,35.9599,1682.72,35.5792,1682.6655,35.2637,1682.1938,34.7754,1682.2447,34.5036,1682,34.1094,1682.1968,34.1094,1681.8425,28.7875,1681.968,23.4656,1682.042,18.1437,1682.2173,12.8219,1682,7.5,1681.9987,7.4995,1682.2889,7.2055,1682.1223,6.7223,1682.2308,6.3529,1682.7409,6.15,1682.7322,5.7322,1682.6408,5.5114,1683.1507,5.7425,1683.4657,5.503,1683.7587,5.2104,1684.1013,5.0375,1684.5,5" style="stroke:#181818;stroke-width:0.5;"/><text fill="#000000" font-family="FG Virgil" font-size="14" lengthAdjust="spacing" textLength="109" x="1689" y="26.5332">:OrderRepository</text><polygon fill="#E3E3E3" points="1684.5,676.6406,1684.5,676.8508,1694.3333,676.2263,1704.1667,676.8339,1714,677.0403,1723.8333,675.9272,1733.6667,676.5629,1743.5,676.2141,1753.3333,676.2571,1763.1667,676.5725,1773,675.9493,1782.8333,677.1943,1792.6667,676.0103,1802.5,676.6406,1802.4748,676.5797,1802.9087,676.9201,1803.1962,676.9071,1803.5694,677.101,1803.9101,677.2166,1804.2678,677.3729,1804.3227,677.3956,1804.4879,677.7569,1804.741,678.1547,1804.9138,678.5191,1805.0627,678.8737,1805,679.1406,1805.0849,679.1406,1805.1545,684.4625,1805.2341,689.7844,1804.7596,695.1063,1805.2262,700.4281,1805,705.75,1804.9087,705.7122,1805.0179,706.1716,1804.5547,706.394,1804.5396,706.8019,1804.6426,707.2588,1804.2678,707.5178,1804.2616,707.5028,1803.9276,707.6966,1803.6039,707.9149,1803.2602,708.0853,1802.8531,708.1024,1802.5,708.25,1802.5,708.5372,1792.6667,707.6776,1782.8333,708.5344,1773,708.7982,1763.1667,708.6945,1753.3333,708.863,1743.5,707.7669,1733.6667,707.5978,1723.8333,707.6286,1714,708.1911,1704.1667,708.0535,1694.3333,708.9314,1684.5,708.25,1684.4777,708.1962,1684.1027,707.9979,1683.822,708.0274,1683.3543,707.6053,1683.0196,707.5043,1682.7322,707.5178,1682.9321,707.6005,1682.72,707.2198,1682.6655,706.9044,1682.1938,706.4161,1682.2447,706.1443,1682,705.75,1682.1968,705.75,1681.8425,700.4281,1681.968,695.1063,1682.042,689.7844,1682.2173,684.4625,1682,679.1406,1681.9987,679.1401,1682.2889,678.8461,1682.1223,678.3629,1682.2308,677.9936,1682.7409,677.7907,1682.7322,677.3729,1682.6408,677.1521,1683.1507,677.3832,1683.4657,677.1436,1683.7587,676.851,1684.1013,676.6781,1684.5,676.6406" style="stroke:#181818;stroke-width:0.5;"/><text fill="#000000" font-family="FG Virgil" font-size="14" lengthAdjust="spacing" textLength="109" x="1689" y="698.1738">:OrderRepository</text><polygon fill="#E3E3E3" points="1817.5,5,1817.5,5.2102,1827.6429,4.5857,1837.7857,5.1933,1847.9286,5.3997,1858.0714,4.2866,1868.2143,4.9223,1878.3571,4.5735,1888.5,4.6165,1898.6429,4.9318,1908.7857,4.3086,1918.9286,5.5536,1929.0714,4.3697,1939.2143,4.8022,1949.3571,5.4319,1959.5,5,1959.4891,4.9736,1959.8623,5.1675,1960.203,5.2831,1960.5834,5.4943,1960.9447,5.6594,1961.2678,5.7322,1961.4481,5.8069,1961.6209,6.1714,1961.7698,6.526,1961.7855,6.8254,1961.9963,7.2056,1962,7.5,1962.2341,7.5,1961.7596,12.8219,1962.2262,18.1438,1961.9012,23.4656,1962.1779,28.7875,1962,34.1094,1961.8476,34.0462,1961.8325,34.4542,1961.9355,34.9111,1961.5457,35.1638,1961.4466,35.537,1961.2678,35.8771,1961.311,35.9814,1960.9673,36.1518,1960.5602,36.1688,1960.2437,36.4049,1959.7805,36.2866,1959.5,36.6094,1959.5,36.8938,1949.3571,37.1576,1939.2143,37.0539,1929.0714,37.2224,1918.9286,36.1263,1908.7857,35.9572,1898.6429,35.988,1888.5,36.5505,1878.3571,36.4128,1868.2143,37.2908,1858.0714,36.4347,1847.9286,36.2663,1837.7857,36.8376,1827.6429,35.9425,1817.5,36.6094,1817.4338,36.4495,1817.2292,36.6628,1816.8485,36.4506,1816.533,36.3962,1816.0447,35.9245,1815.7322,35.8771,1815.8305,35.9179,1815.7676,35.5989,1815.2939,35.1098,1815.2634,34.8043,1815.1852,34.479,1815,34.1094,1815.2173,34.1094,1814.9986,28.7875,1815.1542,23.4656,1814.8154,18.1437,1814.7742,12.8219,1815,7.5,1815.1551,7.5642,1814.9257,7.055,1815.4496,6.8578,1815.503,6.4657,1815.5033,6.0516,1815.7322,5.7322,1815.6871,5.6233,1816.1443,5.7271,1816.4012,5.3472,1816.8684,5.4752,1817.0759,4.9762,1817.5,5" style="stroke:#181818;stroke-width:0.5;"/><text fill="#000000" font-family="FG Virgil" font-size="14" lengthAdjust="spacing" textLength="133" x="1822" y="26.5332">:CustomerRepository</text><polygon fill="#E3E3E3" points="1817.5,676.6406,1817.5,676.8508,1827.6429,676.2263,1837.7857,676.8339,1847.9286,677.0403,1858.0714,675.9272,1868.2143,676.5629,1878.3571,676.2141,1888.5,676.2571,1898.6429,676.5725,1908.7857,675.9493,1918.9286,677.1943,1929.0714,676.0103,1939.2143,676.4429,1949.3571,677.0726,1959.5,676.6406,1959.4891,676.6142,1959.8623,676.8081,1960.203,676.9237,1960.5834,677.1349,1960.9447,677.3001,1961.2678,677.3729,1961.4481,677.4476,1961.6209,677.812,1961.7698,678.1666,1961.7855,678.466,1961.9963,678.8462,1962,679.1406,1962.2341,679.1406,1961.7596,684.4625,1962.2262,689.7844,1961.9012,695.1063,1962.1779,700.4281,1962,705.75,1961.8476,705.6869,1961.8325,706.0948,1961.9355,706.5517,1961.5457,706.8044,1961.4466,707.1776,1961.2678,707.5178,1961.311,707.6221,1960.9673,707.7924,1960.5602,707.8095,1960.2437,708.0456,1959.7805,707.9273,1959.5,708.25,1959.5,708.5344,1949.3571,708.7982,1939.2143,708.6945,1929.0714,708.863,1918.9286,707.7669,1908.7857,707.5978,1898.6429,707.6286,1888.5,708.1911,1878.3571,708.0535,1868.2143,708.9314,1858.0714,708.0753,1847.9286,707.9069,1837.7857,708.4783,1827.6429,707.5832,1817.5,708.25,1817.4338,708.0901,1817.2292,708.3034,1816.8485,708.0913,1816.533,708.0369,1816.0447,707.5651,1815.7322,707.5178,1815.8305,707.5585,1815.7676,707.2395,1815.2939,706.7504,1815.2634,706.4449,1815.1852,706.1196,1815,705.75,1815.2173,705.75,1814.9986,700.4281,1815.1542,695.1063,1814.8154,689.7844,1814.7742,684.4625,1815,679.1406,1815.1551,679.2049,1814.9257,678.6956,1815.4496,678.4984,1815.503,678.1063,1815.5033,677.6922,1815.7322,677.3729,1815.6871,677.2639,1816.1443,677.3677,1816.4012,676.9878,1816.8684,677.1158,1817.0759,676.6168,1817.5,676.6406" style="stroke:#181818;stroke-width:0.5;"/><text fill="#000000" font-family="FG Virgil" font-size="14" lengthAdjust="spacing" textLength="133" x="1822" y="698.1738">:CustomerRepository</text><polygon fill="#E3E3E3" points="1974.5,5,1974.5,5.2102,1984.5,4.5857,1994.5,5.1933,2004.5,5.3997,2014.5,4.2866,2024.5,4.9223,2034.5,4.5735,2044.5,4.6165,2054.5,4.9318,2064.5,4.3086,2074.5,5.5536,2084.5,4.3697,2094.5,4.8022,2104.5,5,2104.5551,5.133,2104.8426,5.12,2105.2158,5.3139,2105.5566,5.4295,2105.937,5.6408,2106.2678,5.7322,2106.3414,5.7627,2106.5946,6.1605,2106.7673,6.5249,2106.9163,6.8795,2106.932,7.1789,2107,7.5,2107.1545,7.5,2107.2341,12.8219,2106.7596,18.1438,2107.2262,23.4656,2106.9012,28.7875,2107,34.1094,2107.1644,34.1775,2106.7011,34.3998,2106.686,34.8077,2106.789,35.2646,2106.3992,35.5174,2106.2678,35.8771,2106.2812,35.9096,2105.9574,36.1279,2105.6138,36.2982,2105.2066,36.3153,2104.8902,36.5514,2104.5,36.6094,2104.5,36.037,2094.5,36.8938,2084.5,37.1576,2074.5,37.0539,2064.5,37.2224,2054.5,36.1263,2044.5,35.9572,2034.5,35.988,2024.5,36.5505,2014.5,36.4128,2004.5,37.2908,1994.5,36.4347,1984.5,36.2663,1974.5,36.6094,1974.5291,36.6797,1974.0614,36.2576,1973.7267,36.1566,1973.5221,36.3699,1973.1414,36.1578,1972.7322,35.8771,1972.9584,35.9708,1972.4867,35.4825,1972.5376,35.2108,1972.4747,34.8918,1972.001,34.4027,1972,34.1094,1971.968,34.1094,1972.042,28.7875,1972.2173,23.4656,1971.9986,18.1437,1972.1542,12.8219,1972,7.5,1971.8295,7.4294,1971.9379,7.0601,1972.448,6.8571,1972.2186,6.3479,1972.7425,6.1507,1972.7322,5.7322,1972.7586,5.7959,1973.0516,5.5033,1973.3942,5.3304,1973.8514,5.4342,1974.1083,5.0543,1974.5,5" style="stroke:#181818;stroke-width:0.5;"/><text fill="#000000" font-family="FG Virgil" font-size="14" lengthAdjust="spacing" textLength="121" x="1979" y="26.5332">:ProductRepository</text><polygon fill="#E3E3E3" points="1974.5,676.6406,1974.5,676.8508,1984.5,676.2263,1994.5,676.8339,2004.5,677.0403,2014.5,675.9272,2024.5,676.5629,2034.5,676.2141,2044.5,676.2571,2054.5,676.5725,2064.5,675.9493,2074.5,677.1943,2084.5,676.0103,2094.5,676.4429,2104.5,676.6406,2104.5551,676.7736,2104.8426,676.7607,2105.2158,676.9545,2105.5566,677.0701,2105.937,677.2814,2106.2678,677.3729,2106.3414,677.4034,2106.5946,677.8011,2106.7673,678.1656,2106.9163,678.5202,2106.932,678.8196,2107,679.1406,2107.1545,679.1406,2107.2341,684.4625,2106.7596,689.7844,2107.2262,695.1063,2106.9012,700.4281,2107,705.75,2107.1644,705.8181,2106.7011,706.0404,2106.686,706.4484,2106.789,706.9053,2106.3992,707.158,2106.2678,707.5178,2106.2812,707.5502,2105.9574,707.7685,2105.6138,707.9388,2105.2066,707.9559,2104.8902,708.192,2104.5,708.25,2104.5,707.6776,2094.5,708.5344,2084.5,708.7982,2074.5,708.6945,2064.5,708.863,2054.5,707.7669,2044.5,707.5978,2034.5,707.6286,2024.5,708.1911,2014.5,708.0535,2004.5,708.9314,1994.5,708.0753,1984.5,707.9069,1974.5,708.25,1974.5291,708.3203,1974.0614,707.8982,1973.7267,707.7972,1973.5221,708.0105,1973.1414,707.7984,1972.7322,707.5178,1972.9584,707.6115,1972.4867,707.1232,1972.5376,706.8514,1972.4747,706.5324,1972.001,706.0433,1972,705.75,1971.968,705.75,1972.042,700.4281,1972.2173,695.1063,1971.9986,689.7844,1972.1542,684.4625,1972,679.1406,1971.8295,679.07,1971.9379,678.7007,1972.448,678.4978,1972.2186,677.9885,1972.7425,677.7913,1972.7322,677.3729,1972.7586,677.4365,1973.0516,677.1439,1973.3942,676.971,1973.8514,677.0748,1974.1083,676.6949,1974.5,676.6406" style="stroke:#181818;stroke-width:0.5;"/><text fill="#000000" font-family="FG Virgil" font-size="14" lengthAdjust="spacing" textLength="121" x="1979" y="698.1738">:ProductRepository</text><polygon fill="#E3E3E3" points="2119.5,5,2119.5,5.2102,2129.5,4.5857,2139.5,5.1933,2149.5,5.3997,2159.5,4.2866,2169.5,5,2169.4901,4.9761,2169.7991,5.0151,2170.1582,5.1748,2170.552,5.4184,2170.826,5.3729,2171.2678,5.7322,2171.4383,5.8029,2171.2201,6.0054,2171.4998,6.4141,2171.8401,6.848,2171.8271,7.1355,2172,7.5,2172.0227,7.5,2171.9894,12.8219,2172.0595,18.1438,2172.0797,23.4656,2172.1952,28.7875,2172,34.1094,2172.2067,34.195,2172.0627,34.5496,2171.7855,34.849,2171.7034,35.2292,2171.6305,35.6132,2171.2678,35.8771,2171.1758,35.655,2171.0008,36.2325,2170.5228,36.0787,2170.2752,36.4809,2169.7904,36.3105,2169.5,36.6094,2169.5,36.5409,2159.5,37.351,2149.5,36.5606,2139.5,36.7147,2129.5,36.948,2119.5,36.6094,2119.5531,36.7376,2119.1459,36.4617,2118.8295,36.4049,2118.3663,35.9938,2118.1221,36.1112,2117.7322,35.8771,2117.9011,35.9471,2117.7227,35.5803,2117.6281,35.2482,2117.1441,34.7549,2116.9456,34.3797,2117,34.1094,2116.7929,34.1094,2116.9804,28.7875,2116.9345,23.4656,2117.2271,18.1437,2116.9418,12.8219,2117,7.5,2116.8944,7.4562,2117.2167,7.1756,2117.0875,6.7078,2117.2795,6.3731,2117.7856,6.1686,2117.7322,5.7322,2117.7878,5.8664,2118.1795,5.812,2118.3983,5.3402,2118.8336,5.3912,2119.2218,5.3283,2119.5,5" style="stroke:#181818;stroke-width:0.5;"/><text fill="#000000" font-family="FG Virgil" font-size="14" lengthAdjust="spacing" textLength="41" x="2124" y="26.5332">:Order</text><polygon fill="#E3E3E3" points="2119.5,676.6406,2119.5,676.8508,2129.5,676.2263,2139.5,676.8339,2149.5,677.0403,2159.5,675.9272,2169.5,676.6406,2169.4901,676.6167,2169.7991,676.6557,2170.1582,676.8154,2170.552,677.059,2170.826,677.0135,2171.2678,677.3729,2171.4383,677.4435,2171.2201,677.646,2171.4998,678.0547,2171.8401,678.4886,2171.8271,678.7761,2172,679.1406,2172.0227,679.1406,2171.9894,684.4625,2172.0595,689.7844,2172.0797,695.1063,2172.1952,700.4281,2172,705.75,2172.2067,705.8356,2172.0627,706.1902,2171.7855,706.4896,2171.7034,706.8698,2171.6305,707.2538,2171.2678,707.5178,2171.1758,707.2957,2171.0008,707.8732,2170.5228,707.7193,2170.2752,708.1215,2169.7904,707.9511,2169.5,708.25,2169.5,708.1815,2159.5,708.9916,2149.5,708.2013,2139.5,708.3553,2129.5,708.5886,2119.5,708.25,2119.5531,708.3782,2119.1459,708.1024,2118.8295,708.0456,2118.3663,707.6344,2118.1221,707.7518,2117.7322,707.5178,2117.9011,707.5877,2117.7227,707.2209,2117.6281,706.8889,2117.1441,706.3955,2116.9456,706.0204,2117,705.75,2116.7929,705.75,2116.9804,700.4281,2116.9345,695.1063,2117.2271,689.7844,2116.9418,684.4625,2117,679.1406,2116.8944,679.0969,2117.2167,678.8162,2117.0875,678.3485,2117.2795,678.0137,2117.7856,677.8092,2117.7322,677.3729,2117.7878,677.507,2118.1795,677.4526,2118.3983,676.9809,2118.8336,677.0318,2119.2218,676.9689,2119.5,676.6406" style="stroke:#181818;stroke-width:0.5;"/><text fill="#000000" font-family="FG Virgil" font-size="14" lengthAdjust="spacing" textLength="41" x="2124" y="698.1738">:Order</text><polygon fill="#181818" points="916,65.9609,916.026,66.026,917.9487,66.6327,920.0239,67.6208,922.0495,68.4846,923.9117,68.9401,926,69.9609,925.9904,69.9369,923.9472,70.6289,921.9525,71.4422,919.9916,72.3398,917.9144,72.947,916,73.9609,916.1305,74.0914,916.6514,73.0124,917.5534,72.3143,918.5018,71.6627,919.1798,70.7407,920,69.9609,920.0161,69.977,919.1925,69.1534,918.4421,68.403,917.6564,67.6173,916.938,66.899,916,65.9609" style="stroke:#181818;stroke-width:1.0;"/><path d="M60,69.9609 L60,70.2412 L70.0233,69.4085 L80.0465,70.2187 L90.0698,70.4938 L100.093,69.0097 L110.1163,69.8573 L120.1395,69.3923 L130.1628,69.4496 L140.186,69.8701 L150.2093,69.0391 L160.2326,70.6991 L170.2558,69.1206 L180.2791,69.6972 L190.3023,70.5369 L200.3256,69.8466 L210.3488,70.0519 L220.3721,69.9183 L230.3953,70.199 L240.4186,70.2798 L250.4419,70.7419 L260.4651,70.8557 L270.4884,70.8666 L280.5116,70.3004 L290.5349,70.5791 L300.5581,70.8972 L310.5814,68.9994 L320.6047,70.8656 L330.6279,69.5656 L340.6512,70.6727 L350.6744,69.3009 L360.6977,69.8696 L370.7209,70.9497 L380.7442,69.896 L390.7674,70.1013 L400.7907,70.4124 L410.814,70.5159 L420.8372,69.9557 L430.8605,70.3439 L440.8837,69.1977 L450.907,70.3401 L460.9302,70.6919 L470.9535,70.5536 L480.9767,70.7783 L491,69.3168 L501.0233,69.0914 L511.0465,69.1324 L521.0698,69.8824 L531.093,69.6989 L541.1163,70.8695 L551.1395,69.728 L561.1628,69.5035 L571.186,70.2653 L581.2093,69.0718 L591.2326,69.2688 L601.2558,70.8262 L611.2791,70.5418 L621.3023,70.9403 L631.3256,69.5319 L641.3488,70.3865 L651.3721,70.7482 L661.3953,69.3311 L671.4186,69.8331 L681.4419,70.1289 L691.4651,70.83 L701.4884,69.9553 L711.5116,70.5777 L721.5349,69.2226 L731.5581,69.0579 L741.5814,70.6324 L751.6047,69.005 L761.6279,70.6396 L771.6512,70.2364 L781.6744,69.6037 L791.6977,69.4892 L801.7209,70.5726 L811.7442,69.5618 L821.7674,70.7501 L831.7907,69.2239 L841.814,70.7842 L851.8372,70.6067 L861.8605,70.2876 L871.8837,70.0239 L881.907,70.9298 L891.9302,70.779 L901.9535,70.1866 L911.9767,70.3185 L922,69.9609 " fill="none" style="stroke:#181818;stroke-width:1.0;"/><text fill="#000000" font-family="FG Virgil" font-size="13" font-weight="bold" lengthAdjust="spacing" textLength="7" x="470.5" y="65.1045">1</text><text fill="#000000" font-family="FG Virgil" font-size="13" lengthAdjust="spacing" textLength="36" x="481.5" y="65.1045">create</text><polygon fill="#181818" points="1120,96.3125,1120.026,96.3775,1121.9487,96.9843,1124.0239,97.9723,1126.0495,98.8362,1127.9117,99.2917,1130,100.3125,1129.9904,100.2884,1127.9472,100.9805,1125.9525,101.7938,1123.9916,102.6914,1121.9144,103.2985,1120,104.3125,1120.1305,104.443,1120.6514,103.3639,1121.5534,102.6659,1122.5018,102.0143,1123.1798,101.0923,1124,100.3125,1124.0161,100.3286,1123.1925,99.505,1122.4421,98.7546,1121.6564,97.9689,1120.938,97.2505,1120,96.3125" style="stroke:#181818;stroke-width:1.0;"/><path d="M60,100.3125 L60,100.5927 L69.9626,99.7601 L79.9252,100.5702 L89.8879,100.8454 L99.8505,99.3613 L109.8131,100.2089 L119.7757,99.7438 L129.7383,99.8012 L139.7009,100.2216 L149.6636,99.3907 L159.6262,101.0507 L169.5888,99.4721 L179.5514,100.0488 L189.514,100.8884 L199.4766,100.1981 L209.4393,100.4035 L219.4019,100.2699 L229.3645,100.5505 L239.3271,100.6313 L249.2897,101.0934 L259.2523,101.2072 L269.215,101.2182 L279.1776,100.652 L289.1402,100.9306 L299.1028,101.2488 L309.0654,99.3509 L319.028,101.2172 L328.9907,99.9172 L338.9533,101.0242 L348.9159,99.6525 L358.8785,100.2212 L368.8411,101.3013 L378.8037,100.2475 L388.7664,100.4529 L398.729,100.764 L408.6916,100.8675 L418.6542,100.3073 L428.6168,100.6955 L438.5794,99.5493 L448.5421,100.6917 L458.5047,101.0434 L468.4673,100.9052 L478.4299,101.1299 L488.3925,99.6684 L498.3551,99.4429 L508.3178,99.484 L518.2804,100.234 L528.243,100.0505 L538.2056,101.221 L548.1682,100.0796 L558.1308,99.8551 L568.0935,100.6169 L578.0561,99.4234 L588.0187,99.6203 L597.9813,101.1778 L607.9439,100.8934 L617.9065,101.2918 L627.8692,99.8834 L637.8318,100.7381 L647.7944,101.0997 L657.757,99.6826 L667.7196,100.1847 L677.6822,100.4805 L687.6449,101.1815 L697.6075,100.3069 L707.5701,100.9293 L717.5327,99.5741 L727.4953,99.4095 L737.4579,100.984 L747.4206,99.3566 L757.3832,100.9911 L767.3458,100.588 L777.3084,99.9553 L787.271,99.8408 L797.2336,100.9242 L807.1963,99.9134 L817.1589,101.1016 L827.1215,99.5755 L837.0841,101.1357 L847.0467,100.9582 L857.0093,100.6391 L866.972,100.3755 L876.9346,101.2813 L886.8972,101.1306 L896.8598,100.5382 L906.8224,100.6701 L916.785,100.1388 L926.7477,101.2678 L936.7103,100.519 L946.6729,100.5426 L956.6355,99.5014 L966.5981,99.7722 L976.5607,101.0202 L986.5234,100.8855 L996.486,100.2553 L1006.4486,99.8829 L1016.4112,100.0206 L1026.3738,99.3976 L1036.3364,100.8655 L1046.2991,101.2986 L1056.2617,101.0144 L1066.2243,101.2391 L1076.1869,100.1302 L1086.1495,100.4288 L1096.1121,99.7957 L1106.0748,100.6912 L1116.0374,100.6415 L1126,100.3125 " fill="none" style="stroke:#181818;stroke-width:1.0;"/><text fill="#000000" font-family="FG Virgil" font-size="13" font-weight="bold" lengthAdjust="spacing" textLength="7" x="550" y="95.4561">2</text><text fill="#000000" font-family="FG Virgil" font-size="13" lengthAdjust="spacing" textLength="81" x="561" y="95.4561">getCustomers</text><polygon fill="#181818" points="1446,126.6641,1446.026,126.7291,1447.9487,127.3358,1450.0239,128.3239,1452.0495,129.1878,1453.9117,129.6433,1456,130.6641,1455.9904,130.64,1453.9472,131.3321,1451.9525,132.1454,1449.9916,133.043,1447.9144,133.6501,1446,134.6641,1446.1305,134.7946,1446.6514,133.7155,1447.5534,133.0174,1448.5018,132.3659,1449.1798,131.4438,1450,130.6641,1450.0161,130.6801,1449.1925,129.8565,1448.4421,129.1061,1447.6564,128.3204,1446.938,127.6021,1446,126.6641" style="stroke:#181818;stroke-width:1.0;"/><path d="M1132,130.6641 L1132,130.9443 L1142,130.1116 L1152,130.9218 L1162,131.197 L1172,129.7129 L1182,130.5604 L1192,130.0954 L1202,130.1527 L1212,130.5732 L1222,129.7422 L1232,131.4023 L1242,129.8237 L1252,130.4004 L1262,131.24 L1272,130.5497 L1282,130.755 L1292,130.6215 L1302,130.9021 L1312,130.9829 L1322,131.445 L1332,131.5588 L1342,131.5697 L1352,131.0036 L1362,131.2822 L1372,131.6004 L1382,129.7025 L1392,131.5687 L1402,130.2687 L1412,131.3758 L1422,130.004 L1432,130.5727 L1442,131.6529 L1452,130.6641 " fill="none" style="stroke:#181818;stroke-width:1.0;"/><text fill="#000000" font-family="FG Virgil" font-size="13" font-weight="bold" lengthAdjust="spacing" textLength="7" x="1252" y="125.8076">3</text><text fill="#000000" font-family="FG Virgil" font-size="13" lengthAdjust="spacing" textLength="75" x="1263" y="125.8076">repositories()</text><polygon fill="#181818" points="1593,157.0156,1593.026,157.0807,1594.9487,157.6874,1597.0239,158.6754,1599.0495,159.5393,1600.9117,159.9948,1603,161.0156,1602.9904,160.9916,1600.9472,161.6836,1598.9525,162.4969,1596.9916,163.3945,1594.9144,164.0017,1593,165.0156,1593.1305,165.1461,1593.6514,164.0671,1594.5534,163.369,1595.5018,162.7174,1596.1798,161.7954,1597,161.0156,1597.0161,161.0317,1596.1925,160.2081,1595.4421,159.4577,1594.6564,158.672,1593.938,157.9537,1593,157.0156" style="stroke:#181818;stroke-width:1.0;"/><path d="M1458,161.0156 L1458,161.2959 L1468.0714,160.4632 L1478.1429,161.2733 L1488.2143,161.5485 L1498.2857,160.0644 L1508.3571,160.912 L1518.4286,160.447 L1528.5,160.5043 L1538.5714,160.9247 L1548.6429,160.0938 L1558.7143,161.7538 L1568.7857,160.1753 L1578.8571,160.7519 L1588.9286,161.5916 L1599,161.0156 " fill="none" style="stroke:#181818;stroke-width:1.0;"/><text fill="#000000" font-family="FG Virgil" font-size="13" font-weight="bold" lengthAdjust="spacing" textLength="7" x="1508" y="156.1592">4</text><text fill="#000000" font-family="FG Virgil" font-size="13" lengthAdjust="spacing" textLength="36" x="1519" y="156.1592">create</text><polygon fill="#181818" points="1876.5,187.3672,1876.526,187.4322,1878.4487,188.039,1880.5239,189.027,1882.5495,189.8909,1884.4117,190.3464,1886.5,191.3672,1886.4904,191.3431,1884.4472,192.0352,1882.4525,192.8485,1880.4916,193.7461,1878.4144,194.3532,1876.5,195.3672,1876.6305,195.4977,1877.1514,194.4186,1878.0534,193.7206,1879.0018,193.069,1879.6798,192.147,1880.5,191.3672,1880.5161,191.3833,1879.6925,190.5597,1878.9421,189.8093,1878.1564,189.0236,1877.438,188.3052,1876.5,187.3672" style="stroke:#181818;stroke-width:1.0;"/><path d="M1605,191.3672 L1605,191.6474 L1614.9107,190.8148 L1624.8214,191.6249 L1634.7321,191.9001 L1644.6429,190.416 L1654.5536,191.2636 L1664.4643,190.7985 L1674.375,190.8559 L1684.2857,191.2763 L1694.1964,190.4454 L1704.1071,192.1054 L1714.0179,190.5268 L1723.9286,191.1035 L1733.8393,191.9431 L1743.75,191.2528 L1753.6607,191.4582 L1763.5714,191.3246 L1773.4821,191.6052 L1783.3929,191.686 L1793.3036,192.1481 L1803.2143,192.2619 L1813.125,192.2729 L1823.0357,191.7067 L1832.9464,191.9853 L1842.8571,192.3035 L1852.7679,190.4056 L1862.6786,192.2719 L1872.5893,190.9718 L1882.5,191.3672 " fill="none" style="stroke:#181818;stroke-width:1.0;"/><text fill="#000000" font-family="FG Virgil" font-size="13" font-weight="bold" lengthAdjust="spacing" textLength="7" x="1723.25" y="186.5107">5</text><text fill="#000000" font-family="FG Virgil" font-size="13" lengthAdjust="spacing" textLength="36" x="1734.25" y="186.5107">create</text><polygon fill="#181818" points="1876.5,217.7188,1876.526,217.7838,1878.4487,218.3905,1880.5239,219.3786,1882.5495,220.2424,1884.4117,220.698,1886.5,221.7188,1886.4904,221.6947,1884.4472,222.3868,1882.4525,223.2001,1880.4916,224.0977,1878.4144,224.7048,1876.5,225.7188,1876.6305,225.8492,1877.1514,224.7702,1878.0534,224.0721,1879.0018,223.4206,1879.6798,222.4985,1880.5,221.7188,1880.5161,221.7348,1879.6925,220.9112,1878.9421,220.1608,1878.1564,219.3751,1877.438,218.6568,1876.5,217.7188" style="stroke:#181818;stroke-width:1.0;"/><path d="M1132,221.7188 L1132,221.999 L1142.0067,221.1663 L1152.0133,221.9765 L1162.02,222.2517 L1172.0267,220.7676 L1182.0333,221.6151 L1192.04,221.1501 L1202.0467,221.2074 L1212.0533,221.6279 L1222.06,220.7969 L1232.0667,222.4569 L1242.0733,220.8784 L1252.08,221.4551 L1262.0867,222.2947 L1272.0933,221.6044 L1282.1,221.8097 L1292.1067,221.6762 L1302.1133,221.9568 L1312.12,222.0376 L1322.1267,222.4997 L1332.1333,222.6135 L1342.14,222.6244 L1352.1467,222.0583 L1362.1533,222.3369 L1372.16,222.6551 L1382.1667,220.7572 L1392.1733,222.6234 L1402.18,221.3234 L1412.1867,222.4305 L1422.1933,221.0587 L1432.2,221.6274 L1442.2067,222.7076 L1452.2133,221.6538 L1462.22,221.8592 L1472.2267,222.1703 L1482.2333,222.2737 L1492.24,221.7135 L1502.2467,222.1017 L1512.2533,220.9555 L1522.26,222.0979 L1532.2667,222.4497 L1542.2733,222.3115 L1552.28,222.5361 L1562.2867,221.0746 L1572.2933,220.8492 L1582.3,220.8902 L1592.3067,221.6402 L1602.3133,221.4567 L1612.32,222.6273 L1622.3267,221.4858 L1632.3333,221.2613 L1642.34,222.0231 L1652.3467,220.8296 L1662.3533,221.0266 L1672.36,222.584 L1682.3667,222.2996 L1692.3733,222.6981 L1702.38,221.2897 L1712.3867,222.1443 L1722.3933,222.506 L1732.4,221.0889 L1742.4067,221.5909 L1752.4133,221.8867 L1762.42,222.5878 L1772.4267,221.7132 L1782.4333,222.3355 L1792.44,220.9804 L1802.4467,220.8157 L1812.4533,222.3902 L1822.46,220.7628 L1832.4667,222.3974 L1842.4733,221.9943 L1852.48,221.3615 L1862.4867,221.2471 L1872.4933,222.3304 L1882.5,221.7188 " fill="none" style="stroke:#181818;stroke-width:1.0;"/><text fill="#000000" font-family="FG Virgil" font-size="13" font-weight="bold" lengthAdjust="spacing" textLength="7" x="1462.75" y="216.8623">6</text><text fill="#000000" font-family="FG Virgil" font-size="13" lengthAdjust="spacing" textLength="84" x="1473.75" y="216.8623">allCustomers()</text><polygon fill="#181818" points="71,248.0703,71.026,248.1354,68.9487,248.7421,67.0239,249.7301,65.0495,250.594,62.9117,251.0495,61,252.0703,60.9904,252.0463,62.9472,252.7383,64.9525,253.5516,66.9916,254.4492,68.9144,255.0563,71,256.0703,71.1305,256.2008,70.0514,255.1218,69.3534,254.4237,68.7018,253.7721,67.7798,252.8501,67,252.0703,67.0161,252.0864,67.7925,251.2628,68.6421,250.5124,69.4564,249.7267,70.338,249.0084,71,248.0703" style="stroke:#181818;stroke-width:1.0;"/><path d="M65,252.0703 L65,252.3506 L74.9626,251.5179 L84.9252,252.328 L94.8879,252.6032 L104.8505,251.1191 L114.8131,251.9667 L124.7757,251.5017 L134.7383,251.559 L144.7009,251.9794 L154.6636,251.1485 L164.6262,252.8085 L174.5888,251.2299 L184.5514,251.8066 L194.514,252.6462 L204.4766,251.9559 L214.4393,252.1613 L224.4019,252.0277 L234.3645,252.3083 L244.3271,252.3892 L254.2897,252.8512 L264.2523,252.9651 L274.215,252.976 L284.1776,252.4098 L294.1402,252.6884 L304.1028,253.0066 L314.0654,251.1087 L324.028,252.975 L333.9907,251.675 L343.9533,252.7821 L353.9159,251.4103 L363.8785,251.979 L373.8411,253.0591 L383.8037,252.0053 L393.7664,252.2107 L403.729,252.5218 L413.6916,252.6253 L423.6542,252.0651 L433.6168,252.4533 L443.5794,251.3071 L453.5421,252.4495 L463.5047,252.8012 L473.4673,252.663 L483.4299,252.8877 L493.3925,251.4262 L503.3551,251.2007 L513.3178,251.2418 L523.2804,251.9918 L533.243,251.8083 L543.2056,252.9789 L553.1682,251.8374 L563.1308,251.6129 L573.0935,252.3747 L583.0561,251.1812 L593.0187,251.3781 L602.9813,252.9356 L612.9439,252.6512 L622.9065,253.0496 L632.8692,251.6413 L642.8318,252.4959 L652.7944,252.8575 L662.757,251.4404 L672.7196,251.9425 L682.6822,252.2383 L692.6449,252.9393 L702.6075,252.0647 L712.5701,252.6871 L722.5327,251.3319 L732.4953,251.1673 L742.4579,252.7418 L752.4206,251.1144 L762.3832,252.7489 L772.3458,252.3458 L782.3084,251.7131 L792.271,251.5986 L802.2336,252.682 L812.1963,251.6712 L822.1589,252.8595 L832.1215,251.3333 L842.0841,252.8935 L852.0467,252.7161 L862.0093,252.3969 L871.972,252.1333 L881.9346,253.0391 L891.8972,252.8884 L901.8598,252.296 L911.8224,252.4279 L921.785,251.8966 L931.7477,253.0256 L941.7103,252.2768 L951.6729,252.3004 L961.6355,251.2592 L971.5981,251.53 L981.5607,252.778 L991.5234,252.6433 L1001.486,252.0131 L1011.4486,251.6408 L1021.4112,251.7784 L1031.3738,251.1554 L1041.3364,252.6233 L1051.2991,253.0564 L1061.2617,252.7722 L1071.2243,252.9969 L1081.1869,251.888 L1091.1495,252.1866 L1101.1121,251.5535 L1111.0748,252.449 L1121.0374,252.3993 L1131,252.0703 " fill="none" style="stroke:#181818;stroke-width:1.0;stroke-dasharray:2.0,2.0;"/><text fill="#000000" font-family="FG Virgil" font-size="13" font-weight="bold" lengthAdjust="spacing" textLength="7" x="560" y="247.2139">7</text><text fill="#000000" font-family="FG Virgil" font-size="13" lengthAdjust="spacing" textLength="61" x="571" y="247.2139">customers</text><polygon fill="#181818" points="1290.5,278.4219,1290.526,278.4869,1292.4487,279.0936,1294.5239,280.0817,1296.5495,280.9456,1298.4117,281.4011,1300.5,282.4219,1300.4904,282.3978,1298.4472,283.0899,1296.4525,283.9032,1294.4916,284.8008,1292.4144,285.4079,1290.5,286.4219,1290.6305,286.5524,1291.1514,285.4733,1292.0534,284.7753,1293.0018,284.1237,1293.6798,283.2017,1294.5,282.4219,1294.5161,282.438,1293.6925,281.6143,1292.9421,280.864,1292.1564,280.0782,1291.438,279.3599,1290.5,278.4219" style="stroke:#181818;stroke-width:1.0;"/><path d="M60,282.4219 L60,282.7021 L69.9718,281.8694 L79.9435,282.6796 L89.9153,282.9548 L99.8871,281.4707 L109.8589,282.3183 L119.8306,281.8532 L129.8024,281.9105 L139.7742,282.331 L149.746,281.5 L159.7177,283.1601 L169.6895,281.5815 L179.6613,282.1582 L189.6331,282.9978 L199.6048,282.3075 L209.5766,282.5129 L219.5484,282.3793 L229.5202,282.6599 L239.4919,282.7407 L249.4637,283.2028 L259.4355,283.3166 L269.4073,283.3276 L279.379,282.7614 L289.3508,283.04 L299.3226,283.3582 L309.2944,281.4603 L319.2661,283.3266 L329.2379,282.0265 L339.2097,283.1336 L349.1815,281.7618 L359.1532,282.3305 L369.125,283.4107 L379.0968,282.3569 L389.0685,282.5623 L399.0403,282.8734 L409.0121,282.9769 L418.9839,282.4167 L428.9556,282.8048 L438.9274,281.6587 L448.8992,282.8011 L458.871,283.1528 L468.8427,283.0146 L478.8145,283.2392 L488.7863,281.7778 L498.7581,281.5523 L508.7298,281.5933 L518.7016,282.3434 L528.6734,282.1598 L538.6452,283.3304 L548.6169,282.189 L558.5887,281.9645 L568.5605,282.7262 L578.5323,281.5328 L588.504,281.7297 L598.4758,283.2871 L608.4476,283.0028 L618.4194,283.4012 L628.3911,281.9928 L638.3629,282.8475 L648.3347,283.2091 L658.3065,281.792 L668.2782,282.2941 L678.25,282.5899 L688.2218,283.2909 L698.1935,282.4163 L708.1653,283.0386 L718.1371,281.6835 L728.1089,281.5189 L738.0806,283.0934 L748.0524,281.466 L758.0242,283.1005 L767.996,282.6974 L777.9677,282.0647 L787.9395,281.9502 L797.9113,283.0336 L807.8831,282.0228 L817.8548,283.211 L827.8266,281.6849 L837.7984,283.2451 L847.7702,283.0676 L857.7419,282.7485 L867.7137,282.4848 L877.6855,283.3907 L887.6573,283.24 L897.629,282.6475 L907.6008,282.7795 L917.5726,282.2482 L927.5444,283.3771 L937.5161,282.6284 L947.4879,282.652 L957.4597,281.6107 L967.4315,281.8816 L977.4032,283.1295 L987.375,282.9949 L997.3468,282.3646 L1007.3185,281.9923 L1017.2903,282.13 L1027.2621,281.507 L1037.2339,282.9749 L1047.2056,283.408 L1057.1774,283.1237 L1067.1492,283.3485 L1077.121,282.2396 L1087.0927,282.5382 L1097.0645,281.9051 L1107.0363,282.8006 L1117.0081,282.7509 L1126.9798,283.1584 L1136.9516,282.1157 L1146.9234,282.2427 L1156.8952,283.0132 L1166.8669,283.1783 L1176.8387,281.7385 L1186.8105,282.1634 L1196.7823,282.6209 L1206.754,281.6074 L1216.7258,282.8931 L1226.6976,282.7659 L1236.6694,282.2875 L1246.6411,282.6115 L1256.6129,283.3934 L1266.5847,282.0047 L1276.5565,282.8419 L1286.5282,282.8027 L1296.5,282.4219 " fill="none" style="stroke:#181818;stroke-width:1.0;"/><text fill="#000000" font-family="FG Virgil" font-size="13" font-weight="bold" lengthAdjust="spacing" textLength="7" x="640.75" y="277.5654">8</text><text fill="#000000" font-family="FG Virgil" font-size="13" lengthAdjust="spacing" textLength="70" x="651.75" y="277.5654">getProducts</text><polygon fill="#181818" points="1446,308.7734,1446.026,308.8385,1447.9487,309.4452,1450.0239,310.4333,1452.0495,311.2971,1453.9117,311.7526,1456,312.7734,1455.9904,312.7494,1453.9472,313.4414,1451.9525,314.2547,1449.9916,315.1523,1447.9144,315.7595,1446,316.7734,1446.1305,316.9039,1446.6514,315.8249,1447.5534,315.1268,1448.5018,314.4752,1449.1798,313.5532,1450,312.7734,1450.0161,312.7895,1449.1925,311.9659,1448.4421,311.2155,1447.6564,310.4298,1446.938,309.7115,1446,308.7734" style="stroke:#181818;stroke-width:1.0;"/><path d="M1302.5,312.7734 L1302.5,313.0537 L1312.4667,312.221 L1322.4333,313.0312 L1332.4,313.3063 L1342.3667,311.8222 L1352.3333,312.6698 L1362.3,312.2048 L1372.2667,312.2621 L1382.2333,312.6826 L1392.2,311.8516 L1402.1667,313.5116 L1412.1333,311.9331 L1422.1,312.5097 L1432.0667,313.3494 L1442.0333,312.6591 L1452,312.7734 " fill="none" style="stroke:#181818;stroke-width:1.0;"/><text fill="#000000" font-family="FG Virgil" font-size="13" font-weight="bold" lengthAdjust="spacing" textLength="7" x="1337.25" y="307.917">9</text><text fill="#000000" font-family="FG Virgil" font-size="13" lengthAdjust="spacing" textLength="75" x="1348.25" y="307.917">repositories()</text><polygon fill="#181818" points="1593,339.125,1593.026,339.19,1594.9487,339.7968,1597.0239,340.7848,1599.0495,341.6487,1600.9117,342.1042,1603,343.125,1602.9904,343.1009,1600.9472,343.793,1598.9525,344.6063,1596.9916,345.5039,1594.9144,346.111,1593,347.125,1593.1305,347.2555,1593.6514,346.1764,1594.5534,345.4784,1595.5018,344.8268,1596.1798,343.9048,1597,343.125,1597.0161,343.1411,1596.1925,342.3175,1595.4421,341.5671,1594.6564,340.7814,1593.938,340.063,1593,339.125" style="stroke:#181818;stroke-width:1.0;"/><path d="M1458,343.125 L1458,343.4052 L1468.0714,342.5726 L1478.1429,343.3827 L1488.2143,343.6579 L1498.2857,342.1738 L1508.3571,343.0214 L1518.4286,342.5563 L1528.5,342.6137 L1538.5714,343.0341 L1548.6429,342.2032 L1558.7143,343.8632 L1568.7857,342.2846 L1578.8571,342.8613 L1588.9286,343.7009 L1599,343.125 " fill="none" style="stroke:#181818;stroke-width:1.0;"/><text fill="#000000" font-family="FG Virgil" font-size="13" font-weight="bold" lengthAdjust="spacing" textLength="14" x="1504.5" y="338.2686">10</text><text fill="#000000" font-family="FG Virgil" font-size="13" lengthAdjust="spacing" textLength="36" x="1522.5" y="338.2686">create</text><polygon fill="#181818" points="2027.5,369.4766,2027.526,369.5416,2029.4487,370.1483,2031.5239,371.1364,2033.5495,372.0003,2035.4117,372.4558,2037.5,373.4766,2037.4904,373.4525,2035.4472,374.1446,2033.4525,374.9579,2031.4916,375.8555,2029.4144,376.4626,2027.5,377.4766,2027.6305,377.6071,2028.1514,376.528,2029.0534,375.8299,2030.0018,375.1784,2030.6798,374.2563,2031.5,373.4766,2031.5161,373.4926,2030.6925,372.669,2029.9421,371.9186,2029.1564,371.1329,2028.438,370.4146,2027.5,369.4766" style="stroke:#181818;stroke-width:1.0;"/><path d="M1605,373.4766 L1605,373.7568 L1614.9651,372.9241 L1624.9302,373.7343 L1634.8953,374.0095 L1644.8605,372.5254 L1654.8256,373.3729 L1664.7907,372.9079 L1674.7558,372.9652 L1684.7209,373.3857 L1694.686,372.5547 L1704.6512,374.2148 L1714.6163,372.6362 L1724.5814,373.2129 L1734.5465,374.0525 L1744.5116,373.3622 L1754.4767,373.5675 L1764.4419,373.434 L1774.407,373.7146 L1784.3721,373.7954 L1794.3372,374.2575 L1804.3023,374.3713 L1814.2674,374.3822 L1824.2326,373.8161 L1834.1977,374.0947 L1844.1628,374.4129 L1854.1279,372.515 L1864.093,374.3812 L1874.0581,373.0812 L1884.0233,374.1883 L1893.9884,372.8165 L1903.9535,373.3852 L1913.9186,374.4654 L1923.8837,373.4116 L1933.8488,373.617 L1943.814,373.9281 L1953.7791,374.0315 L1963.7442,373.4714 L1973.7093,373.8595 L1983.6744,372.7133 L1993.6395,373.8557 L2003.6047,374.2075 L2013.5698,374.0693 L2023.5349,374.2939 L2033.5,373.4766 " fill="none" style="stroke:#181818;stroke-width:1.0;"/><text fill="#000000" font-family="FG Virgil" font-size="13" font-weight="bold" lengthAdjust="spacing" textLength="14" x="1795.25" y="368.6201">11</text><text fill="#000000" font-family="FG Virgil" font-size="13" lengthAdjust="spacing" textLength="36" x="1813.25" y="368.6201">create</text><polygon fill="#181818" points="2027.5,399.8281,2027.526,399.8932,2029.4487,400.4999,2031.5239,401.4879,2033.5495,402.3518,2035.4117,402.8073,2037.5,403.8281,2037.4904,403.8041,2035.4472,404.4961,2033.4525,405.3094,2031.4916,406.207,2029.4144,406.8142,2027.5,407.8281,2027.6305,407.9586,2028.1514,406.8796,2029.0534,406.1815,2030.0018,405.5299,2030.6798,404.6079,2031.5,403.8281,2031.5161,403.8442,2030.6925,403.0206,2029.9421,402.2702,2029.1564,401.4845,2028.438,400.7662,2027.5,399.8281" style="stroke:#181818;stroke-width:1.0;"/><path d="M1302.5,403.8281 L1302.5,404.1084 L1312.5137,403.2757 L1322.5274,404.0858 L1332.5411,404.361 L1342.5548,402.8769 L1352.5685,403.7245 L1362.5822,403.2595 L1372.5959,403.3168 L1382.6096,403.7372 L1392.6233,402.9063 L1402.637,404.5663 L1412.6507,402.9878 L1422.6644,403.5644 L1432.6781,404.4041 L1442.6918,403.7138 L1452.7055,403.9191 L1462.7192,403.7855 L1472.7329,404.0662 L1482.7466,404.147 L1492.7603,404.609 L1502.774,404.7229 L1512.7877,404.7338 L1522.8014,404.1676 L1532.8151,404.4462 L1542.8288,404.7644 L1552.8425,402.8665 L1562.8562,404.7328 L1572.8699,403.4328 L1582.8836,404.5399 L1592.8973,403.1681 L1602.911,403.7368 L1612.9247,404.8169 L1622.9384,403.7631 L1632.9521,403.9685 L1642.9658,404.2796 L1652.9795,404.3831 L1662.9932,403.8229 L1673.0068,404.2111 L1683.0205,403.0649 L1693.0342,404.2073 L1703.0479,404.5591 L1713.0616,404.4208 L1723.0753,404.6455 L1733.089,403.184 L1743.1027,402.9585 L1753.1164,402.9996 L1763.1301,403.7496 L1773.1438,403.5661 L1783.1575,404.7367 L1793.1712,403.5952 L1803.1849,403.3707 L1813.1986,404.1325 L1823.2123,402.939 L1833.226,403.136 L1843.2397,404.6934 L1853.2534,404.409 L1863.2671,404.8074 L1873.2808,403.3991 L1883.2945,404.2537 L1893.3082,404.6154 L1903.3219,403.1983 L1913.3356,403.7003 L1923.3493,403.9961 L1933.363,404.6971 L1943.3767,403.8225 L1953.3904,404.4449 L1963.4041,403.0897 L1973.4178,402.9251 L1983.4315,404.4996 L1993.4452,402.8722 L2003.4589,404.5067 L2013.4726,404.1036 L2023.4863,403.4709 L2033.5,403.8281 " fill="none" style="stroke:#181818;stroke-width:1.0;"/><text fill="#000000" font-family="FG Virgil" font-size="13" font-weight="bold" lengthAdjust="spacing" textLength="14" x="1615.5" y="398.9717">12</text><text fill="#000000" font-family="FG Virgil" font-size="13" lengthAdjust="spacing" textLength="93" x="1633.5" y="398.9717">activeProducts()</text><polygon fill="#181818" points="71,430.1797,71.026,430.2447,68.9487,430.8515,67.0239,431.8395,65.0495,432.7034,62.9117,433.1589,61,434.1797,60.9904,434.1556,62.9472,434.8477,64.9525,435.661,66.9916,436.5586,68.9144,437.1657,71,438.1797,71.1305,438.3102,70.0514,437.2311,69.3534,436.5331,68.7018,435.8815,67.7798,434.9595,67,434.1797,67.0161,434.1958,67.7925,433.3722,68.6421,432.6218,69.4564,431.8361,70.338,431.1177,71,430.1797" style="stroke:#181818;stroke-width:1.0;"/><path d="M65,434.1797 L65,434.4599 L74.9718,433.6273 L84.9435,434.4374 L94.9153,434.7126 L104.8871,433.2285 L114.8589,434.0761 L124.8306,433.611 L134.8024,433.6684 L144.7742,434.0888 L154.746,433.2579 L164.7177,434.9179 L174.6895,433.3393 L184.6613,433.916 L194.6331,434.7556 L204.6048,434.0653 L214.5766,434.2707 L224.5484,434.1371 L234.5202,434.4177 L244.4919,434.4985 L254.4637,434.9606 L264.4355,435.0744 L274.4073,435.0854 L284.379,434.5192 L294.3508,434.7978 L304.3226,435.116 L314.2944,433.2181 L324.2661,435.0844 L334.2379,433.7843 L344.2097,434.8914 L354.1815,433.5197 L364.1532,434.0884 L374.125,435.1685 L384.0968,434.1147 L394.0685,434.3201 L404.0403,434.6312 L414.0121,434.7347 L423.9839,434.1745 L433.9556,434.5626 L443.9274,433.4165 L453.8992,434.5589 L463.871,434.9106 L473.8427,434.7724 L483.8145,434.9971 L493.7863,433.5356 L503.7581,433.3101 L513.7298,433.3512 L523.7016,434.1012 L533.6734,433.9176 L543.6452,435.0882 L553.6169,433.9468 L563.5887,433.7223 L573.5605,434.484 L583.5323,433.2906 L593.504,433.4875 L603.4758,435.045 L613.4476,434.7606 L623.4194,435.159 L633.3911,433.7506 L643.3629,434.6053 L653.3347,434.9669 L663.3065,433.5498 L673.2782,434.0519 L683.25,434.3477 L693.2218,435.0487 L703.1935,434.1741 L713.1653,434.7964 L723.1371,433.4413 L733.1089,433.2767 L743.0806,434.8512 L753.0524,433.2238 L763.0242,434.8583 L772.996,434.4552 L782.9677,433.8225 L792.9395,433.708 L802.9113,434.7914 L812.8831,433.7806 L822.8548,434.9688 L832.8266,433.4427 L842.7984,435.0029 L852.7702,434.8254 L862.7419,434.5063 L872.7137,434.2426 L882.6855,435.1485 L892.6573,434.9978 L902.629,434.4054 L912.6008,434.5373 L922.5726,434.006 L932.5444,435.135 L942.5161,434.3862 L952.4879,434.4098 L962.4597,433.3686 L972.4315,433.6394 L982.4032,434.8874 L992.375,434.7527 L1002.3468,434.1224 L1012.3185,433.7501 L1022.2903,433.8878 L1032.2621,433.2648 L1042.2339,434.7327 L1052.2056,435.1658 L1062.1774,434.8815 L1072.1492,435.1063 L1082.121,433.9974 L1092.0927,434.296 L1102.0645,433.6629 L1112.0363,434.5584 L1122.0081,434.5087 L1131.9798,434.9162 L1141.9516,433.8735 L1151.9234,434.0005 L1161.8952,434.771 L1171.8669,434.9361 L1181.8387,433.4963 L1191.8105,433.9212 L1201.7823,434.3787 L1211.754,433.3652 L1221.7258,434.6509 L1231.6976,434.5237 L1241.6694,434.0453 L1251.6411,434.3694 L1261.6129,435.1513 L1271.5847,433.7625 L1281.5565,434.5997 L1291.5282,434.5606 L1301.5,434.1797 " fill="none" style="stroke:#181818;stroke-width:1.0;stroke-dasharray:2.0,2.0;"/><text fill="#000000" font-family="FG Virgil" font-size="13" font-weight="bold" lengthAdjust="spacing" textLength="14" x="647.25" y="429.3232">13</text><text fill="#000000" font-family="FG Virgil" font-size="13" lengthAdjust="spacing" textLength="50" x="665.25" y="429.3232">products</text><path d="M60,464.5313 L60,464.6247 L68.4,464.3471 L76.8,464.6172 L85.2,464.7089 L93.6,464.2142 L102,464.5313 " fill="none" style="stroke:#181818;stroke-width:1.0;"/><path d="M102,464.5313 L102.0934,464.5313 L101.8159,467.1313 L102.0859,469.7313 L102.1776,472.3313 L101.6829,474.9313 L102,477.5313 " fill="none" style="stroke:#181818;stroke-width:1.0;"/><path d="M61,477.5313 L61,477.6247 L69.2,477.3471 L77.4,477.6172 L85.6,477.7089 L93.8,477.2142 L102,477.5313 " fill="none" style="stroke:#181818;stroke-width:1.0;"/><polygon fill="#181818" points="71,473.5313,71.026,473.5963,68.9487,474.203,67.0239,475.1911,65.0495,476.0549,62.9117,476.5105,61,477.5313,60.9904,477.5072,62.9472,478.1993,64.9525,479.0126,66.9916,479.9102,68.9144,480.5173,71,481.5313,71.1305,481.6617,70.0514,480.5827,69.3534,479.8846,68.7018,479.2331,67.7798,478.311,67,477.5313,67.0161,477.5473,67.7925,476.7237,68.6421,475.9733,69.4564,475.1876,70.338,474.4693,71,473.5313" style="stroke:#181818;stroke-width:1.0;"/><text fill="#000000" font-family="FG Virgil" font-size="13" font-weight="bold" lengthAdjust="spacing" textLength="14" x="67" y="459.6748">14</text><text fill="#000000" font-family="FG Virgil" font-size="13" lengthAdjust="spacing" textLength="54" x="85" y="459.6748">doShow()</text><polygon fill="#181818" points="916,503.8828,916.026,503.9479,917.9487,504.5546,920.0239,505.5426,922.0495,506.4065,923.9117,506.862,926,507.8828,925.9904,507.8588,923.9472,508.5508,921.9525,509.3641,919.9916,510.2617,917.9144,510.8688,916,511.8828,916.1305,512.0133,916.6514,510.9343,917.5534,510.2362,918.5018,509.5846,919.1798,508.6626,920,507.8828,920.0161,507.8989,919.1925,507.0753,918.4421,506.3249,917.6564,505.5392,916.938,504.8209,916,503.8828" style="stroke:#181818;stroke-width:1.0;"/><path d="M60,507.8828 L60,508.1631 L70.0233,507.3304 L80.0465,508.1405 L90.0698,508.4157 L100.093,506.9316 L110.1163,507.7792 L120.1395,507.3142 L130.1628,507.3715 L140.186,507.7919 L150.2093,506.961 L160.2326,508.621 L170.2558,507.0424 L180.2791,507.6191 L190.3023,508.4587 L200.3256,507.7684 L210.3488,507.9738 L220.3721,507.8402 L230.3953,508.1208 L240.4186,508.2017 L250.4419,508.6637 L260.4651,508.7776 L270.4884,508.7885 L280.5116,508.2223 L290.5349,508.5009 L300.5581,508.8191 L310.5814,506.9212 L320.6047,508.7875 L330.6279,507.4875 L340.6512,508.5946 L350.6744,507.2228 L360.6977,507.7915 L370.7209,508.8716 L380.7442,507.8178 L390.7674,508.0232 L400.7907,508.3343 L410.814,508.4378 L420.8372,507.8776 L430.8605,508.2658 L440.8837,507.1196 L450.907,508.262 L460.9302,508.6137 L470.9535,508.4755 L480.9767,508.7002 L491,507.2387 L501.0233,507.0132 L511.0465,507.0543 L521.0698,507.8043 L531.093,507.6208 L541.1163,508.7914 L551.1395,507.6499 L561.1628,507.4254 L571.186,508.1872 L581.2093,506.9937 L591.2326,507.1906 L601.2558,508.7481 L611.2791,508.4637 L621.3023,508.8621 L631.3256,507.4538 L641.3488,508.3084 L651.3721,508.67 L661.3953,507.2529 L671.4186,507.755 L681.4419,508.0508 L691.4651,508.7518 L701.4884,507.8772 L711.5116,508.4996 L721.5349,507.1444 L731.5581,506.9798 L741.5814,508.5543 L751.6047,506.9269 L761.6279,508.5614 L771.6512,508.1583 L781.6744,507.5256 L791.6977,507.4111 L801.7209,508.4945 L811.7442,507.4837 L821.7674,508.672 L831.7907,507.1458 L841.814,508.706 L851.8372,508.5286 L861.8605,508.2094 L871.8837,507.9458 L881.907,508.8516 L891.9302,508.7009 L901.9535,508.1085 L911.9767,508.2404 L922,507.8828 " fill="none" style="stroke:#181818;stroke-width:1.0;"/><text fill="#000000" font-family="FG Virgil" font-size="13" font-weight="bold" lengthAdjust="spacing" textLength="14" x="72" y="503.0264">15</text><text fill="#000000" font-family="FG Virgil" font-size="13" lengthAdjust="spacing" textLength="826" x="90" y="503.0264">registerOrder(products, billing_address, delivering_address, paymentMethod, shipmentMethod, method, dateOfEncounter, comment, customer)</text><polygon fill="#181818" points="2132.5,534.2344,2132.526,534.2994,2134.4487,534.9061,2136.5239,535.8942,2138.5495,536.7581,2140.4117,537.2136,2142.5,538.2344,2142.4904,538.2103,2140.4472,538.9024,2138.4525,539.7157,2136.4916,540.6133,2134.4144,541.2204,2132.5,542.2344,2132.6305,542.3649,2133.1514,541.2858,2134.0534,540.5878,2135.0018,539.9362,2135.6798,539.0142,2136.5,538.2344,2136.5161,538.2505,2135.6925,537.4268,2134.9421,536.6765,2134.1564,535.8907,2133.438,535.1724,2132.5,534.2344" style="stroke:#181818;stroke-width:1.0;"/><path d="M928,538.2344 L928,538.5146 L938.0041,537.6819 L948.0083,538.4921 L958.0124,538.7673 L968.0165,537.2832 L978.0207,538.1308 L988.0248,537.6657 L998.0289,537.723 L1008.0331,538.1435 L1018.0372,537.3125 L1028.0413,538.9726 L1038.0455,537.394 L1048.0496,537.9707 L1058.0537,538.8103 L1068.0579,538.12 L1078.062,538.3254 L1088.0661,538.1918 L1098.0702,538.4724 L1108.0744,538.5532 L1118.0785,539.0153 L1128.0826,539.1291 L1138.0868,539.1401 L1148.0909,538.5739 L1158.095,538.8525 L1168.0992,539.1707 L1178.1033,537.2728 L1188.1074,539.1391 L1198.1116,537.839 L1208.1157,538.9461 L1218.1198,537.5743 L1228.124,538.143 L1238.1281,539.2232 L1248.1322,538.1694 L1258.1364,538.3748 L1268.1405,538.6859 L1278.1446,538.7894 L1288.1488,538.2292 L1298.1529,538.6173 L1308.157,537.4712 L1318.1612,538.6136 L1328.1653,538.9653 L1338.1694,538.8271 L1348.1736,539.0517 L1358.1777,537.5903 L1368.1818,537.3648 L1378.186,537.4058 L1388.1901,538.1559 L1398.1942,537.9723 L1408.1983,539.1429 L1418.2025,538.0015 L1428.2066,537.777 L1438.2107,538.5387 L1448.2149,537.3453 L1458.219,537.5422 L1468.2231,539.0996 L1478.2273,538.8153 L1488.2314,539.2137 L1498.2355,537.8053 L1508.2397,538.66 L1518.2438,539.0216 L1528.2479,537.6045 L1538.2521,538.1066 L1548.2562,538.4024 L1558.2603,539.1034 L1568.2645,538.2288 L1578.2686,538.8511 L1588.2727,537.496 L1598.2769,537.3314 L1608.281,538.9059 L1618.2851,537.2785 L1628.2893,538.913 L1638.2934,538.5099 L1648.2975,537.8772 L1658.3017,537.7627 L1668.3058,538.8461 L1678.3099,537.8353 L1688.314,539.0235 L1698.3182,537.4974 L1708.3223,539.0576 L1718.3264,538.8801 L1728.3306,538.561 L1738.3347,538.2973 L1748.3388,539.2032 L1758.343,539.0525 L1768.3471,538.46 L1778.3512,538.592 L1788.3554,538.0607 L1798.3595,539.1896 L1808.3636,538.4409 L1818.3678,538.4645 L1828.3719,537.4232 L1838.376,537.6941 L1848.3802,538.942 L1858.3843,538.8074 L1868.3884,538.1771 L1878.3926,537.8048 L1888.3967,537.9425 L1898.4008,537.3195 L1908.405,538.7874 L1918.4091,539.2205 L1928.4132,538.9362 L1938.4174,539.161 L1948.4215,538.0521 L1958.4256,538.3507 L1968.4298,537.7176 L1978.4339,538.6131 L1988.438,538.5634 L1998.4421,538.9709 L2008.4463,537.9282 L2018.4504,538.0552 L2028.4545,538.8257 L2038.4587,538.9908 L2048.4628,537.551 L2058.4669,537.9759 L2068.4711,538.4334 L2078.4752,537.4199 L2088.4793,538.7056 L2098.4835,538.5784 L2108.4876,538.1 L2118.4917,538.424 L2128.4959,539.2059 L2138.5,538.2344 " fill="none" style="stroke:#181818;stroke-width:1.0;"/><text fill="#000000" font-family="FG Virgil" font-size="13" font-weight="bold" lengthAdjust="spacing" textLength="14" x="1098.25" y="533.3779">16</text><text fill="#000000" font-family="FG Virgil" font-size="13" lengthAdjust="spacing" textLength="858" x="1116.25" y="533.3779">newOrder = create(products, billing_address, delivering_address, paymentMethod, shipmentMethod, method, dateOfEncounter, comment, customer)</text><polygon fill="#181818" points="1446,564.5859,1446.026,564.651,1447.9487,565.2577,1450.0239,566.2458,1452.0495,567.1096,1453.9117,567.5651,1456,568.5859,1455.9904,568.5619,1453.9472,569.2539,1451.9525,570.0672,1449.9916,570.9648,1447.9144,571.572,1446,572.5859,1446.1305,572.7164,1446.6514,571.6374,1447.5534,570.9393,1448.5018,570.2877,1449.1798,569.3657,1450,568.5859,1450.0161,568.602,1449.1925,567.7784,1448.4421,567.028,1447.6564,566.2423,1446.938,565.524,1446,564.5859" style="stroke:#181818;stroke-width:1.0;"/><path d="M928,568.5859 L928,568.8662 L938.0769,568.0335 L948.1538,568.8437 L958.2308,569.1188 L968.3077,567.6347 L978.3846,568.4823 L988.4615,568.0173 L998.5385,568.0746 L1008.6154,568.4951 L1018.6923,567.6641 L1028.7692,569.3241 L1038.8462,567.7456 L1048.9231,568.3222 L1059,569.1619 L1069.0769,568.4716 L1079.1538,568.6769 L1089.2308,568.5433 L1099.3077,568.824 L1109.3846,568.9048 L1119.4615,569.3669 L1129.5385,569.4807 L1139.6154,569.4916 L1149.6923,568.9254 L1159.7692,569.2041 L1169.8462,569.5222 L1179.9231,567.6244 L1190,569.4906 L1200.0769,568.1906 L1210.1538,569.2977 L1220.2308,567.9259 L1230.3077,568.4946 L1240.3846,569.5747 L1250.4615,568.521 L1260.5385,568.7263 L1270.6154,569.0374 L1280.6923,569.1409 L1290.7692,568.5807 L1300.8462,568.9689 L1310.9231,567.8227 L1321,568.9651 L1331.0769,569.3169 L1341.1538,569.1786 L1351.2308,569.4033 L1361.3077,567.9418 L1371.3846,567.7164 L1381.4615,567.7574 L1391.5385,568.5074 L1401.6154,568.3239 L1411.6923,569.4945 L1421.7692,568.353 L1431.8462,568.1285 L1441.9231,568.8903 L1452,568.5859 " fill="none" style="stroke:#181818;stroke-width:1.0;"/><text fill="#000000" font-family="FG Virgil" font-size="13" font-weight="bold" lengthAdjust="spacing" textLength="14" x="1146.5" y="563.7295">17</text><text fill="#000000" font-family="FG Virgil" font-size="13" lengthAdjust="spacing" textLength="75" x="1164.5" y="563.7295">repositories()</text><polygon fill="#181818" points="1593,594.9375,1593.026,595.0025,1594.9487,595.6093,1597.0239,596.5973,1599.0495,597.4612,1600.9117,597.9167,1603,598.9375,1602.9904,598.9134,1600.9472,599.6055,1598.9525,600.4188,1596.9916,601.3164,1594.9144,601.9235,1593,602.9375,1593.1305,603.068,1593.6514,601.9889,1594.5534,601.2909,1595.5018,600.6393,1596.1798,599.7173,1597,598.9375,1597.0161,598.9536,1596.1925,598.13,1595.4421,597.3796,1594.6564,596.5939,1593.938,595.8755,1593,594.9375" style="stroke:#181818;stroke-width:1.0;"/><path d="M1458,598.9375 L1458,599.2177 L1468.0714,598.3851 L1478.1429,599.1952 L1488.2143,599.4704 L1498.2857,597.9863 L1508.3571,598.8339 L1518.4286,598.3688 L1528.5,598.4262 L1538.5714,598.8466 L1548.6429,598.0157 L1558.7143,599.6757 L1568.7857,598.0971 L1578.8571,598.6738 L1588.9286,599.5134 L1599,598.9375 " fill="none" style="stroke:#181818;stroke-width:1.0;"/><text fill="#000000" font-family="FG Virgil" font-size="13" font-weight="bold" lengthAdjust="spacing" textLength="14" x="1504.5" y="594.0811">18</text><text fill="#000000" font-family="FG Virgil" font-size="13" lengthAdjust="spacing" textLength="36" x="1522.5" y="594.0811">create</text><polygon fill="#181818" points="1731.5,625.2891,1731.526,625.3541,1733.4487,625.9608,1735.5239,626.9489,1737.5495,627.8128,1739.4117,628.2683,1741.5,629.2891,1741.4904,629.265,1739.4472,629.9571,1737.4525,630.7704,1735.4916,631.668,1733.4144,632.2751,1731.5,633.2891,1731.6305,633.4196,1732.1514,632.3405,1733.0534,631.6424,1734.0018,630.9909,1734.6798,630.0688,1735.5,629.2891,1735.5161,629.3051,1734.6925,628.4815,1733.9421,627.7311,1733.1564,626.9454,1732.438,626.2271,1731.5,625.2891" style="stroke:#181818;stroke-width:1.0;"/><path d="M1605,629.2891 L1605,629.5693 L1615.1923,628.7366 L1625.3846,629.5468 L1635.5769,629.822 L1645.7692,628.3379 L1655.9615,629.1854 L1666.1538,628.7204 L1676.3462,628.7777 L1686.5385,629.1982 L1696.7308,628.3672 L1706.9231,630.0273 L1717.1154,628.4487 L1727.3077,629.0254 L1737.5,629.2891 " fill="none" style="stroke:#181818;stroke-width:1.0;"/><text fill="#000000" font-family="FG Virgil" font-size="13" font-weight="bold" lengthAdjust="spacing" textLength="14" x="1647.25" y="624.4326">19</text><text fill="#000000" font-family="FG Virgil" font-size="13" lengthAdjust="spacing" textLength="36" x="1665.25" y="624.4326">create</text><polygon fill="#181818" points="1731.5,655.6406,1731.526,655.7057,1733.4487,656.3124,1735.5239,657.3004,1737.5495,658.1643,1739.4117,658.6198,1741.5,659.6406,1741.4904,659.6166,1739.4472,660.3086,1737.4525,661.1219,1735.4916,662.0195,1733.4144,662.6267,1731.5,663.6406,1731.6305,663.7711,1732.1514,662.6921,1733.0534,661.994,1734.0018,661.3424,1734.6798,660.4204,1735.5,659.6406,1735.5161,659.6567,1734.6925,658.8331,1733.9421,658.0827,1733.1564,657.297,1732.438,656.5787,1731.5,655.6406" style="stroke:#181818;stroke-width:1.0;"/><path d="M928,659.6406 L928,659.9209 L937.9938,659.0882 L947.9877,659.8983 L957.9815,660.1735 L967.9753,658.6894 L977.9691,659.537 L987.963,659.072 L997.9568,659.1293 L1007.9506,659.5497 L1017.9444,658.7188 L1027.9383,660.3788 L1037.9321,658.8003 L1047.9259,659.3769 L1057.9198,660.2166 L1067.9136,659.5263 L1077.9074,659.7316 L1087.9012,659.598 L1097.8951,659.8787 L1107.8889,659.9595 L1117.8827,660.4215 L1127.8765,660.5354 L1137.8704,660.5463 L1147.8642,659.9801 L1157.858,660.2587 L1167.8519,660.5769 L1177.8457,658.679 L1187.8395,660.5453 L1197.8333,659.2453 L1207.8272,660.3524 L1217.821,658.9806 L1227.8148,659.5493 L1237.8086,660.6294 L1247.8025,659.5756 L1257.7963,659.781 L1267.7901,660.0921 L1277.784,660.1956 L1287.7778,659.6354 L1297.7716,660.0236 L1307.7654,658.8774 L1317.7593,660.0198 L1327.7531,660.3716 L1337.7469,660.2333 L1347.7407,660.458 L1357.7346,658.9965 L1367.7284,658.771 L1377.7222,658.8121 L1387.716,659.5621 L1397.7099,659.3786 L1407.7037,660.5492 L1417.6975,659.4077 L1427.6914,659.1832 L1437.6852,659.945 L1447.679,658.7515 L1457.6728,658.9485 L1467.6667,660.5059 L1477.6605,660.2215 L1487.6543,660.6199 L1497.6481,659.2116 L1507.642,660.0662 L1517.6358,660.4279 L1527.6296,659.0108 L1537.6235,659.5128 L1547.6173,659.8086 L1557.6111,660.5096 L1567.6049,659.635 L1577.5988,660.2574 L1587.5926,658.9022 L1597.5864,658.7376 L1607.5802,660.3121 L1617.5741,658.6847 L1627.5679,660.3192 L1637.5617,659.9161 L1647.5556,659.2834 L1657.5494,659.1689 L1667.5432,660.2523 L1677.537,659.2415 L1687.5309,660.4298 L1697.5247,658.9036 L1707.5185,660.4639 L1717.5123,660.2864 L1727.5062,659.9672 L1737.5,659.6406 " fill="none" style="stroke:#181818;stroke-width:1.0;"/><text fill="#000000" font-family="FG Virgil" font-size="13" font-weight="bold" lengthAdjust="spacing" textLength="14" x="1282.25" y="654.7842">20</text><text fill="#000000" font-family="FG Virgil" font-size="13" lengthAdjust="spacing" textLength="89" x="1300.25" y="654.7842">save(newOrder)</text><!--MD5=[90e7f68933e479865a95ee6365a61991]
@startuml

skinparam handwritten true
skinparam monochrome true
skinparam packageStyle rect
skinparam defaultFontName FG Virgil
skinparam shadowing false

autonumber
skinparam defaultTextAlignment center


participant ":CreateOrderUI" as ui
participant ":CreateOrderForClientController" as ctrl
participant ":ListCustomersController" as ctrl2
participant ":ListProductController" as ctrl3
participant ":PersistenceContext" as pc
participant ":RepositoryFactory" as rf
participant ":OrderRepository" as repo
participant ":CustomerRepository" as repo2
participant ":ProductRepository" as repo3
participant ":Order" as Order

ui -> ctrl : create
ui -> ctrl2 : getCustomers
ctrl2 -> pc : repositories()
pc -> rf : create
rf -> repo2 : create
ctrl2 -> repo2 : allCustomers()
ctrl2 - -> ui : customers

ui -> ctrl3 : getProducts
ctrl3 -> pc : repositories()
pc -> rf : create
rf -> repo3 : create
ctrl3 -> repo3 : activeProducts()
ctrl3 - -> ui : products


ui -> ui : doShow()

ui -> ctrl : registerOrder(products, billing_address, delivering_address, paymentMethod, shipmentMethod, method, dateOfEncounter, comment, customer)
ctrl -> Order : newOrder = create(products, billing_address, delivering_address, paymentMethod, shipmentMethod, method, dateOfEncounter, comment, customer)
ctrl -> pc : repositories()
pc -> rf : create
rf -> repo : create
ctrl -> repo : save(newOrder)


@enduml

PlantUML version 1.2022.4(Sat Apr 09 14:29:17 BST 2022)
(GPL source distribution)
Java Runtime: OpenJDK Runtime Environment
JVM: OpenJDK 64-Bit Server VM
Default Encoding: Cp1252
Language: pt
Country: PT
--></g></svg>