<?xml version="1.0" encoding="UTF-8" standalone="no"?><svg xmlns="http://www.w3.org/2000/svg" xmlns:xlink="http://www.w3.org/1999/xlink" contentScriptType="application/ecmascript" contentStyleType="text/css" height="294px" preserveAspectRatio="none" style="width:1265px;height:294px;background:#FFFFFF;" version="1.1" viewBox="0 0 1265 294" width="1265px" zoomAndPan="magnify"><defs><filter height="300%" id="fqh7iqne1ufhx" width="300%" x="-1" y="-1"><feGaussianBlur result="blurOut" stdDeviation="2.0"/><feColorMatrix in="blurOut" result="blurOut2" type="matrix" values="0 0 0 0 0 0 0 0 0 0 0 0 0 0 0 0 0 0 .4 0"/><feOffset dx="4.0" dy="4.0" in="blurOut2" result="blurOut3"/><feBlend in="SourceGraphic" in2="blurOut3" mode="normal"/></filter></defs><g><!--MD5=[fd285be1a5be58179fd2cb1619bacb85]
class WareHousePlant--><rect codeLine="2" fill="#FEFECE" filter="url(#fqh7iqne1ufhx)" height="125.3672" id="WareHousePlant" style="stroke:#A80036;stroke-width:1.5;" width="135" x="7" y="113.63"/><ellipse cx="26.05" cy="133.7238" fill="#ADD1B2" rx="11" ry="11" style="stroke:#A80036;stroke-width:1.0;"/><path d="M24.55,134.7238 L24.55,136.7238 L28.55,136.7238 L28.55,135.7238 L28.55,135.2394 L29.175,134.7238 L29.55,134.7238 L29.925,134.7238 L30.55,135.2394 L30.55,135.7238 L30.55,138.7238 L22.55,138.7238 L22.0656,138.7238 L21.55,138.0988 L21.55,137.7238 L21.55,137.3488 L22.0656,136.7238 L22.55,136.7238 L22.55,136.7238 L22.55,130.7238 L22.55,130.7238 L22.0656,130.7238 L21.55,130.0988 L21.55,129.7238 L21.55,129.3488 L22.0656,128.7238 L22.55,128.7238 L30.55,128.7238 L30.55,131.7238 L30.55,132.2081 L29.925,132.7238 L29.55,132.7238 L29.175,132.7238 L28.55,132.2081 L28.55,131.7238 L28.55,130.7238 L24.55,130.7238 L24.55,132.7238 L25.55,132.7238 L25.55,132.2394 L25.55,132.2394 L26.175,131.7238 L26.55,131.7238 L26.925,131.7238 L27.55,132.2394 L27.55,132.7238 L27.55,134.7238 L27.55,135.2081 L26.925,135.7238 L26.925,135.7238 L26.55,135.7238 L26.175,135.7238 L25.55,135.2081 L25.55,135.2081 L25.55,134.7238 L24.55,134.7238 Z " fill="#000000"/><text fill="#000000" font-family="sans-serif" font-size="12" font-style="italic" lengthAdjust="spacing" textLength="67" x="54.45" y="131.087">«entity root»</text><text fill="#000000" font-family="sans-serif" font-size="12" lengthAdjust="spacing" textLength="94" x="40.95" y="146.1808">WareHousePlant</text><line style="stroke:#A80036;stroke-width:1.5;" x1="8" x2="141" y1="153.8175" y2="153.8175"/><rect fill="none" height="6" style="stroke:#C82930;stroke-width:1.0;" width="6" x="15" y="161.8175"/><text fill="#000000" font-family="sans-serif" font-size="11" lengthAdjust="spacing" textLength="31" x="27" y="169.2364">long id</text><text fill="#000000" font-family="sans-serif" font-size="11" font-weight="bold" lengthAdjust="spacing" textLength="72" x="61" y="169.2364">PRIMARY KEY</text><text fill="#000000" font-family="sans-serif" font-size="11" lengthAdjust="spacing" textLength="3" x="133" y="169.2364">;</text><rect fill="none" height="6" style="stroke:#C82930;stroke-width:1.0;" width="6" x="15" y="175.6534"/><text fill="#000000" font-family="sans-serif" font-size="11" lengthAdjust="spacing" textLength="43" x="27" y="183.0724">int length</text><rect fill="none" height="6" style="stroke:#C82930;stroke-width:1.0;" width="6" x="15" y="189.4894"/><text fill="#000000" font-family="sans-serif" font-size="11" lengthAdjust="spacing" textLength="48" x="27" y="196.9083">int square</text><rect fill="none" height="6" style="stroke:#C82930;stroke-width:1.0;" width="6" x="15" y="203.3253"/><text fill="#000000" font-family="sans-serif" font-size="11" lengthAdjust="spacing" textLength="48" x="27" y="210.7443">String unit</text><rect fill="none" height="6" style="stroke:#C82930;stroke-width:1.0;" width="6" x="15" y="217.1613"/><text fill="#000000" font-family="sans-serif" font-size="11" lengthAdjust="spacing" textLength="99" x="27" y="224.5802">List&lt;Aisle&gt; listAisles</text><line style="stroke:#A80036;stroke-width:1.5;" x1="8" x2="141" y1="230.9972" y2="230.9972"/><!--MD5=[0a2f0ce5c49321e9082933c32b514ce4]
class Aisle--><rect codeLine="10" fill="#FEFECE" filter="url(#fqh7iqne1ufhx)" height="111.5313" id="Aisle" style="stroke:#A80036;stroke-width:1.5;" width="179" x="177" y="120.13"/><ellipse cx="242.75" cy="140.2238" fill="#ADD1B2" rx="11" ry="11" style="stroke:#A80036;stroke-width:1.0;"/><path d="M241.25,141.2238 L241.25,143.2238 L245.25,143.2238 L245.25,142.2238 L245.25,141.7394 L245.875,141.2238 L246.25,141.2238 L246.625,141.2238 L247.25,141.7394 L247.25,142.2238 L247.25,145.2238 L239.25,145.2238 L238.7656,145.2238 L238.25,144.5988 L238.25,144.2238 L238.25,143.8488 L238.7656,143.2238 L239.25,143.2238 L239.25,143.2238 L239.25,137.2238 L239.25,137.2238 L238.7656,137.2238 L238.25,136.5988 L238.25,136.2238 L238.25,135.8488 L238.7656,135.2238 L239.25,135.2238 L247.25,135.2238 L247.25,138.2238 L247.25,138.7081 L246.625,139.2238 L246.25,139.2238 L245.875,139.2238 L245.25,138.7081 L245.25,138.2238 L245.25,137.2238 L241.25,137.2238 L241.25,139.2238 L242.25,139.2238 L242.25,138.7394 L242.25,138.7394 L242.875,138.2238 L243.25,138.2238 L243.625,138.2238 L244.25,138.7394 L244.25,139.2238 L244.25,141.2238 L244.25,141.7081 L243.625,142.2238 L243.625,142.2238 L243.25,142.2238 L242.875,142.2238 L242.25,141.7081 L242.25,141.7081 L242.25,141.2238 L241.25,141.2238 Z " fill="#000000"/><text fill="#000000" font-family="sans-serif" font-size="12" font-style="italic" lengthAdjust="spacing" textLength="43" x="261.25" y="137.587">«entity»</text><text fill="#000000" font-family="sans-serif" font-size="12" lengthAdjust="spacing" textLength="27" x="269.25" y="152.6808">Aisle</text><line style="stroke:#A80036;stroke-width:1.5;" x1="178" x2="355" y1="160.3175" y2="160.3175"/><rect fill="none" height="6" style="stroke:#C82930;stroke-width:1.0;" width="6" x="185" y="168.3175"/><text fill="#000000" font-family="sans-serif" font-size="11" lengthAdjust="spacing" textLength="31" x="197" y="175.7364">long id</text><text fill="#000000" font-family="sans-serif" font-size="11" font-weight="bold" lengthAdjust="spacing" textLength="72" x="231" y="175.7364">PRIMARY KEY</text><text fill="#000000" font-family="sans-serif" font-size="11" lengthAdjust="spacing" textLength="3" x="303" y="175.7364">;</text><rect fill="none" height="6" style="stroke:#C82930;stroke-width:1.0;" width="6" x="185" y="182.1534"/><text fill="#000000" font-family="sans-serif" font-size="11" lengthAdjust="spacing" textLength="79" x="197" y="189.5724">int idWareHouse</text><text fill="#000000" font-family="sans-serif" font-size="11" font-weight="bold" lengthAdjust="spacing" textLength="68" x="279" y="189.5724">FOREIGN KEY</text><text fill="#000000" font-family="sans-serif" font-size="11" lengthAdjust="spacing" textLength="3" x="347" y="189.5724">;</text><rect fill="none" height="6" style="stroke:#C82930;stroke-width:1.0;" width="6" x="185" y="195.9894"/><text fill="#000000" font-family="sans-serif" font-size="11" lengthAdjust="spacing" textLength="126" x="197" y="203.4083">Accessibility accessibility;</text><rect fill="none" height="6" style="stroke:#C82930;stroke-width:1.0;" width="6" x="185" y="209.8253"/><text fill="#000000" font-family="sans-serif" font-size="11" lengthAdjust="spacing" textLength="100" x="197" y="217.2443">List&lt;Row&gt; listRows;</text><line style="stroke:#A80036;stroke-width:1.5;" x1="178" x2="355" y1="223.6613" y2="223.6613"/><!--MD5=[05aedcff764caeeb5d443618a4d90de7]
class Row--><rect codeLine="17" fill="#FEFECE" filter="url(#fqh7iqne1ufhx)" height="97.6953" id="Row" style="stroke:#A80036;stroke-width:1.5;" width="152" x="391.5" y="127.13"/><ellipse cx="443.75" cy="147.2238" fill="#ADD1B2" rx="11" ry="11" style="stroke:#A80036;stroke-width:1.0;"/><path d="M442.25,148.2238 L442.25,150.2238 L446.25,150.2238 L446.25,149.2238 L446.25,148.7394 L446.875,148.2238 L447.25,148.2238 L447.625,148.2238 L448.25,148.7394 L448.25,149.2238 L448.25,152.2238 L440.25,152.2238 L439.7656,152.2238 L439.25,151.5988 L439.25,151.2238 L439.25,150.8488 L439.7656,150.2238 L440.25,150.2238 L440.25,150.2238 L440.25,144.2238 L440.25,144.2238 L439.7656,144.2238 L439.25,143.5988 L439.25,143.2238 L439.25,142.8488 L439.7656,142.2238 L440.25,142.2238 L448.25,142.2238 L448.25,145.2238 L448.25,145.7081 L447.625,146.2238 L447.25,146.2238 L446.875,146.2238 L446.25,145.7081 L446.25,145.2238 L446.25,144.2238 L442.25,144.2238 L442.25,146.2238 L443.25,146.2238 L443.25,145.7394 L443.25,145.7394 L443.875,145.2238 L444.25,145.2238 L444.625,145.2238 L445.25,145.7394 L445.25,146.2238 L445.25,148.2238 L445.25,148.7081 L444.625,149.2238 L444.625,149.2238 L444.25,149.2238 L443.875,149.2238 L443.25,148.7081 L443.25,148.7081 L443.25,148.2238 L442.25,148.2238 Z " fill="#000000"/><text fill="#000000" font-family="sans-serif" font-size="12" font-style="italic" lengthAdjust="spacing" textLength="43" x="462.25" y="144.587">«entity»</text><text fill="#000000" font-family="sans-serif" font-size="12" lengthAdjust="spacing" textLength="25" x="471.25" y="159.6808">Row</text><line style="stroke:#A80036;stroke-width:1.5;" x1="392.5" x2="542.5" y1="167.3175" y2="167.3175"/><rect fill="none" height="6" style="stroke:#C82930;stroke-width:1.0;" width="6" x="399.5" y="175.3175"/><text fill="#000000" font-family="sans-serif" font-size="11" lengthAdjust="spacing" textLength="31" x="411.5" y="182.7364">long id</text><text fill="#000000" font-family="sans-serif" font-size="11" font-weight="bold" lengthAdjust="spacing" textLength="72" x="445.5" y="182.7364">PRIMARY KEY</text><text fill="#000000" font-family="sans-serif" font-size="11" lengthAdjust="spacing" textLength="3" x="517.5" y="182.7364">;</text><rect fill="none" height="6" style="stroke:#C82930;stroke-width:1.0;" width="6" x="399.5" y="189.1534"/><text fill="#000000" font-family="sans-serif" font-size="11" lengthAdjust="spacing" textLength="52" x="411.5" y="196.5724">int idAisles</text><text fill="#000000" font-family="sans-serif" font-size="11" font-weight="bold" lengthAdjust="spacing" textLength="68" x="466.5" y="196.5724">FOREIGN KEY</text><text fill="#000000" font-family="sans-serif" font-size="11" lengthAdjust="spacing" textLength="3" x="534.5" y="196.5724">;</text><rect fill="none" height="6" style="stroke:#C82930;stroke-width:1.0;" width="6" x="399.5" y="202.9894"/><text fill="#000000" font-family="sans-serif" font-size="11" lengthAdjust="spacing" textLength="55" x="411.5" y="210.4083">int shelves;</text><line style="stroke:#A80036;stroke-width:1.5;" x1="392.5" x2="542.5" y1="216.8253" y2="216.8253"/><!--MD5=[6c8d26f6d50c9b5da41494faa6136af8]
class AGVDock--><rect codeLine="23" fill="#FEFECE" filter="url(#fqh7iqne1ufhx)" height="83.8594" id="AGVDock" style="stroke:#A80036;stroke-width:1.5;" width="152" x="944.5" y="134.13"/><ellipse cx="990.75" cy="154.2238" fill="#ADD1B2" rx="11" ry="11" style="stroke:#A80036;stroke-width:1.0;"/><path d="M989.25,155.2238 L989.25,157.2238 L993.25,157.2238 L993.25,156.2238 L993.25,155.7394 L993.875,155.2238 L994.25,155.2238 L994.625,155.2238 L995.25,155.7394 L995.25,156.2238 L995.25,159.2238 L987.25,159.2238 L986.7656,159.2238 L986.25,158.5988 L986.25,158.2238 L986.25,157.8488 L986.7656,157.2238 L987.25,157.2238 L987.25,157.2238 L987.25,151.2238 L987.25,151.2238 L986.7656,151.2238 L986.25,150.5988 L986.25,150.2238 L986.25,149.8488 L986.7656,149.2238 L987.25,149.2238 L995.25,149.2238 L995.25,152.2238 L995.25,152.7081 L994.625,153.2238 L994.25,153.2238 L993.875,153.2238 L993.25,152.7081 L993.25,152.2238 L993.25,151.2238 L989.25,151.2238 L989.25,153.2238 L990.25,153.2238 L990.25,152.7394 L990.25,152.7394 L990.875,152.2238 L991.25,152.2238 L991.625,152.2238 L992.25,152.7394 L992.25,153.2238 L992.25,155.2238 L992.25,155.7081 L991.625,156.2238 L991.625,156.2238 L991.25,156.2238 L990.875,156.2238 L990.25,155.7081 L990.25,155.7081 L990.25,155.2238 L989.25,155.2238 Z " fill="#000000"/><text fill="#000000" font-family="sans-serif" font-size="12" font-style="italic" lengthAdjust="spacing" textLength="43" x="1015.25" y="151.587">«entity»</text><text fill="#000000" font-family="sans-serif" font-size="12" lengthAdjust="spacing" textLength="51" x="1011.25" y="166.6808">AGVDock</text><line style="stroke:#A80036;stroke-width:1.5;" x1="945.5" x2="1095.5" y1="174.3175" y2="174.3175"/><rect fill="none" height="6" style="stroke:#C82930;stroke-width:1.0;" width="6" x="952.5" y="182.3175"/><text fill="#000000" font-family="sans-serif" font-size="11" lengthAdjust="spacing" textLength="31" x="964.5" y="189.7364">long id</text><text fill="#000000" font-family="sans-serif" font-size="11" font-weight="bold" lengthAdjust="spacing" textLength="72" x="998.5" y="189.7364">PRIMARY KEY</text><text fill="#000000" font-family="sans-serif" font-size="11" lengthAdjust="spacing" textLength="3" x="1070.5" y="189.7364">;</text><rect fill="none" height="6" style="stroke:#C82930;stroke-width:1.0;" width="6" x="952.5" y="196.1534"/><text fill="#000000" font-family="sans-serif" font-size="11" lengthAdjust="spacing" textLength="126" x="964.5" y="203.5724">Accessibility accessibility;</text><line style="stroke:#A80036;stroke-width:1.5;" x1="945.5" x2="1095.5" y1="209.9894" y2="209.9894"/><!--MD5=[7620fae2775ebf09e1a63cf069b3747d]
class Accessibility--><rect codeLine="28" fill="#FEFECE" filter="url(#fqh7iqne1ufhx)" height="70.0234" id="Accessibility" style="stroke:#A80036;stroke-width:1.5;" width="119" x="1132" y="141.13"/><ellipse cx="1151.5" cy="161.2238" fill="#ADD1B2" rx="11" ry="11" style="stroke:#A80036;stroke-width:1.0;"/><path d="M1153.5,157.7238 Q1153.7031,157.2238 1153.9375,156.9738 Q1154.1719,156.7238 1154.4375,156.7238 Q1154.9063,156.7238 1155.2031,157.005 Q1155.5,157.2863 1155.5,157.9425 L1155.5,159.505 Q1155.5,160.1613 1155.2188,160.4425 Q1154.9375,160.7238 1154.5,160.7238 Q1154.1094,160.7238 1153.8594,160.5519 Q1153.6094,160.38 1153.5,159.9269 Q1153.4531,159.6144 1153.2813,159.4425 Q1152.9688,159.1144 1152.4063,158.9269 Q1151.8438,158.7238 1151.2813,158.7238 Q1150.5781,158.7238 1149.9844,159.005 Q1149.4063,159.2863 1148.9531,159.9113 Q1148.5,160.5363 1148.5,161.3956 L1148.5,162.3175 Q1148.5,163.3488 1149.3438,164.0363 Q1150.1875,164.7238 1151.6875,164.7238 Q1152.5781,164.7238 1153.2031,164.5206 Q1153.5625,164.4113 1153.9688,164.0519 Q1154.2344,163.8488 1154.375,163.7863 Q1154.5156,163.7238 1154.6875,163.7238 Q1155.0156,163.7238 1155.25,163.9894 Q1155.5,164.2394 1155.5,164.5988 Q1155.5,164.9425 1155.1563,165.3488 Q1154.6563,165.9425 1153.8594,166.2706 Q1152.8125,166.7238 1151.5313,166.7238 Q1150.0313,166.7238 1148.8281,166.13 Q1147.8594,165.6613 1147.1719,164.6456 Q1146.5,163.63 1146.5,162.4269 L1146.5,161.3331 Q1146.5,160.0831 1147.0938,158.9894 Q1147.7031,157.8956 1148.75,157.3175 Q1149.8125,156.7238 1151,156.7238 Q1151.7188,156.7238 1152.3438,156.9738 Q1152.9688,157.2238 1153.5,157.7238 Z " fill="#000000"/><text fill="#000000" font-family="sans-serif" font-size="12" font-style="italic" lengthAdjust="spacing" textLength="81" x="1164.5" y="158.587">«value object»</text><text fill="#000000" font-family="sans-serif" font-size="12" lengthAdjust="spacing" textLength="67" x="1171.5" y="173.6808">Accessibility</text><line style="stroke:#A80036;stroke-width:1.5;" x1="1133" x2="1250" y1="181.3175" y2="181.3175"/><rect fill="none" height="6" style="stroke:#C82930;stroke-width:1.0;" width="6" x="1140" y="189.3175"/><text fill="#000000" font-family="sans-serif" font-size="11" lengthAdjust="spacing" textLength="93" x="1152" y="196.7364">String accessibility;</text><line style="stroke:#A80036;stroke-width:1.5;" x1="1133" x2="1250" y1="203.1534" y2="203.1534"/><!--MD5=[53b2c06ade5903185ca3326dce80e141]
class AGV--><rect codeLine="33" fill="#FEFECE" filter="url(#fqh7iqne1ufhx)" height="208.3828" id="AGV" style="stroke:#A80036;stroke-width:1.5;" width="135" x="579" y="72.13"/><ellipse cx="622.8" cy="92.2238" fill="#ADD1B2" rx="11" ry="11" style="stroke:#A80036;stroke-width:1.0;"/><path d="M621.3,93.2238 L621.3,95.2238 L625.3,95.2238 L625.3,94.2238 L625.3,93.7394 L625.925,93.2238 L626.3,93.2238 L626.675,93.2238 L627.3,93.7394 L627.3,94.2238 L627.3,97.2238 L619.3,97.2238 L618.8156,97.2238 L618.3,96.5988 L618.3,96.2238 L618.3,95.8488 L618.8156,95.2238 L619.3,95.2238 L619.3,95.2238 L619.3,89.2238 L619.3,89.2238 L618.8156,89.2238 L618.3,88.5988 L618.3,88.2238 L618.3,87.8488 L618.8156,87.2238 L619.3,87.2238 L627.3,87.2238 L627.3,90.2238 L627.3,90.7081 L626.675,91.2238 L626.3,91.2238 L625.925,91.2238 L625.3,90.7081 L625.3,90.2238 L625.3,89.2238 L621.3,89.2238 L621.3,91.2238 L622.3,91.2238 L622.3,90.7394 L622.3,90.7394 L622.925,90.2238 L623.3,90.2238 L623.675,90.2238 L624.3,90.7394 L624.3,91.2238 L624.3,93.2238 L624.3,93.7081 L623.675,94.2238 L623.675,94.2238 L623.3,94.2238 L622.925,94.2238 L622.3,93.7081 L622.3,93.7081 L622.3,93.2238 L621.3,93.2238 Z " fill="#000000"/><text fill="#000000" font-family="sans-serif" font-size="12" font-style="italic" lengthAdjust="spacing" textLength="43" x="641.2" y="89.587">«entity»</text><text fill="#000000" font-family="sans-serif" font-size="12" lengthAdjust="spacing" textLength="23" x="651.2" y="104.6808">AGV</text><line style="stroke:#A80036;stroke-width:1.5;" x1="580" x2="713" y1="112.3175" y2="112.3175"/><rect fill="none" height="6" style="stroke:#C82930;stroke-width:1.0;" width="6" x="587" y="120.3175"/><text fill="#000000" font-family="sans-serif" font-size="11" lengthAdjust="spacing" textLength="31" x="599" y="127.7364">long id</text><text fill="#000000" font-family="sans-serif" font-size="11" font-weight="bold" lengthAdjust="spacing" textLength="72" x="633" y="127.7364">PRIMARY KEY</text><text fill="#000000" font-family="sans-serif" font-size="11" lengthAdjust="spacing" textLength="3" x="705" y="127.7364">;</text><rect fill="none" height="6" style="stroke:#C82930;stroke-width:1.0;" width="6" x="587" y="134.1534"/><text fill="#000000" font-family="sans-serif" font-size="11" lengthAdjust="spacing" textLength="87" x="599" y="141.5724">String description;</text><rect fill="none" height="6" style="stroke:#C82930;stroke-width:1.0;" width="6" x="587" y="147.9894"/><text fill="#000000" font-family="sans-serif" font-size="11" lengthAdjust="spacing" textLength="62" x="599" y="155.4083">String model;</text><rect fill="none" height="6" style="stroke:#C82930;stroke-width:1.0;" width="6" x="587" y="161.8253"/><text fill="#000000" font-family="sans-serif" font-size="11" lengthAdjust="spacing" textLength="91" x="599" y="169.2443">double maxWeight;</text><rect fill="none" height="6" style="stroke:#C82930;stroke-width:1.0;" width="6" x="587" y="175.6613"/><text fill="#000000" font-family="sans-serif" font-size="11" lengthAdjust="spacing" textLength="94" x="599" y="183.0802">double maxVolume;</text><rect fill="none" height="6" style="stroke:#C82930;stroke-width:1.0;" width="6" x="587" y="189.4972"/><text fill="#000000" font-family="sans-serif" font-size="11" lengthAdjust="spacing" textLength="74" x="599" y="196.9161">boolean status;</text><rect fill="none" height="6" style="stroke:#C82930;stroke-width:1.0;" width="6" x="587" y="203.3331"/><text fill="#000000" font-family="sans-serif" font-size="11" lengthAdjust="spacing" textLength="61" x="599" y="210.7521">int positionX;</text><rect fill="none" height="6" style="stroke:#C82930;stroke-width:1.0;" width="6" x="587" y="217.1691"/><text fill="#000000" font-family="sans-serif" font-size="11" lengthAdjust="spacing" textLength="62" x="599" y="224.588">int positionY;</text><rect fill="none" height="6" style="stroke:#C82930;stroke-width:1.0;" width="6" x="587" y="231.005"/><text fill="#000000" font-family="sans-serif" font-size="11" lengthAdjust="spacing" textLength="80" x="599" y="238.4239">int autonomyMin;</text><rect fill="none" height="6" style="stroke:#C82930;stroke-width:1.0;" width="6" x="587" y="244.8409"/><text fill="#000000" font-family="sans-serif" font-size="11" lengthAdjust="spacing" textLength="49" x="599" y="252.2599">Task task;</text><rect fill="none" height="6" style="stroke:#C82930;stroke-width:1.0;" width="6" x="587" y="258.6769"/><text fill="#000000" font-family="sans-serif" font-size="11" lengthAdjust="spacing" textLength="96" x="599" y="266.0958">AGVDock agvDock;</text><line style="stroke:#A80036;stroke-width:1.5;" x1="580" x2="713" y1="272.5128" y2="272.5128"/><!--MD5=[b34797a66dc35cbf1d65f7e3ca75530e]
class Task--><rect codeLine="47" fill="#FEFECE" filter="url(#fqh7iqne1ufhx)" height="111.5313" id="Task" style="stroke:#A80036;stroke-width:1.5;" width="160" x="749.5" y="120.13"/><ellipse cx="805.75" cy="140.2238" fill="#ADD1B2" rx="11" ry="11" style="stroke:#A80036;stroke-width:1.0;"/><path d="M804.25,141.2238 L804.25,143.2238 L808.25,143.2238 L808.25,142.2238 L808.25,141.7394 L808.875,141.2238 L809.25,141.2238 L809.625,141.2238 L810.25,141.7394 L810.25,142.2238 L810.25,145.2238 L802.25,145.2238 L801.7656,145.2238 L801.25,144.5988 L801.25,144.2238 L801.25,143.8488 L801.7656,143.2238 L802.25,143.2238 L802.25,143.2238 L802.25,137.2238 L802.25,137.2238 L801.7656,137.2238 L801.25,136.5988 L801.25,136.2238 L801.25,135.8488 L801.7656,135.2238 L802.25,135.2238 L810.25,135.2238 L810.25,138.2238 L810.25,138.7081 L809.625,139.2238 L809.25,139.2238 L808.875,139.2238 L808.25,138.7081 L808.25,138.2238 L808.25,137.2238 L804.25,137.2238 L804.25,139.2238 L805.25,139.2238 L805.25,138.7394 L805.25,138.7394 L805.875,138.2238 L806.25,138.2238 L806.625,138.2238 L807.25,138.7394 L807.25,139.2238 L807.25,141.2238 L807.25,141.7081 L806.625,142.2238 L806.625,142.2238 L806.25,142.2238 L805.875,142.2238 L805.25,141.7081 L805.25,141.7081 L805.25,141.2238 L804.25,141.2238 Z " fill="#000000"/><text fill="#000000" font-family="sans-serif" font-size="12" font-style="italic" lengthAdjust="spacing" textLength="43" x="824.25" y="137.587">«entity»</text><text fill="#000000" font-family="sans-serif" font-size="12" lengthAdjust="spacing" textLength="27" x="832.25" y="152.6808">Task</text><line style="stroke:#A80036;stroke-width:1.5;" x1="750.5" x2="908.5" y1="160.3175" y2="160.3175"/><rect fill="none" height="6" style="stroke:#C82930;stroke-width:1.0;" width="6" x="757.5" y="168.3175"/><text fill="#000000" font-family="sans-serif" font-size="11" lengthAdjust="spacing" textLength="31" x="769.5" y="175.7364">long id</text><text fill="#000000" font-family="sans-serif" font-size="11" font-weight="bold" lengthAdjust="spacing" textLength="72" x="803.5" y="175.7364">PRIMARY KEY</text><text fill="#000000" font-family="sans-serif" font-size="11" lengthAdjust="spacing" textLength="3" x="875.5" y="175.7364">;</text><rect fill="none" height="6" style="stroke:#C82930;stroke-width:1.0;" width="6" x="757.5" y="182.1534"/><text fill="#000000" font-family="sans-serif" font-size="11" lengthAdjust="spacing" textLength="73" x="769.5" y="189.5724">AGV agvResp;</text><rect fill="none" height="6" style="stroke:#C82930;stroke-width:1.0;" width="6" x="757.5" y="195.9894"/><text fill="#000000" font-family="sans-serif" font-size="11" lengthAdjust="spacing" textLength="64" x="769.5" y="203.4083">String status;</text><rect fill="none" height="6" style="stroke:#C82930;stroke-width:1.0;" width="6" x="757.5" y="209.8253"/><text fill="#000000" font-family="sans-serif" font-size="11" lengthAdjust="spacing" textLength="134" x="769.5" y="217.2443">List&lt;Products&gt; listProducts;</text><line style="stroke:#A80036;stroke-width:1.5;" x1="750.5" x2="908.5" y1="223.6613" y2="223.6613"/><!--MD5=[bd2765a2de23b6b0e289828a0e12d807]
link WareHousePlant to AGVDock--><path codeLine="54" d="M105.39,113.59 C122.43,86.35 146.41,57.25 177,42.13 C250.02,6.05 836.33,7.39 910,42.13 C948.08,60.09 977.5,98.32 996.37,129.37 " fill="none" id="WareHousePlant-to-AGVDock" style="stroke:#A80036;stroke-width:1.0;"/><polygon fill="#A80036" points="999.08,133.9,997.9035,124.1217,996.5181,129.6062,991.0335,128.2208,999.08,133.9" style="stroke:#A80036;stroke-width:1.0;"/><text fill="#000000" font-family="sans-serif" font-size="13" lengthAdjust="spacing" textLength="7" x="101.557" y="102.928">1</text><text fill="#000000" font-family="sans-serif" font-size="13" lengthAdjust="spacing" textLength="5" x="990.2678" y="123.4289">*</text><!--MD5=[afe5d042239b9cb3dab8fbf4d729371d]
link WareHousePlant to AGV--><path codeLine="55" d="M105.39,113.59 C122.43,86.35 146.41,57.25 177,42.13 C250.12,6 470.88,6 544,42.13 C557.21,48.66 569.19,57.8 579.91,68.26 " fill="none" id="WareHousePlant-to-AGV" style="stroke:#A80036;stroke-width:1.0;"/><polygon fill="#A80036" points="583.49,71.86,579.973,62.6605,579.9616,68.3173,574.3048,68.3059,583.49,71.86" style="stroke:#A80036;stroke-width:1.0;"/><text fill="#000000" font-family="sans-serif" font-size="13" lengthAdjust="spacing" textLength="7" x="109.3663" y="102.928">1</text><text fill="#000000" font-family="sans-serif" font-size="13" lengthAdjust="spacing" textLength="5" x="573.6791" y="61.1091">*</text><!--MD5=[ae5f39c2ef1272409f9f623d4dc5b682]
link WareHousePlant to Aisle--><path codeLine="56" d="M142.38,176.13 C152.15,176.13 161.92,176.13 171.69,176.13 " fill="none" id="WareHousePlant-to-Aisle" style="stroke:#A80036;stroke-width:1.0;"/><polygon fill="#A80036" points="176.8,176.13,167.8,172.13,171.8,176.13,167.8,180.13,176.8,176.13" style="stroke:#A80036;stroke-width:1.0;"/><text fill="#000000" font-family="sans-serif" font-size="13" lengthAdjust="spacing" textLength="7" x="150.1872" y="172.7493">1</text><text fill="#000000" font-family="sans-serif" font-size="13" lengthAdjust="spacing" textLength="5" x="163.8766" y="172.9729">*</text><!--MD5=[c7a7c255159fc536cc39704e0abcbfe1]
link Aisle to Row--><path codeLine="57" d="M356.01,176.13 C366.02,176.13 376.03,176.13 386.05,176.13 " fill="none" id="Aisle-to-Row" style="stroke:#A80036;stroke-width:1.0;"/><polygon fill="#A80036" points="391.28,176.13,382.28,172.13,386.28,176.13,382.28,180.13,391.28,176.13" style="stroke:#A80036;stroke-width:1.0;"/><text fill="#000000" font-family="sans-serif" font-size="13" lengthAdjust="spacing" textLength="7" x="364.003" y="172.9729">1</text><text fill="#000000" font-family="sans-serif" font-size="13" lengthAdjust="spacing" textLength="12" x="371.4434" y="172.8939">1*</text><!--MD5=[8fdfc9eb3c76268eec557d601d1ef891]
link Aisle to Accessibility--><path codeLine="58" d="M302.21,119.92 C324.17,90.82 355.15,58.1 392,42.13 C463.87,10.97 1027.46,6.08 1097,42.13 C1134.94,61.8 1160.88,104.48 1175.84,136.42 " fill="none" id="Aisle-to-Accessibility" style="stroke:#A80036;stroke-width:1.0;"/><polygon fill="#A80036" points="1177.97,141.05,1177.8244,131.2022,1175.872,136.5115,1170.5628,134.559,1177.97,141.05" style="stroke:#A80036;stroke-width:1.0;"/><text fill="#000000" font-family="sans-serif" font-size="13" lengthAdjust="spacing" textLength="7" x="299.3369" y="109.2408">1</text><text fill="#000000" font-family="sans-serif" font-size="13" lengthAdjust="spacing" textLength="7" x="1167.7237" y="130.3643">1</text><!--MD5=[f109197b03652dc794d321c2b6eb6935]
link AGV to AGVDock--><path codeLine="59" d="M710.25,71.85 C721.96,59.88 735.22,49.39 750,42.13 C813.83,10.78 845.68,11.8 910,42.13 C948.08,60.09 977.5,98.32 996.37,129.37 " fill="none" id="AGV-to-AGVDock" style="stroke:#A80036;stroke-width:1.0;"/><polygon fill="#A80036" points="999.08,133.9,997.9035,124.1217,996.5181,129.6062,991.0335,128.2208,999.08,133.9" style="stroke:#A80036;stroke-width:1.0;"/><text fill="#000000" font-family="sans-serif" font-size="13" lengthAdjust="spacing" textLength="7" x="707.6746" y="61.0984">1</text><text fill="#000000" font-family="sans-serif" font-size="13" lengthAdjust="spacing" textLength="7" x="996.224" y="123.4289">1</text><!--MD5=[436492a8722677b8f40c7c1b2a179142]
link AGV to Task--><path codeLine="60" d="M714.05,176.13 C724.04,176.13 734.02,176.13 744.01,176.13 " fill="none" id="AGV-to-Task" style="stroke:#A80036;stroke-width:1.0;"/><polygon fill="#A80036" points="749.23,176.13,740.23,172.13,744.23,176.13,740.23,180.13,749.23,176.13" style="stroke:#A80036;stroke-width:1.0;"/><text fill="#000000" font-family="sans-serif" font-size="13" lengthAdjust="spacing" textLength="7" x="721.8211" y="172.7484">1</text><text fill="#000000" font-family="sans-serif" font-size="13" lengthAdjust="spacing" textLength="7" x="734.5075" y="172.9254">1</text><!--MD5=[0e4825c31183382a9d2f9c526d983221]
link AGVDock to Accessibility--><path codeLine="61" d="M1096.65,176.13 C1106.64,176.13 1116.63,176.13 1126.62,176.13 " fill="none" id="AGVDock-to-Accessibility" style="stroke:#A80036;stroke-width:1.0;"/><polygon fill="#A80036" points="1131.85,176.13,1122.85,172.13,1126.85,176.13,1122.85,180.13,1131.85,176.13" style="stroke:#A80036;stroke-width:1.0;"/><text fill="#000000" font-family="sans-serif" font-size="13" lengthAdjust="spacing" textLength="7" x="1104.4905" y="172.8618">1</text><text fill="#000000" font-family="sans-serif" font-size="13" lengthAdjust="spacing" textLength="7" x="1117.1536" y="172.6701">1</text><!--MD5=[fdf6a8c52172aeb7db30ea70a14e2375]
@startuml

Entity WareHousePlant<<entity root>> {
 -long id **PRIMARY KEY**;
 -int length
 -int square
 -String unit
 -List<Aisle> listAisles
}

Entity Aisle<<entity>>{
    -long id **PRIMARY KEY**;
    -int idWareHouse **FOREIGN KEY**;
    -Accessibility accessibility;
    -List<Row> listRows;
}

Entity Row<<entity>>{
    -long id **PRIMARY KEY**;
    -int idAisles **FOREIGN KEY**;
    -int shelves;
}

Entity AGVDock<<entity>>{
    -long id **PRIMARY KEY**;
    -Accessibility accessibility;
}

class Accessibility<<value object>>{
    -String accessibility;

}

Entity AGV<<entity>>{
    -long id **PRIMARY KEY**;
    -String description;
    -String model;
    -double maxWeight;
    -double maxVolume;
    -boolean status;
    -int positionX;
    -int positionY;
    -int autonomyMin;
    -Task task;
    -AGVDock agvDock;
}

Entity Task<<entity>>{
    -long id **PRIMARY KEY**;
    -AGV agvResp;
    -String status;
    -List<Products> listProducts;
}

WareHousePlant "1" -> "*"  AGVDock
WareHousePlant "1" -> "*" AGV
WareHousePlant "1" -> "*" Aisle
Aisle "1" -> "1*" Row
Aisle "1" -> "1" Accessibility
AGV "1" -> "1" AGVDock
AGV "1" -> "1" Task
AGVDock "1" -> "1" Accessibility

@enduml

PlantUML version 1.2021.11(Sat Oct 02 14:26:11 BST 2021)
(GPL source distribution)
Java Runtime: OpenJDK Runtime Environment
JVM: OpenJDK 64-Bit Server VM
Default Encoding: Cp1252
Language: pt
Country: PT
--></g></svg>