<?xml version="1.0" encoding="UTF-8" standalone="no"?><svg xmlns="http://www.w3.org/2000/svg" xmlns:xlink="http://www.w3.org/1999/xlink" contentScriptType="application/ecmascript" contentStyleType="text/css" height="294px" preserveAspectRatio="none" style="width:1297px;height:294px;background:#FFFFFF;" version="1.1" viewBox="0 0 1297 294" width="1297px" zoomAndPan="magnify"><defs><filter height="300%" id="f14v0sr6cuqd26" width="300%" x="-1" y="-1"><feGaussianBlur result="blurOut" stdDeviation="2.0"/><feColorMatrix in="blurOut" result="blurOut2" type="matrix" values="0 0 0 0 0 0 0 0 0 0 0 0 0 0 0 0 0 0 .4 0"/><feOffset dx="4.0" dy="4.0" in="blurOut2" result="blurOut3"/><feBlend in="SourceGraphic" in2="blurOut3" mode="normal"/></filter></defs><g><!--MD5=[fd285be1a5be58179fd2cb1619bacb85]
class WareHousePlant--><rect codeLine="2" fill="#FEFECE" filter="url(#f14v0sr6cuqd26)" height="153.0391" id="WareHousePlant" style="stroke:#A80036;stroke-width:1.5;" width="167" x="7" y="99.63"/><ellipse cx="40.45" cy="119.7238" fill="#ADD1B2" rx="11" ry="11" style="stroke:#A80036;stroke-width:1.0;"/><path d="M38.95,120.7238 L38.95,122.7238 L42.95,122.7238 L42.95,121.7238 L42.95,121.2394 L43.575,120.7238 L43.95,120.7238 L44.325,120.7238 L44.95,121.2394 L44.95,121.7238 L44.95,124.7238 L36.95,124.7238 L36.4656,124.7238 L35.95,124.0988 L35.95,123.7238 L35.95,123.3488 L36.4656,122.7238 L36.95,122.7238 L36.95,122.7238 L36.95,116.7238 L36.95,116.7238 L36.4656,116.7238 L35.95,116.0988 L35.95,115.7238 L35.95,115.3488 L36.4656,114.7238 L36.95,114.7238 L44.95,114.7238 L44.95,117.7238 L44.95,118.2081 L44.325,118.7238 L43.95,118.7238 L43.575,118.7238 L42.95,118.2081 L42.95,117.7238 L42.95,116.7238 L38.95,116.7238 L38.95,118.7238 L39.95,118.7238 L39.95,118.2394 L39.95,118.2394 L40.575,117.7238 L40.95,117.7238 L41.325,117.7238 L41.95,118.2394 L41.95,118.7238 L41.95,120.7238 L41.95,121.2081 L41.325,121.7238 L41.325,121.7238 L40.95,121.7238 L40.575,121.7238 L39.95,121.2081 L39.95,121.2081 L39.95,120.7238 L38.95,120.7238 Z " fill="#000000"/><text fill="#000000" font-family="sans-serif" font-size="12" font-style="italic" lengthAdjust="spacing" textLength="67" x="72.05" y="117.087">«entity root»</text><text fill="#000000" font-family="sans-serif" font-size="12" lengthAdjust="spacing" textLength="94" x="58.55" y="132.1808">WareHousePlant</text><line style="stroke:#A80036;stroke-width:1.5;" x1="8" x2="173" y1="139.8175" y2="139.8175"/><rect fill="none" height="6" style="stroke:#C82930;stroke-width:1.0;" width="6" x="15" y="147.8175"/><text fill="#000000" font-family="sans-serif" font-size="11" lengthAdjust="spacing" textLength="84" x="27" y="155.2364">String description</text><rect fill="none" height="6" style="stroke:#C82930;stroke-width:1.0;" width="6" x="15" y="161.6534"/><text fill="#000000" font-family="sans-serif" font-size="11" lengthAdjust="spacing" textLength="43" x="27" y="169.0724">int length</text><rect fill="none" height="6" style="stroke:#C82930;stroke-width:1.0;" width="6" x="15" y="175.4894"/><text fill="#000000" font-family="sans-serif" font-size="11" lengthAdjust="spacing" textLength="41" x="27" y="182.9083">int width</text><rect fill="none" height="6" style="stroke:#C82930;stroke-width:1.0;" width="6" x="15" y="189.3253"/><text fill="#000000" font-family="sans-serif" font-size="11" lengthAdjust="spacing" textLength="48" x="27" y="196.7443">int square</text><rect fill="none" height="6" style="stroke:#C82930;stroke-width:1.0;" width="6" x="15" y="203.1613"/><text fill="#000000" font-family="sans-serif" font-size="11" lengthAdjust="spacing" textLength="48" x="27" y="210.5802">String unit</text><rect fill="none" height="6" style="stroke:#C82930;stroke-width:1.0;" width="6" x="15" y="216.9972"/><text fill="#000000" font-family="sans-serif" font-size="11" lengthAdjust="spacing" textLength="99" x="27" y="224.4161">List&lt;Aisle&gt; listAisles</text><rect fill="none" height="6" style="stroke:#C82930;stroke-width:1.0;" width="6" x="15" y="230.8331"/><text fill="#000000" font-family="sans-serif" font-size="11" lengthAdjust="spacing" textLength="141" x="27" y="238.2521">List&lt;AGVDock&gt; listAGVDock</text><line style="stroke:#A80036;stroke-width:1.5;" x1="8" x2="173" y1="244.6691" y2="244.6691"/><!--MD5=[0a2f0ce5c49321e9082933c32b514ce4]
class Aisle--><rect codeLine="12" fill="#FEFECE" filter="url(#f14v0sr6cuqd26)" height="111.5313" id="Aisle" style="stroke:#A80036;stroke-width:1.5;" width="179" x="209" y="120.13"/><ellipse cx="274.75" cy="140.2238" fill="#ADD1B2" rx="11" ry="11" style="stroke:#A80036;stroke-width:1.0;"/><path d="M273.25,141.2238 L273.25,143.2238 L277.25,143.2238 L277.25,142.2238 L277.25,141.7394 L277.875,141.2238 L278.25,141.2238 L278.625,141.2238 L279.25,141.7394 L279.25,142.2238 L279.25,145.2238 L271.25,145.2238 L270.7656,145.2238 L270.25,144.5988 L270.25,144.2238 L270.25,143.8488 L270.7656,143.2238 L271.25,143.2238 L271.25,143.2238 L271.25,137.2238 L271.25,137.2238 L270.7656,137.2238 L270.25,136.5988 L270.25,136.2238 L270.25,135.8488 L270.7656,135.2238 L271.25,135.2238 L279.25,135.2238 L279.25,138.2238 L279.25,138.7081 L278.625,139.2238 L278.25,139.2238 L277.875,139.2238 L277.25,138.7081 L277.25,138.2238 L277.25,137.2238 L273.25,137.2238 L273.25,139.2238 L274.25,139.2238 L274.25,138.7394 L274.25,138.7394 L274.875,138.2238 L275.25,138.2238 L275.625,138.2238 L276.25,138.7394 L276.25,139.2238 L276.25,141.2238 L276.25,141.7081 L275.625,142.2238 L275.625,142.2238 L275.25,142.2238 L274.875,142.2238 L274.25,141.7081 L274.25,141.7081 L274.25,141.2238 L273.25,141.2238 Z " fill="#000000"/><text fill="#000000" font-family="sans-serif" font-size="12" font-style="italic" lengthAdjust="spacing" textLength="43" x="293.25" y="137.587">«entity»</text><text fill="#000000" font-family="sans-serif" font-size="12" lengthAdjust="spacing" textLength="27" x="301.25" y="152.6808">Aisle</text><line style="stroke:#A80036;stroke-width:1.5;" x1="210" x2="387" y1="160.3175" y2="160.3175"/><rect fill="none" height="6" style="stroke:#C82930;stroke-width:1.0;" width="6" x="217" y="168.3175"/><text fill="#000000" font-family="sans-serif" font-size="11" lengthAdjust="spacing" textLength="31" x="229" y="175.7364">long id</text><text fill="#000000" font-family="sans-serif" font-size="11" font-weight="bold" lengthAdjust="spacing" textLength="72" x="263" y="175.7364">PRIMARY KEY</text><text fill="#000000" font-family="sans-serif" font-size="11" lengthAdjust="spacing" textLength="3" x="335" y="175.7364">;</text><rect fill="none" height="6" style="stroke:#C82930;stroke-width:1.0;" width="6" x="217" y="182.1534"/><text fill="#000000" font-family="sans-serif" font-size="11" lengthAdjust="spacing" textLength="79" x="229" y="189.5724">int idWareHouse</text><text fill="#000000" font-family="sans-serif" font-size="11" font-weight="bold" lengthAdjust="spacing" textLength="68" x="311" y="189.5724">FOREIGN KEY</text><text fill="#000000" font-family="sans-serif" font-size="11" lengthAdjust="spacing" textLength="3" x="379" y="189.5724">;</text><rect fill="none" height="6" style="stroke:#C82930;stroke-width:1.0;" width="6" x="217" y="195.9894"/><text fill="#000000" font-family="sans-serif" font-size="11" lengthAdjust="spacing" textLength="126" x="229" y="203.4083">Accessibility accessibility;</text><rect fill="none" height="6" style="stroke:#C82930;stroke-width:1.0;" width="6" x="217" y="209.8253"/><text fill="#000000" font-family="sans-serif" font-size="11" lengthAdjust="spacing" textLength="100" x="229" y="217.2443">List&lt;Row&gt; listRows;</text><line style="stroke:#A80036;stroke-width:1.5;" x1="210" x2="387" y1="223.6613" y2="223.6613"/><!--MD5=[05aedcff764caeeb5d443618a4d90de7]
class Row--><rect codeLine="19" fill="#FEFECE" filter="url(#f14v0sr6cuqd26)" height="97.6953" id="Row" style="stroke:#A80036;stroke-width:1.5;" width="152" x="423.5" y="127.13"/><ellipse cx="475.75" cy="147.2238" fill="#ADD1B2" rx="11" ry="11" style="stroke:#A80036;stroke-width:1.0;"/><path d="M474.25,148.2238 L474.25,150.2238 L478.25,150.2238 L478.25,149.2238 L478.25,148.7394 L478.875,148.2238 L479.25,148.2238 L479.625,148.2238 L480.25,148.7394 L480.25,149.2238 L480.25,152.2238 L472.25,152.2238 L471.7656,152.2238 L471.25,151.5988 L471.25,151.2238 L471.25,150.8488 L471.7656,150.2238 L472.25,150.2238 L472.25,150.2238 L472.25,144.2238 L472.25,144.2238 L471.7656,144.2238 L471.25,143.5988 L471.25,143.2238 L471.25,142.8488 L471.7656,142.2238 L472.25,142.2238 L480.25,142.2238 L480.25,145.2238 L480.25,145.7081 L479.625,146.2238 L479.25,146.2238 L478.875,146.2238 L478.25,145.7081 L478.25,145.2238 L478.25,144.2238 L474.25,144.2238 L474.25,146.2238 L475.25,146.2238 L475.25,145.7394 L475.25,145.7394 L475.875,145.2238 L476.25,145.2238 L476.625,145.2238 L477.25,145.7394 L477.25,146.2238 L477.25,148.2238 L477.25,148.7081 L476.625,149.2238 L476.625,149.2238 L476.25,149.2238 L475.875,149.2238 L475.25,148.7081 L475.25,148.7081 L475.25,148.2238 L474.25,148.2238 Z " fill="#000000"/><text fill="#000000" font-family="sans-serif" font-size="12" font-style="italic" lengthAdjust="spacing" textLength="43" x="494.25" y="144.587">«entity»</text><text fill="#000000" font-family="sans-serif" font-size="12" lengthAdjust="spacing" textLength="25" x="503.25" y="159.6808">Row</text><line style="stroke:#A80036;stroke-width:1.5;" x1="424.5" x2="574.5" y1="167.3175" y2="167.3175"/><rect fill="none" height="6" style="stroke:#C82930;stroke-width:1.0;" width="6" x="431.5" y="175.3175"/><text fill="#000000" font-family="sans-serif" font-size="11" lengthAdjust="spacing" textLength="31" x="443.5" y="182.7364">long id</text><text fill="#000000" font-family="sans-serif" font-size="11" font-weight="bold" lengthAdjust="spacing" textLength="72" x="477.5" y="182.7364">PRIMARY KEY</text><text fill="#000000" font-family="sans-serif" font-size="11" lengthAdjust="spacing" textLength="3" x="549.5" y="182.7364">;</text><rect fill="none" height="6" style="stroke:#C82930;stroke-width:1.0;" width="6" x="431.5" y="189.1534"/><text fill="#000000" font-family="sans-serif" font-size="11" lengthAdjust="spacing" textLength="52" x="443.5" y="196.5724">int idAisles</text><text fill="#000000" font-family="sans-serif" font-size="11" font-weight="bold" lengthAdjust="spacing" textLength="68" x="498.5" y="196.5724">FOREIGN KEY</text><text fill="#000000" font-family="sans-serif" font-size="11" lengthAdjust="spacing" textLength="3" x="566.5" y="196.5724">;</text><rect fill="none" height="6" style="stroke:#C82930;stroke-width:1.0;" width="6" x="431.5" y="202.9894"/><text fill="#000000" font-family="sans-serif" font-size="11" lengthAdjust="spacing" textLength="55" x="443.5" y="210.4083">int shelves;</text><line style="stroke:#A80036;stroke-width:1.5;" x1="424.5" x2="574.5" y1="216.8253" y2="216.8253"/><!--MD5=[6c8d26f6d50c9b5da41494faa6136af8]
class AGVDock--><rect codeLine="25" fill="#FEFECE" filter="url(#f14v0sr6cuqd26)" height="83.8594" id="AGVDock" style="stroke:#A80036;stroke-width:1.5;" width="152" x="976.5" y="134.13"/><ellipse cx="1022.75" cy="154.2238" fill="#ADD1B2" rx="11" ry="11" style="stroke:#A80036;stroke-width:1.0;"/><path d="M1021.25,155.2238 L1021.25,157.2238 L1025.25,157.2238 L1025.25,156.2238 L1025.25,155.7394 L1025.875,155.2238 L1026.25,155.2238 L1026.625,155.2238 L1027.25,155.7394 L1027.25,156.2238 L1027.25,159.2238 L1019.25,159.2238 L1018.7656,159.2238 L1018.25,158.5988 L1018.25,158.2238 L1018.25,157.8488 L1018.7656,157.2238 L1019.25,157.2238 L1019.25,157.2238 L1019.25,151.2238 L1019.25,151.2238 L1018.7656,151.2238 L1018.25,150.5988 L1018.25,150.2238 L1018.25,149.8488 L1018.7656,149.2238 L1019.25,149.2238 L1027.25,149.2238 L1027.25,152.2238 L1027.25,152.7081 L1026.625,153.2238 L1026.25,153.2238 L1025.875,153.2238 L1025.25,152.7081 L1025.25,152.2238 L1025.25,151.2238 L1021.25,151.2238 L1021.25,153.2238 L1022.25,153.2238 L1022.25,152.7394 L1022.25,152.7394 L1022.875,152.2238 L1023.25,152.2238 L1023.625,152.2238 L1024.25,152.7394 L1024.25,153.2238 L1024.25,155.2238 L1024.25,155.7081 L1023.625,156.2238 L1023.625,156.2238 L1023.25,156.2238 L1022.875,156.2238 L1022.25,155.7081 L1022.25,155.7081 L1022.25,155.2238 L1021.25,155.2238 Z " fill="#000000"/><text fill="#000000" font-family="sans-serif" font-size="12" font-style="italic" lengthAdjust="spacing" textLength="43" x="1047.25" y="151.587">«entity»</text><text fill="#000000" font-family="sans-serif" font-size="12" lengthAdjust="spacing" textLength="51" x="1043.25" y="166.6808">AGVDock</text><line style="stroke:#A80036;stroke-width:1.5;" x1="977.5" x2="1127.5" y1="174.3175" y2="174.3175"/><rect fill="none" height="6" style="stroke:#C82930;stroke-width:1.0;" width="6" x="984.5" y="182.3175"/><text fill="#000000" font-family="sans-serif" font-size="11" lengthAdjust="spacing" textLength="31" x="996.5" y="189.7364">long id</text><text fill="#000000" font-family="sans-serif" font-size="11" font-weight="bold" lengthAdjust="spacing" textLength="72" x="1030.5" y="189.7364">PRIMARY KEY</text><text fill="#000000" font-family="sans-serif" font-size="11" lengthAdjust="spacing" textLength="3" x="1102.5" y="189.7364">;</text><rect fill="none" height="6" style="stroke:#C82930;stroke-width:1.0;" width="6" x="984.5" y="196.1534"/><text fill="#000000" font-family="sans-serif" font-size="11" lengthAdjust="spacing" textLength="126" x="996.5" y="203.5724">Accessibility accessibility;</text><line style="stroke:#A80036;stroke-width:1.5;" x1="977.5" x2="1127.5" y1="209.9894" y2="209.9894"/><!--MD5=[7620fae2775ebf09e1a63cf069b3747d]
class Accessibility--><rect codeLine="30" fill="#FEFECE" filter="url(#f14v0sr6cuqd26)" height="70.0234" id="Accessibility" style="stroke:#A80036;stroke-width:1.5;" width="119" x="1164" y="141.13"/><ellipse cx="1183.5" cy="161.2238" fill="#ADD1B2" rx="11" ry="11" style="stroke:#A80036;stroke-width:1.0;"/><path d="M1185.5,157.7238 Q1185.7031,157.2238 1185.9375,156.9738 Q1186.1719,156.7238 1186.4375,156.7238 Q1186.9063,156.7238 1187.2031,157.005 Q1187.5,157.2863 1187.5,157.9425 L1187.5,159.505 Q1187.5,160.1613 1187.2188,160.4425 Q1186.9375,160.7238 1186.5,160.7238 Q1186.1094,160.7238 1185.8594,160.5519 Q1185.6094,160.38 1185.5,159.9269 Q1185.4531,159.6144 1185.2813,159.4425 Q1184.9688,159.1144 1184.4063,158.9269 Q1183.8438,158.7238 1183.2813,158.7238 Q1182.5781,158.7238 1181.9844,159.005 Q1181.4063,159.2863 1180.9531,159.9113 Q1180.5,160.5363 1180.5,161.3956 L1180.5,162.3175 Q1180.5,163.3488 1181.3438,164.0363 Q1182.1875,164.7238 1183.6875,164.7238 Q1184.5781,164.7238 1185.2031,164.5206 Q1185.5625,164.4113 1185.9688,164.0519 Q1186.2344,163.8488 1186.375,163.7863 Q1186.5156,163.7238 1186.6875,163.7238 Q1187.0156,163.7238 1187.25,163.9894 Q1187.5,164.2394 1187.5,164.5988 Q1187.5,164.9425 1187.1563,165.3488 Q1186.6563,165.9425 1185.8594,166.2706 Q1184.8125,166.7238 1183.5313,166.7238 Q1182.0313,166.7238 1180.8281,166.13 Q1179.8594,165.6613 1179.1719,164.6456 Q1178.5,163.63 1178.5,162.4269 L1178.5,161.3331 Q1178.5,160.0831 1179.0938,158.9894 Q1179.7031,157.8956 1180.75,157.3175 Q1181.8125,156.7238 1183,156.7238 Q1183.7188,156.7238 1184.3438,156.9738 Q1184.9688,157.2238 1185.5,157.7238 Z " fill="#000000"/><text fill="#000000" font-family="sans-serif" font-size="12" font-style="italic" lengthAdjust="spacing" textLength="81" x="1196.5" y="158.587">«value object»</text><text fill="#000000" font-family="sans-serif" font-size="12" lengthAdjust="spacing" textLength="67" x="1203.5" y="173.6808">Accessibility</text><line style="stroke:#A80036;stroke-width:1.5;" x1="1165" x2="1282" y1="181.3175" y2="181.3175"/><rect fill="none" height="6" style="stroke:#C82930;stroke-width:1.0;" width="6" x="1172" y="189.3175"/><text fill="#000000" font-family="sans-serif" font-size="11" lengthAdjust="spacing" textLength="93" x="1184" y="196.7364">String accessibility;</text><line style="stroke:#A80036;stroke-width:1.5;" x1="1165" x2="1282" y1="203.1534" y2="203.1534"/><!--MD5=[53b2c06ade5903185ca3326dce80e141]
class AGV--><rect codeLine="35" fill="#FEFECE" filter="url(#f14v0sr6cuqd26)" height="208.3828" id="AGV" style="stroke:#A80036;stroke-width:1.5;" width="135" x="611" y="72.13"/><ellipse cx="654.8" cy="92.2238" fill="#ADD1B2" rx="11" ry="11" style="stroke:#A80036;stroke-width:1.0;"/><path d="M653.3,93.2238 L653.3,95.2238 L657.3,95.2238 L657.3,94.2238 L657.3,93.7394 L657.925,93.2238 L658.3,93.2238 L658.675,93.2238 L659.3,93.7394 L659.3,94.2238 L659.3,97.2238 L651.3,97.2238 L650.8156,97.2238 L650.3,96.5988 L650.3,96.2238 L650.3,95.8488 L650.8156,95.2238 L651.3,95.2238 L651.3,95.2238 L651.3,89.2238 L651.3,89.2238 L650.8156,89.2238 L650.3,88.5988 L650.3,88.2238 L650.3,87.8488 L650.8156,87.2238 L651.3,87.2238 L659.3,87.2238 L659.3,90.2238 L659.3,90.7081 L658.675,91.2238 L658.3,91.2238 L657.925,91.2238 L657.3,90.7081 L657.3,90.2238 L657.3,89.2238 L653.3,89.2238 L653.3,91.2238 L654.3,91.2238 L654.3,90.7394 L654.3,90.7394 L654.925,90.2238 L655.3,90.2238 L655.675,90.2238 L656.3,90.7394 L656.3,91.2238 L656.3,93.2238 L656.3,93.7081 L655.675,94.2238 L655.675,94.2238 L655.3,94.2238 L654.925,94.2238 L654.3,93.7081 L654.3,93.7081 L654.3,93.2238 L653.3,93.2238 Z " fill="#000000"/><text fill="#000000" font-family="sans-serif" font-size="12" font-style="italic" lengthAdjust="spacing" textLength="43" x="673.2" y="89.587">«entity»</text><text fill="#000000" font-family="sans-serif" font-size="12" lengthAdjust="spacing" textLength="23" x="683.2" y="104.6808">AGV</text><line style="stroke:#A80036;stroke-width:1.5;" x1="612" x2="745" y1="112.3175" y2="112.3175"/><rect fill="none" height="6" style="stroke:#C82930;stroke-width:1.0;" width="6" x="619" y="120.3175"/><text fill="#000000" font-family="sans-serif" font-size="11" lengthAdjust="spacing" textLength="31" x="631" y="127.7364">long id</text><text fill="#000000" font-family="sans-serif" font-size="11" font-weight="bold" lengthAdjust="spacing" textLength="72" x="665" y="127.7364">PRIMARY KEY</text><text fill="#000000" font-family="sans-serif" font-size="11" lengthAdjust="spacing" textLength="3" x="737" y="127.7364">;</text><rect fill="none" height="6" style="stroke:#C82930;stroke-width:1.0;" width="6" x="619" y="134.1534"/><text fill="#000000" font-family="sans-serif" font-size="11" lengthAdjust="spacing" textLength="87" x="631" y="141.5724">String description;</text><rect fill="none" height="6" style="stroke:#C82930;stroke-width:1.0;" width="6" x="619" y="147.9894"/><text fill="#000000" font-family="sans-serif" font-size="11" lengthAdjust="spacing" textLength="62" x="631" y="155.4083">String model;</text><rect fill="none" height="6" style="stroke:#C82930;stroke-width:1.0;" width="6" x="619" y="161.8253"/><text fill="#000000" font-family="sans-serif" font-size="11" lengthAdjust="spacing" textLength="91" x="631" y="169.2443">double maxWeight;</text><rect fill="none" height="6" style="stroke:#C82930;stroke-width:1.0;" width="6" x="619" y="175.6613"/><text fill="#000000" font-family="sans-serif" font-size="11" lengthAdjust="spacing" textLength="94" x="631" y="183.0802">double maxVolume;</text><rect fill="none" height="6" style="stroke:#C82930;stroke-width:1.0;" width="6" x="619" y="189.4972"/><text fill="#000000" font-family="sans-serif" font-size="11" lengthAdjust="spacing" textLength="74" x="631" y="196.9161">boolean status;</text><rect fill="none" height="6" style="stroke:#C82930;stroke-width:1.0;" width="6" x="619" y="203.3331"/><text fill="#000000" font-family="sans-serif" font-size="11" lengthAdjust="spacing" textLength="61" x="631" y="210.7521">int positionX;</text><rect fill="none" height="6" style="stroke:#C82930;stroke-width:1.0;" width="6" x="619" y="217.1691"/><text fill="#000000" font-family="sans-serif" font-size="11" lengthAdjust="spacing" textLength="62" x="631" y="224.588">int positionY;</text><rect fill="none" height="6" style="stroke:#C82930;stroke-width:1.0;" width="6" x="619" y="231.005"/><text fill="#000000" font-family="sans-serif" font-size="11" lengthAdjust="spacing" textLength="80" x="631" y="238.4239">int autonomyMin;</text><rect fill="none" height="6" style="stroke:#C82930;stroke-width:1.0;" width="6" x="619" y="244.8409"/><text fill="#000000" font-family="sans-serif" font-size="11" lengthAdjust="spacing" textLength="49" x="631" y="252.2599">Task task;</text><rect fill="none" height="6" style="stroke:#C82930;stroke-width:1.0;" width="6" x="619" y="258.6769"/><text fill="#000000" font-family="sans-serif" font-size="11" lengthAdjust="spacing" textLength="96" x="631" y="266.0958">AGVDock agvDock;</text><line style="stroke:#A80036;stroke-width:1.5;" x1="612" x2="745" y1="272.5128" y2="272.5128"/><!--MD5=[b34797a66dc35cbf1d65f7e3ca75530e]
class Task--><rect codeLine="49" fill="#FEFECE" filter="url(#f14v0sr6cuqd26)" height="111.5313" id="Task" style="stroke:#A80036;stroke-width:1.5;" width="160" x="781.5" y="120.13"/><ellipse cx="837.75" cy="140.2238" fill="#ADD1B2" rx="11" ry="11" style="stroke:#A80036;stroke-width:1.0;"/><path d="M836.25,141.2238 L836.25,143.2238 L840.25,143.2238 L840.25,142.2238 L840.25,141.7394 L840.875,141.2238 L841.25,141.2238 L841.625,141.2238 L842.25,141.7394 L842.25,142.2238 L842.25,145.2238 L834.25,145.2238 L833.7656,145.2238 L833.25,144.5988 L833.25,144.2238 L833.25,143.8488 L833.7656,143.2238 L834.25,143.2238 L834.25,143.2238 L834.25,137.2238 L834.25,137.2238 L833.7656,137.2238 L833.25,136.5988 L833.25,136.2238 L833.25,135.8488 L833.7656,135.2238 L834.25,135.2238 L842.25,135.2238 L842.25,138.2238 L842.25,138.7081 L841.625,139.2238 L841.25,139.2238 L840.875,139.2238 L840.25,138.7081 L840.25,138.2238 L840.25,137.2238 L836.25,137.2238 L836.25,139.2238 L837.25,139.2238 L837.25,138.7394 L837.25,138.7394 L837.875,138.2238 L838.25,138.2238 L838.625,138.2238 L839.25,138.7394 L839.25,139.2238 L839.25,141.2238 L839.25,141.7081 L838.625,142.2238 L838.625,142.2238 L838.25,142.2238 L837.875,142.2238 L837.25,141.7081 L837.25,141.7081 L837.25,141.2238 L836.25,141.2238 Z " fill="#000000"/><text fill="#000000" font-family="sans-serif" font-size="12" font-style="italic" lengthAdjust="spacing" textLength="43" x="856.25" y="137.587">«entity»</text><text fill="#000000" font-family="sans-serif" font-size="12" lengthAdjust="spacing" textLength="27" x="864.25" y="152.6808">Task</text><line style="stroke:#A80036;stroke-width:1.5;" x1="782.5" x2="940.5" y1="160.3175" y2="160.3175"/><rect fill="none" height="6" style="stroke:#C82930;stroke-width:1.0;" width="6" x="789.5" y="168.3175"/><text fill="#000000" font-family="sans-serif" font-size="11" lengthAdjust="spacing" textLength="31" x="801.5" y="175.7364">long id</text><text fill="#000000" font-family="sans-serif" font-size="11" font-weight="bold" lengthAdjust="spacing" textLength="72" x="835.5" y="175.7364">PRIMARY KEY</text><text fill="#000000" font-family="sans-serif" font-size="11" lengthAdjust="spacing" textLength="3" x="907.5" y="175.7364">;</text><rect fill="none" height="6" style="stroke:#C82930;stroke-width:1.0;" width="6" x="789.5" y="182.1534"/><text fill="#000000" font-family="sans-serif" font-size="11" lengthAdjust="spacing" textLength="73" x="801.5" y="189.5724">AGV agvResp;</text><rect fill="none" height="6" style="stroke:#C82930;stroke-width:1.0;" width="6" x="789.5" y="195.9894"/><text fill="#000000" font-family="sans-serif" font-size="11" lengthAdjust="spacing" textLength="64" x="801.5" y="203.4083">String status;</text><rect fill="none" height="6" style="stroke:#C82930;stroke-width:1.0;" width="6" x="789.5" y="209.8253"/><text fill="#000000" font-family="sans-serif" font-size="11" lengthAdjust="spacing" textLength="134" x="801.5" y="217.2443">List&lt;Products&gt; listProducts;</text><line style="stroke:#A80036;stroke-width:1.5;" x1="782.5" x2="940.5" y1="223.6613" y2="223.6613"/><!--MD5=[bd2765a2de23b6b0e289828a0e12d807]
link WareHousePlant to AGVDock--><path codeLine="56" d="M139.07,99.59 C157.87,76.74 181.54,54.51 209,42.13 C283.25,8.67 868.33,7.39 942,42.13 C980.08,60.09 1009.5,98.32 1028.37,129.37 " fill="none" id="WareHousePlant-to-AGVDock" style="stroke:#A80036;stroke-width:1.0;"/><polygon fill="#A80036" points="1031.08,133.9,1029.9035,124.1217,1028.5181,129.6062,1023.0335,128.2208,1031.08,133.9" style="stroke:#A80036;stroke-width:1.0;"/><text fill="#000000" font-family="sans-serif" font-size="13" lengthAdjust="spacing" textLength="7" x="136.5066" y="88.7786">1</text><text fill="#000000" font-family="sans-serif" font-size="13" lengthAdjust="spacing" textLength="5" x="1022.2678" y="123.4289">*</text><!--MD5=[afe5d042239b9cb3dab8fbf4d729371d]
link WareHousePlant to AGV--><path codeLine="57" d="M139.07,99.59 C157.87,76.74 181.54,54.51 209,42.13 C283.36,8.63 502.88,6 576,42.13 C589.21,48.66 601.19,57.8 611.91,68.26 " fill="none" id="WareHousePlant-to-AGV" style="stroke:#A80036;stroke-width:1.0;"/><polygon fill="#A80036" points="615.49,71.86,611.973,62.6605,611.9616,68.3173,606.3048,68.3059,615.49,71.86" style="stroke:#A80036;stroke-width:1.0;"/><text fill="#000000" font-family="sans-serif" font-size="13" lengthAdjust="spacing" textLength="7" x="144.1956" y="88.7786">1</text><text fill="#000000" font-family="sans-serif" font-size="13" lengthAdjust="spacing" textLength="5" x="605.6791" y="61.1091">*</text><!--MD5=[ae5f39c2ef1272409f9f623d4dc5b682]
link WareHousePlant to Aisle--><path codeLine="58" d="M174.19,176.13 C183.97,176.13 193.76,176.13 203.55,176.13 " fill="none" id="WareHousePlant-to-Aisle" style="stroke:#A80036;stroke-width:1.0;"/><polygon fill="#A80036" points="208.66,176.13,199.66,172.13,203.66,176.13,199.66,180.13,208.66,176.13" style="stroke:#A80036;stroke-width:1.0;"/><text fill="#000000" font-family="sans-serif" font-size="13" lengthAdjust="spacing" textLength="7" x="181.9554" y="172.9265">1</text><text fill="#000000" font-family="sans-serif" font-size="13" lengthAdjust="spacing" textLength="5" x="196.0131" y="172.9966">*</text><!--MD5=[c7a7c255159fc536cc39704e0abcbfe1]
link Aisle to Row--><path codeLine="59" d="M388.01,176.13 C398.02,176.13 408.03,176.13 418.05,176.13 " fill="none" id="Aisle-to-Row" style="stroke:#A80036;stroke-width:1.0;"/><polygon fill="#A80036" points="423.28,176.13,414.28,172.13,418.28,176.13,414.28,180.13,423.28,176.13" style="stroke:#A80036;stroke-width:1.0;"/><text fill="#000000" font-family="sans-serif" font-size="13" lengthAdjust="spacing" textLength="7" x="396.003" y="172.9729">1</text><text fill="#000000" font-family="sans-serif" font-size="13" lengthAdjust="spacing" textLength="12" x="403.4434" y="172.8939">1*</text><!--MD5=[8fdfc9eb3c76268eec557d601d1ef891]
link Aisle to Accessibility--><path codeLine="60" d="M334.21,119.92 C356.17,90.82 387.15,58.1 424,42.13 C495.87,10.97 1059.46,6.08 1129,42.13 C1166.94,61.8 1192.88,104.48 1207.84,136.42 " fill="none" id="Aisle-to-Accessibility" style="stroke:#A80036;stroke-width:1.0;"/><polygon fill="#A80036" points="1209.97,141.05,1209.8244,131.2022,1207.872,136.5115,1202.5628,134.559,1209.97,141.05" style="stroke:#A80036;stroke-width:1.0;"/><text fill="#000000" font-family="sans-serif" font-size="13" lengthAdjust="spacing" textLength="7" x="331.3369" y="109.2408">1</text><text fill="#000000" font-family="sans-serif" font-size="13" lengthAdjust="spacing" textLength="7" x="1199.7237" y="130.3643">1</text><!--MD5=[f109197b03652dc794d321c2b6eb6935]
link AGV to AGVDock--><path codeLine="61" d="M742.25,71.85 C753.96,59.88 767.22,49.39 782,42.13 C845.83,10.78 877.68,11.8 942,42.13 C980.08,60.09 1009.5,98.32 1028.37,129.37 " fill="none" id="AGV-to-AGVDock" style="stroke:#A80036;stroke-width:1.0;"/><polygon fill="#A80036" points="1031.08,133.9,1029.9035,124.1217,1028.5181,129.6062,1023.0335,128.2208,1031.08,133.9" style="stroke:#A80036;stroke-width:1.0;"/><text fill="#000000" font-family="sans-serif" font-size="13" lengthAdjust="spacing" textLength="7" x="739.6746" y="61.0984">1</text><text fill="#000000" font-family="sans-serif" font-size="13" lengthAdjust="spacing" textLength="7" x="1028.224" y="123.4289">1</text><!--MD5=[436492a8722677b8f40c7c1b2a179142]
link AGV to Task--><path codeLine="62" d="M746.05,176.13 C756.04,176.13 766.02,176.13 776.01,176.13 " fill="none" id="AGV-to-Task" style="stroke:#A80036;stroke-width:1.0;"/><polygon fill="#A80036" points="781.23,176.13,772.23,172.13,776.23,176.13,772.23,180.13,781.23,176.13" style="stroke:#A80036;stroke-width:1.0;"/><text fill="#000000" font-family="sans-serif" font-size="13" lengthAdjust="spacing" textLength="7" x="753.8211" y="172.7484">1</text><text fill="#000000" font-family="sans-serif" font-size="13" lengthAdjust="spacing" textLength="7" x="766.5075" y="172.9254">1</text><!--MD5=[0e4825c31183382a9d2f9c526d983221]
link AGVDock to Accessibility--><path codeLine="63" d="M1128.65,176.13 C1138.64,176.13 1148.63,176.13 1158.62,176.13 " fill="none" id="AGVDock-to-Accessibility" style="stroke:#A80036;stroke-width:1.0;"/><polygon fill="#A80036" points="1163.85,176.13,1154.85,172.13,1158.85,176.13,1154.85,180.13,1163.85,176.13" style="stroke:#A80036;stroke-width:1.0;"/><text fill="#000000" font-family="sans-serif" font-size="13" lengthAdjust="spacing" textLength="7" x="1136.4905" y="172.8618">1</text><text fill="#000000" font-family="sans-serif" font-size="13" lengthAdjust="spacing" textLength="7" x="1149.1536" y="172.6701">1</text><!--MD5=[490fb339622e221578b5055a8d38e05b]
@startuml

Entity WareHousePlant<<entity root>> {
 -String description
 -int length
 -int width
 -int square
 -String unit
 -List<Aisle> listAisles
 -List<AGVDock> listAGVDock
}

Entity Aisle<<entity>>{
    -long id **PRIMARY KEY**;
    -int idWareHouse **FOREIGN KEY**;
    -Accessibility accessibility;
    -List<Row> listRows;
}

Entity Row<<entity>>{
    -long id **PRIMARY KEY**;
    -int idAisles **FOREIGN KEY**;
    -int shelves;
}

Entity AGVDock<<entity>>{
    -long id **PRIMARY KEY**;
    -Accessibility accessibility;
}

class Accessibility<<value object>>{
    -String accessibility;

}

Entity AGV<<entity>>{
    -long id **PRIMARY KEY**;
    -String description;
    -String model;
    -double maxWeight;
    -double maxVolume;
    -boolean status;
    -int positionX;
    -int positionY;
    -int autonomyMin;
    -Task task;
    -AGVDock agvDock;
}

Entity Task<<entity>>{
    -long id **PRIMARY KEY**;
    -AGV agvResp;
    -String status;
    -List<Products> listProducts;
}

WareHousePlant "1" -> "*"  AGVDock
WareHousePlant "1" -> "*" AGV
WareHousePlant "1" -> "*" Aisle
Aisle "1" -> "1*" Row
Aisle "1" -> "1" Accessibility
AGV "1" -> "1" AGVDock
AGV "1" -> "1" Task
AGVDock "1" -> "1" Accessibility

@enduml

PlantUML version 1.2021.11(Sat Oct 02 14:26:11 BST 2021)
(GPL source distribution)
Java Runtime: OpenJDK Runtime Environment
JVM: OpenJDK 64-Bit Server VM
Default Encoding: Cp1252
Language: pt
Country: PT
--></g></svg>