<?xml version="1.0" encoding="UTF-8" standalone="no"?><svg xmlns="http://www.w3.org/2000/svg" xmlns:xlink="http://www.w3.org/1999/xlink" contentScriptType="application/ecmascript" contentStyleType="text/css" height="361px" preserveAspectRatio="none" style="width:1034px;height:361px;background:#FFFFFF;" version="1.1" viewBox="0 0 1034 361" width="1034px" zoomAndPan="magnify"><defs><filter height="300%" id="f1potq17rihjp4" width="300%" x="-1" y="-1"><feGaussianBlur result="blurOut" stdDeviation="2.0"/><feColorMatrix in="blurOut" result="blurOut2" type="matrix" values="0 0 0 0 0 0 0 0 0 0 0 0 0 0 0 0 0 0 .4 0"/><feOffset dx="4.0" dy="4.0" in="blurOut2" result="blurOut3"/><feBlend in="SourceGraphic" in2="blurOut3" mode="normal"/></filter></defs><g><!--MD5=[fd285be1a5be58179fd2cb1619bacb85]
class WareHousePlant--><rect codeLine="2" fill="#FEFECE" filter="url(#f1potq17rihjp4)" height="153.0391" id="WareHousePlant" style="stroke:#A80036;stroke-width:1.5;" width="167" x="7" y="41.14"/><ellipse cx="40.45" cy="61.2337" fill="#ADD1B2" rx="11" ry="11" style="stroke:#A80036;stroke-width:1.0;"/><path d="M38.95,62.2337 L38.95,64.2337 L42.95,64.2337 L42.95,63.2337 L42.95,62.7494 L43.575,62.2337 L43.95,62.2337 L44.325,62.2337 L44.95,62.7494 L44.95,63.2337 L44.95,66.2337 L36.95,66.2337 L36.4656,66.2337 L35.95,65.6087 L35.95,65.2337 L35.95,64.8587 L36.4656,64.2337 L36.95,64.2337 L36.95,64.2337 L36.95,58.2337 L36.95,58.2337 L36.4656,58.2337 L35.95,57.6087 L35.95,57.2337 L35.95,56.8587 L36.4656,56.2337 L36.95,56.2337 L44.95,56.2337 L44.95,59.2337 L44.95,59.7181 L44.325,60.2337 L43.95,60.2337 L43.575,60.2337 L42.95,59.7181 L42.95,59.2337 L42.95,58.2337 L38.95,58.2337 L38.95,60.2337 L39.95,60.2337 L39.95,59.7494 L39.95,59.7494 L40.575,59.2337 L40.95,59.2337 L41.325,59.2337 L41.95,59.7494 L41.95,60.2337 L41.95,62.2337 L41.95,62.7181 L41.325,63.2337 L41.325,63.2337 L40.95,63.2337 L40.575,63.2337 L39.95,62.7181 L39.95,62.7181 L39.95,62.2337 L38.95,62.2337 Z " fill="#000000"/><text fill="#000000" font-family="sans-serif" font-size="12" font-style="italic" lengthAdjust="spacing" textLength="67" x="72.05" y="58.597">«entity root»</text><text fill="#000000" font-family="sans-serif" font-size="12" lengthAdjust="spacing" textLength="94" x="58.55" y="73.6908">WareHousePlant</text><line style="stroke:#A80036;stroke-width:1.5;" x1="8" x2="173" y1="81.3275" y2="81.3275"/><rect fill="none" height="6" style="stroke:#C82930;stroke-width:1.0;" width="6" x="15" y="89.3275"/><text fill="#000000" font-family="sans-serif" font-size="11" lengthAdjust="spacing" textLength="84" x="27" y="96.7464">String description</text><rect fill="none" height="6" style="stroke:#C82930;stroke-width:1.0;" width="6" x="15" y="103.1634"/><text fill="#000000" font-family="sans-serif" font-size="11" lengthAdjust="spacing" textLength="43" x="27" y="110.5824">int length</text><rect fill="none" height="6" style="stroke:#C82930;stroke-width:1.0;" width="6" x="15" y="116.9994"/><text fill="#000000" font-family="sans-serif" font-size="11" lengthAdjust="spacing" textLength="41" x="27" y="124.4183">int width</text><rect fill="none" height="6" style="stroke:#C82930;stroke-width:1.0;" width="6" x="15" y="130.8353"/><text fill="#000000" font-family="sans-serif" font-size="11" lengthAdjust="spacing" textLength="48" x="27" y="138.2543">int square</text><rect fill="none" height="6" style="stroke:#C82930;stroke-width:1.0;" width="6" x="15" y="144.6713"/><text fill="#000000" font-family="sans-serif" font-size="11" lengthAdjust="spacing" textLength="48" x="27" y="152.0902">String unit</text><rect fill="none" height="6" style="stroke:#C82930;stroke-width:1.0;" width="6" x="15" y="158.5072"/><text fill="#000000" font-family="sans-serif" font-size="11" lengthAdjust="spacing" textLength="99" x="27" y="165.9261">List&lt;Aisle&gt; listAisles</text><rect fill="none" height="6" style="stroke:#C82930;stroke-width:1.0;" width="6" x="15" y="172.3431"/><text fill="#000000" font-family="sans-serif" font-size="11" lengthAdjust="spacing" textLength="141" x="27" y="179.7621">List&lt;AGVDock&gt; listAGVDock</text><line style="stroke:#A80036;stroke-width:1.5;" x1="8" x2="173" y1="186.1791" y2="186.1791"/><!--MD5=[0a2f0ce5c49321e9082933c32b514ce4]
class Aisle--><rect codeLine="12" fill="#FEFECE" filter="url(#f1potq17rihjp4)" height="139.2031" id="Aisle" style="stroke:#A80036;stroke-width:1.5;" width="152" x="209.5" y="48.14"/><ellipse cx="261.75" cy="68.2337" fill="#ADD1B2" rx="11" ry="11" style="stroke:#A80036;stroke-width:1.0;"/><path d="M260.25,69.2337 L260.25,71.2337 L264.25,71.2337 L264.25,70.2337 L264.25,69.7494 L264.875,69.2337 L265.25,69.2337 L265.625,69.2337 L266.25,69.7494 L266.25,70.2337 L266.25,73.2337 L258.25,73.2337 L257.7656,73.2337 L257.25,72.6087 L257.25,72.2337 L257.25,71.8587 L257.7656,71.2337 L258.25,71.2337 L258.25,71.2337 L258.25,65.2337 L258.25,65.2337 L257.7656,65.2337 L257.25,64.6087 L257.25,64.2337 L257.25,63.8587 L257.7656,63.2337 L258.25,63.2337 L266.25,63.2337 L266.25,66.2337 L266.25,66.7181 L265.625,67.2337 L265.25,67.2337 L264.875,67.2337 L264.25,66.7181 L264.25,66.2337 L264.25,65.2337 L260.25,65.2337 L260.25,67.2337 L261.25,67.2337 L261.25,66.7494 L261.25,66.7494 L261.875,66.2337 L262.25,66.2337 L262.625,66.2337 L263.25,66.7494 L263.25,67.2337 L263.25,69.2337 L263.25,69.7181 L262.625,70.2337 L262.625,70.2337 L262.25,70.2337 L261.875,70.2337 L261.25,69.7181 L261.25,69.7181 L261.25,69.2337 L260.25,69.2337 Z " fill="#000000"/><text fill="#000000" font-family="sans-serif" font-size="12" font-style="italic" lengthAdjust="spacing" textLength="43" x="280.25" y="65.597">«entity»</text><text fill="#000000" font-family="sans-serif" font-size="12" lengthAdjust="spacing" textLength="27" x="288.25" y="80.6908">Aisle</text><line style="stroke:#A80036;stroke-width:1.5;" x1="210.5" x2="360.5" y1="88.3275" y2="88.3275"/><rect fill="none" height="6" style="stroke:#C82930;stroke-width:1.0;" width="6" x="217.5" y="96.3275"/><text fill="#000000" font-family="sans-serif" font-size="11" lengthAdjust="spacing" textLength="34" x="229.5" y="103.7464">long id;</text><rect fill="none" height="6" style="stroke:#C82930;stroke-width:1.0;" width="6" x="217.5" y="110.1634"/><text fill="#000000" font-family="sans-serif" font-size="11" lengthAdjust="spacing" textLength="56" x="229.5" y="117.5824">Begin begin</text><rect fill="none" height="6" style="stroke:#C82930;stroke-width:1.0;" width="6" x="217.5" y="123.9994"/><text fill="#000000" font-family="sans-serif" font-size="11" lengthAdjust="spacing" textLength="39" x="229.5" y="131.4183">End end</text><rect fill="none" height="6" style="stroke:#C82930;stroke-width:1.0;" width="6" x="217.5" y="137.8353"/><text fill="#000000" font-family="sans-serif" font-size="11" lengthAdjust="spacing" textLength="58" x="229.5" y="145.2543">Depth depth</text><rect fill="none" height="6" style="stroke:#C82930;stroke-width:1.0;" width="6" x="217.5" y="151.6713"/><text fill="#000000" font-family="sans-serif" font-size="11" lengthAdjust="spacing" textLength="126" x="229.5" y="159.0902">Accessibility accessibility;</text><rect fill="none" height="6" style="stroke:#C82930;stroke-width:1.0;" width="6" x="217.5" y="165.5072"/><text fill="#000000" font-family="sans-serif" font-size="11" lengthAdjust="spacing" textLength="100" x="229.5" y="172.9261">List&lt;Row&gt; listRows;</text><line style="stroke:#A80036;stroke-width:1.5;" x1="210.5" x2="360.5" y1="179.3431" y2="179.3431"/><!--MD5=[05aedcff764caeeb5d443618a4d90de7]
class Row--><rect codeLine="21" fill="#FEFECE" filter="url(#f1potq17rihjp4)" height="111.5313" id="Row" style="stroke:#A80036;stroke-width:1.5;" width="82" x="396.5" y="61.64"/><ellipse cx="416.45" cy="81.7337" fill="#ADD1B2" rx="11" ry="11" style="stroke:#A80036;stroke-width:1.0;"/><path d="M414.95,82.7337 L414.95,84.7337 L418.95,84.7337 L418.95,83.7337 L418.95,83.2494 L419.575,82.7337 L419.95,82.7337 L420.325,82.7337 L420.95,83.2494 L420.95,83.7337 L420.95,86.7337 L412.95,86.7337 L412.4656,86.7337 L411.95,86.1087 L411.95,85.7337 L411.95,85.3587 L412.4656,84.7337 L412.95,84.7337 L412.95,84.7337 L412.95,78.7337 L412.95,78.7337 L412.4656,78.7337 L411.95,78.1087 L411.95,77.7337 L411.95,77.3587 L412.4656,76.7337 L412.95,76.7337 L420.95,76.7337 L420.95,79.7337 L420.95,80.2181 L420.325,80.7337 L419.95,80.7337 L419.575,80.7337 L418.95,80.2181 L418.95,79.7337 L418.95,78.7337 L414.95,78.7337 L414.95,80.7337 L415.95,80.7337 L415.95,80.2494 L415.95,80.2494 L416.575,79.7337 L416.95,79.7337 L417.325,79.7337 L417.95,80.2494 L417.95,80.7337 L417.95,82.7337 L417.95,83.2181 L417.325,83.7337 L417.325,83.7337 L416.95,83.7337 L416.575,83.7337 L415.95,83.2181 L415.95,83.2181 L415.95,82.7337 L414.95,82.7337 Z " fill="#000000"/><text fill="#000000" font-family="sans-serif" font-size="12" font-style="italic" lengthAdjust="spacing" textLength="43" x="429.55" y="79.097">«entity»</text><text fill="#000000" font-family="sans-serif" font-size="12" lengthAdjust="spacing" textLength="25" x="438.55" y="94.1908">Row</text><line style="stroke:#A80036;stroke-width:1.5;" x1="397.5" x2="477.5" y1="101.8275" y2="101.8275"/><rect fill="none" height="6" style="stroke:#C82930;stroke-width:1.0;" width="6" x="404.5" y="109.8275"/><text fill="#000000" font-family="sans-serif" font-size="11" lengthAdjust="spacing" textLength="34" x="416.5" y="117.2464">long id;</text><rect fill="none" height="6" style="stroke:#C82930;stroke-width:1.0;" width="6" x="404.5" y="123.6634"/><text fill="#000000" font-family="sans-serif" font-size="11" lengthAdjust="spacing" textLength="56" x="416.5" y="131.0824">Begin begin</text><rect fill="none" height="6" style="stroke:#C82930;stroke-width:1.0;" width="6" x="404.5" y="137.4994"/><text fill="#000000" font-family="sans-serif" font-size="11" lengthAdjust="spacing" textLength="39" x="416.5" y="144.9183">End end</text><rect fill="none" height="6" style="stroke:#C82930;stroke-width:1.0;" width="6" x="404.5" y="151.3353"/><text fill="#000000" font-family="sans-serif" font-size="11" lengthAdjust="spacing" textLength="55" x="416.5" y="158.7543">int shelves;</text><line style="stroke:#A80036;stroke-width:1.5;" x1="397.5" x2="477.5" y1="165.1713" y2="165.1713"/><!--MD5=[6c8d26f6d50c9b5da41494faa6136af8]
class AGVDock--><rect codeLine="28" fill="#FEFECE" filter="url(#f1potq17rihjp4)" height="125.3672" id="AGVDock" style="stroke:#A80036;stroke-width:1.5;" width="152" x="513.5" y="55.14"/><ellipse cx="559.75" cy="75.2337" fill="#ADD1B2" rx="11" ry="11" style="stroke:#A80036;stroke-width:1.0;"/><path d="M558.25,76.2337 L558.25,78.2337 L562.25,78.2337 L562.25,77.2337 L562.25,76.7494 L562.875,76.2337 L563.25,76.2337 L563.625,76.2337 L564.25,76.7494 L564.25,77.2337 L564.25,80.2337 L556.25,80.2337 L555.7656,80.2337 L555.25,79.6087 L555.25,79.2337 L555.25,78.8587 L555.7656,78.2337 L556.25,78.2337 L556.25,78.2337 L556.25,72.2337 L556.25,72.2337 L555.7656,72.2337 L555.25,71.6087 L555.25,71.2337 L555.25,70.8587 L555.7656,70.2337 L556.25,70.2337 L564.25,70.2337 L564.25,73.2337 L564.25,73.7181 L563.625,74.2337 L563.25,74.2337 L562.875,74.2337 L562.25,73.7181 L562.25,73.2337 L562.25,72.2337 L558.25,72.2337 L558.25,74.2337 L559.25,74.2337 L559.25,73.7494 L559.25,73.7494 L559.875,73.2337 L560.25,73.2337 L560.625,73.2337 L561.25,73.7494 L561.25,74.2337 L561.25,76.2337 L561.25,76.7181 L560.625,77.2337 L560.625,77.2337 L560.25,77.2337 L559.875,77.2337 L559.25,76.7181 L559.25,76.7181 L559.25,76.2337 L558.25,76.2337 Z " fill="#000000"/><text fill="#000000" font-family="sans-serif" font-size="12" font-style="italic" lengthAdjust="spacing" textLength="43" x="584.25" y="72.597">«entity»</text><text fill="#000000" font-family="sans-serif" font-size="12" lengthAdjust="spacing" textLength="51" x="580.25" y="87.6908">AGVDock</text><line style="stroke:#A80036;stroke-width:1.5;" x1="514.5" x2="664.5" y1="95.3275" y2="95.3275"/><rect fill="none" height="6" style="stroke:#C82930;stroke-width:1.0;" width="6" x="521.5" y="103.3275"/><text fill="#000000" font-family="sans-serif" font-size="11" lengthAdjust="spacing" textLength="42" x="533.5" y="110.7464">String id;</text><rect fill="none" height="6" style="stroke:#C82930;stroke-width:1.0;" width="6" x="521.5" y="117.1634"/><text fill="#000000" font-family="sans-serif" font-size="11" lengthAdjust="spacing" textLength="59" x="533.5" y="124.5824">Begin begin;</text><rect fill="none" height="6" style="stroke:#C82930;stroke-width:1.0;" width="6" x="521.5" y="130.9994"/><text fill="#000000" font-family="sans-serif" font-size="11" lengthAdjust="spacing" textLength="42" x="533.5" y="138.4183">End end;</text><rect fill="none" height="6" style="stroke:#C82930;stroke-width:1.0;" width="6" x="521.5" y="144.8353"/><text fill="#000000" font-family="sans-serif" font-size="11" lengthAdjust="spacing" textLength="61" x="533.5" y="152.2543">Depth depth;</text><rect fill="none" height="6" style="stroke:#C82930;stroke-width:1.0;" width="6" x="521.5" y="158.6713"/><text fill="#000000" font-family="sans-serif" font-size="11" lengthAdjust="spacing" textLength="126" x="533.5" y="166.0902">Accessibility accessibility;</text><line style="stroke:#A80036;stroke-width:1.5;" x1="514.5" x2="664.5" y1="172.5072" y2="172.5072"/><!--MD5=[7620fae2775ebf09e1a63cf069b3747d]
class Accessibility--><rect codeLine="36" fill="#FEFECE" filter="url(#f1potq17rihjp4)" height="70.0234" id="Accessibility" style="stroke:#A80036;stroke-width:1.5;" width="119" x="901" y="82.64"/><ellipse cx="920.5" cy="102.7337" fill="#ADD1B2" rx="11" ry="11" style="stroke:#A80036;stroke-width:1.0;"/><path d="M922.5,99.2337 Q922.7031,98.7337 922.9375,98.4837 Q923.1719,98.2337 923.4375,98.2337 Q923.9063,98.2337 924.2031,98.515 Q924.5,98.7962 924.5,99.4525 L924.5,101.015 Q924.5,101.6712 924.2188,101.9525 Q923.9375,102.2337 923.5,102.2337 Q923.1094,102.2337 922.8594,102.0619 Q922.6094,101.89 922.5,101.4369 Q922.4531,101.1244 922.2813,100.9525 Q921.9688,100.6244 921.4063,100.4369 Q920.8438,100.2337 920.2813,100.2337 Q919.5781,100.2337 918.9844,100.515 Q918.4063,100.7962 917.9531,101.4212 Q917.5,102.0462 917.5,102.9056 L917.5,103.8275 Q917.5,104.8587 918.3438,105.5462 Q919.1875,106.2337 920.6875,106.2337 Q921.5781,106.2337 922.2031,106.0306 Q922.5625,105.9212 922.9688,105.5619 Q923.2344,105.3587 923.375,105.2962 Q923.5156,105.2337 923.6875,105.2337 Q924.0156,105.2337 924.25,105.4994 Q924.5,105.7494 924.5,106.1087 Q924.5,106.4525 924.1563,106.8587 Q923.6563,107.4525 922.8594,107.7806 Q921.8125,108.2337 920.5313,108.2337 Q919.0313,108.2337 917.8281,107.64 Q916.8594,107.1712 916.1719,106.1556 Q915.5,105.14 915.5,103.9369 L915.5,102.8431 Q915.5,101.5931 916.0938,100.4994 Q916.7031,99.4056 917.75,98.8275 Q918.8125,98.2337 920,98.2337 Q920.7188,98.2337 921.3438,98.4837 Q921.9688,98.7337 922.5,99.2337 Z " fill="#000000"/><text fill="#000000" font-family="sans-serif" font-size="12" font-style="italic" lengthAdjust="spacing" textLength="81" x="933.5" y="100.097">«value object»</text><text fill="#000000" font-family="sans-serif" font-size="12" lengthAdjust="spacing" textLength="67" x="940.5" y="115.1908">Accessibility</text><line style="stroke:#A80036;stroke-width:1.5;" x1="902" x2="1019" y1="122.8275" y2="122.8275"/><rect fill="none" height="6" style="stroke:#C82930;stroke-width:1.0;" width="6" x="909" y="130.8275"/><text fill="#000000" font-family="sans-serif" font-size="11" lengthAdjust="spacing" textLength="93" x="921" y="138.2464">String accessibility;</text><line style="stroke:#A80036;stroke-width:1.5;" x1="902" x2="1019" y1="144.6634" y2="144.6634"/><!--MD5=[47ef0dfe59fd373997f8a6206ed8b282]
class Begin--><rect codeLine="41" fill="#FEFECE" filter="url(#f1potq17rihjp4)" height="48" id="Begin" style="stroke:#A80036;stroke-width:1.5;" width="64" x="801.5" y="93.64"/><ellipse cx="816.5" cy="109.64" fill="#ADD1B2" rx="11" ry="11" style="stroke:#A80036;stroke-width:1.0;"/><path d="M818.5,106.14 Q818.7031,105.64 818.9375,105.39 Q819.1719,105.14 819.4375,105.14 Q819.9063,105.14 820.2031,105.4212 Q820.5,105.7025 820.5,106.3587 L820.5,107.9212 Q820.5,108.5775 820.2188,108.8587 Q819.9375,109.14 819.5,109.14 Q819.1094,109.14 818.8594,108.9681 Q818.6094,108.7962 818.5,108.3431 Q818.4531,108.0306 818.2813,107.8587 Q817.9688,107.5306 817.4063,107.3431 Q816.8438,107.14 816.2813,107.14 Q815.5781,107.14 814.9844,107.4212 Q814.4063,107.7025 813.9531,108.3275 Q813.5,108.9525 813.5,109.8119 L813.5,110.7337 Q813.5,111.765 814.3438,112.4525 Q815.1875,113.14 816.6875,113.14 Q817.5781,113.14 818.2031,112.9369 Q818.5625,112.8275 818.9688,112.4681 Q819.2344,112.265 819.375,112.2025 Q819.5156,112.14 819.6875,112.14 Q820.0156,112.14 820.25,112.4056 Q820.5,112.6556 820.5,113.015 Q820.5,113.3587 820.1563,113.765 Q819.6563,114.3587 818.8594,114.6869 Q817.8125,115.14 816.5313,115.14 Q815.0313,115.14 813.8281,114.5462 Q812.8594,114.0775 812.1719,113.0619 Q811.5,112.0462 811.5,110.8431 L811.5,109.7494 Q811.5,108.4994 812.0938,107.4056 Q812.7031,106.3119 813.75,105.7337 Q814.8125,105.14 816,105.14 Q816.7188,105.14 817.3438,105.39 Q817.9688,105.64 818.5,106.14 Z " fill="#000000"/><text fill="#000000" font-family="sans-serif" font-size="12" lengthAdjust="spacing" textLength="32" x="830.5" y="114.5502">Begin</text><line style="stroke:#A80036;stroke-width:1.5;" x1="802.5" x2="864.5" y1="125.64" y2="125.64"/><line style="stroke:#A80036;stroke-width:1.5;" x1="802.5" x2="864.5" y1="133.64" y2="133.64"/><!--MD5=[b5cffc0c85435f5848b9ffcad0969c85]
class End--><rect codeLine="44" fill="#FEFECE" filter="url(#f1potq17rihjp4)" height="48" id="End" style="stroke:#A80036;stroke-width:1.5;" width="54" x="482.5" y="286.14"/><ellipse cx="497.5" cy="302.14" fill="#ADD1B2" rx="11" ry="11" style="stroke:#A80036;stroke-width:1.0;"/><path d="M499.5,298.64 Q499.7031,298.14 499.9375,297.89 Q500.1719,297.64 500.4375,297.64 Q500.9063,297.64 501.2031,297.9213 Q501.5,298.2025 501.5,298.8588 L501.5,300.4213 Q501.5,301.0775 501.2188,301.3588 Q500.9375,301.64 500.5,301.64 Q500.1094,301.64 499.8594,301.4681 Q499.6094,301.2963 499.5,300.8431 Q499.4531,300.5306 499.2813,300.3588 Q498.9688,300.0306 498.4063,299.8431 Q497.8438,299.64 497.2813,299.64 Q496.5781,299.64 495.9844,299.9213 Q495.4063,300.2025 494.9531,300.8275 Q494.5,301.4525 494.5,302.3119 L494.5,303.2338 Q494.5,304.265 495.3438,304.9525 Q496.1875,305.64 497.6875,305.64 Q498.5781,305.64 499.2031,305.4369 Q499.5625,305.3275 499.9688,304.9681 Q500.2344,304.765 500.375,304.7025 Q500.5156,304.64 500.6875,304.64 Q501.0156,304.64 501.25,304.9056 Q501.5,305.1556 501.5,305.515 Q501.5,305.8588 501.1563,306.265 Q500.6563,306.8588 499.8594,307.1869 Q498.8125,307.64 497.5313,307.64 Q496.0313,307.64 494.8281,307.0463 Q493.8594,306.5775 493.1719,305.5619 Q492.5,304.5463 492.5,303.3431 L492.5,302.2494 Q492.5,300.9994 493.0938,299.9056 Q493.7031,298.8119 494.75,298.2338 Q495.8125,297.64 497,297.64 Q497.7188,297.64 498.3438,297.89 Q498.9688,298.14 499.5,298.64 Z " fill="#000000"/><text fill="#000000" font-family="sans-serif" font-size="12" lengthAdjust="spacing" textLength="22" x="511.5" y="307.0502">End</text><line style="stroke:#A80036;stroke-width:1.5;" x1="483.5" x2="535.5" y1="318.14" y2="318.14"/><line style="stroke:#A80036;stroke-width:1.5;" x1="483.5" x2="535.5" y1="326.14" y2="326.14"/><!--MD5=[cfd0138e5346ce60abb87771726e7b9e]
class Depth--><rect codeLine="47" fill="#FEFECE" filter="url(#f1potq17rihjp4)" height="48" id="Depth" style="stroke:#A80036;stroke-width:1.5;" width="65" x="701" y="93.64"/><ellipse cx="716" cy="109.64" fill="#ADD1B2" rx="11" ry="11" style="stroke:#A80036;stroke-width:1.0;"/><path d="M718,106.14 Q718.2031,105.64 718.4375,105.39 Q718.6719,105.14 718.9375,105.14 Q719.4063,105.14 719.7031,105.4212 Q720,105.7025 720,106.3587 L720,107.9212 Q720,108.5775 719.7188,108.8587 Q719.4375,109.14 719,109.14 Q718.6094,109.14 718.3594,108.9681 Q718.1094,108.7962 718,108.3431 Q717.9531,108.0306 717.7813,107.8587 Q717.4688,107.5306 716.9063,107.3431 Q716.3438,107.14 715.7813,107.14 Q715.0781,107.14 714.4844,107.4212 Q713.9063,107.7025 713.4531,108.3275 Q713,108.9525 713,109.8119 L713,110.7337 Q713,111.765 713.8438,112.4525 Q714.6875,113.14 716.1875,113.14 Q717.0781,113.14 717.7031,112.9369 Q718.0625,112.8275 718.4688,112.4681 Q718.7344,112.265 718.875,112.2025 Q719.0156,112.14 719.1875,112.14 Q719.5156,112.14 719.75,112.4056 Q720,112.6556 720,113.015 Q720,113.3587 719.6563,113.765 Q719.1563,114.3587 718.3594,114.6869 Q717.3125,115.14 716.0313,115.14 Q714.5313,115.14 713.3281,114.5462 Q712.3594,114.0775 711.6719,113.0619 Q711,112.0462 711,110.8431 L711,109.7494 Q711,108.4994 711.5938,107.4056 Q712.2031,106.3119 713.25,105.7337 Q714.3125,105.14 715.5,105.14 Q716.2188,105.14 716.8438,105.39 Q717.4688,105.64 718,106.14 Z " fill="#000000"/><text fill="#000000" font-family="sans-serif" font-size="12" lengthAdjust="spacing" textLength="33" x="730" y="114.5502">Depth</text><line style="stroke:#A80036;stroke-width:1.5;" x1="702" x2="765" y1="125.64" y2="125.64"/><line style="stroke:#A80036;stroke-width:1.5;" x1="702" x2="765" y1="133.64" y2="133.64"/><!--MD5=[e09c41c2f9238e7adb85a94dde2227e7]
class Size--><rect codeLine="51" fill="#FEFECE" filter="url(#f1potq17rihjp4)" height="75.6719" id="Size" style="stroke:#A80036;stroke-width:1.5;" width="87" x="690" y="272.14"/><ellipse cx="719.4" cy="288.14" fill="#ADD1B2" rx="11" ry="11" style="stroke:#A80036;stroke-width:1.0;"/><path d="M721.4,284.64 Q721.6031,284.14 721.8375,283.89 Q722.0719,283.64 722.3375,283.64 Q722.8063,283.64 723.1031,283.9213 Q723.4,284.2025 723.4,284.8588 L723.4,286.4213 Q723.4,287.0775 723.1188,287.3588 Q722.8375,287.64 722.4,287.64 Q722.0094,287.64 721.7594,287.4681 Q721.5094,287.2963 721.4,286.8431 Q721.3531,286.5306 721.1813,286.3588 Q720.8688,286.0306 720.3063,285.8431 Q719.7438,285.64 719.1813,285.64 Q718.4781,285.64 717.8844,285.9213 Q717.3063,286.2025 716.8531,286.8275 Q716.4,287.4525 716.4,288.3119 L716.4,289.2338 Q716.4,290.265 717.2438,290.9525 Q718.0875,291.64 719.5875,291.64 Q720.4781,291.64 721.1031,291.4369 Q721.4625,291.3275 721.8688,290.9681 Q722.1344,290.765 722.275,290.7025 Q722.4156,290.64 722.5875,290.64 Q722.9156,290.64 723.15,290.9056 Q723.4,291.1556 723.4,291.515 Q723.4,291.8588 723.0563,292.265 Q722.5563,292.8588 721.7594,293.1869 Q720.7125,293.64 719.4313,293.64 Q717.9313,293.64 716.7281,293.0463 Q715.7594,292.5775 715.0719,291.5619 Q714.4,290.5463 714.4,289.3431 L714.4,288.2494 Q714.4,286.9994 714.9938,285.9056 Q715.6031,284.8119 716.65,284.2338 Q717.7125,283.64 718.9,283.64 Q719.6188,283.64 720.2438,283.89 Q720.8688,284.14 721.4,284.64 Z " fill="#000000"/><text fill="#000000" font-family="sans-serif" font-size="12" lengthAdjust="spacing" textLength="23" x="736.6" y="293.0502">Size</text><line style="stroke:#A80036;stroke-width:1.5;" x1="691" x2="776" y1="304.14" y2="304.14"/><rect fill="none" height="6" style="stroke:#C82930;stroke-width:1.0;" width="6" x="698" y="312.14"/><text fill="#000000" font-family="sans-serif" font-size="11" lengthAdjust="spacing" textLength="53" x="710" y="319.5589">int lsquare;</text><rect fill="none" height="6" style="stroke:#C82930;stroke-width:1.0;" width="6" x="698" y="325.9759"/><text fill="#000000" font-family="sans-serif" font-size="11" lengthAdjust="spacing" textLength="61" x="710" y="333.3949">int wsquare;</text><line style="stroke:#A80036;stroke-width:1.5;" x1="691" x2="776" y1="339.8119" y2="339.8119"/><!--MD5=[bd2765a2de23b6b0e289828a0e12d807]
link WareHousePlant to AGVDock--><path codeLine="57" d="M174.34,42.77 C185.41,36.02 197.07,30.21 209,26.14 C265.58,6.84 421.72,6 478,26.14 C494.24,31.95 509.81,41.26 523.9,51.76 " fill="none" id="WareHousePlant-to-AGVDock" style="stroke:#A80036;stroke-width:1.0;"/><polygon fill="#A80036" points="528.22,55.05,523.489,46.4118,524.2442,52.0181,518.6379,52.7732,528.22,55.05" style="stroke:#A80036;stroke-width:1.0;"/><text fill="#000000" font-family="sans-serif" font-size="13" lengthAdjust="spacing" textLength="7" x="182.1187" y="32.8984">1</text><text fill="#000000" font-family="sans-serif" font-size="13" lengthAdjust="spacing" textLength="5" x="515.8454" y="44.3822">*</text><!--MD5=[ae5f39c2ef1272409f9f623d4dc5b682]
link WareHousePlant to Aisle--><path codeLine="58" d="M174.29,117.64 C184.28,117.64 194.27,117.64 204.25,117.64 " fill="none" id="WareHousePlant-to-Aisle" style="stroke:#A80036;stroke-width:1.0;"/><polygon fill="#A80036" points="209.48,117.64,200.48,113.64,204.48,117.64,200.48,121.64,209.48,117.64" style="stroke:#A80036;stroke-width:1.0;"/><text fill="#000000" font-family="sans-serif" font-size="13" lengthAdjust="spacing" textLength="7" x="182.0643" y="114.4365">1</text><text fill="#000000" font-family="sans-serif" font-size="13" lengthAdjust="spacing" textLength="5" x="196.3826" y="114.3178">*</text><!--MD5=[c7a7c255159fc536cc39704e0abcbfe1]
link Aisle to Row--><path codeLine="59" d="M361.8,117.64 C371.62,117.64 381.44,117.64 391.26,117.64 " fill="none" id="Aisle-to-Row" style="stroke:#A80036;stroke-width:1.0;"/><polygon fill="#A80036" points="396.4,117.64,387.4,113.64,391.4,117.64,387.4,121.64,396.4,117.64" style="stroke:#A80036;stroke-width:1.0;"/><text fill="#000000" font-family="sans-serif" font-size="13" lengthAdjust="spacing" textLength="7" x="369.4059" y="114.3797">1</text><text fill="#000000" font-family="sans-serif" font-size="13" lengthAdjust="spacing" textLength="12" x="376.5991" y="113.878">1*</text><!--MD5=[8fdfc9eb3c76268eec557d601d1ef891]
link Aisle to Accessibility--><path codeLine="60" d="M355.6,47.99 C368.18,39.05 381.82,31.25 396,26.14 C445.13,8.44 817.02,8.02 866,26.14 C892.91,36.09 916.16,58.31 932.87,78.36 " fill="none" id="Aisle-to-Accessibility" style="stroke:#A80036;stroke-width:1.0;"/><polygon fill="#A80036" points="936.12,82.34,933.511,72.843,932.9515,78.4721,927.3224,77.9126,936.12,82.34" style="stroke:#A80036;stroke-width:1.0;"/><text fill="#000000" font-family="sans-serif" font-size="13" lengthAdjust="spacing" textLength="7" x="355.4681" y="37.4851">1</text><text fill="#000000" font-family="sans-serif" font-size="13" lengthAdjust="spacing" textLength="7" x="932.2703" y="71.8819">1</text><!--MD5=[aa56d6553f01f4e0334290b5ed5c5b56]
link Aisle to Begin--><path codeLine="61" d="M355.6,47.99 C368.18,39.05 381.82,31.25 396,26.14 C434.68,12.21 727.44,11.88 766,26.14 C793.66,36.37 812.02,65.81 822.52,88.57 " fill="none" id="Aisle-to-Begin" style="stroke:#A80036;stroke-width:1.0;"/><polygon fill="#A80036" points="824.64,93.31,824.62,83.4612,822.6,88.7451,817.3161,86.7251,824.64,93.31" style="stroke:#A80036;stroke-width:1.0;"/><text fill="#000000" font-family="sans-serif" font-size="13" lengthAdjust="spacing" textLength="7" x="363.19" y="37.4851">1</text><text fill="#000000" font-family="sans-serif" font-size="13" lengthAdjust="spacing" textLength="7" x="823.3335" y="82.9675">1</text><!--MD5=[cf1a9f94a03f61cb570fbaacb8fdae56]
link Aisle to End--><path codeLine="62" d="M361.65,183.4 C401.58,217.36 448.32,257.11 478.38,282.68 " fill="none" id="Aisle-to-End" style="stroke:#A80036;stroke-width:1.0;"/><polygon fill="#A80036" points="482.33,286.03,478.0448,277.1623,478.5136,282.7996,472.8762,283.2685,482.33,286.03" style="stroke:#A80036;stroke-width:1.0;"/><text fill="#000000" font-family="sans-serif" font-size="13" lengthAdjust="spacing" textLength="7" x="369.4905" y="186.5882">1</text><text fill="#000000" font-family="sans-serif" font-size="13" lengthAdjust="spacing" textLength="7" x="467.4708" y="275.342">1</text><!--MD5=[2e67177fef6f497fb9de9cdd0f28a5ed]
link Aisle to Depth--><path codeLine="63" d="M355.6,47.99 C368.18,39.05 381.82,31.25 396,26.14 C424.12,16.01 636.97,15.77 665,26.14 C692.8,36.42 711.48,65.86 722.22,88.6 " fill="none" id="Aisle-to-Depth" style="stroke:#A80036;stroke-width:1.0;"/><polygon fill="#A80036" points="724.39,93.34,724.27,83.4919,722.3038,88.796,716.9996,86.8298,724.39,93.34" style="stroke:#A80036;stroke-width:1.0;"/><text fill="#000000" font-family="sans-serif" font-size="13" lengthAdjust="spacing" textLength="7" x="369.63" y="49.7472">1</text><text fill="#000000" font-family="sans-serif" font-size="13" lengthAdjust="spacing" textLength="7" x="714.1587" y="82.6033">1</text><!--MD5=[ece62859423391626876163788d1a479]
link Row to Begin--><path codeLine="65" d="M468.88,61.19 C480.48,46.38 495.23,32.71 513,26.14 C565.73,6.63 713.27,6.63 766,26.14 C793.66,36.37 812.02,65.81 822.52,88.57 " fill="none" id="Row-to-Begin" style="stroke:#A80036;stroke-width:1.0;"/><polygon fill="#A80036" points="824.64,93.31,824.62,83.4612,822.6,88.7451,817.3161,86.7251,824.64,93.31" style="stroke:#A80036;stroke-width:1.0;"/><text fill="#000000" font-family="sans-serif" font-size="13" lengthAdjust="spacing" textLength="7" x="465.2779" y="50.8803">1</text><text fill="#000000" font-family="sans-serif" font-size="13" lengthAdjust="spacing" textLength="7" x="814.6273" y="82.9675">1</text><!--MD5=[8dc90faa7b4c4ca2e65ecaba988ef0e7]
link Row to End--><path codeLine="66" d="M458.33,173.74 C471.6,208.85 488.23,252.87 498.87,281.01 " fill="none" id="Row-to-End" style="stroke:#A80036;stroke-width:1.0;"/><polygon fill="#A80036" points="500.65,285.72,501.199,275.8865,498.8772,281.0448,493.7188,278.723,500.65,285.72" style="stroke:#A80036;stroke-width:1.0;"/><text fill="#000000" font-family="sans-serif" font-size="13" lengthAdjust="spacing" textLength="7" x="453.3338" y="194.6941">1</text><text fill="#000000" font-family="sans-serif" font-size="13" lengthAdjust="spacing" textLength="7" x="490.6397" y="275.3556">1</text><!--MD5=[53bf01b367a12cc55430d452de44b76d]
link AGVDock to Begin--><path codeLine="69" d="M650.78,55.05 C665.97,43.22 683.08,32.55 701,26.14 C728.2,16.41 738.91,16.12 766,26.14 C793.66,36.37 812.02,65.81 822.52,88.57 " fill="none" id="AGVDock-to-Begin" style="stroke:#A80036;stroke-width:1.0;"/><polygon fill="#A80036" points="824.64,93.31,824.62,83.4612,822.6,88.7451,817.3161,86.7251,824.64,93.31" style="stroke:#A80036;stroke-width:1.0;"/><text fill="#000000" font-family="sans-serif" font-size="13" lengthAdjust="spacing" textLength="7" x="658.2702" y="44.3822">1</text><text fill="#000000" font-family="sans-serif" font-size="13" lengthAdjust="spacing" textLength="7" x="814.6273" y="82.9675">1</text><!--MD5=[d310e9bf012265a1e4dd7280ba2c6eb0]
link AGVDock to End--><path codeLine="70" d="M563.64,180.23 C549.37,214.2 532.35,254.74 521.25,281.16 " fill="none" id="AGVDock-to-End" style="stroke:#A80036;stroke-width:1.0;"/><polygon fill="#A80036" points="519.25,285.93,526.4113,279.1686,521.1781,281.3167,519.03,276.0836,519.25,285.93" style="stroke:#A80036;stroke-width:1.0;"/><text fill="#000000" font-family="sans-serif" font-size="13" lengthAdjust="spacing" textLength="7" x="553.2452" y="201.8862">1</text><text fill="#000000" font-family="sans-serif" font-size="13" lengthAdjust="spacing" textLength="7" x="513.8516" y="275.2163">1</text><!--MD5=[e812ed56d8f3eeb3804cea16c5ecf4f7]
link AGVDock to Depth--><path codeLine="71" d="M665.72,117.64 C675.71,117.64 685.71,117.64 695.71,117.64 " fill="none" id="AGVDock-to-Depth" style="stroke:#A80036;stroke-width:1.0;"/><polygon fill="#A80036" points="700.93,117.64,691.93,113.64,695.93,117.64,691.93,121.64,700.93,117.64" style="stroke:#A80036;stroke-width:1.0;"/><text fill="#000000" font-family="sans-serif" font-size="13" lengthAdjust="spacing" textLength="7" x="673.5674" y="114.3468">1</text><text fill="#000000" font-family="sans-serif" font-size="13" lengthAdjust="spacing" textLength="7" x="686.0397" y="113.4236">1</text><!--MD5=[0e4825c31183382a9d2f9c526d983221]
link AGVDock to Accessibility--><path codeLine="73" d="M650.78,55.05 C665.97,43.22 683.08,32.55 701,26.14 C735.52,13.79 831.61,13.42 866,26.14 C892.91,36.09 916.16,58.31 932.87,78.36 " fill="none" id="AGVDock-to-Accessibility" style="stroke:#A80036;stroke-width:1.0;"/><polygon fill="#A80036" points="936.12,82.34,933.511,72.843,932.9515,78.4721,927.3224,77.9126,936.12,82.34" style="stroke:#A80036;stroke-width:1.0;"/><text fill="#000000" font-family="sans-serif" font-size="13" lengthAdjust="spacing" textLength="7" x="650.4608" y="44.3822">1</text><text fill="#000000" font-family="sans-serif" font-size="13" lengthAdjust="spacing" textLength="7" x="923.9796" y="71.8819">1</text><!--MD5=[36a24b7db71170a99af03433d484d6a1]
link Begin to Size--><path codeLine="75" d="M827.56,141.96 C820.46,167.58 807.16,209.43 788.5,242.14 C783.5,250.9 777.35,259.67 770.99,267.84 " fill="none" id="Begin-to-Size" style="stroke:#A80036;stroke-width:1.0;"/><polygon fill="#A80036" points="767.86,271.8,776.5834,267.228,770.9642,267.8804,770.3119,262.2612,767.86,271.8" style="stroke:#A80036;stroke-width:1.0;"/><text fill="#000000" font-family="sans-serif" font-size="13" lengthAdjust="spacing" textLength="46" x="797.5" y="238.6351">extends</text><!--MD5=[a0b0fa567a85b9429924846de83248c4]
link End to Size--><path codeLine="76" d="M536.52,310.14 C573.16,310.14 639.23,310.14 684.68,310.14 " fill="none" id="End-to-Size" style="stroke:#A80036;stroke-width:1.0;"/><polygon fill="#A80036" points="689.84,310.14,680.84,306.14,684.84,310.14,680.84,314.14,689.84,310.14" style="stroke:#A80036;stroke-width:1.0;"/><text fill="#000000" font-family="sans-serif" font-size="13" lengthAdjust="spacing" textLength="46" x="590.25" y="303.6351">extends</text><!--MD5=[b67704a9c7110a6cab961e11775e2b85]
link Depth to Size--><path codeLine="77" d="M733.5,142 C733.5,173 733.5,228.28 733.5,266.74 " fill="none" id="Depth-to-Size" style="stroke:#A80036;stroke-width:1.0;"/><polygon fill="#A80036" points="733.5,271.82,737.5,262.82,733.5,266.82,729.5,262.82,733.5,271.82" style="stroke:#A80036;stroke-width:1.0;"/><text fill="#000000" font-family="sans-serif" font-size="13" lengthAdjust="spacing" textLength="46" x="734.5" y="238.6351">extends</text><!--MD5=[fd450e6518e5a34389ca15a67b77ecde]
@startuml

Entity WareHousePlant<<entity root>> {
 -String description
 -int length
 -int width
 -int square
 -String unit
 -List<Aisle> listAisles
 -List<AGVDock> listAGVDock
}

Entity Aisle<<entity>>{
    -long id;
    -Begin begin
    -End end
    -Depth depth
    -Accessibility accessibility;
    -List<Row> listRows;
}

Entity Row<<entity>>{
    -long id;
    -Begin begin
    -End end
    -int shelves;
}

Entity AGVDock<<entity>>{
    -String id;
    -Begin begin;
    -End end;
    -Depth depth;
    -Accessibility accessibility;
}

class Accessibility<<value object>>{
    -String accessibility;

}

class Begin{
}

class End{
}

class Depth{

}

class Size{
    -int lsquare;
    -int wsquare;
}


WareHousePlant "1" -> "*"  AGVDock
WareHousePlant "1" -> "*" Aisle
Aisle "1" -> "1*" Row
Aisle "1" -> "1" Accessibility
Aisle "1" -> "1" Begin
Aisle "1" -> "1" End
Aisle "1" -> "1" Depth

Row "1" -> "1" Begin
Row "1" -> "1" End


AGVDock "1" -> "1" Begin
AGVDock "1" - -> "1" End
AGVDock "1" -> "1" Depth

AGVDock "1" -> "1" Accessibility

Begin - -> Size : extends
End -> Size : extends
Depth -> Size : extends

@enduml

PlantUML version 1.2021.11(Sat Oct 02 14:26:11 BST 2021)
(GPL source distribution)
Java Runtime: OpenJDK Runtime Environment
JVM: OpenJDK 64-Bit Server VM
Default Encoding: Cp1252
Language: pt
Country: PT
--></g></svg>