<?xml version="1.0" encoding="UTF-8" standalone="no"?><svg xmlns="http://www.w3.org/2000/svg" xmlns:xlink="http://www.w3.org/1999/xlink" contentScriptType="application/ecmascript" contentStyleType="text/css" height="392px" preserveAspectRatio="none" style="width:726px;height:392px;background:#FFFFFF;" version="1.1" viewBox="0 0 726 392" width="726px" zoomAndPan="magnify"><defs><filter height="300%" id="f1pdcwb6y5vthq" width="300%" x="-1" y="-1"><feGaussianBlur result="blurOut" stdDeviation="2.0"/><feColorMatrix in="blurOut" result="blurOut2" type="matrix" values="0 0 0 0 0 0 0 0 0 0 0 0 0 0 0 0 0 0 .4 0"/><feOffset dx="4.0" dy="4.0" in="blurOut2" result="blurOut3"/><feBlend in="SourceGraphic" in2="blurOut3" mode="normal"/></filter></defs><g><rect fill="#FFFFFF" filter="url(#f1pdcwb6y5vthq)" height="139.7578" style="stroke:#000000;stroke-width:2.0;" width="503" x="10" y="149.9609"/><line style="stroke:#A80036;stroke-width:1.0;stroke-dasharray:5.0,5.0;" x1="90" x2="90" y1="89.6094" y2="306.7188"/><line style="stroke:#A80036;stroke-width:1.0;stroke-dasharray:5.0,5.0;" x1="360.5" x2="360.5" y1="89.6094" y2="306.7188"/><text fill="#000000" font-family="sans-serif" font-size="14" lengthAdjust="spacing" textLength="135" x="20" y="86.5332">WarehouseEmployee</text><ellipse cx="90.5" cy="15" fill="#FEFECE" filter="url(#f1pdcwb6y5vthq)" rx="8" ry="8" style="stroke:#A80036;stroke-width:2.0;"/><path d="M90.5,23 L90.5,50 M77.5,31 L103.5,31 M90.5,50 L77.5,65 M90.5,50 L103.5,65 " fill="none" filter="url(#f1pdcwb6y5vthq)" style="stroke:#A80036;stroke-width:2.0;"/><text fill="#000000" font-family="sans-serif" font-size="14" lengthAdjust="spacing" textLength="135" x="20" y="320.252">WarehouseEmployee</text><ellipse cx="90.5" cy="333.3281" fill="#FEFECE" filter="url(#f1pdcwb6y5vthq)" rx="8" ry="8" style="stroke:#A80036;stroke-width:2.0;"/><path d="M90.5,341.3281 L90.5,368.3281 M77.5,349.3281 L103.5,349.3281 M90.5,368.3281 L77.5,383.3281 M90.5,368.3281 L103.5,383.3281 " fill="none" filter="url(#f1pdcwb6y5vthq)" style="stroke:#A80036;stroke-width:2.0;"/><rect fill="#FEFECE" filter="url(#f1pdcwb6y5vthq)" height="31.6094" style="stroke:#A80036;stroke-width:1.5;" width="60" x="328.5" y="53"/><text fill="#000000" font-family="sans-serif" font-size="14" lengthAdjust="spacing" textLength="46" x="335.5" y="74.5332">System</text><rect fill="#FEFECE" filter="url(#f1pdcwb6y5vthq)" height="31.6094" style="stroke:#A80036;stroke-width:1.5;" width="60" x="328.5" y="305.7188"/><text fill="#000000" font-family="sans-serif" font-size="14" lengthAdjust="spacing" textLength="46" x="335.5" y="327.252">System</text><line style="stroke:#A80036;stroke-width:1.0;" x1="360.5" x2="402.5" y1="121.9609" y2="121.9609"/><line style="stroke:#A80036;stroke-width:1.0;" x1="402.5" x2="402.5" y1="121.9609" y2="134.9609"/><line style="stroke:#A80036;stroke-width:1.0;" x1="361.5" x2="402.5" y1="134.9609" y2="134.9609"/><polygon fill="#A80036" points="371.5,130.9609,361.5,134.9609,371.5,138.9609,367.5,134.9609" style="stroke:#A80036;stroke-width:1.0;"/><text fill="#000000" font-family="sans-serif" font-size="13" font-weight="bold" lengthAdjust="spacing" textLength="7" x="367.5" y="117.1045">1</text><text fill="#000000" font-family="sans-serif" font-size="13" lengthAdjust="spacing" textLength="341" x="378.5" y="117.1045">System boots up and imports automatically the JSON File.</text><path d="M10,149.9609 L508,149.9609 L508,157.9609 L498,167.9609 L10,167.9609 L10,149.9609 " fill="#EEEEEE" style="stroke:#000000;stroke-width:1.0;"/><rect fill="none" height="139.7578" style="stroke:#000000;stroke-width:2.0;" width="503" x="10" y="149.9609"/><text fill="#000000" font-family="sans-serif" font-size="13" font-weight="bold" lengthAdjust="spacing" textLength="453" x="25" y="164.4561">WarehouseEmployee wants to use another file to set up the Warehouse</text><polygon fill="#A80036" points="348.5,186.6641,358.5,190.6641,348.5,194.6641,352.5,190.6641" style="stroke:#A80036;stroke-width:1.0;"/><line style="stroke:#A80036;stroke-width:1.0;" x1="90.5" x2="354.5" y1="190.6641" y2="190.6641"/><text fill="#000000" font-family="sans-serif" font-size="13" font-weight="bold" lengthAdjust="spacing" textLength="7" x="97.5" y="185.8076">2</text><text fill="#000000" font-family="sans-serif" font-size="13" lengthAdjust="spacing" textLength="189" x="108.5" y="185.8076">wants to import a new JSON file.</text><polygon fill="#A80036" points="101.5,217.0156,91.5,221.0156,101.5,225.0156,97.5,221.0156" style="stroke:#A80036;stroke-width:1.0;"/><line style="stroke:#A80036;stroke-width:1.0;" x1="95.5" x2="359.5" y1="221.0156" y2="221.0156"/><text fill="#000000" font-family="sans-serif" font-size="13" font-weight="bold" lengthAdjust="spacing" textLength="7" x="107.5" y="216.1592">3</text><text fill="#000000" font-family="sans-serif" font-size="13" lengthAdjust="spacing" textLength="228" x="118.5" y="216.1592">asks for which file wants to be imported</text><polygon fill="#A80036" points="348.5,247.3672,358.5,251.3672,348.5,255.3672,352.5,251.3672" style="stroke:#A80036;stroke-width:1.0;"/><line style="stroke:#A80036;stroke-width:1.0;" x1="90.5" x2="354.5" y1="251.3672" y2="251.3672"/><text fill="#000000" font-family="sans-serif" font-size="13" font-weight="bold" lengthAdjust="spacing" textLength="7" x="97.5" y="246.5107">4</text><text fill="#000000" font-family="sans-serif" font-size="13" lengthAdjust="spacing" textLength="235" x="108.5" y="246.5107">says which file will set up the warehouse</text><polygon fill="#A80036" points="101.5,277.7188,91.5,281.7188,101.5,285.7188,97.5,281.7188" style="stroke:#A80036;stroke-width:1.0;"/><line style="stroke:#A80036;stroke-width:1.0;" x1="95.5" x2="359.5" y1="281.7188" y2="281.7188"/><text fill="#000000" font-family="sans-serif" font-size="13" font-weight="bold" lengthAdjust="spacing" textLength="7" x="107.5" y="276.8623">5</text><text fill="#000000" font-family="sans-serif" font-size="13" lengthAdjust="spacing" textLength="104" x="118.5" y="276.8623">Successful set up</text><!--MD5=[98f6f157fb4bb851fb541f9c03fa7b49]
@startuml

autonumber

actor WarehouseEmployee

System -> System: System boots up and imports automatically the JSON File.

group WarehouseEmployee wants to use another file to set up the Warehouse
WarehouseEmployee -> System : wants to import a new JSON file.
System -> WarehouseEmployee : asks for which file wants to be imported
WarehouseEmployee -> System : says which file will set up the warehouse
System -> WarehouseEmployee : Successful set up
end

@enduml

PlantUML version 1.2021.11(Sat Oct 02 14:26:11 BST 2021)
(GPL source distribution)
Java Runtime: OpenJDK Runtime Environment
JVM: OpenJDK 64-Bit Server VM
Default Encoding: Cp1252
Language: pt
Country: PT
--></g></svg>