<?xml version="1.0" encoding="UTF-8" standalone="no"?><svg xmlns="http://www.w3.org/2000/svg" xmlns:xlink="http://www.w3.org/1999/xlink" contentScriptType="application/ecmascript" contentStyleType="text/css" height="196px" preserveAspectRatio="none" style="width:894px;height:196px;background:#FFFFFF;" version="1.1" viewBox="0 0 894 196" width="894px" zoomAndPan="magnify"><defs><filter height="300%" id="fjsrichuvpqlf" width="300%" x="-1" y="-1"><feGaussianBlur result="blurOut" stdDeviation="2.0"/><feColorMatrix in="blurOut" result="blurOut2" type="matrix" values="0 0 0 0 0 0 0 0 0 0 0 0 0 0 0 0 0 0 .4 0"/><feOffset dx="4.0" dy="4.0" in="blurOut2" result="blurOut3"/><feBlend in="SourceGraphic" in2="blurOut3" mode="normal"/></filter></defs><g><!--MD5=[fd285be1a5be58179fd2cb1619bacb85]
class WareHousePlant--><rect codeLine="2" fill="#FEFECE" filter="url(#fjsrichuvpqlf)" height="125.3672" id="WareHousePlant" style="stroke:#A80036;stroke-width:1.5;" width="131" x="7" y="57.04"/><ellipse cx="24.25" cy="77.1337" fill="#ADD1B2" rx="11" ry="11" style="stroke:#A80036;stroke-width:1.0;"/><path d="M22.75,78.1337 L22.75,80.1337 L26.75,80.1337 L26.75,79.1337 L26.75,78.6494 L27.375,78.1337 L27.75,78.1337 L28.125,78.1337 L28.75,78.6494 L28.75,79.1337 L28.75,82.1337 L20.75,82.1337 L20.2656,82.1337 L19.75,81.5087 L19.75,81.1337 L19.75,80.7587 L20.2656,80.1337 L20.75,80.1337 L20.75,80.1337 L20.75,74.1337 L20.75,74.1337 L20.2656,74.1337 L19.75,73.5087 L19.75,73.1337 L19.75,72.7587 L20.2656,72.1337 L20.75,72.1337 L28.75,72.1337 L28.75,75.1337 L28.75,75.6181 L28.125,76.1337 L27.75,76.1337 L27.375,76.1337 L26.75,75.6181 L26.75,75.1337 L26.75,74.1337 L22.75,74.1337 L22.75,76.1337 L23.75,76.1337 L23.75,75.6494 L23.75,75.6494 L24.375,75.1337 L24.75,75.1337 L25.125,75.1337 L25.75,75.6494 L25.75,76.1337 L25.75,78.1337 L25.75,78.6181 L25.125,79.1337 L25.125,79.1337 L24.75,79.1337 L24.375,79.1337 L23.75,78.6181 L23.75,78.6181 L23.75,78.1337 L22.75,78.1337 Z " fill="#000000"/><text fill="#000000" font-family="sans-serif" font-size="12" font-style="italic" lengthAdjust="spacing" textLength="67" x="52.25" y="74.497">«entity root»</text><text fill="#000000" font-family="sans-serif" font-size="12" lengthAdjust="spacing" textLength="94" x="38.75" y="89.5908">WareHousePlant</text><line style="stroke:#A80036;stroke-width:1.5;" x1="8" x2="137" y1="97.2275" y2="97.2275"/><rect fill="none" height="6" style="stroke:#C82930;stroke-width:1.0;" width="6" x="15" y="105.2275"/><text fill="#000000" font-family="sans-serif" font-size="11" lengthAdjust="spacing" textLength="22" x="27" y="112.6464">int id</text><text fill="#000000" font-family="sans-serif" font-size="11" font-weight="bold" lengthAdjust="spacing" textLength="72" x="52" y="112.6464">PRIMARY KEY</text><text fill="#000000" font-family="sans-serif" font-size="11" lengthAdjust="spacing" textLength="3" x="124" y="112.6464">;</text><rect fill="none" height="6" style="stroke:#C82930;stroke-width:1.0;" width="6" x="15" y="119.0634"/><text fill="#000000" font-family="sans-serif" font-size="11" lengthAdjust="spacing" textLength="43" x="27" y="126.4824">int length</text><rect fill="none" height="6" style="stroke:#C82930;stroke-width:1.0;" width="6" x="15" y="132.8994"/><text fill="#000000" font-family="sans-serif" font-size="11" lengthAdjust="spacing" textLength="48" x="27" y="140.3183">int square</text><rect fill="none" height="6" style="stroke:#C82930;stroke-width:1.0;" width="6" x="15" y="146.7353"/><text fill="#000000" font-family="sans-serif" font-size="11" lengthAdjust="spacing" textLength="48" x="27" y="154.1543">String unit</text><rect fill="none" height="6" style="stroke:#C82930;stroke-width:1.0;" width="6" x="15" y="160.5713"/><text fill="#000000" font-family="sans-serif" font-size="11" lengthAdjust="spacing" textLength="105" x="27" y="167.9902">List&lt;Aisles&gt; listAisles</text><line style="stroke:#A80036;stroke-width:1.5;" x1="8" x2="137" y1="174.4072" y2="174.4072"/><!--MD5=[eb51331e9c16440a76158b6b10baba78]
class Aisles--><rect codeLine="10" fill="#FEFECE" filter="url(#fjsrichuvpqlf)" height="111.5313" id="Aisles" style="stroke:#A80036;stroke-width:1.5;" width="179" x="173" y="63.54"/><ellipse cx="238.75" cy="83.6337" fill="#ADD1B2" rx="11" ry="11" style="stroke:#A80036;stroke-width:1.0;"/><path d="M237.25,84.6337 L237.25,86.6337 L241.25,86.6337 L241.25,85.6337 L241.25,85.1494 L241.875,84.6337 L242.25,84.6337 L242.625,84.6337 L243.25,85.1494 L243.25,85.6337 L243.25,88.6337 L235.25,88.6337 L234.7656,88.6337 L234.25,88.0087 L234.25,87.6337 L234.25,87.2587 L234.7656,86.6337 L235.25,86.6337 L235.25,86.6337 L235.25,80.6337 L235.25,80.6337 L234.7656,80.6337 L234.25,80.0087 L234.25,79.6337 L234.25,79.2587 L234.7656,78.6337 L235.25,78.6337 L243.25,78.6337 L243.25,81.6337 L243.25,82.1181 L242.625,82.6337 L242.25,82.6337 L241.875,82.6337 L241.25,82.1181 L241.25,81.6337 L241.25,80.6337 L237.25,80.6337 L237.25,82.6337 L238.25,82.6337 L238.25,82.1494 L238.25,82.1494 L238.875,81.6337 L239.25,81.6337 L239.625,81.6337 L240.25,82.1494 L240.25,82.6337 L240.25,84.6337 L240.25,85.1181 L239.625,85.6337 L239.625,85.6337 L239.25,85.6337 L238.875,85.6337 L238.25,85.1181 L238.25,85.1181 L238.25,84.6337 L237.25,84.6337 Z " fill="#000000"/><text fill="#000000" font-family="sans-serif" font-size="12" font-style="italic" lengthAdjust="spacing" textLength="43" x="257.25" y="80.997">«entity»</text><text fill="#000000" font-family="sans-serif" font-size="12" lengthAdjust="spacing" textLength="34" x="261.75" y="96.0908">Aisles</text><line style="stroke:#A80036;stroke-width:1.5;" x1="174" x2="351" y1="103.7275" y2="103.7275"/><rect fill="none" height="6" style="stroke:#C82930;stroke-width:1.0;" width="6" x="181" y="111.7275"/><text fill="#000000" font-family="sans-serif" font-size="11" lengthAdjust="spacing" textLength="22" x="193" y="119.1464">int id</text><text fill="#000000" font-family="sans-serif" font-size="11" font-weight="bold" lengthAdjust="spacing" textLength="72" x="218" y="119.1464">PRIMARY KEY</text><text fill="#000000" font-family="sans-serif" font-size="11" lengthAdjust="spacing" textLength="3" x="290" y="119.1464">;</text><rect fill="none" height="6" style="stroke:#C82930;stroke-width:1.0;" width="6" x="181" y="125.5634"/><text fill="#000000" font-family="sans-serif" font-size="11" lengthAdjust="spacing" textLength="79" x="193" y="132.9824">int idWareHouse</text><text fill="#000000" font-family="sans-serif" font-size="11" font-weight="bold" lengthAdjust="spacing" textLength="68" x="275" y="132.9824">FOREIGN KEY</text><text fill="#000000" font-family="sans-serif" font-size="11" lengthAdjust="spacing" textLength="3" x="343" y="132.9824">;</text><rect fill="none" height="6" style="stroke:#C82930;stroke-width:1.0;" width="6" x="181" y="139.3994"/><text fill="#000000" font-family="sans-serif" font-size="11" lengthAdjust="spacing" textLength="126" x="193" y="146.8183">Accessibility accessibility;</text><rect fill="none" height="6" style="stroke:#C82930;stroke-width:1.0;" width="6" x="181" y="153.2353"/><text fill="#000000" font-family="sans-serif" font-size="11" lengthAdjust="spacing" textLength="106" x="193" y="160.6543">List&lt;Rows&gt; listRows;</text><line style="stroke:#A80036;stroke-width:1.5;" x1="174" x2="351" y1="167.0713" y2="167.0713"/><!--MD5=[e684bc8d1109ce4ba59410fc7d15ad9e]
class Rows--><rect codeLine="17" fill="#FEFECE" filter="url(#fjsrichuvpqlf)" height="97.6953" id="Rows" style="stroke:#A80036;stroke-width:1.5;" width="152" x="541.5" y="70.54"/><ellipse cx="593.75" cy="90.6337" fill="#ADD1B2" rx="11" ry="11" style="stroke:#A80036;stroke-width:1.0;"/><path d="M592.25,91.6337 L592.25,93.6337 L596.25,93.6337 L596.25,92.6337 L596.25,92.1494 L596.875,91.6337 L597.25,91.6337 L597.625,91.6337 L598.25,92.1494 L598.25,92.6337 L598.25,95.6337 L590.25,95.6337 L589.7656,95.6337 L589.25,95.0087 L589.25,94.6337 L589.25,94.2587 L589.7656,93.6337 L590.25,93.6337 L590.25,93.6337 L590.25,87.6337 L590.25,87.6337 L589.7656,87.6337 L589.25,87.0087 L589.25,86.6337 L589.25,86.2587 L589.7656,85.6337 L590.25,85.6337 L598.25,85.6337 L598.25,88.6337 L598.25,89.1181 L597.625,89.6337 L597.25,89.6337 L596.875,89.6337 L596.25,89.1181 L596.25,88.6337 L596.25,87.6337 L592.25,87.6337 L592.25,89.6337 L593.25,89.6337 L593.25,89.1494 L593.25,89.1494 L593.875,88.6337 L594.25,88.6337 L594.625,88.6337 L595.25,89.1494 L595.25,89.6337 L595.25,91.6337 L595.25,92.1181 L594.625,92.6337 L594.625,92.6337 L594.25,92.6337 L593.875,92.6337 L593.25,92.1181 L593.25,92.1181 L593.25,91.6337 L592.25,91.6337 Z " fill="#000000"/><text fill="#000000" font-family="sans-serif" font-size="12" font-style="italic" lengthAdjust="spacing" textLength="43" x="612.25" y="87.997">«entity»</text><text fill="#000000" font-family="sans-serif" font-size="12" lengthAdjust="spacing" textLength="32" x="617.75" y="103.0908">Rows</text><line style="stroke:#A80036;stroke-width:1.5;" x1="542.5" x2="692.5" y1="110.7275" y2="110.7275"/><rect fill="none" height="6" style="stroke:#C82930;stroke-width:1.0;" width="6" x="549.5" y="118.7275"/><text fill="#000000" font-family="sans-serif" font-size="11" lengthAdjust="spacing" textLength="22" x="561.5" y="126.1464">int id</text><text fill="#000000" font-family="sans-serif" font-size="11" font-weight="bold" lengthAdjust="spacing" textLength="72" x="586.5" y="126.1464">PRIMARY KEY</text><text fill="#000000" font-family="sans-serif" font-size="11" lengthAdjust="spacing" textLength="3" x="658.5" y="126.1464">;</text><rect fill="none" height="6" style="stroke:#C82930;stroke-width:1.0;" width="6" x="549.5" y="132.5634"/><text fill="#000000" font-family="sans-serif" font-size="11" lengthAdjust="spacing" textLength="52" x="561.5" y="139.9824">int idAisles</text><text fill="#000000" font-family="sans-serif" font-size="11" font-weight="bold" lengthAdjust="spacing" textLength="68" x="616.5" y="139.9824">FOREIGN KEY</text><text fill="#000000" font-family="sans-serif" font-size="11" lengthAdjust="spacing" textLength="3" x="684.5" y="139.9824">;</text><rect fill="none" height="6" style="stroke:#C82930;stroke-width:1.0;" width="6" x="549.5" y="146.3994"/><text fill="#000000" font-family="sans-serif" font-size="11" lengthAdjust="spacing" textLength="55" x="561.5" y="153.8183">int shelves;</text><line style="stroke:#A80036;stroke-width:1.5;" x1="542.5" x2="692.5" y1="160.2353" y2="160.2353"/><!--MD5=[b00749707d845f1443c1c5456ab9d3d1]
class AVGDocks--><rect codeLine="23" fill="#FEFECE" filter="url(#fjsrichuvpqlf)" height="83.8594" id="AVGDocks" style="stroke:#A80036;stroke-width:1.5;" width="152" x="728.5" y="77.54"/><ellipse cx="771.4" cy="97.6337" fill="#ADD1B2" rx="11" ry="11" style="stroke:#A80036;stroke-width:1.0;"/><path d="M769.9,98.6337 L769.9,100.6337 L773.9,100.6337 L773.9,99.6337 L773.9,99.1494 L774.525,98.6337 L774.9,98.6337 L775.275,98.6337 L775.9,99.1494 L775.9,99.6337 L775.9,102.6337 L767.9,102.6337 L767.4156,102.6337 L766.9,102.0087 L766.9,101.6337 L766.9,101.2587 L767.4156,100.6337 L767.9,100.6337 L767.9,100.6337 L767.9,94.6337 L767.9,94.6337 L767.4156,94.6337 L766.9,94.0087 L766.9,93.6337 L766.9,93.2587 L767.4156,92.6337 L767.9,92.6337 L775.9,92.6337 L775.9,95.6337 L775.9,96.1181 L775.275,96.6337 L774.9,96.6337 L774.525,96.6337 L773.9,96.1181 L773.9,95.6337 L773.9,94.6337 L769.9,94.6337 L769.9,96.6337 L770.9,96.6337 L770.9,96.1494 L770.9,96.1494 L771.525,95.6337 L771.9,95.6337 L772.275,95.6337 L772.9,96.1494 L772.9,96.6337 L772.9,98.6337 L772.9,99.1181 L772.275,99.6337 L772.275,99.6337 L771.9,99.6337 L771.525,99.6337 L770.9,99.1181 L770.9,99.1181 L770.9,98.6337 L769.9,98.6337 Z " fill="#000000"/><text fill="#000000" font-family="sans-serif" font-size="12" font-style="italic" lengthAdjust="spacing" textLength="43" x="799.1" y="94.997">«entity»</text><text fill="#000000" font-family="sans-serif" font-size="12" lengthAdjust="spacing" textLength="58" x="791.6" y="110.0908">AVGDocks</text><line style="stroke:#A80036;stroke-width:1.5;" x1="729.5" x2="879.5" y1="117.7275" y2="117.7275"/><rect fill="none" height="6" style="stroke:#C82930;stroke-width:1.0;" width="6" x="736.5" y="125.7275"/><text fill="#000000" font-family="sans-serif" font-size="11" lengthAdjust="spacing" textLength="22" x="748.5" y="133.1464">int id</text><text fill="#000000" font-family="sans-serif" font-size="11" font-weight="bold" lengthAdjust="spacing" textLength="72" x="773.5" y="133.1464">PRIMARY KEY</text><text fill="#000000" font-family="sans-serif" font-size="11" lengthAdjust="spacing" textLength="3" x="845.5" y="133.1464">;</text><rect fill="none" height="6" style="stroke:#C82930;stroke-width:1.0;" width="6" x="736.5" y="139.5634"/><text fill="#000000" font-family="sans-serif" font-size="11" lengthAdjust="spacing" textLength="126" x="748.5" y="146.9824">Accessibility accessibility;</text><line style="stroke:#A80036;stroke-width:1.5;" x1="729.5" x2="879.5" y1="153.3994" y2="153.3994"/><!--MD5=[7620fae2775ebf09e1a63cf069b3747d]
class Accessibility--><rect codeLine="28" fill="#FEFECE" filter="url(#fjsrichuvpqlf)" height="70.0234" id="Accessibility" style="stroke:#A80036;stroke-width:1.5;" width="119" x="387" y="84.54"/><ellipse cx="406.5" cy="104.6337" fill="#ADD1B2" rx="11" ry="11" style="stroke:#A80036;stroke-width:1.0;"/><path d="M408.5,101.1337 Q408.7031,100.6337 408.9375,100.3837 Q409.1719,100.1337 409.4375,100.1337 Q409.9063,100.1337 410.2031,100.415 Q410.5,100.6962 410.5,101.3525 L410.5,102.915 Q410.5,103.5712 410.2188,103.8525 Q409.9375,104.1337 409.5,104.1337 Q409.1094,104.1337 408.8594,103.9619 Q408.6094,103.79 408.5,103.3369 Q408.4531,103.0244 408.2813,102.8525 Q407.9688,102.5244 407.4063,102.3369 Q406.8438,102.1337 406.2813,102.1337 Q405.5781,102.1337 404.9844,102.415 Q404.4063,102.6962 403.9531,103.3212 Q403.5,103.9462 403.5,104.8056 L403.5,105.7275 Q403.5,106.7587 404.3438,107.4462 Q405.1875,108.1337 406.6875,108.1337 Q407.5781,108.1337 408.2031,107.9306 Q408.5625,107.8212 408.9688,107.4619 Q409.2344,107.2587 409.375,107.1962 Q409.5156,107.1337 409.6875,107.1337 Q410.0156,107.1337 410.25,107.3994 Q410.5,107.6494 410.5,108.0087 Q410.5,108.3525 410.1563,108.7587 Q409.6563,109.3525 408.8594,109.6806 Q407.8125,110.1337 406.5313,110.1337 Q405.0313,110.1337 403.8281,109.54 Q402.8594,109.0712 402.1719,108.0556 Q401.5,107.04 401.5,105.8369 L401.5,104.7431 Q401.5,103.4931 402.0938,102.3994 Q402.7031,101.3056 403.75,100.7275 Q404.8125,100.1337 406,100.1337 Q406.7188,100.1337 407.3438,100.3837 Q407.9688,100.6337 408.5,101.1337 Z " fill="#000000"/><text fill="#000000" font-family="sans-serif" font-size="12" font-style="italic" lengthAdjust="spacing" textLength="81" x="419.5" y="101.997">«value object»</text><text fill="#000000" font-family="sans-serif" font-size="12" lengthAdjust="spacing" textLength="67" x="426.5" y="117.0908">Accessibility</text><line style="stroke:#A80036;stroke-width:1.5;" x1="388" x2="505" y1="124.7275" y2="124.7275"/><rect fill="none" height="6" style="stroke:#C82930;stroke-width:1.0;" width="6" x="395" y="132.7275"/><text fill="#000000" font-family="sans-serif" font-size="11" lengthAdjust="spacing" textLength="93" x="407" y="140.1464">String accessibility;</text><line style="stroke:#A80036;stroke-width:1.5;" x1="388" x2="505" y1="146.5634" y2="146.5634"/><!--MD5=[a06b7c740ec860f48f254b035aeb52a9]
link WareHousePlant to AVGDocks--><path codeLine="33" d="M126.24,56.85 C140.12,44.69 155.99,33.68 173,27.04 C226.93,6 639.59,7.27 694,27.04 C720.23,36.57 744.59,55.36 763.72,73.53 " fill="none" id="WareHousePlant-to-AVGDocks" style="stroke:#A80036;stroke-width:1.0;"/><polygon fill="#A80036" points="767.47,77.15,763.7679,68.0234,763.8708,73.6793,758.2149,73.7822,767.47,77.15" style="stroke:#A80036;stroke-width:1.0;"/><text fill="#000000" font-family="sans-serif" font-size="13" lengthAdjust="spacing" textLength="7" x="125.049" y="46.1707">1</text><text fill="#000000" font-family="sans-serif" font-size="13" lengthAdjust="spacing" textLength="5" x="756.1699" y="66.6534">*</text><!--MD5=[af08bbe951329a4fd3bc48af16f8564c]
link WareHousePlant to Aisles--><path codeLine="34" d="M138.18,119.54 C147.97,119.54 157.76,119.54 167.54,119.54 " fill="none" id="WareHousePlant-to-Aisles" style="stroke:#A80036;stroke-width:1.0;"/><polygon fill="#A80036" points="172.66,119.54,163.66,115.54,167.66,119.54,163.66,123.54,172.66,119.54" style="stroke:#A80036;stroke-width:1.0;"/><text fill="#000000" font-family="sans-serif" font-size="13" lengthAdjust="spacing" textLength="7" x="146.1789" y="116.1092">1</text><text fill="#000000" font-family="sans-serif" font-size="13" lengthAdjust="spacing" textLength="5" x="160.0131" y="116.4066">*</text><!--MD5=[b7da7e42918bf76723ec310cbbf5914f]
link Aisles to Rows--><path codeLine="35" d="M322,63.39 C341.28,48.65 363.74,34.74 387,27.04 C437.21,10.43 456.25,9.09 506,27.04 C529.1,35.37 550.79,50.8 568.79,66.7 " fill="none" id="Aisles-to-Rows" style="stroke:#A80036;stroke-width:1.0;"/><polygon fill="#A80036" points="572.81,70.31,568.7771,61.3247,569.0864,66.9731,563.438,67.2824,572.81,70.31" style="stroke:#A80036;stroke-width:1.0;"/><text fill="#000000" font-family="sans-serif" font-size="13" lengthAdjust="spacing" textLength="7" x="322.175" y="52.7184">1</text><text fill="#000000" font-family="sans-serif" font-size="13" lengthAdjust="spacing" textLength="12" x="553.6817" y="59.8033">1*</text><!--MD5=[694068a413ea29c6eaca2bd73d8e1283]
link Aisles to Accessibility--><path codeLine="36" d="M352.34,119.54 C362.16,119.54 371.97,119.54 381.78,119.54 " fill="none" id="Aisles-to-Accessibility" style="stroke:#A80036;stroke-width:1.0;"/><polygon fill="#A80036" points="386.92,119.54,377.92,115.54,381.92,119.54,377.92,123.54,386.92,119.54" style="stroke:#A80036;stroke-width:1.0;"/><text fill="#000000" font-family="sans-serif" font-size="13" lengthAdjust="spacing" textLength="7" x="360.0697" y="116.4066">1</text><text fill="#000000" font-family="sans-serif" font-size="13" lengthAdjust="spacing" textLength="7" x="371.8379" y="116.0311">1</text><!--MD5=[a3aae35a0e05d11b84f8fc5d7a60aa81]
@startuml

Entity WareHousePlant<<entity root>> {
 -int id **PRIMARY KEY**;
 -int length
 -int square
 -String unit
 -List<Aisles> listAisles
}

Entity Aisles<<entity>>{
    -int id **PRIMARY KEY**;
    -int idWareHouse **FOREIGN KEY**;
    -Accessibility accessibility;
    -List<Rows> listRows;
}

Entity Rows<<entity>>{
    -int id **PRIMARY KEY**;
    -int idAisles **FOREIGN KEY**;
    -int shelves;
}

Entity AVGDocks<<entity>>{
    -int id **PRIMARY KEY**;
    -Accessibility accessibility;
}

class Accessibility<<value object>>{
    -String accessibility;

}

WareHousePlant "1" -> "*"  AVGDocks
WareHousePlant "1" -> "*" Aisles
Aisles "1" -> "1*" Rows
Aisles "1" -> "1" Accessibility

@enduml

PlantUML version 1.2021.11(Sat Oct 02 14:26:11 BST 2021)
(GPL source distribution)
Java Runtime: OpenJDK Runtime Environment
JVM: OpenJDK 64-Bit Server VM
Default Encoding: Cp1252
Language: pt
Country: PT
--></g></svg>