<?xml version="1.0" encoding="UTF-8" standalone="no"?><svg xmlns="http://www.w3.org/2000/svg" xmlns:xlink="http://www.w3.org/1999/xlink" contentScriptType="application/ecmascript" contentStyleType="text/css" height="196px" preserveAspectRatio="none" style="width:890px;height:196px;background:#FFFFFF;" version="1.1" viewBox="0 0 890 196" width="890px" zoomAndPan="magnify"><defs><filter height="300%" id="fk6opqy358qkz" width="300%" x="-1" y="-1"><feGaussianBlur result="blurOut" stdDeviation="2.0"/><feColorMatrix in="blurOut" result="blurOut2" type="matrix" values="0 0 0 0 0 0 0 0 0 0 0 0 0 0 0 0 0 0 .4 0"/><feOffset dx="4.0" dy="4.0" in="blurOut2" result="blurOut3"/><feBlend in="SourceGraphic" in2="blurOut3" mode="normal"/></filter></defs><g><!--MD5=[fd285be1a5be58179fd2cb1619bacb85]
class WareHousePlant--><rect codeLine="2" fill="#FEFECE" filter="url(#fk6opqy358qkz)" height="125.3672" id="WareHousePlant" style="stroke:#A80036;stroke-width:1.5;" width="126" x="7" y="57.31"/><ellipse cx="22" cy="77.4038" fill="#ADD1B2" rx="11" ry="11" style="stroke:#A80036;stroke-width:1.0;"/><path d="M20.5,78.4038 L20.5,80.4038 L24.5,80.4038 L24.5,79.4038 L24.5,78.9194 L25.125,78.4038 L25.5,78.4038 L25.875,78.4038 L26.5,78.9194 L26.5,79.4038 L26.5,82.4038 L18.5,82.4038 L18.0156,82.4038 L17.5,81.7788 L17.5,81.4038 L17.5,81.0288 L18.0156,80.4038 L18.5,80.4038 L18.5,80.4038 L18.5,74.4038 L18.5,74.4038 L18.0156,74.4038 L17.5,73.7788 L17.5,73.4038 L17.5,73.0288 L18.0156,72.4038 L18.5,72.4038 L26.5,72.4038 L26.5,75.4038 L26.5,75.8881 L25.875,76.4038 L25.5,76.4038 L25.125,76.4038 L24.5,75.8881 L24.5,75.4038 L24.5,74.4038 L20.5,74.4038 L20.5,76.4038 L21.5,76.4038 L21.5,75.9194 L21.5,75.9194 L22.125,75.4038 L22.5,75.4038 L22.875,75.4038 L23.5,75.9194 L23.5,76.4038 L23.5,78.4038 L23.5,78.8881 L22.875,79.4038 L22.875,79.4038 L22.5,79.4038 L22.125,79.4038 L21.5,78.8881 L21.5,78.8881 L21.5,78.4038 L20.5,78.4038 Z " fill="#000000"/><text fill="#000000" font-family="sans-serif" font-size="12" font-style="italic" lengthAdjust="spacing" textLength="67" x="49.5" y="74.767">«entity root»</text><text fill="#000000" font-family="sans-serif" font-size="12" lengthAdjust="spacing" textLength="94" x="36" y="89.8608">WareHousePlant</text><line style="stroke:#A80036;stroke-width:1.5;" x1="8" x2="132" y1="97.4975" y2="97.4975"/><rect fill="none" height="6" style="stroke:#C82930;stroke-width:1.0;" width="6" x="15" y="105.4975"/><text fill="#000000" font-family="sans-serif" font-size="11" lengthAdjust="spacing" textLength="22" x="27" y="112.9164">int id</text><text fill="#000000" font-family="sans-serif" font-size="11" font-weight="bold" lengthAdjust="spacing" textLength="72" x="52" y="112.9164">PRIMARY KEY</text><text fill="#000000" font-family="sans-serif" font-size="11" lengthAdjust="spacing" textLength="3" x="124" y="112.9164">;</text><rect fill="none" height="6" style="stroke:#C82930;stroke-width:1.0;" width="6" x="15" y="119.3334"/><text fill="#000000" font-family="sans-serif" font-size="11" lengthAdjust="spacing" textLength="43" x="27" y="126.7524">int length</text><rect fill="none" height="6" style="stroke:#C82930;stroke-width:1.0;" width="6" x="15" y="133.1694"/><text fill="#000000" font-family="sans-serif" font-size="11" lengthAdjust="spacing" textLength="48" x="27" y="140.5883">int square</text><rect fill="none" height="6" style="stroke:#C82930;stroke-width:1.0;" width="6" x="15" y="147.0053"/><text fill="#000000" font-family="sans-serif" font-size="11" lengthAdjust="spacing" textLength="48" x="27" y="154.4243">String unit</text><rect fill="none" height="6" style="stroke:#C82930;stroke-width:1.0;" width="6" x="15" y="160.8413"/><text fill="#000000" font-family="sans-serif" font-size="11" lengthAdjust="spacing" textLength="99" x="27" y="168.2602">List&lt;Aisle&gt; listAisles</text><line style="stroke:#A80036;stroke-width:1.5;" x1="8" x2="132" y1="174.6772" y2="174.6772"/><!--MD5=[0a2f0ce5c49321e9082933c32b514ce4]
class Aisle--><rect codeLine="10" fill="#FEFECE" filter="url(#fk6opqy358qkz)" height="111.5313" id="Aisle" style="stroke:#A80036;stroke-width:1.5;" width="179" x="168.5" y="63.81"/><ellipse cx="234.25" cy="83.9038" fill="#ADD1B2" rx="11" ry="11" style="stroke:#A80036;stroke-width:1.0;"/><path d="M232.75,84.9038 L232.75,86.9038 L236.75,86.9038 L236.75,85.9038 L236.75,85.4194 L237.375,84.9038 L237.75,84.9038 L238.125,84.9038 L238.75,85.4194 L238.75,85.9038 L238.75,88.9038 L230.75,88.9038 L230.2656,88.9038 L229.75,88.2788 L229.75,87.9038 L229.75,87.5288 L230.2656,86.9038 L230.75,86.9038 L230.75,86.9038 L230.75,80.9038 L230.75,80.9038 L230.2656,80.9038 L229.75,80.2788 L229.75,79.9038 L229.75,79.5288 L230.2656,78.9038 L230.75,78.9038 L238.75,78.9038 L238.75,81.9038 L238.75,82.3881 L238.125,82.9038 L237.75,82.9038 L237.375,82.9038 L236.75,82.3881 L236.75,81.9038 L236.75,80.9038 L232.75,80.9038 L232.75,82.9038 L233.75,82.9038 L233.75,82.4194 L233.75,82.4194 L234.375,81.9038 L234.75,81.9038 L235.125,81.9038 L235.75,82.4194 L235.75,82.9038 L235.75,84.9038 L235.75,85.3881 L235.125,85.9038 L235.125,85.9038 L234.75,85.9038 L234.375,85.9038 L233.75,85.3881 L233.75,85.3881 L233.75,84.9038 L232.75,84.9038 Z " fill="#000000"/><text fill="#000000" font-family="sans-serif" font-size="12" font-style="italic" lengthAdjust="spacing" textLength="43" x="252.75" y="81.267">«entity»</text><text fill="#000000" font-family="sans-serif" font-size="12" lengthAdjust="spacing" textLength="27" x="260.75" y="96.3608">Aisle</text><line style="stroke:#A80036;stroke-width:1.5;" x1="169.5" x2="346.5" y1="103.9975" y2="103.9975"/><rect fill="none" height="6" style="stroke:#C82930;stroke-width:1.0;" width="6" x="176.5" y="111.9975"/><text fill="#000000" font-family="sans-serif" font-size="11" lengthAdjust="spacing" textLength="22" x="188.5" y="119.4164">int id</text><text fill="#000000" font-family="sans-serif" font-size="11" font-weight="bold" lengthAdjust="spacing" textLength="72" x="213.5" y="119.4164">PRIMARY KEY</text><text fill="#000000" font-family="sans-serif" font-size="11" lengthAdjust="spacing" textLength="3" x="285.5" y="119.4164">;</text><rect fill="none" height="6" style="stroke:#C82930;stroke-width:1.0;" width="6" x="176.5" y="125.8334"/><text fill="#000000" font-family="sans-serif" font-size="11" lengthAdjust="spacing" textLength="79" x="188.5" y="133.2524">int idWareHouse</text><text fill="#000000" font-family="sans-serif" font-size="11" font-weight="bold" lengthAdjust="spacing" textLength="68" x="270.5" y="133.2524">FOREIGN KEY</text><text fill="#000000" font-family="sans-serif" font-size="11" lengthAdjust="spacing" textLength="3" x="338.5" y="133.2524">;</text><rect fill="none" height="6" style="stroke:#C82930;stroke-width:1.0;" width="6" x="176.5" y="139.6694"/><text fill="#000000" font-family="sans-serif" font-size="11" lengthAdjust="spacing" textLength="126" x="188.5" y="147.0883">Accessibility accessibility;</text><rect fill="none" height="6" style="stroke:#C82930;stroke-width:1.0;" width="6" x="176.5" y="153.5053"/><text fill="#000000" font-family="sans-serif" font-size="11" lengthAdjust="spacing" textLength="100" x="188.5" y="160.9243">List&lt;Row&gt; listRows;</text><line style="stroke:#A80036;stroke-width:1.5;" x1="169.5" x2="346.5" y1="167.3413" y2="167.3413"/><!--MD5=[05aedcff764caeeb5d443618a4d90de7]
class Row--><rect codeLine="17" fill="#FEFECE" filter="url(#fk6opqy358qkz)" height="97.6953" id="Row" style="stroke:#A80036;stroke-width:1.5;" width="152" x="537" y="70.81"/><ellipse cx="589.25" cy="90.9038" fill="#ADD1B2" rx="11" ry="11" style="stroke:#A80036;stroke-width:1.0;"/><path d="M587.75,91.9038 L587.75,93.9038 L591.75,93.9038 L591.75,92.9038 L591.75,92.4194 L592.375,91.9038 L592.75,91.9038 L593.125,91.9038 L593.75,92.4194 L593.75,92.9038 L593.75,95.9038 L585.75,95.9038 L585.2656,95.9038 L584.75,95.2788 L584.75,94.9038 L584.75,94.5288 L585.2656,93.9038 L585.75,93.9038 L585.75,93.9038 L585.75,87.9038 L585.75,87.9038 L585.2656,87.9038 L584.75,87.2788 L584.75,86.9038 L584.75,86.5288 L585.2656,85.9038 L585.75,85.9038 L593.75,85.9038 L593.75,88.9038 L593.75,89.3881 L593.125,89.9038 L592.75,89.9038 L592.375,89.9038 L591.75,89.3881 L591.75,88.9038 L591.75,87.9038 L587.75,87.9038 L587.75,89.9038 L588.75,89.9038 L588.75,89.4194 L588.75,89.4194 L589.375,88.9038 L589.75,88.9038 L590.125,88.9038 L590.75,89.4194 L590.75,89.9038 L590.75,91.9038 L590.75,92.3881 L590.125,92.9038 L590.125,92.9038 L589.75,92.9038 L589.375,92.9038 L588.75,92.3881 L588.75,92.3881 L588.75,91.9038 L587.75,91.9038 Z " fill="#000000"/><text fill="#000000" font-family="sans-serif" font-size="12" font-style="italic" lengthAdjust="spacing" textLength="43" x="607.75" y="88.267">«entity»</text><text fill="#000000" font-family="sans-serif" font-size="12" lengthAdjust="spacing" textLength="25" x="616.75" y="103.3608">Row</text><line style="stroke:#A80036;stroke-width:1.5;" x1="538" x2="688" y1="110.9975" y2="110.9975"/><rect fill="none" height="6" style="stroke:#C82930;stroke-width:1.0;" width="6" x="545" y="118.9975"/><text fill="#000000" font-family="sans-serif" font-size="11" lengthAdjust="spacing" textLength="22" x="557" y="126.4164">int id</text><text fill="#000000" font-family="sans-serif" font-size="11" font-weight="bold" lengthAdjust="spacing" textLength="72" x="582" y="126.4164">PRIMARY KEY</text><text fill="#000000" font-family="sans-serif" font-size="11" lengthAdjust="spacing" textLength="3" x="654" y="126.4164">;</text><rect fill="none" height="6" style="stroke:#C82930;stroke-width:1.0;" width="6" x="545" y="132.8334"/><text fill="#000000" font-family="sans-serif" font-size="11" lengthAdjust="spacing" textLength="52" x="557" y="140.2524">int idAisles</text><text fill="#000000" font-family="sans-serif" font-size="11" font-weight="bold" lengthAdjust="spacing" textLength="68" x="612" y="140.2524">FOREIGN KEY</text><text fill="#000000" font-family="sans-serif" font-size="11" lengthAdjust="spacing" textLength="3" x="680" y="140.2524">;</text><rect fill="none" height="6" style="stroke:#C82930;stroke-width:1.0;" width="6" x="545" y="146.6694"/><text fill="#000000" font-family="sans-serif" font-size="11" lengthAdjust="spacing" textLength="55" x="557" y="154.0883">int shelves;</text><line style="stroke:#A80036;stroke-width:1.5;" x1="538" x2="688" y1="160.5053" y2="160.5053"/><!--MD5=[6c8d26f6d50c9b5da41494faa6136af8]
class AGVDock--><rect codeLine="23" fill="#FEFECE" filter="url(#fk6opqy358qkz)" height="83.8594" id="AGVDock" style="stroke:#A80036;stroke-width:1.5;" width="152" x="724" y="77.81"/><ellipse cx="770.25" cy="97.9038" fill="#ADD1B2" rx="11" ry="11" style="stroke:#A80036;stroke-width:1.0;"/><path d="M768.75,98.9038 L768.75,100.9038 L772.75,100.9038 L772.75,99.9038 L772.75,99.4194 L773.375,98.9038 L773.75,98.9038 L774.125,98.9038 L774.75,99.4194 L774.75,99.9038 L774.75,102.9038 L766.75,102.9038 L766.2656,102.9038 L765.75,102.2788 L765.75,101.9038 L765.75,101.5288 L766.2656,100.9038 L766.75,100.9038 L766.75,100.9038 L766.75,94.9038 L766.75,94.9038 L766.2656,94.9038 L765.75,94.2788 L765.75,93.9038 L765.75,93.5288 L766.2656,92.9038 L766.75,92.9038 L774.75,92.9038 L774.75,95.9038 L774.75,96.3881 L774.125,96.9038 L773.75,96.9038 L773.375,96.9038 L772.75,96.3881 L772.75,95.9038 L772.75,94.9038 L768.75,94.9038 L768.75,96.9038 L769.75,96.9038 L769.75,96.4194 L769.75,96.4194 L770.375,95.9038 L770.75,95.9038 L771.125,95.9038 L771.75,96.4194 L771.75,96.9038 L771.75,98.9038 L771.75,99.3881 L771.125,99.9038 L771.125,99.9038 L770.75,99.9038 L770.375,99.9038 L769.75,99.3881 L769.75,99.3881 L769.75,98.9038 L768.75,98.9038 Z " fill="#000000"/><text fill="#000000" font-family="sans-serif" font-size="12" font-style="italic" lengthAdjust="spacing" textLength="43" x="794.75" y="95.267">«entity»</text><text fill="#000000" font-family="sans-serif" font-size="12" lengthAdjust="spacing" textLength="51" x="790.75" y="110.3608">AGVDock</text><line style="stroke:#A80036;stroke-width:1.5;" x1="725" x2="875" y1="117.9975" y2="117.9975"/><rect fill="none" height="6" style="stroke:#C82930;stroke-width:1.0;" width="6" x="732" y="125.9975"/><text fill="#000000" font-family="sans-serif" font-size="11" lengthAdjust="spacing" textLength="22" x="744" y="133.4164">int id</text><text fill="#000000" font-family="sans-serif" font-size="11" font-weight="bold" lengthAdjust="spacing" textLength="72" x="769" y="133.4164">PRIMARY KEY</text><text fill="#000000" font-family="sans-serif" font-size="11" lengthAdjust="spacing" textLength="3" x="841" y="133.4164">;</text><rect fill="none" height="6" style="stroke:#C82930;stroke-width:1.0;" width="6" x="732" y="139.8334"/><text fill="#000000" font-family="sans-serif" font-size="11" lengthAdjust="spacing" textLength="126" x="744" y="147.2524">Accessibility accessibility;</text><line style="stroke:#A80036;stroke-width:1.5;" x1="725" x2="875" y1="153.6694" y2="153.6694"/><!--MD5=[7620fae2775ebf09e1a63cf069b3747d]
class Accessibility--><rect codeLine="28" fill="#FEFECE" filter="url(#fk6opqy358qkz)" height="70.0234" id="Accessibility" style="stroke:#A80036;stroke-width:1.5;" width="119" x="382.5" y="84.81"/><ellipse cx="402" cy="104.9038" fill="#ADD1B2" rx="11" ry="11" style="stroke:#A80036;stroke-width:1.0;"/><path d="M404,101.4038 Q404.2031,100.9038 404.4375,100.6538 Q404.6719,100.4038 404.9375,100.4038 Q405.4063,100.4038 405.7031,100.685 Q406,100.9663 406,101.6225 L406,103.185 Q406,103.8413 405.7188,104.1225 Q405.4375,104.4038 405,104.4038 Q404.6094,104.4038 404.3594,104.2319 Q404.1094,104.06 404,103.6069 Q403.9531,103.2944 403.7813,103.1225 Q403.4688,102.7944 402.9063,102.6069 Q402.3438,102.4038 401.7813,102.4038 Q401.0781,102.4038 400.4844,102.685 Q399.9063,102.9663 399.4531,103.5913 Q399,104.2163 399,105.0756 L399,105.9975 Q399,107.0288 399.8438,107.7163 Q400.6875,108.4038 402.1875,108.4038 Q403.0781,108.4038 403.7031,108.2006 Q404.0625,108.0913 404.4688,107.7319 Q404.7344,107.5288 404.875,107.4663 Q405.0156,107.4038 405.1875,107.4038 Q405.5156,107.4038 405.75,107.6694 Q406,107.9194 406,108.2788 Q406,108.6225 405.6563,109.0288 Q405.1563,109.6225 404.3594,109.9506 Q403.3125,110.4038 402.0313,110.4038 Q400.5313,110.4038 399.3281,109.81 Q398.3594,109.3413 397.6719,108.3256 Q397,107.31 397,106.1069 L397,105.0131 Q397,103.7631 397.5938,102.6694 Q398.2031,101.5756 399.25,100.9975 Q400.3125,100.4038 401.5,100.4038 Q402.2188,100.4038 402.8438,100.6538 Q403.4688,100.9038 404,101.4038 Z " fill="#000000"/><text fill="#000000" font-family="sans-serif" font-size="12" font-style="italic" lengthAdjust="spacing" textLength="81" x="415" y="102.267">«value object»</text><text fill="#000000" font-family="sans-serif" font-size="12" lengthAdjust="spacing" textLength="67" x="422" y="117.3608">Accessibility</text><line style="stroke:#A80036;stroke-width:1.5;" x1="383.5" x2="500.5" y1="124.9975" y2="124.9975"/><rect fill="none" height="6" style="stroke:#C82930;stroke-width:1.0;" width="6" x="390.5" y="132.9975"/><text fill="#000000" font-family="sans-serif" font-size="11" lengthAdjust="spacing" textLength="93" x="402.5" y="140.4164">String accessibility;</text><line style="stroke:#A80036;stroke-width:1.5;" x1="383.5" x2="500.5" y1="146.8334" y2="146.8334"/><!--MD5=[bd2765a2de23b6b0e289828a0e12d807]
link WareHousePlant to AGVDock--><path codeLine="33" d="M122.49,57.13 C136.1,44.98 151.71,33.96 168.5,27.31 C222.32,6 635.09,7.54 689.5,27.31 C715.73,36.84 740.09,55.63 759.22,73.8 " fill="none" id="WareHousePlant-to-AGVDock" style="stroke:#A80036;stroke-width:1.0;"/><polygon fill="#A80036" points="762.97,77.42,759.2679,68.2934,759.3708,73.9493,753.7149,74.0522,762.97,77.42" style="stroke:#A80036;stroke-width:1.0;"/><text fill="#000000" font-family="sans-serif" font-size="13" lengthAdjust="spacing" textLength="7" x="121.1545" y="46.4518">1</text><text fill="#000000" font-family="sans-serif" font-size="13" lengthAdjust="spacing" textLength="5" x="751.6699" y="66.9234">*</text><!--MD5=[ae5f39c2ef1272409f9f623d4dc5b682]
link WareHousePlant to Aisle--><path codeLine="34" d="M133.16,119.81 C143.12,119.81 153.09,119.81 163.06,119.81 " fill="none" id="WareHousePlant-to-Aisle" style="stroke:#A80036;stroke-width:1.0;"/><polygon fill="#A80036" points="168.27,119.81,159.27,115.81,163.27,119.81,159.27,123.81,168.27,119.81" style="stroke:#A80036;stroke-width:1.0;"/><text fill="#000000" font-family="sans-serif" font-size="13" lengthAdjust="spacing" textLength="7" x="140.8676" y="116.3792">1</text><text fill="#000000" font-family="sans-serif" font-size="13" lengthAdjust="spacing" textLength="5" x="155.6322" y="116.6766">*</text><!--MD5=[c7a7c255159fc536cc39704e0abcbfe1]
link Aisle to Row--><path codeLine="35" d="M317.5,63.66 C336.78,48.92 359.24,35.01 382.5,27.31 C432.71,10.7 451.75,9.36 501.5,27.31 C524.6,35.64 546.29,51.07 564.29,66.97 " fill="none" id="Aisle-to-Row" style="stroke:#A80036;stroke-width:1.0;"/><polygon fill="#A80036" points="568.31,70.58,564.2771,61.5947,564.5864,67.2431,558.938,67.5524,568.31,70.58" style="stroke:#A80036;stroke-width:1.0;"/><text fill="#000000" font-family="sans-serif" font-size="13" lengthAdjust="spacing" textLength="7" x="317.675" y="52.9884">1</text><text fill="#000000" font-family="sans-serif" font-size="13" lengthAdjust="spacing" textLength="12" x="549.1817" y="60.0733">1*</text><!--MD5=[8fdfc9eb3c76268eec557d601d1ef891]
link Aisle to Accessibility--><path codeLine="36" d="M347.84,119.81 C357.66,119.81 367.47,119.81 377.28,119.81 " fill="none" id="Aisle-to-Accessibility" style="stroke:#A80036;stroke-width:1.0;"/><polygon fill="#A80036" points="382.42,119.81,373.42,115.81,377.42,119.81,373.42,123.81,382.42,119.81" style="stroke:#A80036;stroke-width:1.0;"/><text fill="#000000" font-family="sans-serif" font-size="13" lengthAdjust="spacing" textLength="7" x="355.5697" y="116.6766">1</text><text fill="#000000" font-family="sans-serif" font-size="13" lengthAdjust="spacing" textLength="7" x="367.3379" y="116.3011">1</text><!--MD5=[7e718246b37fb19f0c254a218afcc660]
@startuml

Entity WareHousePlant<<entity root>> {
 -int id **PRIMARY KEY**;
 -int length
 -int square
 -String unit
 -List<Aisle> listAisles
}

Entity Aisle<<entity>>{
    -int id **PRIMARY KEY**;
    -int idWareHouse **FOREIGN KEY**;
    -Accessibility accessibility;
    -List<Row> listRows;
}

Entity Row<<entity>>{
    -int id **PRIMARY KEY**;
    -int idAisles **FOREIGN KEY**;
    -int shelves;
}

Entity AGVDock<<entity>>{
    -int id **PRIMARY KEY**;
    -Accessibility accessibility;
}

class Accessibility<<value object>>{
    -String accessibility;

}

WareHousePlant "1" -> "*"  AGVDock
WareHousePlant "1" -> "*" Aisle
Aisle "1" -> "1*" Row
Aisle "1" -> "1" Accessibility

@enduml

PlantUML version 1.2021.11(Sat Oct 02 14:26:11 BST 2021)
(GPL source distribution)
Java Runtime: OpenJDK Runtime Environment
JVM: OpenJDK 64-Bit Server VM
Default Encoding: Cp1252
Language: pt
Country: PT
--></g></svg>