<?xml version="1.0" encoding="UTF-8" standalone="no"?><svg xmlns="http://www.w3.org/2000/svg" xmlns:xlink="http://www.w3.org/1999/xlink" contentScriptType="application/ecmascript" contentStyleType="text/css" height="956px" preserveAspectRatio="none" style="width:1269px;height:956px;background:#FFFFFF;" version="1.1" viewBox="0 0 1269 956" width="1269px" zoomAndPan="magnify"><defs><filter height="300%" id="f50wzmskl38wn" width="300%" x="-1" y="-1"><feGaussianBlur result="blurOut" stdDeviation="2.0"/><feColorMatrix in="blurOut" result="blurOut2" type="matrix" values="0 0 0 0 0 0 0 0 0 0 0 0 0 0 0 0 0 0 .4 0"/><feOffset dx="4.0" dy="4.0" in="blurOut2" result="blurOut3"/><feBlend in="SourceGraphic" in2="blurOut3" mode="normal"/></filter></defs><g><line style="stroke:#A80036;stroke-width:1.0;stroke-dasharray:5.0,5.0;" x1="81" x2="81" y1="41.6094" y2="911.4531"/><line style="stroke:#A80036;stroke-width:1.0;stroke-dasharray:5.0,5.0;" x1="356" x2="356" y1="41.6094" y2="911.4531"/><line style="stroke:#A80036;stroke-width:1.0;stroke-dasharray:5.0,5.0;" x1="512" x2="512" y1="41.6094" y2="911.4531"/><line style="stroke:#A80036;stroke-width:1.0;stroke-dasharray:5.0,5.0;" x1="678" x2="678" y1="41.6094" y2="911.4531"/><line style="stroke:#A80036;stroke-width:1.0;stroke-dasharray:5.0,5.0;" x1="825" x2="825" y1="41.6094" y2="911.4531"/><line style="stroke:#A80036;stroke-width:1.0;stroke-dasharray:5.0,5.0;" x1="959" x2="959" y1="41.6094" y2="911.4531"/><line style="stroke:#A80036;stroke-width:1.0;stroke-dasharray:5.0,5.0;" x1="1072" x2="1072" y1="41.6094" y2="911.4531"/><line style="stroke:#A80036;stroke-width:1.0;stroke-dasharray:5.0,5.0;" x1="1161" x2="1161" y1="41.6094" y2="911.4531"/><line style="stroke:#A80036;stroke-width:1.0;stroke-dasharray:5.0,5.0;" x1="1227" x2="1227" y1="41.6094" y2="911.4531"/><rect fill="#FEFECE" filter="url(#f50wzmskl38wn)" height="31.6094" style="stroke:#A80036;stroke-width:1.5;" width="149" x="5" y="5"/><text fill="#000000" font-family="sans-serif" font-size="14" lengthAdjust="spacing" textLength="135" x="12" y="26.5332">WarehouseEmployee</text><rect fill="#FEFECE" filter="url(#f50wzmskl38wn)" height="31.6094" style="stroke:#A80036;stroke-width:1.5;" width="149" x="5" y="910.4531"/><text fill="#000000" font-family="sans-serif" font-size="14" lengthAdjust="spacing" textLength="135" x="12" y="931.9863">WarehouseEmployee</text><rect fill="#FEFECE" filter="url(#f50wzmskl38wn)" height="31.6094" style="stroke:#A80036;stroke-width:1.5;" width="117" x="296" y="5"/><text fill="#000000" font-family="sans-serif" font-size="14" lengthAdjust="spacing" textLength="103" x="303" y="26.5332">ConfigureAGVUI</text><rect fill="#FEFECE" filter="url(#f50wzmskl38wn)" height="31.6094" style="stroke:#A80036;stroke-width:1.5;" width="117" x="296" y="910.4531"/><text fill="#000000" font-family="sans-serif" font-size="14" lengthAdjust="spacing" textLength="103" x="303" y="931.9863">ConfigureAGVUI</text><rect fill="#FEFECE" filter="url(#f50wzmskl38wn)" height="31.6094" style="stroke:#A80036;stroke-width:1.5;" width="167" x="427" y="5"/><text fill="#000000" font-family="sans-serif" font-size="14" lengthAdjust="spacing" textLength="153" x="434" y="26.5332">ConfigureAGVController</text><rect fill="#FEFECE" filter="url(#f50wzmskl38wn)" height="31.6094" style="stroke:#A80036;stroke-width:1.5;" width="167" x="427" y="910.4531"/><text fill="#000000" font-family="sans-serif" font-size="14" lengthAdjust="spacing" textLength="153" x="434" y="931.9863">ConfigureAGVController</text><rect fill="#FEFECE" filter="url(#f50wzmskl38wn)" height="31.6094" style="stroke:#A80036;stroke-width:1.5;" width="136" x="608" y="5"/><text fill="#000000" font-family="sans-serif" font-size="14" lengthAdjust="spacing" textLength="122" x="615" y="26.5332">PersistenceContext</text><rect fill="#FEFECE" filter="url(#f50wzmskl38wn)" height="31.6094" style="stroke:#A80036;stroke-width:1.5;" width="136" x="608" y="910.4531"/><text fill="#000000" font-family="sans-serif" font-size="14" lengthAdjust="spacing" textLength="122" x="615" y="931.9863">PersistenceContext</text><rect fill="#FEFECE" filter="url(#f50wzmskl38wn)" height="31.6094" style="stroke:#A80036;stroke-width:1.5;" width="130" x="758" y="5"/><text fill="#000000" font-family="sans-serif" font-size="14" lengthAdjust="spacing" textLength="116" x="765" y="26.5332">RepositoryFactory</text><rect fill="#FEFECE" filter="url(#f50wzmskl38wn)" height="31.6094" style="stroke:#A80036;stroke-width:1.5;" width="130" x="758" y="910.4531"/><text fill="#000000" font-family="sans-serif" font-size="14" lengthAdjust="spacing" textLength="116" x="765" y="931.9863">RepositoryFactory</text><rect fill="#FEFECE" filter="url(#f50wzmskl38wn)" height="31.6094" style="stroke:#A80036;stroke-width:1.5;" width="111" x="902" y="5"/><text fill="#000000" font-family="sans-serif" font-size="14" lengthAdjust="spacing" textLength="97" x="909" y="26.5332">AGVRepository</text><rect fill="#FEFECE" filter="url(#f50wzmskl38wn)" height="31.6094" style="stroke:#A80036;stroke-width:1.5;" width="111" x="902" y="910.4531"/><text fill="#000000" font-family="sans-serif" font-size="14" lengthAdjust="spacing" textLength="97" x="909" y="931.9863">AGVRepository</text><rect fill="#FEFECE" filter="url(#f50wzmskl38wn)" height="31.6094" style="stroke:#A80036;stroke-width:1.5;" width="87" x="1027" y="5"/><text fill="#000000" font-family="sans-serif" font-size="14" lengthAdjust="spacing" textLength="73" x="1034" y="26.5332">AGVBuilder</text><rect fill="#FEFECE" filter="url(#f50wzmskl38wn)" height="31.6094" style="stroke:#A80036;stroke-width:1.5;" width="87" x="1027" y="910.4531"/><text fill="#000000" font-family="sans-serif" font-size="14" lengthAdjust="spacing" textLength="73" x="1034" y="931.9863">AGVBuilder</text><rect fill="#FEFECE" filter="url(#f50wzmskl38wn)" height="31.6094" style="stroke:#A80036;stroke-width:1.5;" width="43" x="1138" y="5"/><text fill="#000000" font-family="sans-serif" font-size="14" lengthAdjust="spacing" textLength="29" x="1145" y="26.5332">AGV</text><rect fill="#FEFECE" filter="url(#f50wzmskl38wn)" height="31.6094" style="stroke:#A80036;stroke-width:1.5;" width="43" x="1138" y="910.4531"/><text fill="#000000" font-family="sans-serif" font-size="14" lengthAdjust="spacing" textLength="29" x="1145" y="931.9863">AGV</text><rect fill="#FEFECE" filter="url(#f50wzmskl38wn)" height="31.6094" style="stroke:#A80036;stroke-width:1.5;" width="60" x="1195" y="5"/><text fill="#000000" font-family="sans-serif" font-size="14" lengthAdjust="spacing" textLength="46" x="1202" y="26.5332">System</text><rect fill="#FEFECE" filter="url(#f50wzmskl38wn)" height="31.6094" style="stroke:#A80036;stroke-width:1.5;" width="60" x="1195" y="910.4531"/><text fill="#000000" font-family="sans-serif" font-size="14" lengthAdjust="spacing" textLength="46" x="1202" y="931.9863">System</text><polygon fill="#A80036" points="344.5,69.9609,354.5,73.9609,344.5,77.9609,348.5,73.9609" style="stroke:#A80036;stroke-width:1.0;"/><line style="stroke:#A80036;stroke-width:1.0;stroke-dasharray:2.0,2.0;" x1="81.5" x2="350.5" y1="73.9609" y2="73.9609"/><text fill="#000000" font-family="sans-serif" font-size="13" font-weight="bold" lengthAdjust="spacing" textLength="7" x="88.5" y="69.1045">1</text><text fill="#000000" font-family="sans-serif" font-size="13" lengthAdjust="spacing" textLength="240" x="99.5" y="69.1045">chooses to configure the ConfigureAGVUI</text><polygon fill="#A80036" points="666,100.3125,676,104.3125,666,108.3125,670,104.3125" style="stroke:#A80036;stroke-width:1.0;"/><line style="stroke:#A80036;stroke-width:1.0;stroke-dasharray:2.0,2.0;" x1="512.5" x2="672" y1="104.3125" y2="104.3125"/><text fill="#000000" font-family="sans-serif" font-size="13" font-weight="bold" lengthAdjust="spacing" textLength="7" x="519.5" y="99.4561">2</text><text fill="#000000" font-family="sans-serif" font-size="13" lengthAdjust="spacing" textLength="75" x="530.5" y="99.4561">repositories()</text><polygon fill="#A80036" points="813,130.6641,823,134.6641,813,138.6641,817,134.6641" style="stroke:#A80036;stroke-width:1.0;"/><line style="stroke:#A80036;stroke-width:1.0;stroke-dasharray:2.0,2.0;" x1="678" x2="819" y1="134.6641" y2="134.6641"/><text fill="#000000" font-family="sans-serif" font-size="13" font-weight="bold" lengthAdjust="spacing" textLength="7" x="685" y="129.8076">3</text><text fill="#000000" font-family="sans-serif" font-size="13" lengthAdjust="spacing" textLength="36" x="696" y="129.8076">create</text><polygon fill="#A80036" points="947.5,161.0156,957.5,165.0156,947.5,169.0156,951.5,165.0156" style="stroke:#A80036;stroke-width:1.0;"/><line style="stroke:#A80036;stroke-width:1.0;stroke-dasharray:2.0,2.0;" x1="825" x2="953.5" y1="165.0156" y2="165.0156"/><text fill="#000000" font-family="sans-serif" font-size="13" font-weight="bold" lengthAdjust="spacing" textLength="7" x="832" y="160.1592">4</text><text fill="#000000" font-family="sans-serif" font-size="13" lengthAdjust="spacing" textLength="36" x="843" y="160.1592">create</text><polygon fill="#A80036" points="92.5,191.3672,82.5,195.3672,92.5,199.3672,88.5,195.3672" style="stroke:#A80036;stroke-width:1.0;"/><line style="stroke:#A80036;stroke-width:1.0;" x1="86.5" x2="355.5" y1="195.3672" y2="195.3672"/><text fill="#000000" font-family="sans-serif" font-size="13" font-weight="bold" lengthAdjust="spacing" textLength="7" x="98.5" y="190.5107">5</text><text fill="#000000" font-family="sans-serif" font-size="13" lengthAdjust="spacing" textLength="118" x="109.5" y="190.5107">Asks for an identifier</text><polygon fill="#A80036" points="344.5,221.7188,354.5,225.7188,344.5,229.7188,348.5,225.7188" style="stroke:#A80036;stroke-width:1.0;"/><line style="stroke:#A80036;stroke-width:1.0;" x1="81.5" x2="350.5" y1="225.7188" y2="225.7188"/><text fill="#000000" font-family="sans-serif" font-size="13" font-weight="bold" lengthAdjust="spacing" textLength="7" x="88.5" y="220.8623">6</text><text fill="#000000" font-family="sans-serif" font-size="13" lengthAdjust="spacing" textLength="109" x="99.5" y="220.8623">Inserts an identifier</text><polygon fill="#A80036" points="92.5,252.0703,82.5,256.0703,92.5,260.0703,88.5,256.0703" style="stroke:#A80036;stroke-width:1.0;"/><line style="stroke:#A80036;stroke-width:1.0;" x1="86.5" x2="355.5" y1="256.0703" y2="256.0703"/><text fill="#000000" font-family="sans-serif" font-size="13" font-weight="bold" lengthAdjust="spacing" textLength="7" x="98.5" y="251.2139">7</text><text fill="#000000" font-family="sans-serif" font-size="13" lengthAdjust="spacing" textLength="159" x="109.5" y="251.2139">Asks for a short description</text><polygon fill="#A80036" points="344.5,282.4219,354.5,286.4219,344.5,290.4219,348.5,286.4219" style="stroke:#A80036;stroke-width:1.0;"/><line style="stroke:#A80036;stroke-width:1.0;" x1="81.5" x2="350.5" y1="286.4219" y2="286.4219"/><text fill="#000000" font-family="sans-serif" font-size="13" font-weight="bold" lengthAdjust="spacing" textLength="7" x="88.5" y="281.5654">8</text><text fill="#000000" font-family="sans-serif" font-size="13" lengthAdjust="spacing" textLength="161" x="99.5" y="281.5654">Inserts the short description</text><polygon fill="#A80036" points="92.5,312.7734,82.5,316.7734,92.5,320.7734,88.5,316.7734" style="stroke:#A80036;stroke-width:1.0;"/><line style="stroke:#A80036;stroke-width:1.0;" x1="86.5" x2="355.5" y1="316.7734" y2="316.7734"/><text fill="#000000" font-family="sans-serif" font-size="13" font-weight="bold" lengthAdjust="spacing" textLength="7" x="98.5" y="311.917">9</text><text fill="#000000" font-family="sans-serif" font-size="13" lengthAdjust="spacing" textLength="109" x="109.5" y="311.917">Asks for the model</text><polygon fill="#A80036" points="344.5,343.125,354.5,347.125,344.5,351.125,348.5,347.125" style="stroke:#A80036;stroke-width:1.0;"/><line style="stroke:#A80036;stroke-width:1.0;" x1="81.5" x2="350.5" y1="347.125" y2="347.125"/><text fill="#000000" font-family="sans-serif" font-size="13" font-weight="bold" lengthAdjust="spacing" textLength="14" x="88.5" y="342.2686">10</text><text fill="#000000" font-family="sans-serif" font-size="13" lengthAdjust="spacing" textLength="168" x="106.5" y="342.2686">Inserts the model of the AGV</text><polygon fill="#A80036" points="92.5,373.4766,82.5,377.4766,92.5,381.4766,88.5,377.4766" style="stroke:#A80036;stroke-width:1.0;"/><line style="stroke:#A80036;stroke-width:1.0;" x1="86.5" x2="355.5" y1="377.4766" y2="377.4766"/><text fill="#000000" font-family="sans-serif" font-size="13" font-weight="bold" lengthAdjust="spacing" textLength="14" x="98.5" y="372.6201">11</text><text fill="#000000" font-family="sans-serif" font-size="13" lengthAdjust="spacing" textLength="140" x="116.5" y="372.6201">Asks for the maxWeight</text><polygon fill="#A80036" points="344.5,403.8281,354.5,407.8281,344.5,411.8281,348.5,407.8281" style="stroke:#A80036;stroke-width:1.0;"/><line style="stroke:#A80036;stroke-width:1.0;" x1="81.5" x2="350.5" y1="407.8281" y2="407.8281"/><text fill="#000000" font-family="sans-serif" font-size="13" font-weight="bold" lengthAdjust="spacing" textLength="14" x="88.5" y="402.9717">12</text><text fill="#000000" font-family="sans-serif" font-size="13" lengthAdjust="spacing" textLength="199" x="106.5" y="402.9717">Inserts the maxWeight of the AGV</text><polygon fill="#A80036" points="92.5,434.1797,82.5,438.1797,92.5,442.1797,88.5,438.1797" style="stroke:#A80036;stroke-width:1.0;"/><line style="stroke:#A80036;stroke-width:1.0;" x1="86.5" x2="355.5" y1="438.1797" y2="438.1797"/><text fill="#000000" font-family="sans-serif" font-size="13" font-weight="bold" lengthAdjust="spacing" textLength="14" x="98.5" y="433.3232">13</text><text fill="#000000" font-family="sans-serif" font-size="13" lengthAdjust="spacing" textLength="143" x="116.5" y="433.3232">Asks for the maxVolume</text><polygon fill="#A80036" points="344.5,464.5313,354.5,468.5313,344.5,472.5313,348.5,468.5313" style="stroke:#A80036;stroke-width:1.0;"/><line style="stroke:#A80036;stroke-width:1.0;" x1="81.5" x2="350.5" y1="468.5313" y2="468.5313"/><text fill="#000000" font-family="sans-serif" font-size="13" font-weight="bold" lengthAdjust="spacing" textLength="14" x="88.5" y="463.6748">14</text><text fill="#000000" font-family="sans-serif" font-size="13" lengthAdjust="spacing" textLength="202" x="106.5" y="463.6748">Inserts the maxVolume of the AGV</text><polygon fill="#A80036" points="92.5,494.8828,82.5,498.8828,92.5,502.8828,88.5,498.8828" style="stroke:#A80036;stroke-width:1.0;"/><line style="stroke:#A80036;stroke-width:1.0;" x1="86.5" x2="355.5" y1="498.8828" y2="498.8828"/><text fill="#000000" font-family="sans-serif" font-size="13" font-weight="bold" lengthAdjust="spacing" textLength="14" x="98.5" y="494.0264">15</text><text fill="#000000" font-family="sans-serif" font-size="13" lengthAdjust="spacing" textLength="178" x="116.5" y="494.0264">Asks for the status of the AGV</text><polygon fill="#A80036" points="344.5,525.2344,354.5,529.2344,344.5,533.2344,348.5,529.2344" style="stroke:#A80036;stroke-width:1.0;"/><line style="stroke:#A80036;stroke-width:1.0;" x1="81.5" x2="350.5" y1="529.2344" y2="529.2344"/><text fill="#000000" font-family="sans-serif" font-size="13" font-weight="bold" lengthAdjust="spacing" textLength="14" x="88.5" y="524.3779">16</text><text fill="#000000" font-family="sans-serif" font-size="13" lengthAdjust="spacing" textLength="169" x="106.5" y="524.3779">Inserts the status of the AGV</text><polygon fill="#A80036" points="92.5,555.5859,82.5,559.5859,92.5,563.5859,88.5,559.5859" style="stroke:#A80036;stroke-width:1.0;"/><line style="stroke:#A80036;stroke-width:1.0;" x1="86.5" x2="355.5" y1="559.5859" y2="559.5859"/><text fill="#000000" font-family="sans-serif" font-size="13" font-weight="bold" lengthAdjust="spacing" textLength="14" x="98.5" y="554.7295">17</text><text fill="#000000" font-family="sans-serif" font-size="13" lengthAdjust="spacing" textLength="195" x="116.5" y="554.7295">Asks for the autonomy in minutes</text><polygon fill="#A80036" points="344.5,585.9375,354.5,589.9375,344.5,593.9375,348.5,589.9375" style="stroke:#A80036;stroke-width:1.0;"/><line style="stroke:#A80036;stroke-width:1.0;" x1="81.5" x2="350.5" y1="589.9375" y2="589.9375"/><text fill="#000000" font-family="sans-serif" font-size="13" font-weight="bold" lengthAdjust="spacing" textLength="14" x="88.5" y="585.0811">18</text><text fill="#000000" font-family="sans-serif" font-size="13" lengthAdjust="spacing" textLength="186" x="106.5" y="585.0811">Inserts the autonomy is minutes</text><polygon fill="#A80036" points="500.5,616.2891,510.5,620.2891,500.5,624.2891,504.5,620.2891" style="stroke:#A80036;stroke-width:1.0;"/><line style="stroke:#A80036;stroke-width:1.0;" x1="356.5" x2="506.5" y1="620.2891" y2="620.2891"/><text fill="#000000" font-family="sans-serif" font-size="13" font-weight="bold" lengthAdjust="spacing" textLength="14" x="363.5" y="615.4326">19</text><text fill="#000000" font-family="sans-serif" font-size="13" lengthAdjust="spacing" textLength="88" x="381.5" y="615.4326">configureAGV()</text><polygon fill="#A80036" points="666,646.6406,676,650.6406,666,654.6406,670,650.6406" style="stroke:#A80036;stroke-width:1.0;"/><line style="stroke:#A80036;stroke-width:1.0;stroke-dasharray:2.0,2.0;" x1="512.5" x2="672" y1="650.6406" y2="650.6406"/><text fill="#000000" font-family="sans-serif" font-size="13" font-weight="bold" lengthAdjust="spacing" textLength="14" x="519.5" y="645.7842">20</text><text fill="#000000" font-family="sans-serif" font-size="13" lengthAdjust="spacing" textLength="75" x="537.5" y="645.7842">repositories()</text><polygon fill="#A80036" points="813,676.9922,823,680.9922,813,684.9922,817,680.9922" style="stroke:#A80036;stroke-width:1.0;"/><line style="stroke:#A80036;stroke-width:1.0;stroke-dasharray:2.0,2.0;" x1="678" x2="819" y1="680.9922" y2="680.9922"/><text fill="#000000" font-family="sans-serif" font-size="13" font-weight="bold" lengthAdjust="spacing" textLength="14" x="685" y="676.1357">21</text><text fill="#000000" font-family="sans-serif" font-size="13" lengthAdjust="spacing" textLength="36" x="703" y="676.1357">create</text><polygon fill="#A80036" points="947.5,707.3438,957.5,711.3438,947.5,715.3438,951.5,711.3438" style="stroke:#A80036;stroke-width:1.0;"/><line style="stroke:#A80036;stroke-width:1.0;stroke-dasharray:2.0,2.0;" x1="825" x2="953.5" y1="711.3438" y2="711.3438"/><text fill="#000000" font-family="sans-serif" font-size="13" font-weight="bold" lengthAdjust="spacing" textLength="14" x="832" y="706.4873">22</text><text fill="#000000" font-family="sans-serif" font-size="13" lengthAdjust="spacing" textLength="36" x="850" y="706.4873">create</text><polygon fill="#A80036" points="1060.5,737.6953,1070.5,741.6953,1060.5,745.6953,1064.5,741.6953" style="stroke:#A80036;stroke-width:1.0;"/><line style="stroke:#A80036;stroke-width:1.0;" x1="512.5" x2="1066.5" y1="741.6953" y2="741.6953"/><text fill="#000000" font-family="sans-serif" font-size="13" font-weight="bold" lengthAdjust="spacing" textLength="14" x="519.5" y="736.8389">23</text><text fill="#000000" font-family="sans-serif" font-size="13" lengthAdjust="spacing" textLength="35" x="537.5" y="736.8389">build()</text><polygon fill="#A80036" points="1149.5,768.0469,1159.5,772.0469,1149.5,776.0469,1153.5,772.0469" style="stroke:#A80036;stroke-width:1.0;"/><line style="stroke:#A80036;stroke-width:1.0;" x1="1072.5" x2="1155.5" y1="772.0469" y2="772.0469"/><text fill="#000000" font-family="sans-serif" font-size="13" font-weight="bold" lengthAdjust="spacing" textLength="14" x="1079.5" y="767.1904">24</text><text fill="#000000" font-family="sans-serif" font-size="13" lengthAdjust="spacing" textLength="36" x="1097.5" y="767.1904">AGV()</text><polygon fill="#A80036" points="1083.5,798.3984,1073.5,802.3984,1083.5,806.3984,1079.5,802.3984" style="stroke:#A80036;stroke-width:1.0;"/><line style="stroke:#A80036;stroke-width:1.0;" x1="1077.5" x2="1160.5" y1="802.3984" y2="802.3984"/><text fill="#000000" font-family="sans-serif" font-size="13" font-weight="bold" lengthAdjust="spacing" textLength="14" x="1089.5" y="797.542">25</text><text fill="#000000" font-family="sans-serif" font-size="13" lengthAdjust="spacing" textLength="47" x="1107.5" y="797.542">agvFinal</text><polygon fill="#A80036" points="523.5,828.75,513.5,832.75,523.5,836.75,519.5,832.75" style="stroke:#A80036;stroke-width:1.0;"/><line style="stroke:#A80036;stroke-width:1.0;" x1="517.5" x2="1071.5" y1="832.75" y2="832.75"/><text fill="#000000" font-family="sans-serif" font-size="13" font-weight="bold" lengthAdjust="spacing" textLength="14" x="529.5" y="827.8936">26</text><text fill="#000000" font-family="sans-serif" font-size="13" lengthAdjust="spacing" textLength="91" x="547.5" y="827.8936">returns agvFinal</text><polygon fill="#A80036" points="947.5,859.1016,957.5,863.1016,947.5,867.1016,951.5,863.1016" style="stroke:#A80036;stroke-width:1.0;"/><line style="stroke:#A80036;stroke-width:1.0;stroke-dasharray:2.0,2.0;" x1="512.5" x2="953.5" y1="863.1016" y2="863.1016"/><text fill="#000000" font-family="sans-serif" font-size="13" font-weight="bold" lengthAdjust="spacing" textLength="14" x="519.5" y="858.2451">27</text><text fill="#000000" font-family="sans-serif" font-size="13" lengthAdjust="spacing" textLength="34" x="537.5" y="858.2451">save()</text><polygon fill="#A80036" points="92.5,889.4531,82.5,893.4531,92.5,897.4531,88.5,893.4531" style="stroke:#A80036;stroke-width:1.0;"/><line style="stroke:#A80036;stroke-width:1.0;" x1="86.5" x2="1226" y1="893.4531" y2="893.4531"/><text fill="#000000" font-family="sans-serif" font-size="13" font-weight="bold" lengthAdjust="spacing" textLength="14" x="98.5" y="888.5967">28</text><text fill="#000000" font-family="sans-serif" font-size="13" lengthAdjust="spacing" textLength="103" x="116.5" y="888.5967">Successful action</text><!--MD5=[0b973950e2ea41bcb15f01d69fb81ef3]
@startuml

autonumber

WarehouseEmployee - -> ConfigureAGVUI : chooses to configure the ConfigureAGVUI

ConfigureAGVController - -> PersistenceContext : repositories()
PersistenceContext - -> RepositoryFactory : create
RepositoryFactory - -> AGVRepository :create

ConfigureAGVUI -> WarehouseEmployee : Asks for an identifier
WarehouseEmployee -> ConfigureAGVUI : Inserts an identifier
ConfigureAGVUI -> WarehouseEmployee : Asks for a short description
WarehouseEmployee -> ConfigureAGVUI : Inserts the short description
ConfigureAGVUI -> WarehouseEmployee : Asks for the model
WarehouseEmployee -> ConfigureAGVUI : Inserts the model of the AGV
ConfigureAGVUI -> WarehouseEmployee : Asks for the maxWeight
WarehouseEmployee -> ConfigureAGVUI : Inserts the maxWeight of the AGV
ConfigureAGVUI -> WarehouseEmployee : Asks for the maxVolume
WarehouseEmployee -> ConfigureAGVUI : Inserts the maxVolume of the AGV
ConfigureAGVUI -> WarehouseEmployee : Asks for the status of the AGV
WarehouseEmployee -> ConfigureAGVUI : Inserts the status of the AGV
ConfigureAGVUI -> WarehouseEmployee : Asks for the autonomy in minutes
WarehouseEmployee -> ConfigureAGVUI : Inserts the autonomy is minutes
ConfigureAGVUI -> ConfigureAGVController : configureAGV()

ConfigureAGVController - -> PersistenceContext : repositories()
PersistenceContext - -> RepositoryFactory : create
RepositoryFactory - -> AGVRepository :create

ConfigureAGVController -> AGVBuilder : build()
AGVBuilder -> AGV : AGV()
AGV -> AGVBuilder : agvFinal
AGVBuilder -> ConfigureAGVController : returns agvFinal

ConfigureAGVController - -> AGVRepository : save()

System -> WarehouseEmployee : Successful action

@enduml

PlantUML version 1.2021.11(Sat Oct 02 14:26:11 BST 2021)
(GPL source distribution)
Java Runtime: OpenJDK Runtime Environment
JVM: OpenJDK 64-Bit Server VM
Default Encoding: Cp1252
Language: pt
Country: PT
--></g></svg>