<?xml version="1.0" encoding="UTF-8" standalone="no"?><svg xmlns="http://www.w3.org/2000/svg" xmlns:xlink="http://www.w3.org/1999/xlink" contentScriptType="application/ecmascript" contentStyleType="text/css" height="302px" preserveAspectRatio="none" style="width:1387px;height:302px;background:#FFFFFF;" version="1.1" viewBox="0 0 1387 302" width="1387px" zoomAndPan="magnify"><defs><filter height="300%" id="f1slej2af6ssvz" width="300%" x="-1" y="-1"><feGaussianBlur result="blurOut" stdDeviation="2.0"/><feColorMatrix in="blurOut" result="blurOut2" type="matrix" values="0 0 0 0 0 0 0 0 0 0 0 0 0 0 0 0 0 0 .4 0"/><feOffset dx="4.0" dy="4.0" in="blurOut2" result="blurOut3"/><feBlend in="SourceGraphic" in2="blurOut3" mode="normal"/></filter></defs><g><!--MD5=[53b2c06ade5903185ca3326dce80e141]
class AGV--><rect codeLine="2" fill="#FEFECE" filter="url(#f1slej2af6ssvz)" height="56.1875" id="AGV" style="stroke:#A80036;stroke-width:1.5;" width="71" x="675" y="232"/><ellipse cx="690" cy="252.0938" fill="#ADD1B2" rx="11" ry="11" style="stroke:#A80036;stroke-width:1.0;"/><path d="M688.5,253.0938 L688.5,255.0938 L692.5,255.0938 L692.5,254.0938 L692.5,253.6094 L693.125,253.0938 L693.5,253.0938 L693.875,253.0938 L694.5,253.6094 L694.5,254.0938 L694.5,257.0938 L686.5,257.0938 L686.0156,257.0938 L685.5,256.4688 L685.5,256.0938 L685.5,255.7188 L686.0156,255.0938 L686.5,255.0938 L686.5,255.0938 L686.5,249.0938 L686.5,249.0938 L686.0156,249.0938 L685.5,248.4688 L685.5,248.0938 L685.5,247.7188 L686.0156,247.0938 L686.5,247.0938 L694.5,247.0938 L694.5,250.0938 L694.5,250.5781 L693.875,251.0938 L693.5,251.0938 L693.125,251.0938 L692.5,250.5781 L692.5,250.0938 L692.5,249.0938 L688.5,249.0938 L688.5,251.0938 L689.5,251.0938 L689.5,250.6094 L689.5,250.6094 L690.125,250.0938 L690.5,250.0938 L690.875,250.0938 L691.5,250.6094 L691.5,251.0938 L691.5,253.0938 L691.5,253.5781 L690.875,254.0938 L690.875,254.0938 L690.5,254.0938 L690.125,254.0938 L689.5,253.5781 L689.5,253.5781 L689.5,253.0938 L688.5,253.0938 Z " fill="#000000"/><text fill="#000000" font-family="sans-serif" font-size="12" font-style="italic" lengthAdjust="spacing" textLength="43" x="702" y="249.457">«entity»</text><text fill="#000000" font-family="sans-serif" font-size="12" lengthAdjust="spacing" textLength="23" x="712" y="264.5508">AGV</text><line style="stroke:#A80036;stroke-width:1.5;" x1="676" x2="745" y1="272.1875" y2="272.1875"/><line style="stroke:#A80036;stroke-width:1.5;" x1="676" x2="745" y1="280.1875" y2="280.1875"/><!--MD5=[47bc46f73210ae9de136f250d636c983]
class ConfigureAGVUI--><rect codeLine="6" fill="#FEFECE" filter="url(#f1slej2af6ssvz)" height="61.8359" id="ConfigureAGVUI" style="stroke:#A80036;stroke-width:1.5;" width="251" x="159" y="27.5"/><ellipse cx="235.75" cy="43.5" fill="#ADD1B2" rx="11" ry="11" style="stroke:#A80036;stroke-width:1.0;"/><path d="M237.75,40 Q237.9531,39.5 238.1875,39.25 Q238.4219,39 238.6875,39 Q239.1563,39 239.4531,39.2813 Q239.75,39.5625 239.75,40.2188 L239.75,41.7813 Q239.75,42.4375 239.4688,42.7188 Q239.1875,43 238.75,43 Q238.3594,43 238.1094,42.8281 Q237.8594,42.6563 237.75,42.2031 Q237.7031,41.8906 237.5313,41.7188 Q237.2188,41.3906 236.6563,41.2031 Q236.0938,41 235.5313,41 Q234.8281,41 234.2344,41.2813 Q233.6563,41.5625 233.2031,42.1875 Q232.75,42.8125 232.75,43.6719 L232.75,44.5938 Q232.75,45.625 233.5938,46.3125 Q234.4375,47 235.9375,47 Q236.8281,47 237.4531,46.7969 Q237.8125,46.6875 238.2188,46.3281 Q238.4844,46.125 238.625,46.0625 Q238.7656,46 238.9375,46 Q239.2656,46 239.5,46.2656 Q239.75,46.5156 239.75,46.875 Q239.75,47.2188 239.4063,47.625 Q238.9063,48.2188 238.1094,48.5469 Q237.0625,49 235.7813,49 Q234.2813,49 233.0781,48.4063 Q232.1094,47.9375 231.4219,46.9219 Q230.75,45.9063 230.75,44.7031 L230.75,43.6094 Q230.75,42.3594 231.3438,41.2656 Q231.9531,40.1719 233,39.5938 Q234.0625,39 235.25,39 Q235.9688,39 236.5938,39.25 Q237.2188,39.5 237.75,40 Z " fill="#000000"/><text fill="#000000" font-family="sans-serif" font-size="12" lengthAdjust="spacing" textLength="89" x="256.25" y="48.4102">ConfigureAGVUI</text><line style="stroke:#A80036;stroke-width:1.5;" x1="160" x2="409" y1="59.5" y2="59.5"/><text fill="#000000" font-family="sans-serif" font-size="11" lengthAdjust="spacing" textLength="239" x="165" y="74.9189">ConfigureAGVController configureAGVController;</text><line style="stroke:#A80036;stroke-width:1.5;" x1="160" x2="409" y1="81.3359" y2="81.3359"/><!--MD5=[4a05030ac364552cd297a89687ca123f]
class ConfigureAGVController--><rect codeLine="10" fill="#FEFECE" filter="url(#f1slej2af6ssvz)" height="103.3438" id="ConfigureAGVController" style="stroke:#A80036;stroke-width:1.5;" width="178" x="445.5" y="7"/><ellipse cx="467.25" cy="23" fill="#ADD1B2" rx="11" ry="11" style="stroke:#A80036;stroke-width:1.0;"/><path d="M469.25,19.5 Q469.4531,19 469.6875,18.75 Q469.9219,18.5 470.1875,18.5 Q470.6563,18.5 470.9531,18.7813 Q471.25,19.0625 471.25,19.7188 L471.25,21.2813 Q471.25,21.9375 470.9688,22.2188 Q470.6875,22.5 470.25,22.5 Q469.8594,22.5 469.6094,22.3281 Q469.3594,22.1563 469.25,21.7031 Q469.2031,21.3906 469.0313,21.2188 Q468.7188,20.8906 468.1563,20.7031 Q467.5938,20.5 467.0313,20.5 Q466.3281,20.5 465.7344,20.7813 Q465.1563,21.0625 464.7031,21.6875 Q464.25,22.3125 464.25,23.1719 L464.25,24.0938 Q464.25,25.125 465.0938,25.8125 Q465.9375,26.5 467.4375,26.5 Q468.3281,26.5 468.9531,26.2969 Q469.3125,26.1875 469.7188,25.8281 Q469.9844,25.625 470.125,25.5625 Q470.2656,25.5 470.4375,25.5 Q470.7656,25.5 471,25.7656 Q471.25,26.0156 471.25,26.375 Q471.25,26.7188 470.9063,27.125 Q470.4063,27.7188 469.6094,28.0469 Q468.5625,28.5 467.2813,28.5 Q465.7813,28.5 464.5781,27.9063 Q463.6094,27.4375 462.9219,26.4219 Q462.25,25.4063 462.25,24.2031 L462.25,23.1094 Q462.25,21.8594 462.8438,20.7656 Q463.4531,19.6719 464.5,19.0938 Q465.5625,18.5 466.75,18.5 Q467.4688,18.5 468.0938,18.75 Q468.7188,19 469.25,19.5 Z " fill="#000000"/><text fill="#000000" font-family="sans-serif" font-size="12" lengthAdjust="spacing" textLength="131" x="482.75" y="27.9102">ConfigureAGVController</text><line style="stroke:#A80036;stroke-width:1.5;" x1="446.5" x2="622.5" y1="39" y2="39"/><rect fill="none" height="6" style="stroke:#C82930;stroke-width:1.0;" width="6" x="453.5" y="47"/><text fill="#000000" font-family="sans-serif" font-size="11" lengthAdjust="spacing" textLength="152" x="465.5" y="54.4189">AGVRepository agvRepository;</text><rect fill="none" height="6" style="stroke:#C82930;stroke-width:1.0;" width="6" x="453.5" y="60.8359"/><text fill="#000000" font-family="sans-serif" font-size="11" lengthAdjust="spacing" textLength="134" x="465.5" y="68.2549">AuthorizationService authz;</text><rect fill="none" height="6" style="stroke:#C82930;stroke-width:1.0;" width="6" x="453.5" y="74.6719"/><text fill="#000000" font-family="sans-serif" font-size="11" lengthAdjust="spacing" textLength="114" x="465.5" y="82.0908">AGVBuilder agvBuilder;</text><line style="stroke:#A80036;stroke-width:1.5;" x1="446.5" x2="622.5" y1="88.5078" y2="88.5078"/><rect fill="#F24D5C" height="6" style="stroke:#C82930;stroke-width:1.0;" width="6" x="453.5" y="96.5078"/><text fill="#000000" font-family="sans-serif" font-size="11" lengthAdjust="spacing" textLength="81" x="465.5" y="103.9268">configureAGV();</text><!--MD5=[1492755b760eb6c3b1fc4ef1ae992bd5]
class AGVBuilder--><rect codeLine="17" fill="#FEFECE" filter="url(#f1slej2af6ssvz)" height="75.6719" id="AGVBuilder" style="stroke:#A80036;stroke-width:1.5;" width="104" x="658.5" y="20.5"/><ellipse cx="678" cy="36.5" fill="#ADD1B2" rx="11" ry="11" style="stroke:#A80036;stroke-width:1.0;"/><path d="M680,33 Q680.2031,32.5 680.4375,32.25 Q680.6719,32 680.9375,32 Q681.4063,32 681.7031,32.2813 Q682,32.5625 682,33.2188 L682,34.7813 Q682,35.4375 681.7188,35.7188 Q681.4375,36 681,36 Q680.6094,36 680.3594,35.8281 Q680.1094,35.6563 680,35.2031 Q679.9531,34.8906 679.7813,34.7188 Q679.4688,34.3906 678.9063,34.2031 Q678.3438,34 677.7813,34 Q677.0781,34 676.4844,34.2813 Q675.9063,34.5625 675.4531,35.1875 Q675,35.8125 675,36.6719 L675,37.5938 Q675,38.625 675.8438,39.3125 Q676.6875,40 678.1875,40 Q679.0781,40 679.7031,39.7969 Q680.0625,39.6875 680.4688,39.3281 Q680.7344,39.125 680.875,39.0625 Q681.0156,39 681.1875,39 Q681.5156,39 681.75,39.2656 Q682,39.5156 682,39.875 Q682,40.2188 681.6563,40.625 Q681.1563,41.2188 680.3594,41.5469 Q679.3125,42 678.0313,42 Q676.5313,42 675.3281,41.4063 Q674.3594,40.9375 673.6719,39.9219 Q673,38.9063 673,37.7031 L673,36.6094 Q673,35.3594 673.5938,34.2656 Q674.2031,33.1719 675.25,32.5938 Q676.3125,32 677.5,32 Q678.2188,32 678.8438,32.25 Q679.4688,32.5 680,33 Z " fill="#000000"/><text fill="#000000" font-family="sans-serif" font-size="12" lengthAdjust="spacing" textLength="62" x="693" y="41.4102">AGVBuilder</text><line style="stroke:#A80036;stroke-width:1.5;" x1="659.5" x2="761.5" y1="52.5" y2="52.5"/><line style="stroke:#A80036;stroke-width:1.5;" x1="659.5" x2="761.5" y1="60.5" y2="60.5"/><rect fill="#F24D5C" height="6" style="stroke:#C82930;stroke-width:1.0;" width="6" x="666.5" y="68.5"/><text fill="#000000" font-family="sans-serif" font-size="11" lengthAdjust="spacing" textLength="30" x="678.5" y="75.9189">build()</text><rect fill="#F24D5C" height="6" style="stroke:#C82930;stroke-width:1.0;" width="6" x="666.5" y="82.3359"/><text fill="#000000" font-family="sans-serif" font-size="11" lengthAdjust="spacing" textLength="78" x="678.5" y="89.7549">buildOrThrow(){</text><!--MD5=[b8b89cb2238020f68a33781aa3c26b69]
class BaseBackoffice--><rect codeLine="22" fill="#FEFECE" filter="url(#f1slej2af6ssvz)" height="61.8359" id="BaseBackoffice" style="stroke:#A80036;stroke-width:1.5;" width="117" x="7" y="27.5"/><ellipse cx="22" cy="43.5" fill="#ADD1B2" rx="11" ry="11" style="stroke:#A80036;stroke-width:1.0;"/><path d="M24,40 Q24.2031,39.5 24.4375,39.25 Q24.6719,39 24.9375,39 Q25.4063,39 25.7031,39.2813 Q26,39.5625 26,40.2188 L26,41.7813 Q26,42.4375 25.7188,42.7188 Q25.4375,43 25,43 Q24.6094,43 24.3594,42.8281 Q24.1094,42.6563 24,42.2031 Q23.9531,41.8906 23.7813,41.7188 Q23.4688,41.3906 22.9063,41.2031 Q22.3438,41 21.7813,41 Q21.0781,41 20.4844,41.2813 Q19.9063,41.5625 19.4531,42.1875 Q19,42.8125 19,43.6719 L19,44.5938 Q19,45.625 19.8438,46.3125 Q20.6875,47 22.1875,47 Q23.0781,47 23.7031,46.7969 Q24.0625,46.6875 24.4688,46.3281 Q24.7344,46.125 24.875,46.0625 Q25.0156,46 25.1875,46 Q25.5156,46 25.75,46.2656 Q26,46.5156 26,46.875 Q26,47.2188 25.6563,47.625 Q25.1563,48.2188 24.3594,48.5469 Q23.3125,49 22.0313,49 Q20.5313,49 19.3281,48.4063 Q18.3594,47.9375 17.6719,46.9219 Q17,45.9063 17,44.7031 L17,43.6094 Q17,42.3594 17.5938,41.2656 Q18.2031,40.1719 19.25,39.5938 Q20.3125,39 21.5,39 Q22.2188,39 22.8438,39.25 Q23.4688,39.5 24,40 Z " fill="#000000"/><text fill="#000000" font-family="sans-serif" font-size="12" lengthAdjust="spacing" textLength="85" x="36" y="48.4102">BaseBackoffice</text><line style="stroke:#A80036;stroke-width:1.5;" x1="8" x2="123" y1="59.5" y2="59.5"/><rect fill="none" height="6" style="stroke:#C82930;stroke-width:1.0;" width="6" x="15" y="67.5"/><text fill="#000000" font-family="sans-serif" font-size="11" lengthAdjust="spacing" textLength="77" x="27" y="74.9189">MainMenu menu</text><line style="stroke:#A80036;stroke-width:1.5;" x1="8" x2="123" y1="81.3359" y2="81.3359"/><!--MD5=[a2934c79e3adc781b0cd87c74812aba5]
class AGVRepository--><rect codeLine="26" fill="#FEFECE" filter="url(#f1slej2af6ssvz)" height="48" id="AGVRepository" style="stroke:#A80036;stroke-width:1.5;" width="116" x="808.5" y="236"/><ellipse cx="823.5" cy="252" fill="#B4A7E5" rx="11" ry="11" style="stroke:#A80036;stroke-width:1.0;"/><path d="M824.5,249 L824.5,255 L826.5,255 L826.9844,255 L827.5,255.625 L827.5,256 L827.5,256.375 L826.9844,257 L826.5,257 L820.5,257 L820.0156,257 L819.5,256.375 L819.5,256 L819.5,255.625 L820.0156,255 L820.5,255 L822.5,255 L822.5,249 L820.5,249 L820.0156,249 L819.5,248.375 L819.5,248 L819.5,247.625 L820.0156,247 L820.5,247 L826.5,247 L826.9844,247 L827.5,247.625 L827.5,248 L827.5,248.375 L826.9844,249 L826.5,249 L824.5,249 Z " fill="#000000"/><text fill="#000000" font-family="sans-serif" font-size="12" font-style="italic" lengthAdjust="spacing" textLength="84" x="837.5" y="256.9102">AGVRepository</text><line style="stroke:#A80036;stroke-width:1.5;" x1="809.5" x2="923.5" y1="268" y2="268"/><line style="stroke:#A80036;stroke-width:1.5;" x1="809.5" x2="923.5" y1="276" y2="276"/><!--MD5=[4872d5b69310f0d0ec3ebdcdc1d1a2e1]
class DomainFactory--><rect codeLine="30" fill="#FEFECE" filter="url(#f1slej2af6ssvz)" height="48" id="DomainFactory" style="stroke:#A80036;stroke-width:1.5;" width="116" x="1007.5" y="236"/><ellipse cx="1022.5" cy="252" fill="#B4A7E5" rx="11" ry="11" style="stroke:#A80036;stroke-width:1.0;"/><path d="M1023.5,249 L1023.5,255 L1025.5,255 L1025.9844,255 L1026.5,255.625 L1026.5,256 L1026.5,256.375 L1025.9844,257 L1025.5,257 L1019.5,257 L1019.0156,257 L1018.5,256.375 L1018.5,256 L1018.5,255.625 L1019.0156,255 L1019.5,255 L1021.5,255 L1021.5,249 L1019.5,249 L1019.0156,249 L1018.5,248.375 L1018.5,248 L1018.5,247.625 L1019.0156,247 L1019.5,247 L1025.5,247 L1025.9844,247 L1026.5,247.625 L1026.5,248 L1026.5,248.375 L1025.9844,249 L1025.5,249 L1023.5,249 Z " fill="#000000"/><text fill="#000000" font-family="sans-serif" font-size="12" font-style="italic" lengthAdjust="spacing" textLength="84" x="1036.5" y="256.9102">DomainFactory</text><line style="stroke:#A80036;stroke-width:1.5;" x1="1008.5" x2="1122.5" y1="268" y2="268"/><line style="stroke:#A80036;stroke-width:1.5;" x1="1008.5" x2="1122.5" y1="276" y2="276"/><!--MD5=[42412ee73b3c2c3e8896847ed3bde20c]
class JpaAGVRepository--><rect codeLine="34" fill="#FEFECE" filter="url(#f1slej2af6ssvz)" height="48" id="JpaAGVRepository" style="stroke:#A80036;stroke-width:1.5;" width="134" x="797.5" y="34.5"/><ellipse cx="812.5" cy="50.5" fill="#ADD1B2" rx="11" ry="11" style="stroke:#A80036;stroke-width:1.0;"/><path d="M814.5,47 Q814.7031,46.5 814.9375,46.25 Q815.1719,46 815.4375,46 Q815.9063,46 816.2031,46.2813 Q816.5,46.5625 816.5,47.2188 L816.5,48.7813 Q816.5,49.4375 816.2188,49.7188 Q815.9375,50 815.5,50 Q815.1094,50 814.8594,49.8281 Q814.6094,49.6563 814.5,49.2031 Q814.4531,48.8906 814.2813,48.7188 Q813.9688,48.3906 813.4063,48.2031 Q812.8438,48 812.2813,48 Q811.5781,48 810.9844,48.2813 Q810.4063,48.5625 809.9531,49.1875 Q809.5,49.8125 809.5,50.6719 L809.5,51.5938 Q809.5,52.625 810.3438,53.3125 Q811.1875,54 812.6875,54 Q813.5781,54 814.2031,53.7969 Q814.5625,53.6875 814.9688,53.3281 Q815.2344,53.125 815.375,53.0625 Q815.5156,53 815.6875,53 Q816.0156,53 816.25,53.2656 Q816.5,53.5156 816.5,53.875 Q816.5,54.2188 816.1563,54.625 Q815.6563,55.2188 814.8594,55.5469 Q813.8125,56 812.5313,56 Q811.0313,56 809.8281,55.4063 Q808.8594,54.9375 808.1719,53.9219 Q807.5,52.9063 807.5,51.7031 L807.5,50.6094 Q807.5,49.3594 808.0938,48.2656 Q808.7031,47.1719 809.75,46.5938 Q810.8125,46 812,46 Q812.7188,46 813.3438,46.25 Q813.9688,46.5 814.5,47 Z " fill="#000000"/><text fill="#000000" font-family="sans-serif" font-size="12" lengthAdjust="spacing" textLength="102" x="826.5" y="55.4102">JpaAGVRepository</text><line style="stroke:#A80036;stroke-width:1.5;" x1="798.5" x2="930.5" y1="66.5" y2="66.5"/><line style="stroke:#A80036;stroke-width:1.5;" x1="798.5" x2="930.5" y1="74.5" y2="74.5"/><!--MD5=[c0476fc53e9066360736033e1d500bf2]
class JpaAutoTxRepository--><rect codeLine="38" fill="#FEFECE" filter="url(#f1slej2af6ssvz)" height="48" id="JpaAutoTxRepository" style="stroke:#A80036;stroke-width:1.5;" width="147" x="1014" y="34.5"/><ellipse cx="1029" cy="50.5" fill="#ADD1B2" rx="11" ry="11" style="stroke:#A80036;stroke-width:1.0;"/><path d="M1031,47 Q1031.2031,46.5 1031.4375,46.25 Q1031.6719,46 1031.9375,46 Q1032.4063,46 1032.7031,46.2813 Q1033,46.5625 1033,47.2188 L1033,48.7813 Q1033,49.4375 1032.7188,49.7188 Q1032.4375,50 1032,50 Q1031.6094,50 1031.3594,49.8281 Q1031.1094,49.6563 1031,49.2031 Q1030.9531,48.8906 1030.7813,48.7188 Q1030.4688,48.3906 1029.9063,48.2031 Q1029.3438,48 1028.7813,48 Q1028.0781,48 1027.4844,48.2813 Q1026.9063,48.5625 1026.4531,49.1875 Q1026,49.8125 1026,50.6719 L1026,51.5938 Q1026,52.625 1026.8438,53.3125 Q1027.6875,54 1029.1875,54 Q1030.0781,54 1030.7031,53.7969 Q1031.0625,53.6875 1031.4688,53.3281 Q1031.7344,53.125 1031.875,53.0625 Q1032.0156,53 1032.1875,53 Q1032.5156,53 1032.75,53.2656 Q1033,53.5156 1033,53.875 Q1033,54.2188 1032.6563,54.625 Q1032.1563,55.2188 1031.3594,55.5469 Q1030.3125,56 1029.0313,56 Q1027.5313,56 1026.3281,55.4063 Q1025.3594,54.9375 1024.6719,53.9219 Q1024,52.9063 1024,51.7031 L1024,50.6094 Q1024,49.3594 1024.5938,48.2656 Q1025.2031,47.1719 1026.25,46.5938 Q1027.3125,46 1028.5,46 Q1029.2188,46 1029.8438,46.25 Q1030.4688,46.5 1031,47 Z " fill="#000000"/><text fill="#000000" font-family="sans-serif" font-size="12" lengthAdjust="spacing" textLength="115" x="1043" y="55.4102">JpaAutoTxRepository</text><line style="stroke:#A80036;stroke-width:1.5;" x1="1015" x2="1160" y1="66.5" y2="66.5"/><line style="stroke:#A80036;stroke-width:1.5;" x1="1015" x2="1160" y1="74.5" y2="74.5"/><!--MD5=[ef5ca6c486fbe5bafb60c27f722f9ed1]
class InMemoryAGVRepository--><rect codeLine="42" fill="#FEFECE" filter="url(#f1slej2af6ssvz)" height="48" id="InMemoryAGVRepository" style="stroke:#A80036;stroke-width:1.5;" width="167" x="1196" y="34.5"/><ellipse cx="1211" cy="50.5" fill="#ADD1B2" rx="11" ry="11" style="stroke:#A80036;stroke-width:1.0;"/><path d="M1213,47 Q1213.2031,46.5 1213.4375,46.25 Q1213.6719,46 1213.9375,46 Q1214.4063,46 1214.7031,46.2813 Q1215,46.5625 1215,47.2188 L1215,48.7813 Q1215,49.4375 1214.7188,49.7188 Q1214.4375,50 1214,50 Q1213.6094,50 1213.3594,49.8281 Q1213.1094,49.6563 1213,49.2031 Q1212.9531,48.8906 1212.7813,48.7188 Q1212.4688,48.3906 1211.9063,48.2031 Q1211.3438,48 1210.7813,48 Q1210.0781,48 1209.4844,48.2813 Q1208.9063,48.5625 1208.4531,49.1875 Q1208,49.8125 1208,50.6719 L1208,51.5938 Q1208,52.625 1208.8438,53.3125 Q1209.6875,54 1211.1875,54 Q1212.0781,54 1212.7031,53.7969 Q1213.0625,53.6875 1213.4688,53.3281 Q1213.7344,53.125 1213.875,53.0625 Q1214.0156,53 1214.1875,53 Q1214.5156,53 1214.75,53.2656 Q1215,53.5156 1215,53.875 Q1215,54.2188 1214.6563,54.625 Q1214.1563,55.2188 1213.3594,55.5469 Q1212.3125,56 1211.0313,56 Q1209.5313,56 1208.3281,55.4063 Q1207.3594,54.9375 1206.6719,53.9219 Q1206,52.9063 1206,51.7031 L1206,50.6094 Q1206,49.3594 1206.5938,48.2656 Q1207.2031,47.1719 1208.25,46.5938 Q1209.3125,46 1210.5,46 Q1211.2188,46 1211.8438,46.25 Q1212.4688,46.5 1213,47 Z " fill="#000000"/><text fill="#000000" font-family="sans-serif" font-size="12" lengthAdjust="spacing" textLength="135" x="1225" y="55.4102">InMemoryAGVRepository</text><line style="stroke:#A80036;stroke-width:1.5;" x1="1197" x2="1362" y1="66.5" y2="66.5"/><line style="stroke:#A80036;stroke-width:1.5;" x1="1197" x2="1362" y1="74.5" y2="74.5"/><!--MD5=[7b0c4a39450275dfd92e907bfd13e489]
class InMemoryDomainRepository--><rect codeLine="46" fill="#FEFECE" filter="url(#f1slej2af6ssvz)" height="48" id="InMemoryDomainRepository" style="stroke:#A80036;stroke-width:1.5;" width="188" x="1185.5" y="236"/><ellipse cx="1200.5" cy="252" fill="#ADD1B2" rx="11" ry="11" style="stroke:#A80036;stroke-width:1.0;"/><path d="M1202.5,248.5 Q1202.7031,248 1202.9375,247.75 Q1203.1719,247.5 1203.4375,247.5 Q1203.9063,247.5 1204.2031,247.7813 Q1204.5,248.0625 1204.5,248.7188 L1204.5,250.2813 Q1204.5,250.9375 1204.2188,251.2188 Q1203.9375,251.5 1203.5,251.5 Q1203.1094,251.5 1202.8594,251.3281 Q1202.6094,251.1563 1202.5,250.7031 Q1202.4531,250.3906 1202.2813,250.2188 Q1201.9688,249.8906 1201.4063,249.7031 Q1200.8438,249.5 1200.2813,249.5 Q1199.5781,249.5 1198.9844,249.7813 Q1198.4063,250.0625 1197.9531,250.6875 Q1197.5,251.3125 1197.5,252.1719 L1197.5,253.0938 Q1197.5,254.125 1198.3438,254.8125 Q1199.1875,255.5 1200.6875,255.5 Q1201.5781,255.5 1202.2031,255.2969 Q1202.5625,255.1875 1202.9688,254.8281 Q1203.2344,254.625 1203.375,254.5625 Q1203.5156,254.5 1203.6875,254.5 Q1204.0156,254.5 1204.25,254.7656 Q1204.5,255.0156 1204.5,255.375 Q1204.5,255.7188 1204.1563,256.125 Q1203.6563,256.7188 1202.8594,257.0469 Q1201.8125,257.5 1200.5313,257.5 Q1199.0313,257.5 1197.8281,256.9063 Q1196.8594,256.4375 1196.1719,255.4219 Q1195.5,254.4063 1195.5,253.2031 L1195.5,252.1094 Q1195.5,250.8594 1196.0938,249.7656 Q1196.7031,248.6719 1197.75,248.0938 Q1198.8125,247.5 1200,247.5 Q1200.7188,247.5 1201.3438,247.75 Q1201.9688,248 1202.5,248.5 Z " fill="#000000"/><text fill="#000000" font-family="sans-serif" font-size="12" lengthAdjust="spacing" textLength="156" x="1214.5" y="256.9102">InMemoryDomainRepository</text><line style="stroke:#A80036;stroke-width:1.5;" x1="1186.5" x2="1372.5" y1="268" y2="268"/><line style="stroke:#A80036;stroke-width:1.5;" x1="1186.5" x2="1372.5" y1="276" y2="276"/><!--MD5=[e0087e3f3b69767d7a6ef6888f2693a1]
class JpaRepositoryFactory--><rect codeLine="50" fill="#FEFECE" filter="url(#f1slej2af6ssvz)" height="61.8359" id="JpaRepositoryFactory" style="stroke:#A80036;stroke-width:1.5;" width="150" x="761.5" y="140"/><ellipse cx="776.5" cy="156" fill="#ADD1B2" rx="11" ry="11" style="stroke:#A80036;stroke-width:1.0;"/><path d="M778.5,152.5 Q778.7031,152 778.9375,151.75 Q779.1719,151.5 779.4375,151.5 Q779.9063,151.5 780.2031,151.7813 Q780.5,152.0625 780.5,152.7188 L780.5,154.2813 Q780.5,154.9375 780.2188,155.2188 Q779.9375,155.5 779.5,155.5 Q779.1094,155.5 778.8594,155.3281 Q778.6094,155.1563 778.5,154.7031 Q778.4531,154.3906 778.2813,154.2188 Q777.9688,153.8906 777.4063,153.7031 Q776.8438,153.5 776.2813,153.5 Q775.5781,153.5 774.9844,153.7813 Q774.4063,154.0625 773.9531,154.6875 Q773.5,155.3125 773.5,156.1719 L773.5,157.0938 Q773.5,158.125 774.3438,158.8125 Q775.1875,159.5 776.6875,159.5 Q777.5781,159.5 778.2031,159.2969 Q778.5625,159.1875 778.9688,158.8281 Q779.2344,158.625 779.375,158.5625 Q779.5156,158.5 779.6875,158.5 Q780.0156,158.5 780.25,158.7656 Q780.5,159.0156 780.5,159.375 Q780.5,159.7188 780.1563,160.125 Q779.6563,160.7188 778.8594,161.0469 Q777.8125,161.5 776.5313,161.5 Q775.0313,161.5 773.8281,160.9063 Q772.8594,160.4375 772.1719,159.4219 Q771.5,158.4063 771.5,157.2031 L771.5,156.1094 Q771.5,154.8594 772.0938,153.7656 Q772.7031,152.6719 773.75,152.0938 Q774.8125,151.5 776,151.5 Q776.7188,151.5 777.3438,151.75 Q777.9688,152 778.5,152.5 Z " fill="#000000"/><text fill="#000000" font-family="sans-serif" font-size="12" lengthAdjust="spacing" textLength="118" x="790.5" y="160.9102">JpaRepositoryFactory</text><line style="stroke:#A80036;stroke-width:1.5;" x1="762.5" x2="910.5" y1="172" y2="172"/><line style="stroke:#A80036;stroke-width:1.5;" x1="762.5" x2="910.5" y1="180" y2="180"/><rect fill="#F24D5C" height="6" style="stroke:#C82930;stroke-width:1.0;" width="6" x="769.5" y="188"/><text fill="#000000" font-family="sans-serif" font-size="11" lengthAdjust="spacing" textLength="108" x="781.5" y="195.4189">AGVRepository agv();</text><!--MD5=[80616cc598c73cb7cb2b520a31915523]
link AGVBuilder to AGV--><path codeLine="54" d="M710.5,96.56 C710.5,133.93 710.5,191.06 710.5,226.66 " fill="none" id="AGVBuilder-to-AGV" style="stroke:#A80036;stroke-width:1.0;"/><polygon fill="#A80036" points="710.5,231.75,714.5,222.75,710.5,226.75,706.5,222.75,710.5,231.75" style="stroke:#A80036;stroke-width:1.0;"/><!--MD5=[6a7df891d38fb732eb6e771ea45d0d04]
link BaseBackoffice to ConfigureAGVUI--><path codeLine="56" d="M124.1,58.5 C133.97,58.5 143.84,58.5 153.71,58.5 " fill="none" id="BaseBackoffice-to-ConfigureAGVUI" style="stroke:#A80036;stroke-width:1.0;"/><polygon fill="#A80036" points="158.87,58.5,149.87,54.5,153.87,58.5,149.87,62.5,158.87,58.5" style="stroke:#A80036;stroke-width:1.0;"/><!--MD5=[4c2ca6742170b953f9ed8ad6fa9ed9f7]
link ConfigureAGVUI to ConfigureAGVController--><path codeLine="58" d="M410.48,58.5 C420.38,58.5 430.28,58.5 440.18,58.5 " fill="none" id="ConfigureAGVUI-to-ConfigureAGVController" style="stroke:#A80036;stroke-width:1.0;"/><polygon fill="#A80036" points="445.36,58.5,436.36,54.5,440.36,58.5,436.36,62.5,445.36,58.5" style="stroke:#A80036;stroke-width:1.0;"/><!--MD5=[35d5c5234a544a71a50e38fc0e8bf497]
link ConfigureAGVController to AGVBuilder--><path codeLine="60" d="M623.53,58.5 C633.37,58.5 643.2,58.5 653.04,58.5 " fill="none" id="ConfigureAGVController-to-AGVBuilder" style="stroke:#A80036;stroke-width:1.0;"/><polygon fill="#A80036" points="658.18,58.5,649.18,54.5,653.18,58.5,649.18,62.5,658.18,58.5" style="stroke:#A80036;stroke-width:1.0;"/><!--MD5=[9a0efe8ceeeb59e72273a26bd55b423a]
link ConfigureAGVController to AGVRepository--><path codeLine="62" d="M603.2,110.19 C643.37,138.8 695.66,174.25 744.5,202 C764.63,213.43 787.43,224.55 807.84,233.88 " fill="none" id="ConfigureAGVController-to-AGVRepository" style="stroke:#A80036;stroke-width:1.0;"/><polygon fill="#A80036" points="812.42,235.97,805.8906,228.5966,807.8706,233.8956,802.5716,235.8756,812.42,235.97" style="stroke:#A80036;stroke-width:1.0;"/><!--MD5=[3b436c5eda7c98bf5fb8b305a8810954]
link AGVRepository to DomainFactory--><path codeLine="64" d="M924.59,260 C948.91,260 977.23,260 1002.09,260 " fill="none" id="AGVRepository-to-DomainFactory" style="stroke:#A80036;stroke-width:1.0;"/><polygon fill="#A80036" points="1007.33,260,998.33,256,1002.33,260,998.33,264,1007.33,260" style="stroke:#A80036;stroke-width:1.0;"/><text fill="#000000" font-family="sans-serif" font-size="13" lengthAdjust="spacing" textLength="46" x="943" y="253.4951">extends</text><!--MD5=[afb4d2378a8de4b1c725db3a87777323]
link JpaAGVRepository to JpaRepositoryFactory--><path codeLine="66" d="M858.63,82.66 C854.82,97.69 849.79,117.56 845.48,134.55 " fill="none" id="JpaAGVRepository-to-JpaRepositoryFactory" style="stroke:#A80036;stroke-width:1.0;"/><polygon fill="#A80036" points="844.17,139.73,850.2548,131.9857,845.3961,134.8827,842.4991,130.0239,844.17,139.73" style="stroke:#A80036;stroke-width:1.0;"/><!--MD5=[bec02d0fdeb26502499825bb13370680]
link JpaRepositoryFactory to AGVRepository--><path codeLine="67" d="M846.99,202.43 C850.19,211.69 853.68,221.82 856.82,230.92 " fill="none" id="JpaRepositoryFactory-to-AGVRepository" style="stroke:#A80036;stroke-width:1.0;"/><polygon fill="#A80036" points="858.52,235.86,859.3621,226.0472,856.8874,231.134,851.8006,228.6594,858.52,235.86" style="stroke:#A80036;stroke-width:1.0;"/><!--MD5=[02f260d86708cccab80225c8a9c78e92]
link JpaAGVRepository to JpaAutoTxRepository--><path codeLine="69" d="M931.71,58.5 C956,58.5 983.63,58.5 1008.81,58.5 " fill="none" id="JpaAGVRepository-to-JpaAutoTxRepository" style="stroke:#A80036;stroke-width:1.0;"/><polygon fill="#A80036" points="1013.81,58.5,1004.81,54.5,1008.81,58.5,1004.81,62.5,1013.81,58.5" style="stroke:#A80036;stroke-width:1.0;"/><text fill="#000000" font-family="sans-serif" font-size="13" lengthAdjust="spacing" textLength="46" x="949.75" y="51.9951">extends</text><!--MD5=[de8715d0e01482dbb77a937a9be61e97]
link JpaAGVRepository to AGVRepository--><path codeLine="70" d="M882.87,82.6 C893.83,97.91 906.71,118.98 912.5,140 C919.82,166.57 921.68,176.02 912.5,202 C908.72,212.72 901.97,222.9 894.78,231.61 " fill="none" id="JpaAGVRepository-to-AGVRepository" style="stroke:#A80036;stroke-width:1.0;"/><polygon fill="#A80036" points="891.24,235.77,900.1249,231.5206,894.4857,231.9667,894.0396,226.3274,891.24,235.77" style="stroke:#A80036;stroke-width:1.0;"/><text fill="#000000" font-family="sans-serif" font-size="13" lengthAdjust="spacing" textLength="67" x="919.5" y="176.4951">implements</text><!--MD5=[0cd62cd33ba77a4f5453e913bc1ef4c5]
link InMemoryAGVRepository to InMemoryDomainRepository--><path codeLine="72" d="M1279.5,82.78 C1279.5,119.57 1279.5,191.04 1279.5,230.73 " fill="none" id="InMemoryAGVRepository-to-InMemoryDomainRepository" style="stroke:#A80036;stroke-width:1.0;"/><polygon fill="#A80036" points="1279.5,235.87,1283.5,226.87,1279.5,230.87,1275.5,226.87,1279.5,235.87" style="stroke:#A80036;stroke-width:1.0;"/><text fill="#000000" font-family="sans-serif" font-size="13" lengthAdjust="spacing" textLength="46" x="1280.5" y="176.4951">extends</text><!--MD5=[2c88c36e778f070bfe8f89ccc1b9ba93]
link InMemoryAGVRepository to AGVRepository--><path codeLine="73" d="M1235.07,82.64 C1179.45,111.41 1081.07,161.66 995.5,202 C972.65,212.77 947.27,224.12 925.11,233.83 " fill="none" id="InMemoryAGVRepository-to-AGVRepository" style="stroke:#A80036;stroke-width:1.0;"/><polygon fill="#A80036" points="920.43,235.87,930.2787,235.9273,925.0108,233.8659,927.0721,228.598,920.43,235.87" style="stroke:#A80036;stroke-width:1.0;"/><text fill="#000000" font-family="sans-serif" font-size="13" lengthAdjust="spacing" textLength="67" x="1121.5" y="176.4951">implements</text><!--MD5=[d275de0d044f1975dce71b330408ea68]
@startuml

Entity AGV<<entity>>{

}

class ConfigureAGVUI{
    ConfigureAGVController configureAGVController;
}

class ConfigureAGVController{
    -AGVRepository agvRepository;
    -AuthorizationService authz;
    -AGVBuilder agvBuilder;
    -configureAGV();
}

class AGVBuilder{
    -build()
    -buildOrThrow(){
}

class BaseBackoffice{
    -MainMenu menu
}

interface AGVRepository{

}

interface DomainFactory{

}

class JpaAGVRepository{

}

class JpaAutoTxRepository{

}

class InMemoryAGVRepository{

}

class InMemoryDomainRepository{

}

class JpaRepositoryFactory{
    -AGVRepository agv();
}

AGVBuilder -down-> AGV

BaseBackoffice -> ConfigureAGVUI

ConfigureAGVUI -> ConfigureAGVController

ConfigureAGVController ->  AGVBuilder

ConfigureAGVController -down-> AGVRepository

AGVRepository -right-> DomainFactory : "extends"

JpaAGVRepository -right-> JpaRepositoryFactory
JpaRepositoryFactory -> AGVRepository

JpaAGVRepository  -> JpaAutoTxRepository : "extends"
JpaAGVRepository -down-> AGVRepository : "implements"

InMemoryAGVRepository -down-> InMemoryDomainRepository : "extends"
InMemoryAGVRepository -down-> AGVRepository : "implements"

@enduml

PlantUML version 1.2021.11(Sat Oct 02 14:26:11 BST 2021)
(GPL source distribution)
Java Runtime: OpenJDK Runtime Environment
JVM: OpenJDK 64-Bit Server VM
Default Encoding: Cp1252
Language: pt
Country: PT
--></g></svg>