<?xml version="1.0" encoding="UTF-8" standalone="no"?><svg xmlns="http://www.w3.org/2000/svg" xmlns:xlink="http://www.w3.org/1999/xlink" contentScriptType="application/ecmascript" contentStyleType="text/css" height="229px" preserveAspectRatio="none" style="width:486px;height:229px;background:#FFFFFF;" version="1.1" viewBox="0 0 486 229" width="486px" zoomAndPan="magnify"><defs><filter height="300%" id="f164uncg9lvv8n" width="300%" x="-1" y="-1"><feGaussianBlur result="blurOut" stdDeviation="2.0"/><feColorMatrix in="blurOut" result="blurOut2" type="matrix" values="0 0 0 0 0 0 0 0 0 0 0 0 0 0 0 0 0 0 .4 0"/><feOffset dx="4.0" dy="4.0" in="blurOut2" result="blurOut3"/><feBlend in="SourceGraphic" in2="blurOut3" mode="normal"/></filter></defs><g><!--MD5=[53b2c06ade5903185ca3326dce80e141]
class AGV--><rect codeLine="2" fill="#FEFECE" filter="url(#f164uncg9lvv8n)" height="208.3828" id="AGV" style="stroke:#A80036;stroke-width:1.5;" width="143" x="7" y="7"/><ellipse cx="54.75" cy="27.0938" fill="#ADD1B2" rx="11" ry="11" style="stroke:#A80036;stroke-width:1.0;"/><path d="M53.25,28.0938 L53.25,30.0938 L57.25,30.0938 L57.25,29.0938 L57.25,28.6094 L57.875,28.0938 L58.25,28.0938 L58.625,28.0938 L59.25,28.6094 L59.25,29.0938 L59.25,32.0938 L51.25,32.0938 L50.7656,32.0938 L50.25,31.4688 L50.25,31.0938 L50.25,30.7188 L50.7656,30.0938 L51.25,30.0938 L51.25,30.0938 L51.25,24.0938 L51.25,24.0938 L50.7656,24.0938 L50.25,23.4688 L50.25,23.0938 L50.25,22.7188 L50.7656,22.0938 L51.25,22.0938 L59.25,22.0938 L59.25,25.0938 L59.25,25.5781 L58.625,26.0938 L58.25,26.0938 L57.875,26.0938 L57.25,25.5781 L57.25,25.0938 L57.25,24.0938 L53.25,24.0938 L53.25,26.0938 L54.25,26.0938 L54.25,25.6094 L54.25,25.6094 L54.875,25.0938 L55.25,25.0938 L55.625,25.0938 L56.25,25.6094 L56.25,26.0938 L56.25,28.0938 L56.25,28.5781 L55.625,29.0938 L55.625,29.0938 L55.25,29.0938 L54.875,29.0938 L54.25,28.5781 L54.25,28.5781 L54.25,28.0938 L53.25,28.0938 Z " fill="#000000"/><text fill="#000000" font-family="sans-serif" font-size="12" font-style="italic" lengthAdjust="spacing" textLength="43" x="73.25" y="24.457">«entity»</text><text fill="#000000" font-family="sans-serif" font-size="12" lengthAdjust="spacing" textLength="23" x="83.25" y="39.5508">AGV</text><line style="stroke:#A80036;stroke-width:1.5;" x1="8" x2="149" y1="47.1875" y2="47.1875"/><rect fill="none" height="6" style="stroke:#C82930;stroke-width:1.0;" width="6" x="15" y="55.1875"/><text fill="#000000" font-family="sans-serif" font-size="11" lengthAdjust="spacing" textLength="39" x="27" y="62.6064">String id</text><text fill="#000000" font-family="sans-serif" font-size="11" font-weight="bold" lengthAdjust="spacing" textLength="72" x="69" y="62.6064">PRIMARY KEY</text><text fill="#000000" font-family="sans-serif" font-size="11" lengthAdjust="spacing" textLength="3" x="141" y="62.6064">;</text><rect fill="none" height="6" style="stroke:#C82930;stroke-width:1.0;" width="6" x="15" y="69.0234"/><text fill="#000000" font-family="sans-serif" font-size="11" lengthAdjust="spacing" textLength="87" x="27" y="76.4424">String description;</text><rect fill="none" height="6" style="stroke:#C82930;stroke-width:1.0;" width="6" x="15" y="82.8594"/><text fill="#000000" font-family="sans-serif" font-size="11" lengthAdjust="spacing" textLength="62" x="27" y="90.2783">String model;</text><rect fill="none" height="6" style="stroke:#C82930;stroke-width:1.0;" width="6" x="15" y="96.6953"/><text fill="#000000" font-family="sans-serif" font-size="11" lengthAdjust="spacing" textLength="91" x="27" y="104.1143">double maxWeight;</text><rect fill="none" height="6" style="stroke:#C82930;stroke-width:1.0;" width="6" x="15" y="110.5313"/><text fill="#000000" font-family="sans-serif" font-size="11" lengthAdjust="spacing" textLength="94" x="27" y="117.9502">double maxVolume;</text><rect fill="none" height="6" style="stroke:#C82930;stroke-width:1.0;" width="6" x="15" y="124.3672"/><text fill="#000000" font-family="sans-serif" font-size="11" lengthAdjust="spacing" textLength="74" x="27" y="131.7861">boolean status;</text><rect fill="none" height="6" style="stroke:#C82930;stroke-width:1.0;" width="6" x="15" y="138.2031"/><text fill="#000000" font-family="sans-serif" font-size="11" lengthAdjust="spacing" textLength="61" x="27" y="145.6221">int positionX;</text><rect fill="none" height="6" style="stroke:#C82930;stroke-width:1.0;" width="6" x="15" y="152.0391"/><text fill="#000000" font-family="sans-serif" font-size="11" lengthAdjust="spacing" textLength="62" x="27" y="159.458">int positionY;</text><rect fill="none" height="6" style="stroke:#C82930;stroke-width:1.0;" width="6" x="15" y="165.875"/><text fill="#000000" font-family="sans-serif" font-size="11" lengthAdjust="spacing" textLength="80" x="27" y="173.2939">int autonomyMin;</text><rect fill="none" height="6" style="stroke:#C82930;stroke-width:1.0;" width="6" x="15" y="179.7109"/><text fill="#000000" font-family="sans-serif" font-size="11" lengthAdjust="spacing" textLength="49" x="27" y="187.1299">Task task;</text><rect fill="none" height="6" style="stroke:#C82930;stroke-width:1.0;" width="6" x="15" y="193.5469"/><text fill="#000000" font-family="sans-serif" font-size="11" lengthAdjust="spacing" textLength="96" x="27" y="200.9658">AGVDock agvDock;</text><line style="stroke:#A80036;stroke-width:1.5;" x1="8" x2="149" y1="207.3828" y2="207.3828"/><!--MD5=[6c8d26f6d50c9b5da41494faa6136af8]
class AGVDock--><rect codeLine="16" fill="#FEFECE" filter="url(#f164uncg9lvv8n)" height="83.8594" id="AGVDock" style="stroke:#A80036;stroke-width:1.5;" width="152" x="185.5" y="69"/><ellipse cx="231.75" cy="89.0938" fill="#ADD1B2" rx="11" ry="11" style="stroke:#A80036;stroke-width:1.0;"/><path d="M230.25,90.0938 L230.25,92.0938 L234.25,92.0938 L234.25,91.0938 L234.25,90.6094 L234.875,90.0938 L235.25,90.0938 L235.625,90.0938 L236.25,90.6094 L236.25,91.0938 L236.25,94.0938 L228.25,94.0938 L227.7656,94.0938 L227.25,93.4688 L227.25,93.0938 L227.25,92.7188 L227.7656,92.0938 L228.25,92.0938 L228.25,92.0938 L228.25,86.0938 L228.25,86.0938 L227.7656,86.0938 L227.25,85.4688 L227.25,85.0938 L227.25,84.7188 L227.7656,84.0938 L228.25,84.0938 L236.25,84.0938 L236.25,87.0938 L236.25,87.5781 L235.625,88.0938 L235.25,88.0938 L234.875,88.0938 L234.25,87.5781 L234.25,87.0938 L234.25,86.0938 L230.25,86.0938 L230.25,88.0938 L231.25,88.0938 L231.25,87.6094 L231.25,87.6094 L231.875,87.0938 L232.25,87.0938 L232.625,87.0938 L233.25,87.6094 L233.25,88.0938 L233.25,90.0938 L233.25,90.5781 L232.625,91.0938 L232.625,91.0938 L232.25,91.0938 L231.875,91.0938 L231.25,90.5781 L231.25,90.5781 L231.25,90.0938 L230.25,90.0938 Z " fill="#000000"/><text fill="#000000" font-family="sans-serif" font-size="12" font-style="italic" lengthAdjust="spacing" textLength="43" x="256.25" y="86.457">«entity»</text><text fill="#000000" font-family="sans-serif" font-size="12" lengthAdjust="spacing" textLength="51" x="252.25" y="101.5508">AGVDock</text><line style="stroke:#A80036;stroke-width:1.5;" x1="186.5" x2="336.5" y1="109.1875" y2="109.1875"/><rect fill="none" height="6" style="stroke:#C82930;stroke-width:1.0;" width="6" x="193.5" y="117.1875"/><text fill="#000000" font-family="sans-serif" font-size="11" lengthAdjust="spacing" textLength="31" x="205.5" y="124.6064">long id</text><text fill="#000000" font-family="sans-serif" font-size="11" font-weight="bold" lengthAdjust="spacing" textLength="72" x="239.5" y="124.6064">PRIMARY KEY</text><text fill="#000000" font-family="sans-serif" font-size="11" lengthAdjust="spacing" textLength="3" x="311.5" y="124.6064">;</text><rect fill="none" height="6" style="stroke:#C82930;stroke-width:1.0;" width="6" x="193.5" y="131.0234"/><text fill="#000000" font-family="sans-serif" font-size="11" lengthAdjust="spacing" textLength="126" x="205.5" y="138.4424">Accessibility accessibility;</text><line style="stroke:#A80036;stroke-width:1.5;" x1="186.5" x2="336.5" y1="144.8594" y2="144.8594"/><!--MD5=[7620fae2775ebf09e1a63cf069b3747d]
class Accessibility--><rect fill="#FEFECE" filter="url(#f164uncg9lvv8n)" height="48" id="Accessibility" style="stroke:#A80036;stroke-width:1.5;" width="99" x="373" y="87"/><ellipse cx="388" cy="103" fill="#ADD1B2" rx="11" ry="11" style="stroke:#A80036;stroke-width:1.0;"/><path d="M390,99.5 Q390.2031,99 390.4375,98.75 Q390.6719,98.5 390.9375,98.5 Q391.4063,98.5 391.7031,98.7813 Q392,99.0625 392,99.7188 L392,101.2813 Q392,101.9375 391.7188,102.2188 Q391.4375,102.5 391,102.5 Q390.6094,102.5 390.3594,102.3281 Q390.1094,102.1563 390,101.7031 Q389.9531,101.3906 389.7813,101.2188 Q389.4688,100.8906 388.9063,100.7031 Q388.3438,100.5 387.7813,100.5 Q387.0781,100.5 386.4844,100.7813 Q385.9063,101.0625 385.4531,101.6875 Q385,102.3125 385,103.1719 L385,104.0938 Q385,105.125 385.8438,105.8125 Q386.6875,106.5 388.1875,106.5 Q389.0781,106.5 389.7031,106.2969 Q390.0625,106.1875 390.4688,105.8281 Q390.7344,105.625 390.875,105.5625 Q391.0156,105.5 391.1875,105.5 Q391.5156,105.5 391.75,105.7656 Q392,106.0156 392,106.375 Q392,106.7188 391.6563,107.125 Q391.1563,107.7188 390.3594,108.0469 Q389.3125,108.5 388.0313,108.5 Q386.5313,108.5 385.3281,107.9063 Q384.3594,107.4375 383.6719,106.4219 Q383,105.4063 383,104.2031 L383,103.1094 Q383,101.8594 383.5938,100.7656 Q384.2031,99.6719 385.25,99.0938 Q386.3125,98.5 387.5,98.5 Q388.2188,98.5 388.8438,98.75 Q389.4688,99 390,99.5 Z " fill="#000000"/><text fill="#000000" font-family="sans-serif" font-size="12" lengthAdjust="spacing" textLength="67" x="402" y="107.9102">Accessibility</text><line style="stroke:#A80036;stroke-width:1.5;" x1="374" x2="471" y1="119" y2="119"/><line style="stroke:#A80036;stroke-width:1.5;" x1="374" x2="471" y1="127" y2="127"/><!--MD5=[f109197b03652dc794d321c2b6eb6935]
link AGV to AGVDock--><path codeLine="21" d="M150.34,111 C160.2,111 170.06,111 179.92,111 " fill="none" id="AGV-to-AGVDock" style="stroke:#A80036;stroke-width:1.0;"/><polygon fill="#A80036" points="185.08,111,176.08,107,180.08,111,176.08,115,185.08,111" style="stroke:#A80036;stroke-width:1.0;"/><text fill="#000000" font-family="sans-serif" font-size="13" lengthAdjust="spacing" textLength="7" x="158.1094" y="107.6685">1</text><text fill="#000000" font-family="sans-serif" font-size="13" lengthAdjust="spacing" textLength="7" x="170.4626" y="107.7561">1</text><!--MD5=[0e4825c31183382a9d2f9c526d983221]
link AGVDock to Accessibility--><path codeLine="23" d="M337.6,111 C347.58,111 357.56,111 367.53,111 " fill="none" id="AGVDock-to-Accessibility" style="stroke:#A80036;stroke-width:1.0;"/><polygon fill="#A80036" points="372.75,111,363.75,107,367.75,111,363.75,115,372.75,111" style="stroke:#A80036;stroke-width:1.0;"/><text fill="#000000" font-family="sans-serif" font-size="13" lengthAdjust="spacing" textLength="7" x="345.4356" y="107.7318">1</text><text fill="#000000" font-family="sans-serif" font-size="13" lengthAdjust="spacing" textLength="7" x="357.9289" y="107.3459">1</text><!--MD5=[878f22101440ffe142020d53b63fd2ff]
@startuml

Entity AGV<<entity>>{
    -String id **PRIMARY KEY**;
    -String description;
    -String model;
    -double maxWeight;
    -double maxVolume;
    -boolean status;
    -int positionX;
    -int positionY;
    -int autonomyMin;
    -Task task;
    -AGVDock agvDock;
}

Entity AGVDock<<entity>>{
    -long id **PRIMARY KEY**;
    -Accessibility accessibility;
}

AGV "1" -> "1" AGVDock

AGVDock "1" -> "1" Accessibility

@enduml

PlantUML version 1.2021.11(Sat Oct 02 14:26:11 BST 2021)
(GPL source distribution)
Java Runtime: OpenJDK Runtime Environment
JVM: OpenJDK 64-Bit Server VM
Default Encoding: Cp1252
Language: pt
Country: PT
--></g></svg>