<?xml version="1.0" encoding="UTF-8" standalone="no"?><svg xmlns="http://www.w3.org/2000/svg" xmlns:xlink="http://www.w3.org/1999/xlink" contentScriptType="application/ecmascript" contentStyleType="text/css" height="847px" preserveAspectRatio="none" style="width:783px;height:847px;background:#FFFFFF;" version="1.1" viewBox="0 0 783 847" width="783px" zoomAndPan="magnify"><defs><filter height="300%" id="f14spls0xnrqml" width="300%" x="-1" y="-1"><feGaussianBlur result="blurOut" stdDeviation="2.0"/><feColorMatrix in="blurOut" result="blurOut2" type="matrix" values="0 0 0 0 0 0 0 0 0 0 0 0 0 0 0 0 0 0 .4 0"/><feOffset dx="4.0" dy="4.0" in="blurOut2" result="blurOut3"/><feBlend in="SourceGraphic" in2="blurOut3" mode="normal"/></filter></defs><g><rect fill="#FFFFFF" filter="url(#f14spls0xnrqml)" height="48.7031" style="stroke:#000000;stroke-width:2.0;" width="444.5" x="10" y="180.3125"/><line style="stroke:#A80036;stroke-width:1.0;stroke-dasharray:5.0,5.0;" x1="90" x2="90" y1="89.6094" y2="761.9922"/><line style="stroke:#A80036;stroke-width:1.0;stroke-dasharray:5.0,5.0;" x1="412.5" x2="412.5" y1="89.6094" y2="761.9922"/><text fill="#000000" font-family="sans-serif" font-size="14" lengthAdjust="spacing" textLength="135" x="20" y="86.5332">WarehouseEmployee</text><ellipse cx="90.5" cy="15" fill="#FEFECE" filter="url(#f14spls0xnrqml)" rx="8" ry="8" style="stroke:#A80036;stroke-width:2.0;"/><path d="M90.5,23 L90.5,50 M77.5,31 L103.5,31 M90.5,50 L77.5,65 M90.5,50 L103.5,65 " fill="none" filter="url(#f14spls0xnrqml)" style="stroke:#A80036;stroke-width:2.0;"/><text fill="#000000" font-family="sans-serif" font-size="14" lengthAdjust="spacing" textLength="135" x="20" y="775.5254">WarehouseEmployee</text><ellipse cx="90.5" cy="788.6016" fill="#FEFECE" filter="url(#f14spls0xnrqml)" rx="8" ry="8" style="stroke:#A80036;stroke-width:2.0;"/><path d="M90.5,796.6016 L90.5,823.6016 M77.5,804.6016 L103.5,804.6016 M90.5,823.6016 L77.5,838.6016 M90.5,823.6016 L103.5,838.6016 " fill="none" filter="url(#f14spls0xnrqml)" style="stroke:#A80036;stroke-width:2.0;"/><rect fill="#FEFECE" filter="url(#f14spls0xnrqml)" height="31.6094" style="stroke:#A80036;stroke-width:1.5;" width="60" x="380.5" y="53"/><text fill="#000000" font-family="sans-serif" font-size="14" lengthAdjust="spacing" textLength="46" x="387.5" y="74.5332">System</text><rect fill="#FEFECE" filter="url(#f14spls0xnrqml)" height="31.6094" style="stroke:#A80036;stroke-width:1.5;" width="60" x="380.5" y="760.9922"/><text fill="#000000" font-family="sans-serif" font-size="14" lengthAdjust="spacing" textLength="46" x="387.5" y="782.5254">System</text><polygon fill="#A80036" points="400.5,117.9609,410.5,121.9609,400.5,125.9609,404.5,121.9609" style="stroke:#A80036;stroke-width:1.0;"/><line style="stroke:#A80036;stroke-width:1.0;" x1="90.5" x2="406.5" y1="121.9609" y2="121.9609"/><text fill="#000000" font-family="sans-serif" font-size="13" font-weight="bold" lengthAdjust="spacing" textLength="7" x="97.5" y="117.1045">1</text><text fill="#000000" font-family="sans-serif" font-size="13" lengthAdjust="spacing" textLength="159" x="108.5" y="117.1045">Wants to configure an AGV</text><line style="stroke:#A80036;stroke-width:1.0;" x1="412.5" x2="454.5" y1="152.3125" y2="152.3125"/><line style="stroke:#A80036;stroke-width:1.0;" x1="454.5" x2="454.5" y1="152.3125" y2="165.3125"/><line style="stroke:#A80036;stroke-width:1.0;" x1="413.5" x2="454.5" y1="165.3125" y2="165.3125"/><polygon fill="#A80036" points="423.5,161.3125,413.5,165.3125,423.5,169.3125,419.5,165.3125" style="stroke:#A80036;stroke-width:1.0;"/><text fill="#000000" font-family="sans-serif" font-size="13" font-weight="bold" lengthAdjust="spacing" textLength="7" x="419.5" y="147.4561">2</text><text fill="#000000" font-family="sans-serif" font-size="13" lengthAdjust="spacing" textLength="346" x="430.5" y="147.4561">Checks if the warehouse has an AGV Dock without an AGV</text><path d="M10,180.3125 L288,180.3125 L288,188.3125 L278,198.3125 L10,198.3125 L10,180.3125 " fill="#EEEEEE" style="stroke:#000000;stroke-width:1.0;"/><rect fill="none" height="48.7031" style="stroke:#000000;stroke-width:2.0;" width="444.5" x="10" y="180.3125"/><text fill="#000000" font-family="sans-serif" font-size="13" font-weight="bold" lengthAdjust="spacing" textLength="233" x="25" y="194.8076">if the agv docks all already occupied</text><polygon fill="#A80036" points="101.5,217.0156,91.5,221.0156,101.5,225.0156,97.5,221.0156" style="stroke:#A80036;stroke-width:1.0;"/><line style="stroke:#A80036;stroke-width:1.0;" x1="95.5" x2="411.5" y1="221.0156" y2="221.0156"/><text fill="#000000" font-family="sans-serif" font-size="13" font-weight="bold" lengthAdjust="spacing" textLength="7" x="107.5" y="216.1592">3</text><text fill="#000000" font-family="sans-serif" font-size="13" lengthAdjust="spacing" textLength="253" x="118.5" y="216.1592">Shows all the AGVs and asks to select one</text><polygon fill="#A80036" points="101.5,254.3672,91.5,258.3672,101.5,262.3672,97.5,258.3672" style="stroke:#A80036;stroke-width:1.0;"/><line style="stroke:#A80036;stroke-width:1.0;" x1="95.5" x2="411.5" y1="258.3672" y2="258.3672"/><text fill="#000000" font-family="sans-serif" font-size="13" font-weight="bold" lengthAdjust="spacing" textLength="7" x="107.5" y="253.5107">4</text><text fill="#000000" font-family="sans-serif" font-size="13" lengthAdjust="spacing" textLength="118" x="118.5" y="253.5107">Asks for an identifier</text><polygon fill="#A80036" points="400.5,284.7188,410.5,288.7188,400.5,292.7188,404.5,288.7188" style="stroke:#A80036;stroke-width:1.0;"/><line style="stroke:#A80036;stroke-width:1.0;" x1="90.5" x2="406.5" y1="288.7188" y2="288.7188"/><text fill="#000000" font-family="sans-serif" font-size="13" font-weight="bold" lengthAdjust="spacing" textLength="7" x="97.5" y="283.8623">5</text><text fill="#000000" font-family="sans-serif" font-size="13" lengthAdjust="spacing" textLength="109" x="108.5" y="283.8623">Inserts an identifier</text><polygon fill="#A80036" points="101.5,315.0703,91.5,319.0703,101.5,323.0703,97.5,319.0703" style="stroke:#A80036;stroke-width:1.0;"/><line style="stroke:#A80036;stroke-width:1.0;" x1="95.5" x2="411.5" y1="319.0703" y2="319.0703"/><text fill="#000000" font-family="sans-serif" font-size="13" font-weight="bold" lengthAdjust="spacing" textLength="7" x="107.5" y="314.2139">6</text><text fill="#000000" font-family="sans-serif" font-size="13" lengthAdjust="spacing" textLength="159" x="118.5" y="314.2139">Asks for a short description</text><polygon fill="#A80036" points="400.5,345.4219,410.5,349.4219,400.5,353.4219,404.5,349.4219" style="stroke:#A80036;stroke-width:1.0;"/><line style="stroke:#A80036;stroke-width:1.0;" x1="90.5" x2="406.5" y1="349.4219" y2="349.4219"/><text fill="#000000" font-family="sans-serif" font-size="13" font-weight="bold" lengthAdjust="spacing" textLength="7" x="97.5" y="344.5654">7</text><text fill="#000000" font-family="sans-serif" font-size="13" lengthAdjust="spacing" textLength="161" x="108.5" y="344.5654">Inserts the short description</text><polygon fill="#A80036" points="101.5,375.7734,91.5,379.7734,101.5,383.7734,97.5,379.7734" style="stroke:#A80036;stroke-width:1.0;"/><line style="stroke:#A80036;stroke-width:1.0;" x1="95.5" x2="411.5" y1="379.7734" y2="379.7734"/><text fill="#000000" font-family="sans-serif" font-size="13" font-weight="bold" lengthAdjust="spacing" textLength="7" x="107.5" y="374.917">8</text><text fill="#000000" font-family="sans-serif" font-size="13" lengthAdjust="spacing" textLength="109" x="118.5" y="374.917">Asks for the model</text><polygon fill="#A80036" points="400.5,406.125,410.5,410.125,400.5,414.125,404.5,410.125" style="stroke:#A80036;stroke-width:1.0;"/><line style="stroke:#A80036;stroke-width:1.0;" x1="90.5" x2="406.5" y1="410.125" y2="410.125"/><text fill="#000000" font-family="sans-serif" font-size="13" font-weight="bold" lengthAdjust="spacing" textLength="7" x="97.5" y="405.2686">9</text><text fill="#000000" font-family="sans-serif" font-size="13" lengthAdjust="spacing" textLength="168" x="108.5" y="405.2686">Inserts the model of the AGV</text><polygon fill="#A80036" points="101.5,436.4766,91.5,440.4766,101.5,444.4766,97.5,440.4766" style="stroke:#A80036;stroke-width:1.0;"/><line style="stroke:#A80036;stroke-width:1.0;" x1="95.5" x2="411.5" y1="440.4766" y2="440.4766"/><text fill="#000000" font-family="sans-serif" font-size="13" font-weight="bold" lengthAdjust="spacing" textLength="14" x="107.5" y="435.6201">10</text><text fill="#000000" font-family="sans-serif" font-size="13" lengthAdjust="spacing" textLength="140" x="125.5" y="435.6201">Asks for the maxWeight</text><polygon fill="#A80036" points="400.5,466.8281,410.5,470.8281,400.5,474.8281,404.5,470.8281" style="stroke:#A80036;stroke-width:1.0;"/><line style="stroke:#A80036;stroke-width:1.0;" x1="90.5" x2="406.5" y1="470.8281" y2="470.8281"/><text fill="#000000" font-family="sans-serif" font-size="13" font-weight="bold" lengthAdjust="spacing" textLength="14" x="97.5" y="465.9717">11</text><text fill="#000000" font-family="sans-serif" font-size="13" lengthAdjust="spacing" textLength="199" x="115.5" y="465.9717">Inserts the maxWeight of the AGV</text><polygon fill="#A80036" points="101.5,497.1797,91.5,501.1797,101.5,505.1797,97.5,501.1797" style="stroke:#A80036;stroke-width:1.0;"/><line style="stroke:#A80036;stroke-width:1.0;" x1="95.5" x2="411.5" y1="501.1797" y2="501.1797"/><text fill="#000000" font-family="sans-serif" font-size="13" font-weight="bold" lengthAdjust="spacing" textLength="14" x="107.5" y="496.3232">12</text><text fill="#000000" font-family="sans-serif" font-size="13" lengthAdjust="spacing" textLength="143" x="125.5" y="496.3232">Asks for the maxVolume</text><polygon fill="#A80036" points="400.5,527.5313,410.5,531.5313,400.5,535.5313,404.5,531.5313" style="stroke:#A80036;stroke-width:1.0;"/><line style="stroke:#A80036;stroke-width:1.0;" x1="90.5" x2="406.5" y1="531.5313" y2="531.5313"/><text fill="#000000" font-family="sans-serif" font-size="13" font-weight="bold" lengthAdjust="spacing" textLength="14" x="97.5" y="526.6748">13</text><text fill="#000000" font-family="sans-serif" font-size="13" lengthAdjust="spacing" textLength="202" x="115.5" y="526.6748">Inserts the maxVolume of the AGV</text><polygon fill="#A80036" points="101.5,557.8828,91.5,561.8828,101.5,565.8828,97.5,561.8828" style="stroke:#A80036;stroke-width:1.0;"/><line style="stroke:#A80036;stroke-width:1.0;" x1="95.5" x2="411.5" y1="561.8828" y2="561.8828"/><text fill="#000000" font-family="sans-serif" font-size="13" font-weight="bold" lengthAdjust="spacing" textLength="14" x="107.5" y="557.0264">14</text><text fill="#000000" font-family="sans-serif" font-size="13" lengthAdjust="spacing" textLength="178" x="125.5" y="557.0264">Asks for the status of the AGV</text><polygon fill="#A80036" points="400.5,588.2344,410.5,592.2344,400.5,596.2344,404.5,592.2344" style="stroke:#A80036;stroke-width:1.0;"/><line style="stroke:#A80036;stroke-width:1.0;" x1="90.5" x2="406.5" y1="592.2344" y2="592.2344"/><text fill="#000000" font-family="sans-serif" font-size="13" font-weight="bold" lengthAdjust="spacing" textLength="14" x="97.5" y="587.3779">15</text><text fill="#000000" font-family="sans-serif" font-size="13" lengthAdjust="spacing" textLength="169" x="115.5" y="587.3779">Inserts the status of the AGV</text><polygon fill="#A80036" points="101.5,618.5859,91.5,622.5859,101.5,626.5859,97.5,622.5859" style="stroke:#A80036;stroke-width:1.0;"/><line style="stroke:#A80036;stroke-width:1.0;" x1="95.5" x2="411.5" y1="622.5859" y2="622.5859"/><text fill="#000000" font-family="sans-serif" font-size="13" font-weight="bold" lengthAdjust="spacing" textLength="14" x="107.5" y="617.7295">16</text><text fill="#000000" font-family="sans-serif" font-size="13" lengthAdjust="spacing" textLength="195" x="125.5" y="617.7295">Asks for the autonomy in minutes</text><polygon fill="#A80036" points="400.5,648.9375,410.5,652.9375,400.5,656.9375,404.5,652.9375" style="stroke:#A80036;stroke-width:1.0;"/><line style="stroke:#A80036;stroke-width:1.0;" x1="90.5" x2="406.5" y1="652.9375" y2="652.9375"/><text fill="#000000" font-family="sans-serif" font-size="13" font-weight="bold" lengthAdjust="spacing" textLength="14" x="97.5" y="648.0811">17</text><text fill="#000000" font-family="sans-serif" font-size="13" lengthAdjust="spacing" textLength="186" x="115.5" y="648.0811">Inserts the autonomy is minutes</text><polygon fill="#A80036" points="101.5,679.2891,91.5,683.2891,101.5,687.2891,97.5,683.2891" style="stroke:#A80036;stroke-width:1.0;"/><line style="stroke:#A80036;stroke-width:1.0;" x1="95.5" x2="411.5" y1="683.2891" y2="683.2891"/><text fill="#000000" font-family="sans-serif" font-size="13" font-weight="bold" lengthAdjust="spacing" textLength="14" x="107.5" y="678.4326">18</text><text fill="#000000" font-family="sans-serif" font-size="13" lengthAdjust="spacing" textLength="280" x="125.5" y="678.4326">Shows all the AGVDocks and asks to insert one</text><polygon fill="#A80036" points="400.5,709.6406,410.5,713.6406,400.5,717.6406,404.5,713.6406" style="stroke:#A80036;stroke-width:1.0;"/><line style="stroke:#A80036;stroke-width:1.0;" x1="90.5" x2="406.5" y1="713.6406" y2="713.6406"/><text fill="#000000" font-family="sans-serif" font-size="13" font-weight="bold" lengthAdjust="spacing" textLength="14" x="97.5" y="708.7842">19</text><text fill="#000000" font-family="sans-serif" font-size="13" lengthAdjust="spacing" textLength="218" x="115.5" y="708.7842">Inserts the identifier of the AGVDocks</text><polygon fill="#A80036" points="101.5,739.9922,91.5,743.9922,101.5,747.9922,97.5,743.9922" style="stroke:#A80036;stroke-width:1.0;"/><line style="stroke:#A80036;stroke-width:1.0;" x1="95.5" x2="411.5" y1="743.9922" y2="743.9922"/><text fill="#000000" font-family="sans-serif" font-size="13" font-weight="bold" lengthAdjust="spacing" textLength="14" x="107.5" y="739.1357">20</text><text fill="#000000" font-family="sans-serif" font-size="13" lengthAdjust="spacing" textLength="103" x="125.5" y="739.1357">Successful action</text><!--MD5=[3d0c9c946178ce215b416bf4be15df69]
@startuml

autonumber

actor WarehouseEmployee

WarehouseEmployee -> System : Wants to configure an AGV
System -> System : Checks if the warehouse has an AGV Dock without an AGV

group if the agv docks all already occupied
System -> WarehouseEmployee : Shows all the AGVs and asks to select one
end

System -> WarehouseEmployee : Asks for an identifier
WarehouseEmployee -> System : Inserts an identifier
System -> WarehouseEmployee : Asks for a short description
WarehouseEmployee -> System : Inserts the short description
System -> WarehouseEmployee : Asks for the model
WarehouseEmployee -> System : Inserts the model of the AGV
System -> WarehouseEmployee : Asks for the maxWeight
WarehouseEmployee -> System : Inserts the maxWeight of the AGV
System -> WarehouseEmployee : Asks for the maxVolume
WarehouseEmployee -> System : Inserts the maxVolume of the AGV
System -> WarehouseEmployee : Asks for the status of the AGV
WarehouseEmployee -> System : Inserts the status of the AGV
System -> WarehouseEmployee : Asks for the autonomy in minutes
WarehouseEmployee -> System : Inserts the autonomy is minutes
System -> WarehouseEmployee : Shows all the AGVDocks and asks to insert one
WarehouseEmployee -> System : Inserts the identifier of the AGVDocks
System -> WarehouseEmployee : Successful action



@enduml

PlantUML version 1.2021.11(Sat Oct 02 14:26:11 BST 2021)
(GPL source distribution)
Java Runtime: OpenJDK Runtime Environment
JVM: OpenJDK 64-Bit Server VM
Default Encoding: Cp1252
Language: pt
Country: PT
--></g></svg>