<?xml version="1.0" encoding="UTF-8" standalone="no"?><svg xmlns="http://www.w3.org/2000/svg" xmlns:xlink="http://www.w3.org/1999/xlink" contentScriptType="application/ecmascript" contentStyleType="text/css" height="680px" preserveAspectRatio="none" style="width:361px;height:680px;background:#FFFFFF;" version="1.1" viewBox="0 0 361 680" width="361px" zoomAndPan="magnify"><defs><filter height="300%" id="f1pnpyn59q0tit" width="300%" x="-1" y="-1"><feGaussianBlur result="blurOut" stdDeviation="2.0"/><feColorMatrix in="blurOut" result="blurOut2" type="matrix" values="0 0 0 0 0 0 0 0 0 0 0 0 0 0 0 0 0 0 .4 0"/><feOffset dx="4.0" dy="4.0" in="blurOut2" result="blurOut3"/><feBlend in="SourceGraphic" in2="blurOut3" mode="normal"/></filter></defs><g><line style="stroke:#A80036;stroke-width:1.0;stroke-dasharray:5.0,5.0;" x1="75" x2="75" y1="89.6094" y2="595.2344"/><line style="stroke:#A80036;stroke-width:1.0;stroke-dasharray:5.0,5.0;" x1="319.5" x2="319.5" y1="89.6094" y2="595.2344"/><text fill="#000000" font-family="sans-serif" font-size="14" lengthAdjust="spacing" textLength="135" x="5" y="86.5332">WarehouseEmployee</text><ellipse cx="75.5" cy="15" fill="#FEFECE" filter="url(#f1pnpyn59q0tit)" rx="8" ry="8" style="stroke:#A80036;stroke-width:2.0;"/><path d="M75.5,23 L75.5,50 M62.5,31 L88.5,31 M75.5,50 L62.5,65 M75.5,50 L88.5,65 " fill="none" filter="url(#f1pnpyn59q0tit)" style="stroke:#A80036;stroke-width:2.0;"/><text fill="#000000" font-family="sans-serif" font-size="14" lengthAdjust="spacing" textLength="135" x="5" y="608.7676">WarehouseEmployee</text><ellipse cx="75.5" cy="621.8438" fill="#FEFECE" filter="url(#f1pnpyn59q0tit)" rx="8" ry="8" style="stroke:#A80036;stroke-width:2.0;"/><path d="M75.5,629.8438 L75.5,656.8438 M62.5,637.8438 L88.5,637.8438 M75.5,656.8438 L62.5,671.8438 M75.5,656.8438 L88.5,671.8438 " fill="none" filter="url(#f1pnpyn59q0tit)" style="stroke:#A80036;stroke-width:2.0;"/><rect fill="#FEFECE" filter="url(#f1pnpyn59q0tit)" height="31.6094" style="stroke:#A80036;stroke-width:1.5;" width="60" x="287.5" y="53"/><text fill="#000000" font-family="sans-serif" font-size="14" lengthAdjust="spacing" textLength="46" x="294.5" y="74.5332">System</text><rect fill="#FEFECE" filter="url(#f1pnpyn59q0tit)" height="31.6094" style="stroke:#A80036;stroke-width:1.5;" width="60" x="287.5" y="594.2344"/><text fill="#000000" font-family="sans-serif" font-size="14" lengthAdjust="spacing" textLength="46" x="294.5" y="615.7676">System</text><polygon fill="#A80036" points="307.5,117.9609,317.5,121.9609,307.5,125.9609,311.5,121.9609" style="stroke:#A80036;stroke-width:1.0;"/><line style="stroke:#A80036;stroke-width:1.0;" x1="75.5" x2="313.5" y1="121.9609" y2="121.9609"/><text fill="#000000" font-family="sans-serif" font-size="13" font-weight="bold" lengthAdjust="spacing" textLength="7" x="82.5" y="117.1045">1</text><text fill="#000000" font-family="sans-serif" font-size="13" lengthAdjust="spacing" textLength="159" x="93.5" y="117.1045">Wants to configure an AGV</text><polygon fill="#A80036" points="86.5,148.3125,76.5,152.3125,86.5,156.3125,82.5,152.3125" style="stroke:#A80036;stroke-width:1.0;"/><line style="stroke:#A80036;stroke-width:1.0;" x1="80.5" x2="318.5" y1="152.3125" y2="152.3125"/><text fill="#000000" font-family="sans-serif" font-size="13" font-weight="bold" lengthAdjust="spacing" textLength="7" x="92.5" y="147.4561">2</text><text fill="#000000" font-family="sans-serif" font-size="13" lengthAdjust="spacing" textLength="118" x="103.5" y="147.4561">Asks for an identifier</text><polygon fill="#A80036" points="307.5,178.6641,317.5,182.6641,307.5,186.6641,311.5,182.6641" style="stroke:#A80036;stroke-width:1.0;"/><line style="stroke:#A80036;stroke-width:1.0;" x1="75.5" x2="313.5" y1="182.6641" y2="182.6641"/><text fill="#000000" font-family="sans-serif" font-size="13" font-weight="bold" lengthAdjust="spacing" textLength="7" x="82.5" y="177.8076">3</text><text fill="#000000" font-family="sans-serif" font-size="13" lengthAdjust="spacing" textLength="109" x="93.5" y="177.8076">Inserts an identifier</text><polygon fill="#A80036" points="86.5,209.0156,76.5,213.0156,86.5,217.0156,82.5,213.0156" style="stroke:#A80036;stroke-width:1.0;"/><line style="stroke:#A80036;stroke-width:1.0;" x1="80.5" x2="318.5" y1="213.0156" y2="213.0156"/><text fill="#000000" font-family="sans-serif" font-size="13" font-weight="bold" lengthAdjust="spacing" textLength="7" x="92.5" y="208.1592">4</text><text fill="#000000" font-family="sans-serif" font-size="13" lengthAdjust="spacing" textLength="159" x="103.5" y="208.1592">Asks for a short description</text><polygon fill="#A80036" points="307.5,239.3672,317.5,243.3672,307.5,247.3672,311.5,243.3672" style="stroke:#A80036;stroke-width:1.0;"/><line style="stroke:#A80036;stroke-width:1.0;" x1="75.5" x2="313.5" y1="243.3672" y2="243.3672"/><text fill="#000000" font-family="sans-serif" font-size="13" font-weight="bold" lengthAdjust="spacing" textLength="7" x="82.5" y="238.5107">5</text><text fill="#000000" font-family="sans-serif" font-size="13" lengthAdjust="spacing" textLength="161" x="93.5" y="238.5107">Inserts the short description</text><polygon fill="#A80036" points="86.5,269.7188,76.5,273.7188,86.5,277.7188,82.5,273.7188" style="stroke:#A80036;stroke-width:1.0;"/><line style="stroke:#A80036;stroke-width:1.0;" x1="80.5" x2="318.5" y1="273.7188" y2="273.7188"/><text fill="#000000" font-family="sans-serif" font-size="13" font-weight="bold" lengthAdjust="spacing" textLength="7" x="92.5" y="268.8623">6</text><text fill="#000000" font-family="sans-serif" font-size="13" lengthAdjust="spacing" textLength="109" x="103.5" y="268.8623">Asks for the model</text><polygon fill="#A80036" points="307.5,300.0703,317.5,304.0703,307.5,308.0703,311.5,304.0703" style="stroke:#A80036;stroke-width:1.0;"/><line style="stroke:#A80036;stroke-width:1.0;" x1="75.5" x2="313.5" y1="304.0703" y2="304.0703"/><text fill="#000000" font-family="sans-serif" font-size="13" font-weight="bold" lengthAdjust="spacing" textLength="7" x="82.5" y="299.2139">7</text><text fill="#000000" font-family="sans-serif" font-size="13" lengthAdjust="spacing" textLength="168" x="93.5" y="299.2139">Inserts the model of the AGV</text><polygon fill="#A80036" points="86.5,330.4219,76.5,334.4219,86.5,338.4219,82.5,334.4219" style="stroke:#A80036;stroke-width:1.0;"/><line style="stroke:#A80036;stroke-width:1.0;" x1="80.5" x2="318.5" y1="334.4219" y2="334.4219"/><text fill="#000000" font-family="sans-serif" font-size="13" font-weight="bold" lengthAdjust="spacing" textLength="7" x="92.5" y="329.5654">8</text><text fill="#000000" font-family="sans-serif" font-size="13" lengthAdjust="spacing" textLength="140" x="103.5" y="329.5654">Asks for the maxWeight</text><polygon fill="#A80036" points="307.5,360.7734,317.5,364.7734,307.5,368.7734,311.5,364.7734" style="stroke:#A80036;stroke-width:1.0;"/><line style="stroke:#A80036;stroke-width:1.0;" x1="75.5" x2="313.5" y1="364.7734" y2="364.7734"/><text fill="#000000" font-family="sans-serif" font-size="13" font-weight="bold" lengthAdjust="spacing" textLength="7" x="82.5" y="359.917">9</text><text fill="#000000" font-family="sans-serif" font-size="13" lengthAdjust="spacing" textLength="199" x="93.5" y="359.917">Inserts the maxWeight of the AGV</text><polygon fill="#A80036" points="86.5,391.125,76.5,395.125,86.5,399.125,82.5,395.125" style="stroke:#A80036;stroke-width:1.0;"/><line style="stroke:#A80036;stroke-width:1.0;" x1="80.5" x2="318.5" y1="395.125" y2="395.125"/><text fill="#000000" font-family="sans-serif" font-size="13" font-weight="bold" lengthAdjust="spacing" textLength="14" x="92.5" y="390.2686">10</text><text fill="#000000" font-family="sans-serif" font-size="13" lengthAdjust="spacing" textLength="143" x="110.5" y="390.2686">Asks for the maxVolume</text><polygon fill="#A80036" points="307.5,421.4766,317.5,425.4766,307.5,429.4766,311.5,425.4766" style="stroke:#A80036;stroke-width:1.0;"/><line style="stroke:#A80036;stroke-width:1.0;" x1="75.5" x2="313.5" y1="425.4766" y2="425.4766"/><text fill="#000000" font-family="sans-serif" font-size="13" font-weight="bold" lengthAdjust="spacing" textLength="14" x="82.5" y="420.6201">11</text><text fill="#000000" font-family="sans-serif" font-size="13" lengthAdjust="spacing" textLength="202" x="100.5" y="420.6201">Inserts the maxVolume of the AGV</text><polygon fill="#A80036" points="86.5,451.8281,76.5,455.8281,86.5,459.8281,82.5,455.8281" style="stroke:#A80036;stroke-width:1.0;"/><line style="stroke:#A80036;stroke-width:1.0;" x1="80.5" x2="318.5" y1="455.8281" y2="455.8281"/><text fill="#000000" font-family="sans-serif" font-size="13" font-weight="bold" lengthAdjust="spacing" textLength="14" x="92.5" y="450.9717">12</text><text fill="#000000" font-family="sans-serif" font-size="13" lengthAdjust="spacing" textLength="178" x="110.5" y="450.9717">Asks for the status of the AGV</text><polygon fill="#A80036" points="307.5,482.1797,317.5,486.1797,307.5,490.1797,311.5,486.1797" style="stroke:#A80036;stroke-width:1.0;"/><line style="stroke:#A80036;stroke-width:1.0;" x1="75.5" x2="313.5" y1="486.1797" y2="486.1797"/><text fill="#000000" font-family="sans-serif" font-size="13" font-weight="bold" lengthAdjust="spacing" textLength="14" x="82.5" y="481.3232">13</text><text fill="#000000" font-family="sans-serif" font-size="13" lengthAdjust="spacing" textLength="169" x="100.5" y="481.3232">Inserts the status of the AGV</text><polygon fill="#A80036" points="86.5,512.5313,76.5,516.5313,86.5,520.5313,82.5,516.5313" style="stroke:#A80036;stroke-width:1.0;"/><line style="stroke:#A80036;stroke-width:1.0;" x1="80.5" x2="318.5" y1="516.5313" y2="516.5313"/><text fill="#000000" font-family="sans-serif" font-size="13" font-weight="bold" lengthAdjust="spacing" textLength="14" x="92.5" y="511.6748">14</text><text fill="#000000" font-family="sans-serif" font-size="13" lengthAdjust="spacing" textLength="195" x="110.5" y="511.6748">Asks for the autonomy in minutes</text><polygon fill="#A80036" points="307.5,542.8828,317.5,546.8828,307.5,550.8828,311.5,546.8828" style="stroke:#A80036;stroke-width:1.0;"/><line style="stroke:#A80036;stroke-width:1.0;" x1="75.5" x2="313.5" y1="546.8828" y2="546.8828"/><text fill="#000000" font-family="sans-serif" font-size="13" font-weight="bold" lengthAdjust="spacing" textLength="14" x="82.5" y="542.0264">15</text><text fill="#000000" font-family="sans-serif" font-size="13" lengthAdjust="spacing" textLength="186" x="100.5" y="542.0264">Inserts the autonomy is minutes</text><polygon fill="#A80036" points="86.5,573.2344,76.5,577.2344,86.5,581.2344,82.5,577.2344" style="stroke:#A80036;stroke-width:1.0;"/><line style="stroke:#A80036;stroke-width:1.0;" x1="80.5" x2="318.5" y1="577.2344" y2="577.2344"/><text fill="#000000" font-family="sans-serif" font-size="13" font-weight="bold" lengthAdjust="spacing" textLength="14" x="92.5" y="572.3779">16</text><text fill="#000000" font-family="sans-serif" font-size="13" lengthAdjust="spacing" textLength="103" x="110.5" y="572.3779">Successful action</text><!--MD5=[515e1e118dfe1e3bd38ecbe578b41d33]
@startuml

autonumber

actor WarehouseEmployee

WarehouseEmployee -> System : Wants to configure an AGV
System -> WarehouseEmployee : Asks for an identifier
WarehouseEmployee -> System : Inserts an identifier
System -> WarehouseEmployee : Asks for a short description
WarehouseEmployee -> System : Inserts the short description
System -> WarehouseEmployee : Asks for the model
WarehouseEmployee -> System : Inserts the model of the AGV
System -> WarehouseEmployee : Asks for the maxWeight
WarehouseEmployee -> System : Inserts the maxWeight of the AGV
System -> WarehouseEmployee : Asks for the maxVolume
WarehouseEmployee -> System : Inserts the maxVolume of the AGV
System -> WarehouseEmployee : Asks for the status of the AGV
WarehouseEmployee -> System : Inserts the status of the AGV
System -> WarehouseEmployee : Asks for the autonomy in minutes
WarehouseEmployee -> System : Inserts the autonomy is minutes
System -> WarehouseEmployee : Successful action

@enduml

PlantUML version 1.2021.11(Sat Oct 02 14:26:11 BST 2021)
(GPL source distribution)
Java Runtime: OpenJDK Runtime Environment
JVM: OpenJDK 64-Bit Server VM
Default Encoding: Cp1252
Language: pt
Country: PT
--></g></svg>