<?xml version="1.0" encoding="UTF-8" standalone="no"?><svg xmlns="http://www.w3.org/2000/svg" xmlns:xlink="http://www.w3.org/1999/xlink" contentScriptType="application/ecmascript" contentStyleType="text/css" height="533px" preserveAspectRatio="none" style="width:615px;height:533px;background:#FFFFFF;" version="1.1" viewBox="0 0 615 533" width="615px" zoomAndPan="magnify"><defs><filter height="300%" id="fpowfk8w5s5k5" width="300%" x="-1" y="-1"><feGaussianBlur result="blurOut" stdDeviation="2.0"/><feColorMatrix in="blurOut" result="blurOut2" type="matrix" values="0 0 0 0 0 0 0 0 0 0 0 0 0 0 0 0 0 0 .4 0"/><feOffset dx="4.0" dy="4.0" in="blurOut2" result="blurOut3"/><feBlend in="SourceGraphic" in2="blurOut3" mode="normal"/></filter></defs><g><rect fill="#FFFFFF" filter="url(#fpowfk8w5s5k5)" height="79.0547" style="stroke:#000000;stroke-width:2.0;" width="591" x="10" y="197.6641"/><rect fill="#FFFFFF" filter="url(#fpowfk8w5s5k5)" height="139.7578" style="stroke:#000000;stroke-width:2.0;" width="591" x="10" y="290.7188"/><line style="stroke:#A80036;stroke-width:1.0;stroke-dasharray:5.0,5.0;" x1="57" x2="57" y1="89.6094" y2="447.4766"/><line style="stroke:#A80036;stroke-width:1.0;stroke-dasharray:5.0,5.0;" x1="559" x2="559" y1="89.6094" y2="447.4766"/><text fill="#000000" font-family="sans-serif" font-size="14" lengthAdjust="spacing" textLength="68" x="20" y="86.5332">SalesClerk</text><ellipse cx="57" cy="15" fill="#FEFECE" filter="url(#fpowfk8w5s5k5)" rx="8" ry="8" style="stroke:#A80036;stroke-width:2.0;"/><path d="M57,23 L57,50 M44,31 L70,31 M57,50 L44,65 M57,50 L70,65 " fill="none" filter="url(#fpowfk8w5s5k5)" style="stroke:#A80036;stroke-width:2.0;"/><text fill="#000000" font-family="sans-serif" font-size="14" lengthAdjust="spacing" textLength="68" x="20" y="461.0098">SalesClerk</text><ellipse cx="57" cy="474.0859" fill="#FEFECE" filter="url(#fpowfk8w5s5k5)" rx="8" ry="8" style="stroke:#A80036;stroke-width:2.0;"/><path d="M57,482.0859 L57,509.0859 M44,490.0859 L70,490.0859 M57,509.0859 L44,524.0859 M57,509.0859 L70,524.0859 " fill="none" filter="url(#fpowfk8w5s5k5)" style="stroke:#A80036;stroke-width:2.0;"/><rect fill="#FEFECE" filter="url(#fpowfk8w5s5k5)" height="31.6094" style="stroke:#A80036;stroke-width:1.5;" width="60" x="527" y="53"/><text fill="#000000" font-family="sans-serif" font-size="14" lengthAdjust="spacing" textLength="46" x="534" y="74.5332">System</text><rect fill="#FEFECE" filter="url(#fpowfk8w5s5k5)" height="31.6094" style="stroke:#A80036;stroke-width:1.5;" width="60" x="527" y="446.4766"/><text fill="#000000" font-family="sans-serif" font-size="14" lengthAdjust="spacing" textLength="46" x="534" y="468.0098">System</text><polygon fill="#A80036" points="547,117.9609,557,121.9609,547,125.9609,551,121.9609" style="stroke:#A80036;stroke-width:1.0;"/><line style="stroke:#A80036;stroke-width:1.0;" x1="57" x2="553" y1="121.9609" y2="121.9609"/><text fill="#000000" font-family="sans-serif" font-size="13" font-weight="bold" lengthAdjust="spacing" textLength="7" x="64" y="117.1045">1</text><text fill="#000000" font-family="sans-serif" font-size="13" lengthAdjust="spacing" textLength="467" x="75" y="117.1045">Update the status of dispatched orders to "Being delivered" for customer delivery.</text><polygon fill="#A80036" points="68,148.3125,58,152.3125,68,156.3125,64,152.3125" style="stroke:#A80036;stroke-width:1.0;"/><line style="stroke:#A80036;stroke-width:1.0;stroke-dasharray:2.0,2.0;" x1="62" x2="558" y1="152.3125" y2="152.3125"/><text fill="#000000" font-family="sans-serif" font-size="13" font-weight="bold" lengthAdjust="spacing" textLength="7" x="74" y="147.4561">2</text><text fill="#000000" font-family="sans-serif" font-size="13" lengthAdjust="spacing" textLength="237" x="85" y="147.4561">Shows all the orders that are dispatched.</text><polygon fill="#A80036" points="68,178.6641,58,182.6641,68,186.6641,64,182.6641" style="stroke:#A80036;stroke-width:1.0;"/><line style="stroke:#A80036;stroke-width:1.0;stroke-dasharray:2.0,2.0;" x1="62" x2="558" y1="182.6641" y2="182.6641"/><text fill="#000000" font-family="sans-serif" font-size="13" font-weight="bold" lengthAdjust="spacing" textLength="7" x="74" y="177.8076">3</text><text fill="#000000" font-family="sans-serif" font-size="13" lengthAdjust="spacing" textLength="298" x="85" y="177.8076">Asks if he wants to change one order or all of them.</text><path d="M10,197.6641 L113,197.6641 L113,205.6641 L103,215.6641 L10,215.6641 L10,197.6641 " fill="#EEEEEE" style="stroke:#000000;stroke-width:1.0;"/><rect fill="none" height="79.0547" style="stroke:#000000;stroke-width:2.0;" width="591" x="10" y="197.6641"/><text fill="#000000" font-family="sans-serif" font-size="13" font-weight="bold" lengthAdjust="spacing" textLength="58" x="25" y="212.1592">allOrders</text><polygon fill="#A80036" points="547,234.3672,557,238.3672,547,242.3672,551,238.3672" style="stroke:#A80036;stroke-width:1.0;"/><line style="stroke:#A80036;stroke-width:1.0;stroke-dasharray:2.0,2.0;" x1="57" x2="553" y1="238.3672" y2="238.3672"/><text fill="#000000" font-family="sans-serif" font-size="13" font-weight="bold" lengthAdjust="spacing" textLength="7" x="64" y="233.5107">4</text><text fill="#000000" font-family="sans-serif" font-size="13" lengthAdjust="spacing" textLength="101" x="75" y="233.5107">Selects all orders</text><polygon fill="#A80036" points="68,264.7188,58,268.7188,68,272.7188,64,268.7188" style="stroke:#A80036;stroke-width:1.0;"/><line style="stroke:#A80036;stroke-width:1.0;stroke-dasharray:2.0,2.0;" x1="62" x2="558" y1="268.7188" y2="268.7188"/><text fill="#000000" font-family="sans-serif" font-size="13" font-weight="bold" lengthAdjust="spacing" textLength="7" x="74" y="263.8623">5</text><text fill="#000000" font-family="sans-serif" font-size="13" lengthAdjust="spacing" textLength="234" x="85" y="263.8623">All the orders are modified in their status</text><path d="M10,290.7188 L115,290.7188 L115,298.7188 L105,308.7188 L10,308.7188 L10,290.7188 " fill="#EEEEEE" style="stroke:#000000;stroke-width:1.0;"/><rect fill="none" height="139.7578" style="stroke:#000000;stroke-width:2.0;" width="591" x="10" y="290.7188"/><text fill="#000000" font-family="sans-serif" font-size="13" font-weight="bold" lengthAdjust="spacing" textLength="60" x="25" y="305.2139">oneOrder</text><polygon fill="#A80036" points="547,327.4219,557,331.4219,547,335.4219,551,331.4219" style="stroke:#A80036;stroke-width:1.0;"/><line style="stroke:#A80036;stroke-width:1.0;stroke-dasharray:2.0,2.0;" x1="57" x2="553" y1="331.4219" y2="331.4219"/><text fill="#000000" font-family="sans-serif" font-size="13" font-weight="bold" lengthAdjust="spacing" textLength="7" x="64" y="326.5654">6</text><text fill="#000000" font-family="sans-serif" font-size="13" lengthAdjust="spacing" textLength="102" x="75" y="326.5654">Selects one order</text><polygon fill="#A80036" points="68,357.7734,58,361.7734,68,365.7734,64,361.7734" style="stroke:#A80036;stroke-width:1.0;"/><line style="stroke:#A80036;stroke-width:1.0;stroke-dasharray:2.0,2.0;" x1="62" x2="558" y1="361.7734" y2="361.7734"/><text fill="#000000" font-family="sans-serif" font-size="13" font-weight="bold" lengthAdjust="spacing" textLength="7" x="74" y="356.917">7</text><text fill="#000000" font-family="sans-serif" font-size="13" lengthAdjust="spacing" textLength="192" x="85" y="356.917">Asks to choose one of the orders</text><polygon fill="#A80036" points="547,388.125,557,392.125,547,396.125,551,392.125" style="stroke:#A80036;stroke-width:1.0;"/><line style="stroke:#A80036;stroke-width:1.0;stroke-dasharray:2.0,2.0;" x1="57" x2="553" y1="392.125" y2="392.125"/><text fill="#000000" font-family="sans-serif" font-size="13" font-weight="bold" lengthAdjust="spacing" textLength="7" x="64" y="387.2686">8</text><text fill="#000000" font-family="sans-serif" font-size="13" lengthAdjust="spacing" textLength="256" x="75" y="387.2686">Selects the order he wants to change status</text><polygon fill="#A80036" points="68,418.4766,58,422.4766,68,426.4766,64,422.4766" style="stroke:#A80036;stroke-width:1.0;"/><line style="stroke:#A80036;stroke-width:1.0;stroke-dasharray:2.0,2.0;" x1="62" x2="558" y1="422.4766" y2="422.4766"/><text fill="#000000" font-family="sans-serif" font-size="13" font-weight="bold" lengthAdjust="spacing" textLength="7" x="74" y="417.6201">9</text><text fill="#000000" font-family="sans-serif" font-size="13" lengthAdjust="spacing" textLength="135" x="85" y="417.6201">Informs that is changed</text><!--MD5=[82d41b3bb7909ae4c8f6a9b061370338]
@startuml
'https://plantuml.com/sequence-diagram

autonumber

actor SalesClerk

SalesClerk -> System : Update the status of dispatched orders to "Being delivered" for customer delivery.
System - -> SalesClerk : Shows all the orders that are dispatched.
System - -> SalesClerk : Asks if he wants to change one order or all of them.
group allOrders
   SalesClerk - -> System : Selects all orders
   System - -> SalesClerk : All the orders are modified in their status
end

group oneOrder
    SalesClerk - -> System : Selects one order
    System - -> SalesClerk : Asks to choose one of the orders
    SalesClerk - -> System : Selects the order he wants to change status
    System - -> SalesClerk : Informs that is changed
end

@enduml

@startuml

autonumber

actor SalesClerk

SalesClerk -> System : Update the status of dispatched orders to "Being delivered" for customer delivery.
System - -> SalesClerk : Shows all the orders that are dispatched.
System - -> SalesClerk : Asks if he wants to change one order or all of them.
group allOrders
   SalesClerk - -> System : Selects all orders
   System - -> SalesClerk : All the orders are modified in their status
end

group oneOrder
    SalesClerk - -> System : Selects one order
    System - -> SalesClerk : Asks to choose one of the orders
    SalesClerk - -> System : Selects the order he wants to change status
    System - -> SalesClerk : Informs that is changed
end

@enduml

PlantUML version 1.2021.11(Sat Oct 02 14:26:11 BST 2021)
(GPL source distribution)
Java Runtime: OpenJDK Runtime Environment
JVM: OpenJDK 64-Bit Server VM
Default Encoding: Cp1252
Language: pt
Country: PT
--></g></svg>