<?xml version="1.0" encoding="UTF-8" standalone="no"?><svg xmlns="http://www.w3.org/2000/svg" xmlns:xlink="http://www.w3.org/1999/xlink" contentScriptType="application/ecmascript" contentStyleType="text/css" height="368px" preserveAspectRatio="none" style="width:1013px;height:368px;background:#FFFFFF;" version="1.1" viewBox="0 0 1013 368" width="1013px" zoomAndPan="magnify"><defs><filter height="300%" id="f1nhhynppdbvfu" width="300%" x="-1" y="-1"><feGaussianBlur result="blurOut" stdDeviation="2.0"/><feColorMatrix in="blurOut" result="blurOut2" type="matrix" values="0 0 0 0 0 0 0 0 0 0 0 0 0 0 0 0 0 0 .4 0"/><feOffset dx="4.0" dy="4.0" in="blurOut2" result="blurOut3"/><feBlend in="SourceGraphic" in2="blurOut3" mode="normal"/></filter></defs><g><!--MD5=[b8b89cb2238020f68a33781aa3c26b69]
class BaseBackoffice--><rect codeLine="2" fill="#FEFECE" filter="url(#f1nhhynppdbvfu)" height="61.8359" id="BaseBackoffice" style="stroke:#A80036;stroke-width:1.5;" width="117" x="7" y="27.5"/><ellipse cx="22" cy="43.5" fill="#ADD1B2" rx="11" ry="11" style="stroke:#A80036;stroke-width:1.0;"/><path d="M24,40 Q24.2031,39.5 24.4375,39.25 Q24.6719,39 24.9375,39 Q25.4063,39 25.7031,39.2813 Q26,39.5625 26,40.2188 L26,41.7813 Q26,42.4375 25.7188,42.7188 Q25.4375,43 25,43 Q24.6094,43 24.3594,42.8281 Q24.1094,42.6563 24,42.2031 Q23.9531,41.8906 23.7813,41.7188 Q23.4688,41.3906 22.9063,41.2031 Q22.3438,41 21.7813,41 Q21.0781,41 20.4844,41.2813 Q19.9063,41.5625 19.4531,42.1875 Q19,42.8125 19,43.6719 L19,44.5938 Q19,45.625 19.8438,46.3125 Q20.6875,47 22.1875,47 Q23.0781,47 23.7031,46.7969 Q24.0625,46.6875 24.4688,46.3281 Q24.7344,46.125 24.875,46.0625 Q25.0156,46 25.1875,46 Q25.5156,46 25.75,46.2656 Q26,46.5156 26,46.875 Q26,47.2188 25.6563,47.625 Q25.1563,48.2188 24.3594,48.5469 Q23.3125,49 22.0313,49 Q20.5313,49 19.3281,48.4063 Q18.3594,47.9375 17.6719,46.9219 Q17,45.9063 17,44.7031 L17,43.6094 Q17,42.3594 17.5938,41.2656 Q18.2031,40.1719 19.25,39.5938 Q20.3125,39 21.5,39 Q22.2188,39 22.8438,39.25 Q23.4688,39.5 24,40 Z " fill="#000000"/><text fill="#000000" font-family="sans-serif" font-size="12" lengthAdjust="spacing" textLength="85" x="36" y="48.4102">BaseBackoffice</text><line style="stroke:#A80036;stroke-width:1.5;" x1="8" x2="123" y1="59.5" y2="59.5"/><rect fill="none" height="6" style="stroke:#C82930;stroke-width:1.0;" width="6" x="15" y="67.5"/><text fill="#000000" font-family="sans-serif" font-size="11" lengthAdjust="spacing" textLength="77" x="27" y="74.9189">MainMenu menu</text><line style="stroke:#A80036;stroke-width:1.5;" x1="8" x2="123" y1="81.3359" y2="81.3359"/><!--MD5=[33cc16de446f9e2c8c70651e1707c750]
class ChangeOrderToBeingDeliveredUI--><rect codeLine="6" fill="#FEFECE" filter="url(#f1nhhynppdbvfu)" height="61.8359" id="ChangeOrderToBeingDeliveredUI" style="stroke:#A80036;stroke-width:1.5;" width="407" x="159" y="27.5"/><ellipse cx="265.75" cy="43.5" fill="#ADD1B2" rx="11" ry="11" style="stroke:#A80036;stroke-width:1.0;"/><path d="M267.75,40 Q267.9531,39.5 268.1875,39.25 Q268.4219,39 268.6875,39 Q269.1563,39 269.4531,39.2813 Q269.75,39.5625 269.75,40.2188 L269.75,41.7813 Q269.75,42.4375 269.4688,42.7188 Q269.1875,43 268.75,43 Q268.3594,43 268.1094,42.8281 Q267.8594,42.6563 267.75,42.2031 Q267.7031,41.8906 267.5313,41.7188 Q267.2188,41.3906 266.6563,41.2031 Q266.0938,41 265.5313,41 Q264.8281,41 264.2344,41.2813 Q263.6563,41.5625 263.2031,42.1875 Q262.75,42.8125 262.75,43.6719 L262.75,44.5938 Q262.75,45.625 263.5938,46.3125 Q264.4375,47 265.9375,47 Q266.8281,47 267.4531,46.7969 Q267.8125,46.6875 268.2188,46.3281 Q268.4844,46.125 268.625,46.0625 Q268.7656,46 268.9375,46 Q269.2656,46 269.5,46.2656 Q269.75,46.5156 269.75,46.875 Q269.75,47.2188 269.4063,47.625 Q268.9063,48.2188 268.1094,48.5469 Q267.0625,49 265.7813,49 Q264.2813,49 263.0781,48.4063 Q262.1094,47.9375 261.4219,46.9219 Q260.75,45.9063 260.75,44.7031 L260.75,43.6094 Q260.75,42.3594 261.3438,41.2656 Q261.9531,40.1719 263,39.5938 Q264.0625,39 265.25,39 Q265.9688,39 266.5938,39.25 Q267.2188,39.5 267.75,40 Z " fill="#000000"/><text fill="#000000" font-family="sans-serif" font-size="12" lengthAdjust="spacing" textLength="185" x="286.25" y="48.4102">ChangeOrderToBeingDeliveredUI</text><line style="stroke:#A80036;stroke-width:1.5;" x1="160" x2="565" y1="59.5" y2="59.5"/><text fill="#000000" font-family="sans-serif" font-size="11" lengthAdjust="spacing" textLength="395" x="165" y="74.9189">ChangeOrderToBeingDeliveredController changeOrderToBeingDeliveredController;</text><line style="stroke:#A80036;stroke-width:1.5;" x1="160" x2="565" y1="81.3359" y2="81.3359"/><!--MD5=[55bb1c08ff4f0f21f791c7c9adebf052]
class ChangeOrderToBeingDeliveredController--><rect codeLine="10" fill="#FEFECE" filter="url(#f1nhhynppdbvfu)" height="103.3438" id="ChangeOrderToBeingDeliveredController" style="stroke:#A80036;stroke-width:1.5;" width="327" x="601" y="7"/><ellipse cx="646.75" cy="23" fill="#ADD1B2" rx="11" ry="11" style="stroke:#A80036;stroke-width:1.0;"/><path d="M648.75,19.5 Q648.9531,19 649.1875,18.75 Q649.4219,18.5 649.6875,18.5 Q650.1563,18.5 650.4531,18.7813 Q650.75,19.0625 650.75,19.7188 L650.75,21.2813 Q650.75,21.9375 650.4688,22.2188 Q650.1875,22.5 649.75,22.5 Q649.3594,22.5 649.1094,22.3281 Q648.8594,22.1563 648.75,21.7031 Q648.7031,21.3906 648.5313,21.2188 Q648.2188,20.8906 647.6563,20.7031 Q647.0938,20.5 646.5313,20.5 Q645.8281,20.5 645.2344,20.7813 Q644.6563,21.0625 644.2031,21.6875 Q643.75,22.3125 643.75,23.1719 L643.75,24.0938 Q643.75,25.125 644.5938,25.8125 Q645.4375,26.5 646.9375,26.5 Q647.8281,26.5 648.4531,26.2969 Q648.8125,26.1875 649.2188,25.8281 Q649.4844,25.625 649.625,25.5625 Q649.7656,25.5 649.9375,25.5 Q650.2656,25.5 650.5,25.7656 Q650.75,26.0156 650.75,26.375 Q650.75,26.7188 650.4063,27.125 Q649.9063,27.7188 649.1094,28.0469 Q648.0625,28.5 646.7813,28.5 Q645.2813,28.5 644.0781,27.9063 Q643.1094,27.4375 642.4219,26.4219 Q641.75,25.4063 641.75,24.2031 L641.75,23.1094 Q641.75,21.8594 642.3438,20.7656 Q642.9531,19.6719 644,19.0938 Q645.0625,18.5 646.25,18.5 Q646.9688,18.5 647.5938,18.75 Q648.2188,19 648.75,19.5 Z " fill="#000000"/><text fill="#000000" font-family="sans-serif" font-size="12" lengthAdjust="spacing" textLength="227" x="667.25" y="27.9102">ChangeOrderToBeingDeliveredController</text><line style="stroke:#A80036;stroke-width:1.5;" x1="602" x2="927" y1="39" y2="39"/><rect fill="none" height="6" style="stroke:#C82930;stroke-width:1.0;" width="6" x="609" y="47"/><text fill="#000000" font-family="sans-serif" font-size="11" lengthAdjust="spacing" textLength="131" x="621" y="54.4189">AuthorizationService authz</text><rect fill="none" height="6" style="stroke:#C82930;stroke-width:1.0;" width="6" x="609" y="60.8359"/><text fill="#000000" font-family="sans-serif" font-size="11" lengthAdjust="spacing" textLength="120" x="621" y="68.2549">SystemUser currentUser</text><rect fill="none" height="6" style="stroke:#C82930;stroke-width:1.0;" width="6" x="609" y="74.6719"/><text fill="#000000" font-family="sans-serif" font-size="11" lengthAdjust="spacing" textLength="199" x="621" y="82.0908">AssignOrderService assignOrderService</text><rect fill="none" height="6" style="stroke:#C82930;stroke-width:1.0;" width="6" x="609" y="88.5078"/><text fill="#000000" font-family="sans-serif" font-size="11" lengthAdjust="spacing" textLength="301" x="621" y="95.9268">ListOrderToBePreparedService listOrderToBePreparedService</text><line style="stroke:#A80036;stroke-width:1.5;" x1="602" x2="927" y1="102.3438" y2="102.3438"/><!--MD5=[5027b8ac2f4c247f5f2c63c99f29b0d3]
class ChangeAllToBeingDeliveredService--><rect codeLine="17" fill="#FEFECE" filter="url(#f1nhhynppdbvfu)" height="75.6719" id="ChangeAllToBeingDeliveredService" style="stroke:#A80036;stroke-width:1.5;" width="227" x="523" y="170"/><ellipse cx="538" cy="186" fill="#ADD1B2" rx="11" ry="11" style="stroke:#A80036;stroke-width:1.0;"/><path d="M540,182.5 Q540.2031,182 540.4375,181.75 Q540.6719,181.5 540.9375,181.5 Q541.4063,181.5 541.7031,181.7813 Q542,182.0625 542,182.7188 L542,184.2813 Q542,184.9375 541.7188,185.2188 Q541.4375,185.5 541,185.5 Q540.6094,185.5 540.3594,185.3281 Q540.1094,185.1563 540,184.7031 Q539.9531,184.3906 539.7813,184.2188 Q539.4688,183.8906 538.9063,183.7031 Q538.3438,183.5 537.7813,183.5 Q537.0781,183.5 536.4844,183.7813 Q535.9063,184.0625 535.4531,184.6875 Q535,185.3125 535,186.1719 L535,187.0938 Q535,188.125 535.8438,188.8125 Q536.6875,189.5 538.1875,189.5 Q539.0781,189.5 539.7031,189.2969 Q540.0625,189.1875 540.4688,188.8281 Q540.7344,188.625 540.875,188.5625 Q541.0156,188.5 541.1875,188.5 Q541.5156,188.5 541.75,188.7656 Q542,189.0156 542,189.375 Q542,189.7188 541.6563,190.125 Q541.1563,190.7188 540.3594,191.0469 Q539.3125,191.5 538.0313,191.5 Q536.5313,191.5 535.3281,190.9063 Q534.3594,190.4375 533.6719,189.4219 Q533,188.4063 533,187.2031 L533,186.1094 Q533,184.8594 533.5938,183.7656 Q534.2031,182.6719 535.25,182.0938 Q536.3125,181.5 537.5,181.5 Q538.2188,181.5 538.8438,181.75 Q539.4688,182 540,182.5 Z " fill="#000000"/><text fill="#000000" font-family="sans-serif" font-size="12" lengthAdjust="spacing" textLength="195" x="552" y="190.9102">ChangeAllToBeingDeliveredService</text><line style="stroke:#A80036;stroke-width:1.5;" x1="524" x2="749" y1="202" y2="202"/><line style="stroke:#A80036;stroke-width:1.5;" x1="524" x2="749" y1="210" y2="210"/><ellipse cx="534" cy="221" fill="#84BE84" rx="3" ry="3" style="stroke:#038048;stroke-width:1.0;"/><text fill="#000000" font-family="sans-serif" font-size="11" lengthAdjust="spacing" textLength="94" x="543" y="225.4189">ordersDispatched()</text><ellipse cx="534" cy="234.8359" fill="#84BE84" rx="3" ry="3" style="stroke:#038048;stroke-width:1.0;"/><text fill="#000000" font-family="sans-serif" font-size="11" lengthAdjust="spacing" textLength="140" x="543" y="239.2549">changeAllToBeingDelivered()</text><!--MD5=[83fc306c94675379ff3664c423ec0780]
class ChangeToBeingDeliveredService--><rect codeLine="22" fill="#FEFECE" filter="url(#f1nhhynppdbvfu)" height="61.8359" id="ChangeToBeingDeliveredService" style="stroke:#A80036;stroke-width:1.5;" width="214" x="785.5" y="177"/><ellipse cx="800.5" cy="193" fill="#ADD1B2" rx="11" ry="11" style="stroke:#A80036;stroke-width:1.0;"/><path d="M802.5,189.5 Q802.7031,189 802.9375,188.75 Q803.1719,188.5 803.4375,188.5 Q803.9063,188.5 804.2031,188.7813 Q804.5,189.0625 804.5,189.7188 L804.5,191.2813 Q804.5,191.9375 804.2188,192.2188 Q803.9375,192.5 803.5,192.5 Q803.1094,192.5 802.8594,192.3281 Q802.6094,192.1563 802.5,191.7031 Q802.4531,191.3906 802.2813,191.2188 Q801.9688,190.8906 801.4063,190.7031 Q800.8438,190.5 800.2813,190.5 Q799.5781,190.5 798.9844,190.7813 Q798.4063,191.0625 797.9531,191.6875 Q797.5,192.3125 797.5,193.1719 L797.5,194.0938 Q797.5,195.125 798.3438,195.8125 Q799.1875,196.5 800.6875,196.5 Q801.5781,196.5 802.2031,196.2969 Q802.5625,196.1875 802.9688,195.8281 Q803.2344,195.625 803.375,195.5625 Q803.5156,195.5 803.6875,195.5 Q804.0156,195.5 804.25,195.7656 Q804.5,196.0156 804.5,196.375 Q804.5,196.7188 804.1563,197.125 Q803.6563,197.7188 802.8594,198.0469 Q801.8125,198.5 800.5313,198.5 Q799.0313,198.5 797.8281,197.9063 Q796.8594,197.4375 796.1719,196.4219 Q795.5,195.4063 795.5,194.2031 L795.5,193.1094 Q795.5,191.8594 796.0938,190.7656 Q796.7031,189.6719 797.75,189.0938 Q798.8125,188.5 800,188.5 Q800.7188,188.5 801.3438,188.75 Q801.9688,189 802.5,189.5 Z " fill="#000000"/><text fill="#000000" font-family="sans-serif" font-size="12" lengthAdjust="spacing" textLength="182" x="814.5" y="197.9102">ChangeToBeingDeliveredService</text><line style="stroke:#A80036;stroke-width:1.5;" x1="786.5" x2="998.5" y1="209" y2="209"/><line style="stroke:#A80036;stroke-width:1.5;" x1="786.5" x2="998.5" y1="217" y2="217"/><ellipse cx="796.5" cy="228" fill="#84BE84" rx="3" ry="3" style="stroke:#038048;stroke-width:1.0;"/><text fill="#000000" font-family="sans-serif" font-size="11" lengthAdjust="spacing" textLength="185" x="805.5" y="232.4189">changeToBeingDelivered(Order order)</text><!--MD5=[708e328039b60d50c6285936843ac334]
class OrderRepository--><rect codeLine="26" fill="#FEFECE" filter="url(#f1nhhynppdbvfu)" height="48" id="OrderRepository" style="stroke:#A80036;stroke-width:1.5;" width="122" x="703.5" y="306"/><ellipse cx="718.5" cy="322" fill="#B4A7E5" rx="11" ry="11" style="stroke:#A80036;stroke-width:1.0;"/><path d="M719.5,319 L719.5,325 L721.5,325 L721.9844,325 L722.5,325.625 L722.5,326 L722.5,326.375 L721.9844,327 L721.5,327 L715.5,327 L715.0156,327 L714.5,326.375 L714.5,326 L714.5,325.625 L715.0156,325 L715.5,325 L717.5,325 L717.5,319 L715.5,319 L715.0156,319 L714.5,318.375 L714.5,318 L714.5,317.625 L715.0156,317 L715.5,317 L721.5,317 L721.9844,317 L722.5,317.625 L722.5,318 L722.5,318.375 L721.9844,319 L721.5,319 L719.5,319 Z " fill="#000000"/><text fill="#000000" font-family="sans-serif" font-size="12" font-style="italic" lengthAdjust="spacing" textLength="90" x="732.5" y="326.9102">OrderRepository</text><line style="stroke:#A80036;stroke-width:1.5;" x1="704.5" x2="824.5" y1="338" y2="338"/><line style="stroke:#A80036;stroke-width:1.5;" x1="704.5" x2="824.5" y1="346" y2="346"/><!--MD5=[a4103dfcef2b3406d19a84f8a9daaf11]
link BaseBackoffice to ChangeOrderToBeingDeliveredUI--><path codeLine="29" d="M124.09,58.5 C133.87,58.5 143.65,58.5 153.43,58.5 " fill="none" id="BaseBackoffice-to-ChangeOrderToBeingDeliveredUI" style="stroke:#A80036;stroke-width:1.0;"/><polygon fill="#A80036" points="158.55,58.5,149.55,54.5,153.55,58.5,149.55,62.5,158.55,58.5" style="stroke:#A80036;stroke-width:1.0;"/><!--MD5=[04945fdc6e9a74e587b2585d1cc23fff]
link ChangeOrderToBeingDeliveredUI to ChangeOrderToBeingDeliveredController--><path codeLine="31" d="M566.25,58.5 C576.03,58.5 585.81,58.5 595.59,58.5 " fill="none" id="ChangeOrderToBeingDeliveredUI-to-ChangeOrderToBeingDeliveredController" style="stroke:#A80036;stroke-width:1.0;"/><polygon fill="#A80036" points="600.71,58.5,591.71,54.5,595.71,58.5,591.71,62.5,600.71,58.5" style="stroke:#A80036;stroke-width:1.0;"/><!--MD5=[7f8816530b7ed9ad3c75aff6cf9bfa66]
link ChangeOrderToBeingDeliveredController to ChangeAllToBeingDeliveredService--><path codeLine="33" d="M720.45,110.26 C704.72,128.39 687.2,148.58 672.25,165.8 " fill="none" id="ChangeOrderToBeingDeliveredController-to-ChangeAllToBeingDeliveredService" style="stroke:#A80036;stroke-width:1.0;"/><polygon fill="#A80036" points="668.91,169.66,677.8379,165.5016,672.1944,165.89,671.806,160.2465,668.91,169.66" style="stroke:#A80036;stroke-width:1.0;"/><!--MD5=[5113fb749f0b6227b4c96181455773dd]
link ChangeOrderToBeingDeliveredController to ChangeToBeingDeliveredService--><path codeLine="34" d="M808.55,110.26 C826.43,130.87 846.63,154.14 862.73,172.69 " fill="none" id="ChangeOrderToBeingDeliveredController-to-ChangeToBeingDeliveredService" style="stroke:#A80036;stroke-width:1.0;"/><polygon fill="#A80036" points="866.31,176.81,863.414,167.3965,863.0256,173.04,857.3821,172.6516,866.31,176.81" style="stroke:#A80036;stroke-width:1.0;"/><!--MD5=[b92d5fc86c8f174909114f948537015d]
link ChangeAllToBeingDeliveredService to OrderRepository--><path codeLine="37" d="M676.3,246.31 C695.54,264.35 718.2,285.59 735.74,302.03 " fill="none" id="ChangeAllToBeingDeliveredService-to-OrderRepository" style="stroke:#A80036;stroke-width:1.0;"/><polygon fill="#A80036" points="739.62,305.68,735.771,296.6144,735.9652,302.2679,730.3117,302.4621,739.62,305.68" style="stroke:#A80036;stroke-width:1.0;"/><!--MD5=[ade3977070ae2b014c178855aa05e674]
link ChangeToBeingDeliveredService to OrderRepository--><path codeLine="38" d="M860.2,239.28 C839.51,258.68 812.91,283.62 793,302.28 " fill="none" id="ChangeToBeingDeliveredService-to-OrderRepository" style="stroke:#A80036;stroke-width:1.0;"/><polygon fill="#A80036" points="789.11,305.92,798.4053,302.6645,792.751,302.4932,792.9223,296.8389,789.11,305.92" style="stroke:#A80036;stroke-width:1.0;"/><!--MD5=[fcf66ff30efa1d3ba1c87fb02ffed53e]
@startuml

class BaseBackoffice{
    -MainMenu menu
}

class ChangeOrderToBeingDeliveredUI{
    ChangeOrderToBeingDeliveredController changeOrderToBeingDeliveredController;
}

class ChangeOrderToBeingDeliveredController{
    -AuthorizationService authz
    -SystemUser currentUser
    -AssignOrderService assignOrderService
    -ListOrderToBePreparedService listOrderToBePreparedService
}

class ChangeAllToBeingDeliveredService{
    +ordersDispatched()
    +changeAllToBeingDelivered()
}

class ChangeToBeingDeliveredService{
    +changeToBeingDelivered(Order order)
}

interface OrderRepository{
}

BaseBackoffice -> ChangeOrderToBeingDeliveredUI

ChangeOrderToBeingDeliveredUI -> ChangeOrderToBeingDeliveredController

ChangeOrderToBeingDeliveredController -down-> ChangeAllToBeingDeliveredService
ChangeOrderToBeingDeliveredController -down-> ChangeToBeingDeliveredService


ChangeAllToBeingDeliveredService -down-> OrderRepository
ChangeToBeingDeliveredService -down-> OrderRepository


@enduml

PlantUML version 1.2021.11(Sat Oct 02 14:26:11 BST 2021)
(GPL source distribution)
Java Runtime: OpenJDK Runtime Environment
JVM: OpenJDK 64-Bit Server VM
Default Encoding: Cp1252
Language: pt
Country: PT
--></g></svg>