<?xml version="1.0" encoding="UTF-8" standalone="no"?><svg xmlns="http://www.w3.org/2000/svg" xmlns:xlink="http://www.w3.org/1999/xlink" contentStyleType="text/css" height="671px" preserveAspectRatio="none" style="width:926px;height:671px;background:#FFFFFF;" version="1.1" viewBox="0 0 926 671" width="926px" zoomAndPan="magnify"><defs/><g><polygon fill="#FFFFFF" points="138.5,156.9219,138.5,156.9919,140.5,156.7838,142.5,156.9863,144.5,157.0551,146.5,156.6841,148.5,156.9219,148.4223,156.9219,148.0735,166.9111,148.1165,176.9004,148.4318,186.8896,147.8086,196.8789,149.0536,206.8682,147.8697,216.8574,148.3022,226.8467,148.9319,236.8359,148.4142,246.8252,148.5682,256.8145,148.4681,266.8037,148.6785,276.793,148.7391,286.7822,149.0857,296.7715,149.1711,306.7607,149.1793,316.75,148.7546,326.7393,148.9636,336.7285,149.2022,346.7178,147.7788,356.707,149.1785,366.6963,148.2035,376.6855,149.0338,386.6748,148.005,396.6641,148.4315,406.6533,149.2416,416.6426,148.4513,426.6318,148.6053,436.6211,148.8386,446.6104,148.9162,456.5996,148.4961,466.5889,148.7872,476.5781,147.9276,486.5674,148.7844,496.5566,149.0482,506.5459,148.9445,516.5352,149.113,526.5244,148.0169,536.5137,147.8478,546.5029,148.5,556.4922,148.5,556.2851,146.5,556.4726,144.5,556.4267,142.5,556.7193,140.5,556.434,138.5,556.4922,138.1569,556.4922,138.7283,546.5029,137.8332,536.5137,137.9809,526.5244,139.149,516.5352,138.9357,506.5459,139.2345,496.5566,138.1782,486.5674,138.8192,476.5781,139.0904,466.5889,138.0276,456.5996,138.4041,446.6104,138.626,436.6211,139.1518,426.6318,138.4958,416.6426,138.9626,406.6533,137.9462,396.6641,137.8227,386.6748,139.0036,376.6855,137.7831,366.6963,139.009,356.707,138.7066,346.7178,138.2321,336.7285,138.1462,326.7393,138.9588,316.75,138.2007,306.7607,139.0919,296.7715,137.9473,286.7822,139.1174,276.793,138.9843,266.8037,138.745,256.8145,138.5472,246.8252,139.2266,236.8359,139.1136,226.8467,138.6693,216.8574,138.7682,206.8682,138.3697,196.8789,139.2165,186.8896,138.6549,176.9004,138.6726,166.9111,138.5,156.9219" style="stroke:#181818;stroke-width:1.0;"/><polygon fill="#FFFFFF" points="280,192.2734,280,192.3435,282,192.1353,284,192.3379,286,192.4067,288,192.0356,290,192.2734,289.9223,192.2734,289.5735,202.3906,289.6165,212.5078,289.9318,222.625,289.3086,232.7422,290.5536,242.8594,289.3697,252.9766,289.8022,263.0938,290.4319,273.2109,289.9142,283.3281,290.0682,293.4453,289.9681,303.5625,290.1785,313.6797,290.2391,323.7969,290.5857,333.9141,290.6711,344.0313,290.6793,354.1484,290.2546,364.2656,290.4636,374.3828,290.7022,384.5,289.2788,394.6172,290.6785,404.7344,289.7035,414.8516,290.5338,424.9688,289.505,435.0859,289.9315,445.2031,290.7416,455.3203,289.9513,465.4375,290.1053,475.5547,290.3386,485.6719,290.4162,495.7891,289.9961,505.9063,290.2872,516.0234,290,526.1406,290,525.9498,288,526.2354,286,526.3234,284,526.2888,282,526.345,280,526.1406,279.5169,526.1406,279.3478,516.0234,279.3786,505.9063,279.9411,495.7891,279.8035,485.6719,280.6814,475.5547,279.8253,465.4375,279.6569,455.3203,280.2283,445.2031,279.3332,435.0859,279.4809,424.9688,280.649,414.8516,280.4357,404.7344,280.7345,394.6172,279.6782,384.5,280.3192,374.3828,280.5904,364.2656,279.5276,354.1484,279.9041,344.0313,280.126,333.9141,280.6518,323.7969,279.9958,313.6797,280.4626,303.5625,279.4462,293.4453,279.3227,283.3281,280.5036,273.2109,279.2831,263.0938,280.509,252.9766,280.2066,242.8594,279.7321,232.7422,279.6462,222.625,280.4588,212.5078,279.7007,202.3906,280,192.2734" style="stroke:#181818;stroke-width:1.0;"/><polygon fill="#FFFFFF" points="602,283.3281,602,283.3982,604,283.19,606,283.3926,608,283.4614,610,283.0903,612,283.3281,611.9223,283.3281,611.5735,293.4453,611.6165,303.5625,611.9318,313.6797,611.3086,323.7969,612.5536,333.9141,611.3697,344.0313,611.8022,354.1484,612.4319,364.2656,612,374.3828,612,374.3542,610,374.4056,608,374.3722,606,374.4423,604,374.4625,602,374.3828,602.5857,374.3828,602.6711,364.2656,602.6793,354.1484,602.2546,344.0313,602.4636,333.9141,602.7022,323.7969,601.2788,313.6797,602.6785,303.5625,601.7035,293.4453,602,283.3281" style="stroke:#181818;stroke-width:1.0;"/><polygon fill="#FFFFFF" points="722,313.6797,722,313.7497,724,313.5416,726,313.7441,728,313.8129,730,313.4419,732,313.6797,731.9741,313.6797,731.8578,319.75,731.8722,325.8203,731.9773,331.8906,731.7695,337.9609,732,344.0313,732,344.2158,730,343.8212,728,343.9653,726,344.1752,724,344.0027,722,344.0313,722.0227,344.0313,721.9894,337.9609,722.0595,331.8906,722.0797,325.8203,722.1952,319.75,722,313.6797" style="stroke:#181818;stroke-width:1.0;"/><polygon fill="#FFFFFF" points="727,404.7344,727,404.8044,729,404.5963,731,404.7988,733,404.8676,735,404.4966,737,404.7344,736.9741,404.7344,736.8578,410.8047,736.8722,416.875,736.9773,422.9453,736.7695,429.0156,737,435.0859,737,435.2705,735,434.8758,733,435.02,731,435.2299,729,435.0573,727,435.0859,727.0227,435.0859,726.9894,429.0156,727.0595,422.9453,727.0797,416.875,727.1952,410.8047,727,404.7344" style="stroke:#181818;stroke-width:1.0;"/><polygon fill="#FFFFFF" points="858.5,465.4375,858.5,465.5076,860.5,465.2994,862.5,465.5019,864.5,465.5707,866.5,465.1997,868.5,465.4375,868.4741,465.4375,868.3578,471.5078,868.3722,477.5781,868.4773,483.6484,868.2695,489.7188,868.5,495.7891,868.5,495.9736,866.5,495.579,864.5,495.7231,862.5,495.933,860.5,495.7605,858.5,495.7891,858.5227,495.7891,858.4894,489.7188,858.5595,483.6484,858.5797,477.5781,858.6952,471.5078,858.5,465.4375" style="stroke:#181818;stroke-width:1.0;"/><path d="M42,86.2188 L42.2802,86.2188 L41.4476,96.1835 L42.2577,106.1483 L42.5329,116.113 L41.0488,126.0778 L41.8964,136.0426 L41.4313,146.0073 L41.4887,155.9721 L41.9091,165.9369 L41.0782,175.9016 L42.7382,185.8664 L41.1596,195.8312 L41.7363,205.7959 L42.5759,215.7607 L41.8856,225.7254 L42.091,235.6902 L41.9574,245.655 L42.238,255.6197 L42.3188,265.5845 L42.7809,275.5493 L42.8947,285.514 L42.9057,295.4788 L42.3395,305.4436 L42.6181,315.4083 L42.9363,325.3731 L41.0384,335.3379 L42.9047,345.3026 L41.6047,355.2674 L42.7117,365.2321 L41.34,375.1969 L41.9087,385.1617 L42.9888,395.1264 L41.935,405.0912 L42.1404,415.056 L42.4515,425.0207 L42.555,434.9855 L41.9948,444.9503 L42.383,454.915 L41.2368,464.8798 L42.3792,474.8445 L42.7309,484.8093 L42.5927,494.7741 L42.8174,504.7388 L41.3559,514.7036 L41.1304,524.6684 L41.1715,534.6331 L41.9215,544.5979 L41.738,554.5627 L42.9085,564.5274 L42,574.4922 " fill="none" style="stroke:#181818;stroke-width:0.5;stroke-dasharray:5.0,5.0;"/><path d="M143,86.2188 L143.2802,86.2188 L142.4476,96.1835 L143.2577,106.1483 L143.5329,116.113 L142.0488,126.0778 L142.8964,136.0426 L142.4313,146.0073 L142.4887,155.9721 L142.9091,165.9369 L142.0782,175.9016 L143.7382,185.8664 L142.1596,195.8312 L142.7363,205.7959 L143.5759,215.7607 L142.8856,225.7254 L143.091,235.6902 L142.9574,245.655 L143.238,255.6197 L143.3188,265.5845 L143.7809,275.5493 L143.8947,285.514 L143.9057,295.4788 L143.3395,305.4436 L143.6181,315.4083 L143.9363,325.3731 L142.0384,335.3379 L143.9047,345.3026 L142.6047,355.2674 L143.7117,365.2321 L142.34,375.1969 L142.9087,385.1617 L143.9888,395.1264 L142.935,405.0912 L143.1404,415.056 L143.4515,425.0207 L143.555,434.9855 L142.9948,444.9503 L143.383,454.915 L142.2368,464.8798 L143.3792,474.8445 L143.7309,484.8093 L143.5927,494.7741 L143.8174,504.7388 L142.3559,514.7036 L142.1304,524.6684 L142.1715,534.6331 L142.9215,544.5979 L142.738,554.5627 L143.9085,564.5274 L143,574.4922 " fill="none" style="stroke:#181818;stroke-width:0.5;stroke-dasharray:5.0,5.0;"/><path d="M285,86.2188 L285.2802,86.2188 L284.4476,96.1835 L285.2577,106.1483 L285.5329,116.113 L284.0488,126.0778 L284.8964,136.0426 L284.4313,146.0073 L284.4887,155.9721 L284.9091,165.9369 L284.0782,175.9016 L285.7382,185.8664 L284.1596,195.8312 L284.7363,205.7959 L285.5759,215.7607 L284.8856,225.7254 L285.091,235.6902 L284.9574,245.655 L285.238,255.6197 L285.3188,265.5845 L285.7809,275.5493 L285.8947,285.514 L285.9057,295.4788 L285.3395,305.4436 L285.6181,315.4083 L285.9363,325.3731 L284.0384,335.3379 L285.9047,345.3026 L284.6047,355.2674 L285.7117,365.2321 L284.34,375.1969 L284.9087,385.1617 L285.9888,395.1264 L284.935,405.0912 L285.1404,415.056 L285.4515,425.0207 L285.555,434.9855 L284.9948,444.9503 L285.383,454.915 L284.2368,464.8798 L285.3792,474.8445 L285.7309,484.8093 L285.5927,494.7741 L285.8174,504.7388 L284.3559,514.7036 L284.1304,524.6684 L284.1715,534.6331 L284.9215,544.5979 L284.738,554.5627 L285.9085,564.5274 L285,574.4922 " fill="none" style="stroke:#181818;stroke-width:0.5;stroke-dasharray:5.0,5.0;"/><path d="M440,86.2188 L440.2802,86.2188 L439.4476,96.1835 L440.2577,106.1483 L440.5329,116.113 L439.0488,126.0778 L439.8964,136.0426 L439.4313,146.0073 L439.4887,155.9721 L439.9091,165.9369 L439.0782,175.9016 L440.7382,185.8664 L439.1596,195.8312 L439.7363,205.7959 L440.5759,215.7607 L439.8856,225.7254 L440.091,235.6902 L439.9574,245.655 L440.238,255.6197 L440.3188,265.5845 L440.7809,275.5493 L440.8947,285.514 L440.9057,295.4788 L440.3395,305.4436 L440.6181,315.4083 L440.9363,325.3731 L439.0384,335.3379 L440.9047,345.3026 L439.6047,355.2674 L440.7117,365.2321 L439.34,375.1969 L439.9087,385.1617 L440.9888,395.1264 L439.935,405.0912 L440.1404,415.056 L440.4515,425.0207 L440.555,434.9855 L439.9948,444.9503 L440.383,454.915 L439.2368,464.8798 L440.3792,474.8445 L440.7309,484.8093 L440.5927,494.7741 L440.8174,504.7388 L439.3559,514.7036 L439.1304,524.6684 L439.1715,534.6331 L439.9215,544.5979 L439.738,554.5627 L440.9085,564.5274 L440,574.4922 " fill="none" style="stroke:#181818;stroke-width:0.5;stroke-dasharray:5.0,5.0;"/><path d="M607,86.2188 L607.2802,86.2188 L606.4476,96.1835 L607.2577,106.1483 L607.5329,116.113 L606.0488,126.0778 L606.8964,136.0426 L606.4313,146.0073 L606.4887,155.9721 L606.9091,165.9369 L606.0782,175.9016 L607.7382,185.8664 L606.1596,195.8312 L606.7363,205.7959 L607.5759,215.7607 L606.8856,225.7254 L607.091,235.6902 L606.9574,245.655 L607.238,255.6197 L607.3188,265.5845 L607.7809,275.5493 L607.8947,285.514 L607.9057,295.4788 L607.3395,305.4436 L607.6181,315.4083 L607.9363,325.3731 L606.0384,335.3379 L607.9047,345.3026 L606.6047,355.2674 L607.7117,365.2321 L606.34,375.1969 L606.9087,385.1617 L607.9888,395.1264 L606.935,405.0912 L607.1404,415.056 L607.4515,425.0207 L607.555,434.9855 L606.9948,444.9503 L607.383,454.915 L606.2368,464.8798 L607.3792,474.8445 L607.7309,484.8093 L607.5927,494.7741 L607.8174,504.7388 L606.3559,514.7036 L606.1304,524.6684 L606.1715,534.6331 L606.9215,544.5979 L606.738,554.5627 L607.9085,564.5274 L607,574.4922 " fill="none" style="stroke:#181818;stroke-width:0.5;stroke-dasharray:5.0,5.0;"/><path d="M727,86.2188 L727.2802,86.2188 L726.4476,96.1835 L727.2577,106.1483 L727.5329,116.113 L726.0488,126.0778 L726.8964,136.0426 L726.4313,146.0073 L726.4887,155.9721 L726.9091,165.9369 L726.0782,175.9016 L727.7382,185.8664 L726.1596,195.8312 L726.7363,205.7959 L727.5759,215.7607 L726.8856,225.7254 L727.091,235.6902 L726.9574,245.655 L727.238,255.6197 L727.3188,265.5845 L727.7809,275.5493 L727.8947,285.514 L727.9057,295.4788 L727.3395,305.4436 L727.6181,315.4083 L727.9363,325.3731 L726.0384,335.3379 L727.9047,345.3026 L726.6047,355.2674 L727.7117,365.2321 L726.34,375.1969 L726.9087,385.1617 L727.9888,395.1264 L726.935,405.0912 L727.1404,415.056 L727.4515,425.0207 L727.555,434.9855 L726.9948,444.9503 L727.383,454.915 L726.2368,464.8798 L727.3792,474.8445 L727.7309,484.8093 L727.5927,494.7741 L727.8174,504.7388 L726.3559,514.7036 L726.1304,524.6684 L726.1715,534.6331 L726.9215,544.5979 L726.738,554.5627 L727.9085,564.5274 L727,574.4922 " fill="none" style="stroke:#181818;stroke-width:0.5;stroke-dasharray:5.0,5.0;"/><path d="M863,86.2188 L863.2802,86.2188 L862.4476,96.1835 L863.2577,106.1483 L863.5329,116.113 L862.0488,126.0778 L862.8964,136.0426 L862.4313,146.0073 L862.4887,155.9721 L862.9091,165.9369 L862.0782,175.9016 L863.7382,185.8664 L862.1596,195.8312 L862.7363,205.7959 L863.5759,215.7607 L862.8856,225.7254 L863.091,235.6902 L862.9574,245.655 L863.238,255.6197 L863.3188,265.5845 L863.7809,275.5493 L863.8947,285.514 L863.9057,295.4788 L863.3395,305.4436 L863.6181,315.4083 L863.9363,325.3731 L862.0384,335.3379 L863.9047,345.3026 L862.6047,355.2674 L863.7117,365.2321 L862.34,375.1969 L862.9087,385.1617 L863.9888,395.1264 L862.935,405.0912 L863.1404,415.056 L863.4515,425.0207 L863.555,434.9855 L862.9948,444.9503 L863.383,454.915 L862.2368,464.8798 L863.3792,474.8445 L863.7309,484.8093 L863.5927,494.7741 L863.8174,504.7388 L862.3559,514.7036 L862.1304,524.6684 L862.1715,534.6331 L862.9215,544.5979 L862.738,554.5627 L863.9085,564.5274 L863,574.4922 " fill="none" style="stroke:#181818;stroke-width:0.5;stroke-dasharray:5.0,5.0;"/><text fill="#000000" font-family="FG Virgil" font-size="14" lengthAdjust="spacing" textLength="68" x="5" y="83.1426">SalesClerk</text><polygon fill="#E3E3E3" points="50.0442,19.0553,48.8715,20.6576,47.4845,23.0044,45.5008,24.586,43.4163,25.4509,41.7542,25.526,39.618,24.4443,37.6023,23.7377,36.0724,22.303,35.2699,20.6605,34.7939,19.3527,34.3277,17.6444,33.5709,16.1744,34.1525,14.7392,34.662,13.167,36.574,11.9235,37.9192,10.3102,39.5843,9.7744,41.5637,9.313,44.1021,9.5872,45.4924,10.2429,47.1089,10.5401,49.0743,12.5537,49.7595,14.6795,50.0571,16.13,49.72,18.5202" style="stroke:#181818;stroke-width:0.5;"/><path d="M42,25.1094 L42.1868,25.1094 L41.6317,30.5094 L42.1718,35.9094 L42.3553,41.3094 L41.3659,46.7094 L42,52.1094 M29,33.1094 L29,33.0403 L34.2,32.7303 L39.4,32.7685 L44.6,33.0488 L49.8,32.4948 L55,33.1094 M42,52.1094 L42.3719,52.4317 L38.9766,54.7425 L36.6672,57.9942 L34.4901,61.3608 L31.5424,64.0594 L29,67.1094 M42,52.1094 L42.0458,52.1491 L44.5785,55.0908 L47.3199,58.2133 L49.9606,61.2486 L52.7934,64.4503 L55,67.1094 " fill="none" style="stroke:#181818;stroke-width:0.5;"/><text fill="#000000" font-family="FG Virgil" font-size="14" lengthAdjust="spacing" textLength="68" x="5" y="588.0254">SalesClerk</text><polygon fill="#E3E3E3" points="50.0442,601.5475,48.8715,603.1498,47.4845,605.4966,45.5008,607.0782,43.4163,607.9431,41.7542,608.0182,39.618,606.9365,37.6023,606.2299,36.0724,604.7951,35.2699,603.1527,34.7939,601.8449,34.3277,600.1366,33.5709,598.6666,34.1525,597.2314,34.662,595.6592,36.574,594.4157,37.9192,592.8024,39.5843,592.2666,41.5637,591.8052,44.1021,592.0794,45.4924,592.735,47.1089,593.0322,49.0743,595.0459,49.7595,597.1717,50.0571,598.6222,49.72,601.0124" style="stroke:#181818;stroke-width:0.5;"/><path d="M42,607.6016 L42.1868,607.6016 L41.6317,613.0016 L42.1718,618.4016 L42.3553,623.8016 L41.3659,629.2016 L42,634.6016 M29,615.6016 L29,615.5325 L34.2,615.2225 L39.4,615.2607 L44.6,615.541 L49.8,614.987 L55,615.6016 M42,634.6016 L42.3719,634.9239 L38.9766,637.2346 L36.6672,640.4864 L34.4901,643.853 L31.5424,646.5516 L29,649.6016 M42,634.6016 L42.0458,634.6413 L44.5785,637.583 L47.3199,640.7055 L49.9606,643.7408 L52.7934,646.9425 L55,649.6016 " fill="none" style="stroke:#181818;stroke-width:0.5;"/><polygon fill="#E3E3E3" points="91.5,36,91.5,36.2102,101.9,35.5857,112.3,36.1933,122.7,36.3997,133.1,35.2866,143.5,35.9223,153.9,35.5735,164.3,35.6165,174.7,35.9318,185.1,35.3086,195.5,36,195.5706,36.1705,195.7732,35.9523,196.1819,36.232,196.6158,36.5724,196.9033,36.5594,197.2678,36.7322,197.2888,36.7409,197.4044,37.0817,197.6156,37.4621,197.7808,37.8234,198.0339,38.2212,198,38.5,198.2237,38.5,198.2264,47.3438,198.0849,56.1875,198.1545,65.0313,198.2341,73.875,198,82.7188,197.7779,82.6268,198.0625,83.1589,197.6158,83.388,197.7251,83.8475,197.2618,84.0698,197.2678,84.4865,197.259,84.4654,197.0088,84.8613,196.5544,84.7644,196.2205,84.9583,195.8967,85.1766,195.5,85.2188,195.5,85.635,185.1,85.2148,174.7,85.506,164.3,84.6463,153.9,85.5031,143.5,85.7669,133.1,85.6633,122.7,85.8318,112.3,84.7357,101.9,84.5666,91.5,85.2188,91.4207,85.0274,91.1389,85.0542,90.7678,84.8653,90.5263,84.9893,90.0635,84.5792,89.7322,84.4865,89.6266,84.4428,89.6561,84.1621,89.234,83.6943,89.133,83.3596,89.3463,83.1551,89,82.7188,89.1452,82.7188,89.2448,73.875,88.8927,65.0313,89.1064,56.1875,89.1968,47.3438,89,38.5,88.8545,38.4397,89.1169,38.1342,89.3317,37.809,89.6401,37.5225,89.5845,37.0853,89.7322,36.7322,89.7912,36.8747,90.0151,36.4152,90.3529,36.2308,90.8571,36.448,91.055,35.9257,91.5,36" style="stroke:#181818;stroke-width:0.5;"/><text fill="#000000" font-family="FG Virgil" font-size="14" font-style="italic" lengthAdjust="spacing" textLength="95" x="96" y="57.5332">«presentation»</text><text fill="#000000" font-family="FG Virgil" font-size="14" lengthAdjust="spacing" textLength="90" x="98.5" y="75.1426">ListProductsUI</text><polygon fill="#E3E3E3" points="91.5,573.4922,91.5,573.7024,101.9,573.0779,112.3,573.6855,122.7,573.8919,133.1,572.7788,143.5,573.4145,153.9,573.0657,164.3,573.1087,174.7,573.424,185.1,572.8008,195.5,573.4922,195.5706,573.6627,195.7732,573.4445,196.1819,573.7242,196.6158,574.0645,196.9033,574.0516,197.2678,574.2244,197.2888,574.2331,197.4044,574.5739,197.6156,574.9543,197.7808,575.3156,198.0339,575.7133,198,575.9922,198.2237,575.9922,198.2264,584.8359,198.0849,593.6797,198.1545,602.5234,198.2341,611.3672,198,620.2109,197.7779,620.1189,198.0625,620.651,197.6158,620.8802,197.7251,621.3397,197.2618,621.562,197.2678,621.9787,197.259,621.9576,197.0088,622.3535,196.5544,622.2566,196.2205,622.4505,195.8967,622.6688,195.5,622.7109,195.5,623.1272,185.1,622.707,174.7,622.9982,164.3,622.1385,153.9,622.9953,143.5,623.2591,133.1,623.1555,122.7,623.324,112.3,622.2279,101.9,622.0588,91.5,622.7109,91.4207,622.5196,91.1389,622.5464,90.7678,622.3575,90.5263,622.4814,90.0635,622.0714,89.7322,621.9787,89.6266,621.9349,89.6561,621.6543,89.234,621.1865,89.133,620.8518,89.3463,620.6473,89,620.2109,89.1452,620.2109,89.2448,611.3672,88.8927,602.5234,89.1064,593.6797,89.1968,584.8359,89,575.9922,88.8545,575.9319,89.1169,575.6264,89.3317,575.3012,89.6401,575.0147,89.5845,574.5774,89.7322,574.2244,89.7912,574.3669,90.0151,573.9074,90.3529,573.723,90.8571,573.9402,91.055,573.4178,91.5,573.4922" style="stroke:#181818;stroke-width:0.5;"/><text fill="#000000" font-family="FG Virgil" font-size="14" font-style="italic" lengthAdjust="spacing" textLength="95" x="96" y="595.0254">«presentation»</text><text fill="#000000" font-family="FG Virgil" font-size="14" lengthAdjust="spacing" textLength="90" x="98.5" y="612.6348">ListProductsUI</text><polygon fill="#E3E3E3" points="210.5,36,210.5,36.2102,220.4333,35.5857,230.3667,36.1933,240.3,36.3997,250.2333,35.2866,260.1667,35.9223,270.1,35.5735,280.0333,35.6165,289.9667,35.9318,299.9,35.3086,309.8333,36.5536,319.7667,35.3697,329.7,35.8022,339.6333,36.4319,349.5667,35.9142,359.5,36,359.5087,36.021,359.8495,36.1366,360.2299,36.3479,360.5912,36.513,360.9889,36.7662,361.2678,36.7322,361.4744,36.8178,361.6234,37.1724,361.6391,37.4718,361.8499,37.852,362.0698,38.236,362,38.5,361.7596,38.5,362.2262,47.3438,361.9012,56.1875,362.1779,65.0313,361.835,73.875,362,82.7188,361.9789,82.71,362.0819,83.1669,361.6921,83.4196,361.5931,83.7928,361.5185,84.1762,361.2678,84.4865,361.3209,84.6147,360.9137,84.6318,360.5973,84.8679,360.1341,84.7496,359.8898,85.1599,359.5,85.2188,359.5,85.7669,349.5667,85.6633,339.6333,85.8318,329.7,84.7357,319.7667,84.5666,309.8333,84.5973,299.9,85.1599,289.9667,85.0222,280.0333,85.9002,270.1,85.0441,260.1667,84.8757,250.2333,85.447,240.3,84.5519,230.3667,84.6996,220.4333,85.8677,210.5,85.2188,210.5556,85.3529,210.2401,85.2985,209.7518,84.8268,209.4801,84.8777,209.1611,84.8148,208.7322,84.4865,208.5868,84.4263,208.5563,84.1207,208.4781,83.7955,208.4936,83.509,208.1452,83.0718,208,82.7188,208.1542,82.7188,207.8154,73.875,207.7742,65.0313,208.1679,56.1875,207.761,47.3438,208,38.5,208.1567,38.5649,208.2101,38.1728,208.2104,37.7587,208.3304,37.3942,208.7271,37.1443,208.7322,36.7322,208.694,36.6401,209.1613,36.7681,209.3688,36.2691,209.8717,36.483,210.2082,36.2956,210.5,36" style="stroke:#181818;stroke-width:0.5;"/><text fill="#000000" font-family="FG Virgil" font-size="14" font-style="italic" lengthAdjust="spacing" textLength="84" x="243" y="57.5332">«application»</text><text fill="#000000" font-family="FG Virgil" font-size="14" lengthAdjust="spacing" textLength="140" x="215" y="75.1426">ListProductsController</text><polygon fill="#E3E3E3" points="210.5,573.4922,210.5,573.7024,220.4333,573.0779,230.3667,573.6855,240.3,573.8919,250.2333,572.7788,260.1667,573.4145,270.1,573.0657,280.0333,573.1087,289.9667,573.424,299.9,572.8008,309.8333,574.0458,319.7667,572.8619,329.7,573.2944,339.6333,573.9241,349.5667,573.4064,359.5,573.4922,359.5087,573.5132,359.8495,573.6288,360.2299,573.8401,360.5912,574.0052,360.9889,574.2583,361.2678,574.2244,361.4744,574.31,361.6234,574.6646,361.6391,574.964,361.8499,575.3442,362.0698,575.7282,362,575.9922,361.7596,575.9922,362.2262,584.8359,361.9012,593.6797,362.1779,602.5234,361.835,611.3672,362,620.2109,361.9789,620.2022,362.0819,620.6591,361.6921,620.9118,361.5931,621.285,361.5185,621.6683,361.2678,621.9787,361.3209,622.1069,360.9137,622.1239,360.5973,622.36,360.1341,622.2418,359.8898,622.6521,359.5,622.7109,359.5,623.2591,349.5667,623.1555,339.6333,623.324,329.7,622.2279,319.7667,622.0588,309.8333,622.0895,299.9,622.6521,289.9667,622.5144,280.0333,623.3923,270.1,622.5363,260.1667,622.3679,250.2333,622.9392,240.3,622.0441,230.3667,622.1918,220.4333,623.3599,210.5,622.7109,210.5556,622.8451,210.2401,622.7907,209.7518,622.3189,209.4801,622.3699,209.1611,622.307,208.7322,621.9787,208.5868,621.9184,208.5563,621.6129,208.4781,621.2877,208.4936,621.0012,208.1452,620.564,208,620.2109,208.1542,620.2109,207.8154,611.3672,207.7742,602.5234,208.1679,593.6797,207.761,584.8359,208,575.9922,208.1567,576.0571,208.2101,575.665,208.2104,575.2509,208.3304,574.8864,208.7271,574.6365,208.7322,574.2244,208.694,574.1322,209.1613,574.2602,209.3688,573.7613,209.8717,573.9752,210.2082,573.7878,210.5,573.4922" style="stroke:#181818;stroke-width:0.5;"/><text fill="#000000" font-family="FG Virgil" font-size="14" font-style="italic" lengthAdjust="spacing" textLength="84" x="243" y="595.0254">«application»</text><text fill="#000000" font-family="FG Virgil" font-size="14" lengthAdjust="spacing" textLength="140" x="215" y="612.6348">ListProductsController</text><polygon fill="#E3E3E3" points="374.5,36,374.5,36.2102,384.5769,35.5857,394.6538,36.1933,404.7308,36.3997,414.8077,35.2866,424.8846,35.9223,434.9615,35.5735,445.0385,35.6165,455.1154,35.9318,465.1923,35.3086,475.2692,36.5536,485.3462,35.3697,495.4231,35.8022,505.5,36,505.5551,36.133,505.8426,36.12,506.2158,36.3139,506.5566,36.4295,506.937,36.6408,507.2678,36.7322,507.3414,36.7627,507.5946,37.1605,507.7673,37.5249,507.9163,37.8795,507.932,38.1789,508,38.5,508.1545,38.5,508.2341,47.3438,507.7596,56.1875,508.2262,65.0313,507.9012,73.875,508,82.7188,508.1644,82.7868,507.7011,83.0092,507.686,83.4171,507.789,83.874,507.3992,84.1267,507.2678,84.4865,507.2812,84.5189,506.9574,84.7372,506.6138,84.9076,506.2066,84.9247,505.8902,85.1608,505.5,85.2188,505.5,84.6463,495.4231,85.5031,485.3462,85.7669,475.2692,85.6633,465.1923,85.8318,455.1154,84.7357,445.0385,84.5666,434.9615,84.5973,424.8846,85.1599,414.8077,85.0222,404.7308,85.9002,394.6538,85.0441,384.5769,84.8757,374.5,85.2188,374.5291,85.289,374.0614,84.8669,373.7267,84.766,373.5221,84.9793,373.1414,84.7671,372.7322,84.4865,372.9584,84.5802,372.4867,84.0919,372.5376,83.8201,372.4747,83.5012,372.001,83.012,372,82.7188,371.968,82.7188,372.042,73.875,372.2173,65.0313,371.9986,56.1875,372.1542,47.3438,372,38.5,371.8295,38.4294,371.9379,38.0601,372.448,37.8571,372.2186,37.3479,372.7425,37.1507,372.7322,36.7322,372.7586,36.7959,373.0516,36.5033,373.3942,36.3304,373.8514,36.4342,374.1083,36.0543,374.5,36" style="stroke:#181818;stroke-width:0.5;"/><text fill="#000000" font-family="FG Virgil" font-size="14" font-style="italic" lengthAdjust="spacing" textLength="89" x="395.5" y="57.5332">«persistence»</text><text fill="#000000" font-family="FG Virgil" font-size="14" lengthAdjust="spacing" textLength="122" x="379" y="75.1426">PersistenceContext</text><polygon fill="#E3E3E3" points="374.5,573.4922,374.5,573.7024,384.5769,573.0779,394.6538,573.6855,404.7308,573.8919,414.8077,572.7788,424.8846,573.4145,434.9615,573.0657,445.0385,573.1087,455.1154,573.424,465.1923,572.8008,475.2692,574.0458,485.3462,572.8619,495.4231,573.2944,505.5,573.4922,505.5551,573.6252,505.8426,573.6122,506.2158,573.8061,506.5566,573.9217,506.937,574.133,507.2678,574.2244,507.3414,574.2549,507.5946,574.6527,507.7673,575.0171,507.9163,575.3717,507.932,575.6711,508,575.9922,508.1545,575.9922,508.2341,584.8359,507.7596,593.6797,508.2262,602.5234,507.9012,611.3672,508,620.2109,508.1644,620.279,507.7011,620.5013,507.686,620.9093,507.789,621.3662,507.3992,621.6189,507.2678,621.9787,507.2812,622.0111,506.9574,622.2294,506.6138,622.3998,506.2066,622.4168,505.8902,622.6529,505.5,622.7109,505.5,622.1385,495.4231,622.9953,485.3462,623.2591,475.2692,623.1555,465.1923,623.324,455.1154,622.2279,445.0385,622.0588,434.9615,622.0895,424.8846,622.6521,414.8077,622.5144,404.7308,623.3923,394.6538,622.5363,384.5769,622.3679,374.5,622.7109,374.5291,622.7812,374.0614,622.3591,373.7267,622.2582,373.5221,622.4714,373.1414,622.2593,372.7322,621.9787,372.9584,622.0724,372.4867,621.5841,372.5376,621.3123,372.4747,620.9934,372.001,620.5042,372,620.2109,371.968,620.2109,372.042,611.3672,372.2173,602.5234,371.9986,593.6797,372.1542,584.8359,372,575.9922,371.8295,575.9215,371.9379,575.5522,372.448,575.3493,372.2186,574.8401,372.7425,574.6429,372.7322,574.2244,372.7586,574.2881,373.0516,573.9955,373.3942,573.8226,373.8514,573.9264,374.1083,573.5465,374.5,573.4922" style="stroke:#181818;stroke-width:0.5;"/><text fill="#000000" font-family="FG Virgil" font-size="14" font-style="italic" lengthAdjust="spacing" textLength="89" x="395.5" y="595.0254">«persistence»</text><text fill="#000000" font-family="FG Virgil" font-size="14" lengthAdjust="spacing" textLength="122" x="379" y="612.6348">PersistenceContext</text><polygon fill="#E3E3E3" points="564.5,53.6094,564.5,53.8196,573.9444,53.1951,583.3889,53.8027,592.8333,54.0091,602.2778,52.896,611.7222,53.5317,621.1667,53.1829,630.6111,53.2259,640.0556,53.5412,649.5,53.6094,649.4118,53.3965,649.9242,53.9263,650.1267,53.7082,650.5354,53.9878,650.9693,54.3282,651.2678,54.3416,651.2414,54.3307,651.4352,54.7039,651.5508,55.0446,651.7621,55.425,651.9272,55.7863,652,56.1094,652.1952,56.1094,652.2237,61.4313,652.2264,66.7531,652.0849,72.075,652.1545,77.3969,652,82.7188,652.2163,82.8083,651.6315,82.9803,651.9161,83.5124,651.4693,83.7416,651.5786,84.2011,651.2678,84.4865,651.2046,84.3341,650.9055,84.6119,650.6553,85.0078,650.2009,84.9108,649.867,85.1047,649.5,85.2188,649.5,85.5574,640.0556,85.635,630.6111,85.2148,621.1667,85.506,611.7222,84.6463,602.2778,85.5031,592.8333,85.7669,583.3889,85.6633,573.9444,85.8318,564.5,85.2188,564.4384,85.07,564.0633,84.8715,563.7136,84.7345,563.4318,84.7613,563.0607,84.5724,562.7322,84.4865,562.9421,84.5734,562.532,84.1107,562.3337,83.7356,562.3632,83.455,561.9411,82.9872,562,82.7188,561.827,82.7188,562.2163,77.3969,562.1452,72.075,562.2448,66.7531,561.8927,61.4313,562,56.1094,562.0983,56.1501,562.3283,55.8311,562.1474,55.342,562.4098,55.0365,562.6246,54.7112,562.7322,54.3416,562.8154,54.5423,563.0853,54.1939,563.4983,54.1912,563.7223,53.7317,564.0601,53.5473,564.5,53.6094" style="stroke:#181818;stroke-width:0.5;"/><text fill="#000000" font-family="FG Virgil" font-size="14" lengthAdjust="spacing" textLength="76" x="569" y="75.1426">AppSettings</text><polygon fill="#E3E3E3" points="564.5,573.4922,564.5,573.7024,573.9444,573.0779,583.3889,573.6855,592.8333,573.8919,602.2778,572.7788,611.7222,573.4145,621.1667,573.0657,630.6111,573.1087,640.0556,573.424,649.5,573.4922,649.4118,573.2793,649.9242,573.8091,650.1267,573.591,650.5354,573.8706,650.9693,574.211,651.2678,574.2244,651.2414,574.2135,651.4352,574.5867,651.5508,574.9275,651.7621,575.3079,651.9272,575.6691,652,575.9922,652.1952,575.9922,652.2237,581.3141,652.2264,586.6359,652.0849,591.9578,652.1545,597.2797,652,602.6016,652.2163,602.6911,651.6315,602.8631,651.9161,603.3952,651.4693,603.6244,651.5786,604.0839,651.2678,604.3693,651.2046,604.2169,650.9055,604.4947,650.6553,604.8906,650.2009,604.7937,649.867,604.9875,649.5,605.1016,649.5,605.4402,640.0556,605.5178,630.6111,605.0977,621.1667,605.3888,611.7222,604.5291,602.2778,605.3859,592.8333,605.6498,583.3889,605.5461,573.9444,605.7146,564.5,605.1016,564.4384,604.9528,564.0633,604.7543,563.7136,604.6173,563.4318,604.6441,563.0607,604.4553,562.7322,604.3693,562.9421,604.4563,562.532,603.9935,562.3337,603.6185,562.3632,603.3378,561.9411,602.8701,562,602.6016,561.827,602.6016,562.2163,597.2797,562.1452,591.9578,562.2448,586.6359,561.8927,581.3141,562,575.9922,562.0983,576.0329,562.3283,575.7139,562.1474,575.2248,562.4098,574.9193,562.6246,574.594,562.7322,574.2244,562.8154,574.4251,563.0853,574.0767,563.4983,574.074,563.7223,573.6145,564.0601,573.4301,564.5,573.4922" style="stroke:#181818;stroke-width:0.5;"/><text fill="#000000" font-family="FG Virgil" font-size="14" lengthAdjust="spacing" textLength="76" x="569" y="595.0254">AppSettings</text><polygon fill="#E3E3E3" points="664.5,36,664.5,36.2102,674.1154,35.5857,683.7308,36.1933,693.3462,36.3997,702.9615,35.2866,712.5769,35.9223,722.1923,35.5735,731.8077,35.6165,741.4231,35.9318,751.0385,35.3086,760.6538,36.5536,770.2692,35.3697,779.8846,35.8022,789.5,36,789.5551,36.133,789.8426,36.12,790.2158,36.3139,790.5566,36.4295,790.937,36.6408,791.2678,36.7322,791.3414,36.7627,791.5946,37.1605,791.7673,37.5249,791.9163,37.8795,791.932,38.1789,792,38.5,792.1545,38.5,792.2341,47.3438,791.7596,56.1875,792.2262,65.0313,791.9012,73.875,792,82.7188,792.1644,82.7868,791.7011,83.0092,791.686,83.4171,791.789,83.874,791.3992,84.1267,791.2678,84.4865,791.2812,84.5189,790.9574,84.7372,790.6138,84.9076,790.2066,84.9247,789.8902,85.1608,789.5,85.2188,789.5,84.6463,779.8846,85.5031,770.2692,85.7669,760.6538,85.6633,751.0385,85.8318,741.4231,84.7357,731.8077,84.5666,722.1923,84.5973,712.5769,85.1599,702.9615,85.0222,693.3462,85.9002,683.7308,85.0441,674.1154,84.8757,664.5,85.2188,664.5291,85.289,664.0614,84.8669,663.7267,84.766,663.5221,84.9793,663.1414,84.7671,662.7322,84.4865,662.9584,84.5802,662.4867,84.0919,662.5376,83.8201,662.4747,83.5012,662.001,83.012,662,82.7188,661.968,82.7188,662.042,73.875,662.2173,65.0313,661.9986,56.1875,662.1542,47.3438,662,38.5,661.8295,38.4294,661.9379,38.0601,662.448,37.8571,662.2186,37.3479,662.7425,37.1507,662.7322,36.7322,662.7586,36.7959,663.0516,36.5033,663.3942,36.3304,663.8514,36.4342,664.1083,36.0543,664.5,36" style="stroke:#181818;stroke-width:0.5;"/><text fill="#000000" font-family="FG Virgil" font-size="14" font-style="italic" lengthAdjust="spacing" textLength="59" x="697.5" y="57.5332">«factory»</text><text fill="#000000" font-family="FG Virgil" font-size="14" lengthAdjust="spacing" textLength="116" x="669" y="75.1426">RepositoryFactory</text><polygon fill="#E3E3E3" points="664.5,573.4922,664.5,573.7024,674.1154,573.0779,683.7308,573.6855,693.3462,573.8919,702.9615,572.7788,712.5769,573.4145,722.1923,573.0657,731.8077,573.1087,741.4231,573.424,751.0385,572.8008,760.6538,574.0458,770.2692,572.8619,779.8846,573.2944,789.5,573.4922,789.5551,573.6252,789.8426,573.6122,790.2158,573.8061,790.5566,573.9217,790.937,574.133,791.2678,574.2244,791.3414,574.2549,791.5946,574.6527,791.7673,575.0171,791.9163,575.3717,791.932,575.6711,792,575.9922,792.1545,575.9922,792.2341,584.8359,791.7596,593.6797,792.2262,602.5234,791.9012,611.3672,792,620.2109,792.1644,620.279,791.7011,620.5013,791.686,620.9093,791.789,621.3662,791.3992,621.6189,791.2678,621.9787,791.2812,622.0111,790.9574,622.2294,790.6138,622.3998,790.2066,622.4168,789.8902,622.6529,789.5,622.7109,789.5,622.1385,779.8846,622.9953,770.2692,623.2591,760.6538,623.1555,751.0385,623.324,741.4231,622.2279,731.8077,622.0588,722.1923,622.0895,712.5769,622.6521,702.9615,622.5144,693.3462,623.3923,683.7308,622.5363,674.1154,622.3679,664.5,622.7109,664.5291,622.7812,664.0614,622.3591,663.7267,622.2582,663.5221,622.4714,663.1414,622.2593,662.7322,621.9787,662.9584,622.0724,662.4867,621.5841,662.5376,621.3123,662.4747,620.9934,662.001,620.5042,662,620.2109,661.968,620.2109,662.042,611.3672,662.2173,602.5234,661.9986,593.6797,662.1542,584.8359,662,575.9922,661.8295,575.9215,661.9379,575.5522,662.448,575.3493,662.2186,574.8401,662.7425,574.6429,662.7322,574.2244,662.7586,574.2881,663.0516,573.9955,663.3942,573.8226,663.8514,573.9264,664.1083,573.5465,664.5,573.4922" style="stroke:#181818;stroke-width:0.5;"/><text fill="#000000" font-family="FG Virgil" font-size="14" font-style="italic" lengthAdjust="spacing" textLength="59" x="697.5" y="595.0254">«factory»</text><text fill="#000000" font-family="FG Virgil" font-size="14" lengthAdjust="spacing" textLength="116" x="669" y="612.6348">RepositoryFactory</text><text fill="#000000" font-family="FG Virgil" font-size="14" font-style="italic" lengthAdjust="spacing" textLength="79" x="821" y="65.5332">«repository»</text><text fill="#000000" font-family="FG Virgil" font-size="14" lengthAdjust="spacing" textLength="117" x="802" y="83.1426">ProductRepository</text><path d="M845.5,15 L845.5,15 L845.5651,15.067 L847.1716,13.118 L849.1599,11.5616 L851.0238,9.8774 L852.479,7.7727 L854.5,6.25 L854.4952,6.2158 L856.2739,5.8122 L858.0766,5.5812 L859.8958,5.47 L861.6577,4.9456 L863.5,5 L863.5,5 L863.5339,5.2437 L865.2615,4.9725 L867.0879,5.4129 L868.9264,5.9402 L870.6948,5.9622 L872.5,6.25 L872.5211,6.2717 L874.2901,7.9898 L876.1553,9.8069 L877.9741,11.5762 L879.8815,13.4366 L881.5,15 L882.0965,15 L882.1038,20.2 L881.7263,25.4 L881.9121,30.6 L882.1242,35.8 L881.5,41 L881.5,41 L881.2766,40.7702 L879.9102,42.9662 L877.8081,44.4055 L876.2654,46.4201 L874.1466,47.8423 L872.5,49.75 L872.4958,49.7198 L870.7453,50.3265 L868.897,50.2285 L867.1064,50.5464 L865.3207,50.8991 L863.5,51 L863.5,51 L863.5254,51.1832 L861.6998,50.7483 L859.9176,50.6264 L858.065,49.998 L856.3174,50.1252 L854.5,49.75 L854.6698,49.9247 L852.8377,48.1417 L851.0899,46.4453 L848.9503,44.3461 L847.0979,42.5422 L845.5,41 L844.9476,41 L845.4477,35.8 L845.3253,30.6 L846.1057,25.4 L845.3447,20.2 L845.5,15 " fill="#E3E3E3" style="stroke:#181818;stroke-width:1.5;"/><path d="M845.5,15 L845.5,15 L845.5651,15.067 L847.1716,16.618 L849.1599,18.5616 L851.0238,20.3774 L852.479,21.7727 L854.5,23.75 L854.4952,23.7158 L856.2739,23.8122 L858.0766,24.0812 L859.8958,24.47 L861.6577,24.4456 L863.5,25 L863.5,25 L863.5339,25.2437 L865.2615,24.4725 L867.0879,24.4129 L868.9264,24.4402 L870.6948,23.9622 L872.5,23.75 L872.5211,23.7717 L874.2901,21.9898 L876.1553,20.3069 L877.9741,18.5762 L879.8815,16.9366 L881.5,15 " fill="none" style="stroke:#181818;stroke-width:1.5;"/><text fill="#000000" font-family="FG Virgil" font-size="14" font-style="italic" lengthAdjust="spacing" textLength="79" x="821" y="588.0254">«repository»</text><text fill="#000000" font-family="FG Virgil" font-size="14" lengthAdjust="spacing" textLength="117" x="802" y="605.6348">ProductRepository</text><path d="M845.5,618.7109 L845.5,618.7109 L845.5651,618.7779 L847.1716,616.8289 L849.1599,615.2725 L851.0238,613.5883 L852.479,611.4836 L854.5,609.9609 L854.4952,609.9267 L856.2739,609.5232 L858.0766,609.2921 L859.8958,609.1809 L861.6577,608.6566 L863.5,608.7109 L863.5,608.7109 L863.5339,608.9547 L865.2615,608.6835 L867.0879,609.1239 L868.9264,609.6511 L870.6948,609.6732 L872.5,609.9609 L872.5211,609.9827 L874.2901,611.7008 L876.1553,613.5178 L877.9741,615.2871 L879.8815,617.1476 L881.5,618.7109 L882.0965,618.7109 L882.1038,623.9109 L881.7263,629.1109 L881.9121,634.3109 L882.1242,639.5109 L881.5,644.7109 L881.5,644.7109 L881.2766,644.4811 L879.9102,646.6772 L877.8081,648.1165 L876.2654,650.131 L874.1466,651.5532 L872.5,653.4609 L872.4958,653.4308 L870.7453,654.0374 L868.897,653.9395 L867.1064,654.2573 L865.3207,654.61 L863.5,654.7109 L863.5,654.7109 L863.5254,654.8942 L861.6998,654.4592 L859.9176,654.3374 L858.065,653.7089 L856.3174,653.8361 L854.5,653.4609 L854.6698,653.6356 L852.8377,651.8526 L851.0899,650.1563 L848.9503,648.057 L847.0979,646.2531 L845.5,644.7109 L844.9476,644.7109 L845.4477,639.5109 L845.3253,634.3109 L846.1057,629.1109 L845.3447,623.9109 L845.5,618.7109 " fill="#E3E3E3" style="stroke:#181818;stroke-width:1.5;"/><path d="M845.5,618.7109 L845.5,618.7109 L845.5651,618.7779 L847.1716,620.3289 L849.1599,622.2725 L851.0238,624.0883 L852.479,625.4836 L854.5,627.4609 L854.4952,627.4267 L856.2739,627.5232 L858.0766,627.7921 L859.8958,628.1809 L861.6577,628.1566 L863.5,628.7109 L863.5,628.7109 L863.5339,628.9547 L865.2615,628.1835 L867.0879,628.1239 L868.9264,628.1511 L870.6948,627.6732 L872.5,627.4609 L872.5211,627.4827 L874.2901,625.7008 L876.1553,624.0178 L877.9741,622.2871 L879.8815,620.6476 L881.5,618.7109 " fill="none" style="stroke:#181818;stroke-width:1.5;"/><polygon fill="#FFFFFF" points="138.5,156.9219,138.5,156.9919,140.5,156.7838,142.5,156.9863,144.5,157.0551,146.5,156.6841,148.5,156.9219,148.4223,156.9219,148.0735,166.9111,148.1165,176.9004,148.4318,186.8896,147.8086,196.8789,149.0536,206.8682,147.8697,216.8574,148.3022,226.8467,148.9319,236.8359,148.4142,246.8252,148.5682,256.8145,148.4681,266.8037,148.6785,276.793,148.7391,286.7822,149.0857,296.7715,149.1711,306.7607,149.1793,316.75,148.7546,326.7393,148.9636,336.7285,149.2022,346.7178,147.7788,356.707,149.1785,366.6963,148.2035,376.6855,149.0338,386.6748,148.005,396.6641,148.4315,406.6533,149.2416,416.6426,148.4513,426.6318,148.6053,436.6211,148.8386,446.6104,148.9162,456.5996,148.4961,466.5889,148.7872,476.5781,147.9276,486.5674,148.7844,496.5566,149.0482,506.5459,148.9445,516.5352,149.113,526.5244,148.0169,536.5137,147.8478,546.5029,148.5,556.4922,148.5,556.2851,146.5,556.4726,144.5,556.4267,142.5,556.7193,140.5,556.434,138.5,556.4922,138.1569,556.4922,138.7283,546.5029,137.8332,536.5137,137.9809,526.5244,139.149,516.5352,138.9357,506.5459,139.2345,496.5566,138.1782,486.5674,138.8192,476.5781,139.0904,466.5889,138.0276,456.5996,138.4041,446.6104,138.626,436.6211,139.1518,426.6318,138.4958,416.6426,138.9626,406.6533,137.9462,396.6641,137.8227,386.6748,139.0036,376.6855,137.7831,366.6963,139.009,356.707,138.7066,346.7178,138.2321,336.7285,138.1462,326.7393,138.9588,316.75,138.2007,306.7607,139.0919,296.7715,137.9473,286.7822,139.1174,276.793,138.9843,266.8037,138.745,256.8145,138.5472,246.8252,139.2266,236.8359,139.1136,226.8467,138.6693,216.8574,138.7682,206.8682,138.3697,196.8789,139.2165,186.8896,138.6549,176.9004,138.6726,166.9111,138.5,156.9219" style="stroke:#181818;stroke-width:1.0;"/><polygon fill="#FFFFFF" points="280,192.2734,280,192.3435,282,192.1353,284,192.3379,286,192.4067,288,192.0356,290,192.2734,289.9223,192.2734,289.5735,202.3906,289.6165,212.5078,289.9318,222.625,289.3086,232.7422,290.5536,242.8594,289.3697,252.9766,289.8022,263.0938,290.4319,273.2109,289.9142,283.3281,290.0682,293.4453,289.9681,303.5625,290.1785,313.6797,290.2391,323.7969,290.5857,333.9141,290.6711,344.0313,290.6793,354.1484,290.2546,364.2656,290.4636,374.3828,290.7022,384.5,289.2788,394.6172,290.6785,404.7344,289.7035,414.8516,290.5338,424.9688,289.505,435.0859,289.9315,445.2031,290.7416,455.3203,289.9513,465.4375,290.1053,475.5547,290.3386,485.6719,290.4162,495.7891,289.9961,505.9063,290.2872,516.0234,290,526.1406,290,525.9498,288,526.2354,286,526.3234,284,526.2888,282,526.345,280,526.1406,279.5169,526.1406,279.3478,516.0234,279.3786,505.9063,279.9411,495.7891,279.8035,485.6719,280.6814,475.5547,279.8253,465.4375,279.6569,455.3203,280.2283,445.2031,279.3332,435.0859,279.4809,424.9688,280.649,414.8516,280.4357,404.7344,280.7345,394.6172,279.6782,384.5,280.3192,374.3828,280.5904,364.2656,279.5276,354.1484,279.9041,344.0313,280.126,333.9141,280.6518,323.7969,279.9958,313.6797,280.4626,303.5625,279.4462,293.4453,279.3227,283.3281,280.5036,273.2109,279.2831,263.0938,280.509,252.9766,280.2066,242.8594,279.7321,232.7422,279.6462,222.625,280.4588,212.5078,279.7007,202.3906,280,192.2734" style="stroke:#181818;stroke-width:1.0;"/><polygon fill="#FFFFFF" points="602,283.3281,602,283.3982,604,283.19,606,283.3926,608,283.4614,610,283.0903,612,283.3281,611.9223,283.3281,611.5735,293.4453,611.6165,303.5625,611.9318,313.6797,611.3086,323.7969,612.5536,333.9141,611.3697,344.0313,611.8022,354.1484,612.4319,364.2656,612,374.3828,612,374.3542,610,374.4056,608,374.3722,606,374.4423,604,374.4625,602,374.3828,602.5857,374.3828,602.6711,364.2656,602.6793,354.1484,602.2546,344.0313,602.4636,333.9141,602.7022,323.7969,601.2788,313.6797,602.6785,303.5625,601.7035,293.4453,602,283.3281" style="stroke:#181818;stroke-width:1.0;"/><polygon fill="#FFFFFF" points="722,313.6797,722,313.7497,724,313.5416,726,313.7441,728,313.8129,730,313.4419,732,313.6797,731.9741,313.6797,731.8578,319.75,731.8722,325.8203,731.9773,331.8906,731.7695,337.9609,732,344.0313,732,344.2158,730,343.8212,728,343.9653,726,344.1752,724,344.0027,722,344.0313,722.0227,344.0313,721.9894,337.9609,722.0595,331.8906,722.0797,325.8203,722.1952,319.75,722,313.6797" style="stroke:#181818;stroke-width:1.0;"/><polygon fill="#FFFFFF" points="727,404.7344,727,404.8044,729,404.5963,731,404.7988,733,404.8676,735,404.4966,737,404.7344,736.9741,404.7344,736.8578,410.8047,736.8722,416.875,736.9773,422.9453,736.7695,429.0156,737,435.0859,737,435.2705,735,434.8758,733,435.02,731,435.2299,729,435.0573,727,435.0859,727.0227,435.0859,726.9894,429.0156,727.0595,422.9453,727.0797,416.875,727.1952,410.8047,727,404.7344" style="stroke:#181818;stroke-width:1.0;"/><polygon fill="#FFFFFF" points="858.5,465.4375,858.5,465.5076,860.5,465.2994,862.5,465.5019,864.5,465.5707,866.5,465.1997,868.5,465.4375,868.4741,465.4375,868.3578,471.5078,868.3722,477.5781,868.4773,483.6484,868.2695,489.7188,868.5,495.7891,868.5,495.9736,866.5,495.579,864.5,495.7231,862.5,495.933,860.5,495.7605,858.5,495.7891,858.5227,495.7891,858.4894,489.7188,858.5595,483.6484,858.5797,477.5781,858.6952,471.5078,858.5,465.4375" style="stroke:#181818;stroke-width:1.0;"/><polygon fill="#181818" points="131.5,114.5703,131.526,114.6354,133.4487,115.2421,135.5239,116.2301,137.5495,117.094,139.4117,117.5495,141.5,118.5703,141.4904,118.5463,139.4472,119.2383,137.4525,120.0516,135.4916,120.9492,133.4144,121.5563,131.5,122.5703,131.6305,122.7008,132.1514,121.6218,133.0534,120.9237,134.0018,120.2721,134.6798,119.3501,135.5,118.5703,135.5161,118.5864,134.6925,117.7628,133.9421,117.0124,133.1564,116.2267,132.438,115.5084,131.5,114.5703" style="stroke:#181818;stroke-width:1.0;"/><path d="M42,118.5703 L42,118.8506 L51.55,118.0179 L61.1,118.828 L70.65,119.1032 L80.2,117.6191 L89.75,118.4667 L99.3,118.0017 L108.85,118.059 L118.4,118.4794 L127.95,117.6485 L137.5,118.5703 " fill="none" style="stroke:#181818;stroke-width:1.0;"/><text fill="#000000" font-family="FG Virgil" font-size="13" font-weight="bold" lengthAdjust="spacing" textLength="7" x="49" y="113.7139">1</text><text fill="#000000" font-family="FG Virgil" font-size="13" lengthAdjust="spacing" textLength="38" x="60" y="113.7139">show()</text><path d="M143.5,143.9219 L143.5,144.2021 L152.9,143.3694 L162.3,144.1796 L171.7,144.4548 L181.1,142.9707 L190.5,143.9219 " fill="none" style="stroke:#181818;stroke-width:1.0;"/><path d="M190.5,143.9219 L190.5934,143.9219 L190.3159,146.5219 L190.5859,149.1219 L190.6776,151.7219 L190.1829,154.3219 L190.5,156.9219 " fill="none" style="stroke:#181818;stroke-width:1.0;"/><path d="M149.5,156.9219 L149.5,157.0153 L157.7,156.7377 L165.9,157.0078 L174.1,157.0995 L182.3,156.6048 L190.5,156.9219 " fill="none" style="stroke:#181818;stroke-width:1.0;"/><polygon fill="#181818" points="159.5,152.9219,159.526,152.9869,157.4487,153.5936,155.5239,154.5817,153.5495,155.4456,151.4117,155.9011,149.5,156.9219,149.4904,156.8978,151.4472,157.5899,153.4525,158.4032,155.4916,159.3008,157.4144,159.9079,159.5,160.9219,159.6305,161.0524,158.5514,159.9733,157.8534,159.2753,157.2018,158.6237,156.2798,157.7017,155.5,156.9219,155.5161,156.938,156.2925,156.1143,157.1421,155.364,157.9564,154.5782,158.838,153.8599,159.5,152.9219" style="stroke:#181818;stroke-width:1.0;"/><text fill="#000000" font-family="FG Virgil" font-size="13" font-weight="bold" lengthAdjust="spacing" textLength="7" x="155.5" y="139.0654">2</text><text fill="#000000" font-family="FG Virgil" font-size="13" lengthAdjust="spacing" textLength="54" x="166.5" y="139.0654">doShow()</text><polygon fill="#181818" points="268,188.2734,268.026,188.3385,269.9487,188.9452,272.0239,189.9333,274.0495,190.7971,275.9117,191.2526,278,192.2734,277.9904,192.2494,275.9472,192.9414,273.9525,193.7547,271.9916,194.6523,269.9144,195.2595,268,196.2734,268.1305,196.4039,268.6514,195.3249,269.5534,194.6268,270.5018,193.9752,271.1798,193.0532,272,192.2734,272.0161,192.2895,271.1925,191.4659,270.4421,190.7155,269.6564,189.9298,268.938,189.2115,268,188.2734" style="stroke:#181818;stroke-width:1.0;"/><path d="M148.5,192.2734 L148.5,192.5537 L158.1538,191.721 L167.8077,192.5312 L177.4615,192.8063 L187.1154,191.3222 L196.7692,192.1698 L206.4231,191.7048 L216.0769,191.7621 L225.7308,192.1826 L235.3846,191.3516 L245.0385,193.0116 L254.6923,191.4331 L264.3462,192.0097 L274,192.2734 " fill="none" style="stroke:#181818;stroke-width:1.0;"/><text fill="#000000" font-family="FG Virgil" font-size="13" font-weight="bold" lengthAdjust="spacing" textLength="7" x="155.5" y="187.417">3</text><text fill="#000000" font-family="FG Virgil" font-size="13" lengthAdjust="spacing" textLength="93" x="166.5" y="187.417">activeProducts()</text><polygon fill="#181818" points="428,218.625,428.026,218.69,429.9487,219.2968,432.0239,220.2848,434.0495,221.1487,435.9117,221.6042,438,222.625,437.9904,222.6009,435.9472,223.293,433.9525,224.1063,431.9916,225.0039,429.9144,225.611,428,226.625,428.1305,226.7555,428.6514,225.6764,429.5534,224.9784,430.5018,224.3268,431.1798,223.4048,432,222.625,432.0161,222.6411,431.1925,221.8175,430.4421,221.0671,429.6564,220.2814,428.938,219.563,428,218.625" style="stroke:#181818;stroke-width:1.0;"/><path d="M290,222.625 L290,222.9052 L300.2857,222.0726 L310.5714,222.8827 L320.8571,223.1579 L331.1429,221.6738 L341.4286,222.5214 L351.7143,222.0563 L362,222.1137 L372.2857,222.5341 L382.5714,221.7032 L392.8571,223.3632 L403.1429,221.7846 L413.4286,222.3613 L423.7143,223.2009 L434,222.625 " fill="none" style="stroke:#181818;stroke-width:1.0;"/><text fill="#000000" font-family="FG Virgil" font-size="13" font-weight="bold" lengthAdjust="spacing" textLength="7" x="297" y="217.7686">4</text><text fill="#000000" font-family="FG Virgil" font-size="13" lengthAdjust="spacing" textLength="75" x="308" y="217.7686">repositories()</text><polygon fill="#181818" points="595,248.9766,595.026,249.0416,596.9487,249.6483,599.0239,250.6364,601.0495,251.5003,602.9117,251.9558,605,252.9766,604.9904,252.9525,602.9472,253.6446,600.9525,254.4579,598.9916,255.3555,596.9144,255.9626,595,256.9766,595.1305,257.1071,595.6514,256.028,596.5534,255.3299,597.5018,254.6784,598.1798,253.7563,599,252.9766,599.0161,252.9926,598.1925,252.169,597.4421,251.4186,596.6564,250.6329,595.938,249.9146,595,248.9766" style="stroke:#181818;stroke-width:1.0;"/><path d="M440,252.9766 L440,253.2568 L450.0625,252.4241 L460.125,253.2343 L470.1875,253.5095 L480.25,252.0254 L490.3125,252.8729 L500.375,252.4079 L510.4375,252.4652 L520.5,252.8857 L530.5625,252.0547 L540.625,253.7148 L550.6875,252.1362 L560.75,252.7129 L570.8125,253.5525 L580.875,252.8622 L590.9375,253.0675 L601,252.9766 " fill="none" style="stroke:#181818;stroke-width:1.0;"/><text fill="#000000" font-family="FG Virgil" font-size="13" font-weight="bold" lengthAdjust="spacing" textLength="7" x="447" y="248.1201">5</text><text fill="#000000" font-family="FG Virgil" font-size="13" lengthAdjust="spacing" textLength="57" x="458" y="248.1201">instance()</text><polygon fill="#181818" points="590,279.3281,590.026,279.3932,591.9487,279.9999,594.0239,280.9879,596.0495,281.8518,597.9117,282.3073,600,283.3281,599.9904,283.3041,597.9472,283.9961,595.9525,284.8094,593.9916,285.707,591.9144,286.3142,590,287.3281,590.1305,287.4586,590.6514,286.3796,591.5534,285.6815,592.5018,285.0299,593.1798,284.1079,594,283.3281,594.0161,283.3442,593.1925,282.5206,592.4421,281.7702,591.6564,280.9845,590.938,280.2662,590,279.3281" style="stroke:#181818;stroke-width:1.0;"/><path d="M440,283.3281 L440,283.6084 L449.75,282.7757 L459.5,283.5858 L469.25,283.861 L479,282.3769 L488.75,283.2245 L498.5,282.7595 L508.25,282.8168 L518,283.2372 L527.75,282.4063 L537.5,284.0663 L547.25,282.4878 L557,283.0644 L566.75,283.9041 L576.5,283.2138 L586.25,283.4191 L596,283.3281 " fill="none" style="stroke:#181818;stroke-width:1.0;"/><text fill="#000000" font-family="FG Virgil" font-size="13" font-weight="bold" lengthAdjust="spacing" textLength="7" x="447" y="278.4717">6</text><text fill="#000000" font-family="FG Virgil" font-size="13" lengthAdjust="spacing" textLength="132" x="458" y="278.4717">getRepositoryFactory()</text><polygon fill="#181818" points="710,309.6797,710.026,309.7447,711.9487,310.3515,714.0239,311.3395,716.0495,312.2034,717.9117,312.6589,720,313.6797,719.9904,313.6556,717.9472,314.3477,715.9525,315.161,713.9916,316.0586,711.9144,316.6657,710,317.6797,710.1305,317.8102,710.6514,316.7311,711.5534,316.0331,712.5018,315.3815,713.1798,314.4595,714,313.6797,714.0161,313.6958,713.1925,312.8722,712.4421,312.1218,711.6564,311.3361,710.938,310.6177,710,309.6797" style="stroke:#181818;stroke-width:1.0;"/><path d="M612,313.6797 L612,313.9599 L622.4,313.1273 L632.8,313.9374 L643.2,314.2126 L653.6,312.7285 L664,313.5761 L674.4,313.111 L684.8,313.1684 L695.2,313.5888 L705.6,312.7579 L716,313.6797 " fill="none" style="stroke:#181818;stroke-width:1.0;stroke-dasharray:2.0,2.0;"/><text fill="#000000" font-family="FG Virgil" font-size="13" font-weight="bold" lengthAdjust="spacing" textLength="7" x="619" y="308.8232">7</text><text fill="#000000" font-family="FG Virgil" font-size="13" lengthAdjust="spacing" textLength="36" x="630" y="308.8232">create</text><polygon fill="#181818" points="623,340.0313,623.026,340.0963,620.9487,340.703,619.0239,341.6911,617.0495,342.5549,614.9117,343.0105,613,344.0313,612.9904,344.0072,614.9472,344.6993,616.9525,345.5126,618.9916,346.4102,620.9144,347.0173,623,348.0313,623.1305,348.1617,622.0514,347.0827,621.3534,346.3846,620.7018,345.7331,619.7798,344.811,619,344.0313,619.0161,344.0473,619.7925,343.2237,620.6421,342.4733,621.4564,341.6876,622.338,340.9693,623,340.0313" style="stroke:#181818;stroke-width:1.0;"/><path d="M617,344.0313 L617,344.3115 L626.9091,343.4788 L636.8182,344.289 L646.7273,344.5642 L656.6364,343.0801 L666.5455,343.9276 L676.4545,343.4626 L686.3636,343.5199 L696.2727,343.9404 L706.1818,343.1094 L716.0909,344.7694 L726,344.0313 " fill="none" style="stroke:#181818;stroke-width:1.0;stroke-dasharray:2.0,2.0;"/><text fill="#000000" font-family="FG Virgil" font-size="13" font-weight="bold" lengthAdjust="spacing" textLength="7" x="629" y="339.1748">8</text><text fill="#000000" font-family="FG Virgil" font-size="13" lengthAdjust="spacing" textLength="4" x="640" y="339.1748"> </text><polygon fill="#181818" points="301,370.3828,301.026,370.4479,298.9487,371.0546,297.0239,372.0426,295.0495,372.9065,292.9117,373.362,291,374.3828,290.9904,374.3588,292.9472,375.0508,294.9525,375.8641,296.9916,376.7617,298.9144,377.3688,301,378.3828,301.1305,378.5133,300.0514,377.4343,299.3534,376.7362,298.7018,376.0846,297.7798,375.1626,297,374.3828,297.0161,374.3989,297.7925,373.5753,298.6421,372.8249,299.4564,372.0392,300.338,371.3209,301,370.3828" style="stroke:#181818;stroke-width:1.0;"/><path d="M295,374.3828 L295,374.6631 L305.0323,373.8304 L315.0645,374.6405 L325.0968,374.9157 L335.129,373.4316 L345.1613,374.2792 L355.1935,373.8142 L365.2258,373.8715 L375.2581,374.2919 L385.2903,373.461 L395.3226,375.121 L405.3548,373.5424 L415.3871,374.1191 L425.4194,374.9587 L435.4516,374.2684 L445.4839,374.4738 L455.5161,374.3402 L465.5484,374.6208 L475.5806,374.7017 L485.6129,375.1637 L495.6452,375.2776 L505.6774,375.2885 L515.7097,374.7223 L525.7419,375.0009 L535.7742,375.3191 L545.8065,373.4212 L555.8387,375.2875 L565.871,373.9875 L575.9032,375.0946 L585.9355,373.7228 L595.9677,374.2915 L606,374.3828 " fill="none" style="stroke:#181818;stroke-width:1.0;stroke-dasharray:2.0,2.0;"/><text fill="#000000" font-family="FG Virgil" font-size="13" font-weight="bold" lengthAdjust="spacing" textLength="7" x="307" y="369.5264">9</text><text fill="#000000" font-family="FG Virgil" font-size="13" lengthAdjust="spacing" textLength="4" x="318" y="369.5264"> </text><polygon fill="#181818" points="715,400.7344,715.026,400.7994,716.9487,401.4061,719.0239,402.3942,721.0495,403.2581,722.9117,403.7136,725,404.7344,724.9904,404.7103,722.9472,405.4024,720.9525,406.2157,718.9916,407.1133,716.9144,407.7204,715,408.7344,715.1305,408.8649,715.6514,407.7858,716.5534,407.0878,717.5018,406.4362,718.1798,405.5142,719,404.7344,719.0161,404.7505,718.1925,403.9268,717.4421,403.1765,716.6564,402.3907,715.938,401.6724,715,400.7344" style="stroke:#181818;stroke-width:1.0;"/><path d="M290,404.7344 L290,405.0146 L300.0233,404.1819 L310.0465,404.9921 L320.0698,405.2673 L330.093,403.7832 L340.1163,404.6308 L350.1395,404.1657 L360.1628,404.223 L370.186,404.6435 L380.2093,403.8125 L390.2326,405.4726 L400.2558,403.894 L410.2791,404.4707 L420.3023,405.3103 L430.3256,404.62 L440.3488,404.8254 L450.3721,404.6918 L460.3953,404.9724 L470.4186,405.0532 L480.4419,405.5153 L490.4651,405.6291 L500.4884,405.6401 L510.5116,405.0739 L520.5349,405.3525 L530.5581,405.6707 L540.5814,403.7728 L550.6047,405.6391 L560.6279,404.339 L570.6512,405.4461 L580.6744,404.0743 L590.6977,404.643 L600.7209,405.7232 L610.7442,404.6694 L620.7674,404.8748 L630.7907,405.1859 L640.814,405.2894 L650.8372,404.7292 L660.8605,405.1173 L670.8837,403.9712 L680.907,405.1136 L690.9302,405.4653 L700.9535,405.3271 L710.9767,405.5517 L721,404.7344 " fill="none" style="stroke:#181818;stroke-width:1.0;"/><text fill="#000000" font-family="FG Virgil" font-size="13" font-weight="bold" lengthAdjust="spacing" textLength="14" x="297" y="399.8779">10</text><text fill="#000000" font-family="FG Virgil" font-size="13" lengthAdjust="spacing" textLength="93" x="315" y="399.8779">activeProducts()</text><polygon fill="#181818" points="851.5,431.0859,851.526,431.151,853.4487,431.7577,855.5239,432.7458,857.5495,433.6096,859.4117,434.0651,861.5,435.0859,861.4904,435.0619,859.4472,435.7539,857.4525,436.5672,855.4916,437.4648,853.4144,438.072,851.5,439.0859,851.6305,439.2164,852.1514,438.1374,853.0534,437.4393,854.0018,436.7877,854.6798,435.8657,855.5,435.0859,855.5161,435.102,854.6925,434.2784,853.9421,433.528,853.1564,432.7423,852.438,432.024,851.5,431.0859" style="stroke:#181818;stroke-width:1.0;"/><path d="M732,435.0859 L732,435.3662 L741.6538,434.5335 L751.3077,435.3437 L760.9615,435.6188 L770.6154,434.1347 L780.2692,434.9823 L789.9231,434.5173 L799.5769,434.5746 L809.2308,434.9951 L818.8846,434.1641 L828.5385,435.8241 L838.1923,434.2456 L847.8462,434.8222 L857.5,435.0859 " fill="none" style="stroke:#181818;stroke-width:1.0;stroke-dasharray:2.0,2.0;"/><text fill="#000000" font-family="FG Virgil" font-size="13" font-weight="bold" lengthAdjust="spacing" textLength="14" x="739" y="430.2295">11</text><text fill="#000000" font-family="FG Virgil" font-size="13" lengthAdjust="spacing" textLength="44" x="757" y="430.2295">create()</text><polygon fill="#181818" points="846.5,461.4375,846.526,461.5025,848.4487,462.1093,850.5239,463.0973,852.5495,463.9612,854.4117,464.4167,856.5,465.4375,856.4904,465.4134,854.4472,466.1055,852.4525,466.9188,850.4916,467.8164,848.4144,468.4235,846.5,469.4375,846.6305,469.568,847.1514,468.4889,848.0534,467.7909,849.0018,467.1393,849.6798,466.2173,850.5,465.4375,850.5161,465.4536,849.6925,464.63,848.9421,463.8796,848.1564,463.0939,847.438,462.3755,846.5,461.4375" style="stroke:#181818;stroke-width:1.0;"/><path d="M290,465.4375 L290,465.7177 L300.0446,464.8851 L310.0893,465.6952 L320.1339,465.9704 L330.1786,464.4863 L340.2232,465.3339 L350.2679,464.8688 L360.3125,464.9262 L370.3571,465.3466 L380.4018,464.5157 L390.4464,466.1757 L400.4911,464.5971 L410.5357,465.1738 L420.5804,466.0134 L430.625,465.3231 L440.6696,465.5285 L450.7143,465.3949 L460.7589,465.6755 L470.8036,465.7563 L480.8482,466.2184 L490.8929,466.3322 L500.9375,466.3432 L510.9821,465.777 L521.0268,466.0556 L531.0714,466.3738 L541.1161,464.4759 L551.1607,466.3422 L561.2054,465.0422 L571.25,466.1492 L581.2946,464.7775 L591.3393,465.3462 L601.3839,466.4263 L611.4286,465.3725 L621.4732,465.5779 L631.5179,465.889 L641.5625,465.9925 L651.6071,465.4323 L661.6518,465.8205 L671.6964,464.6743 L681.7411,465.8167 L691.7857,466.1684 L701.8304,466.0302 L711.875,466.2549 L721.9196,464.7934 L731.9643,464.5679 L742.0089,464.609 L752.0536,465.359 L762.0982,465.1755 L772.1429,466.346 L782.1875,465.2046 L792.2321,464.9801 L802.2768,465.7419 L812.3214,464.5484 L822.3661,464.7453 L832.4107,466.3028 L842.4554,466.0184 L852.5,465.4375 " fill="none" style="stroke:#181818;stroke-width:1.0;"/><text fill="#000000" font-family="FG Virgil" font-size="13" font-weight="bold" lengthAdjust="spacing" textLength="14" x="297" y="460.5811">12</text><text fill="#000000" font-family="FG Virgil" font-size="13" lengthAdjust="spacing" textLength="126" x="315" y="460.5811">list = activeProducts()</text><polygon fill="#181818" points="301,491.7891,301.026,491.8541,298.9487,492.4608,297.0239,493.4489,295.0495,494.3128,292.9117,494.7683,291,495.7891,290.9904,495.765,292.9472,496.4571,294.9525,497.2704,296.9916,498.168,298.9144,498.7751,301,499.7891,301.1305,499.9196,300.0514,498.8405,299.3534,498.1424,298.7018,497.4909,297.7798,496.5688,297,495.7891,297.0161,495.8051,297.7925,494.9815,298.6421,494.2311,299.4564,493.4454,300.338,492.7271,301,491.7891" style="stroke:#181818;stroke-width:1.0;"/><path d="M295,495.7891 L295,496.0693 L304.9561,495.2366 L314.9123,496.0468 L324.8684,496.322 L334.8246,494.8379 L344.7807,495.6854 L354.7368,495.2204 L364.693,495.2777 L374.6491,495.6982 L384.6053,494.8672 L394.5614,496.5273 L404.5175,494.9487 L414.4737,495.5254 L424.4298,496.365 L434.386,495.6747 L444.3421,495.88 L454.2982,495.7465 L464.2544,496.0271 L474.2105,496.1079 L484.1667,496.57 L494.1228,496.6838 L504.0789,496.6947 L514.0351,496.1286 L523.9912,496.4072 L533.9474,496.7254 L543.9035,494.8275 L553.8596,496.6937 L563.8158,495.3937 L573.7719,496.5008 L583.7281,495.129 L593.6842,495.6977 L603.6404,496.7779 L613.5965,495.7241 L623.5526,495.9295 L633.5088,496.2406 L643.4649,496.344 L653.4211,495.7839 L663.3772,496.172 L673.3333,495.0258 L683.2895,496.1682 L693.2456,496.52 L703.2018,496.3818 L713.1579,496.6064 L723.114,495.145 L733.0702,494.9195 L743.0263,494.9605 L752.9825,495.7106 L762.9386,495.527 L772.8947,496.6976 L782.8509,495.5562 L792.807,495.3317 L802.7632,496.0934 L812.7193,494.8999 L822.6754,495.0969 L832.6316,496.6543 L842.5877,496.37 L852.5439,496.7684 L862.5,495.7891 " fill="none" style="stroke:#181818;stroke-width:1.0;stroke-dasharray:2.0,2.0;"/><text fill="#000000" font-family="FG Virgil" font-size="13" font-weight="bold" lengthAdjust="spacing" textLength="14" x="307" y="490.9326">13</text><text fill="#000000" font-family="FG Virgil" font-size="13" lengthAdjust="spacing" textLength="4" x="325" y="490.9326"> </text><polygon fill="#181818" points="159.5,522.1406,159.526,522.2057,157.4487,522.8124,155.5239,523.8004,153.5495,524.6643,151.4117,525.1198,149.5,526.1406,149.4904,526.1166,151.4472,526.8086,153.4525,527.6219,155.4916,528.5195,157.4144,529.1267,159.5,530.1406,159.6305,530.2711,158.5514,529.1921,157.8534,528.494,157.2018,527.8424,156.2798,526.9204,155.5,526.1406,155.5161,526.1567,156.2925,525.3331,157.1421,524.5827,157.9564,523.797,158.838,523.0787,159.5,522.1406" style="stroke:#181818;stroke-width:1.0;"/><path d="M153.5,526.1406 L153.5,526.4209 L163.5385,525.5882 L173.5769,526.3983 L183.6154,526.6735 L193.6538,525.1894 L203.6923,526.037 L213.7308,525.572 L223.7692,525.6293 L233.8077,526.0497 L243.8462,525.2188 L253.8846,526.8788 L263.9231,525.3003 L273.9615,525.8769 L284,526.1406 " fill="none" style="stroke:#181818;stroke-width:1.0;stroke-dasharray:2.0,2.0;"/><text fill="#000000" font-family="FG Virgil" font-size="13" font-weight="bold" lengthAdjust="spacing" textLength="14" x="165.5" y="521.2842">14</text><text fill="#000000" font-family="FG Virgil" font-size="13" lengthAdjust="spacing" textLength="17" x="183.5" y="521.2842">list</text><polygon fill="#181818" points="53,552.4922,53.026,552.5572,50.9487,553.164,49.0239,554.152,47.0495,555.0159,44.9117,555.4714,43,556.4922,42.9904,556.4681,44.9472,557.1602,46.9525,557.9735,48.9916,558.8711,50.9144,559.4782,53,560.4922,53.1305,560.6227,52.0514,559.5436,51.3534,558.8456,50.7018,558.194,49.7798,557.272,49,556.4922,49.0161,556.5083,49.7925,555.6847,50.6421,554.9343,51.4564,554.1486,52.338,553.4302,53,552.4922" style="stroke:#181818;stroke-width:1.0;"/><path d="M47,556.4922 L47,556.7724 L56.55,555.9398 L66.1,556.7499 L75.65,557.0251 L85.2,555.541 L94.75,556.3886 L104.3,555.9235 L113.85,555.9809 L123.4,556.4013 L132.95,555.5704 L142.5,556.4922 " fill="none" style="stroke:#181818;stroke-width:1.0;stroke-dasharray:2.0,2.0;"/><text fill="#000000" font-family="FG Virgil" font-size="13" font-weight="bold" lengthAdjust="spacing" textLength="14" x="59" y="551.6357">15</text><text fill="#000000" font-family="FG Virgil" font-size="13" lengthAdjust="spacing" textLength="4" x="77" y="551.6357"> </text><!--MD5=[540ff4f9813bcc0bd021077441370ae2]
@startuml
'https://plantuml.com/sequence-diagram
skinparam handwritten true
skinparam monochrome true
skinparam packageStyle rect
skinparam defaultFontName FG Virgil
skinparam shadowing false

autonumber

actor SalesClerk as Actor
participant ListProductsUI as UI <<presentation>>
participant ListProductsController as Controller <<application>>
participant PersistenceContext as Persistence <<persistence>>
participant AppSettings as AppSettings
participant RepositoryFactory as Factory <<factory>>
database ProductRepository as Repository <<repository>>

Actor -> UI : show()
UI -> UI : doShow()

activate UI
UI -> Controller : activeProducts()

activate Controller
Controller -> Persistence : repositories()

Persistence -> AppSettings : instance()
Persistence -> AppSettings : getRepositoryFactory()

activate AppSettings

AppSettings - -> Factory : create
activate Factory
Factory - -> AppSettings
deactivate Factory

AppSettings - -> Controller

deactivate AppSettings
activate Factory
Controller -> Factory : activeProducts()


activate Factory
Factory - -> Repository : create()
deactivate Factory
Controller -> Repository : list = activeProducts()
activate Repository
Repository - -> Controller
deactivate Repository

Controller - -> UI : list
deactivate Controller
UI - -> Actor
deactivate UI



@enduml

@startuml
skinparam handwritten true
skinparam monochrome true
skinparam packageStyle rect
skinparam defaultFontName FG Virgil
skinparam shadowing false

autonumber

actor SalesClerk as Actor
participant ListProductsUI as UI <<presentation>>
participant ListProductsController as Controller <<application>>
participant PersistenceContext as Persistence <<persistence>>
participant AppSettings as AppSettings
participant RepositoryFactory as Factory <<factory>>
database ProductRepository as Repository <<repository>>

Actor -> UI : show()
UI -> UI : doShow()

activate UI
UI -> Controller : activeProducts()

activate Controller
Controller -> Persistence : repositories()

Persistence -> AppSettings : instance()
Persistence -> AppSettings : getRepositoryFactory()

activate AppSettings

AppSettings - -> Factory : create
activate Factory
Factory - -> AppSettings
deactivate Factory

AppSettings - -> Controller

deactivate AppSettings
activate Factory
Controller -> Factory : activeProducts()


activate Factory
Factory - -> Repository : create()
deactivate Factory
Controller -> Repository : list = activeProducts()
activate Repository
Repository - -> Controller
deactivate Repository

Controller - -> UI : list
deactivate Controller
UI - -> Actor
deactivate UI



@enduml

PlantUML version 1.2022.4(Sat Apr 09 14:29:17 BST 2022)
(GPL source distribution)
Java Runtime: OpenJDK Runtime Environment
JVM: OpenJDK 64-Bit Server VM
Default Encoding: Cp1252
Language: pt
Country: PT
--></g></svg>